<?xml version="1.0" encoding="UTF-8"?>
<svg width="274px" height="307px" viewBox="0 0 274 307" version="1.1" xmlns="http://www.w3.org/2000/svg" xmlns:xlink="http://www.w3.org/1999/xlink">
    <!-- Generator: sketchtool 47.1 (45422) - http://www.bohemiancoding.com/sketch -->
    <title>1A1D8805-8324-4FC2-8CC0-79B666FAEC70</title>
    <desc>Created with sketchtool.</desc>
    <defs>
        <linearGradient x1="49.9998913%" y1="100.000047%" x2="49.9998913%" y2="0.000164641188%" id="linearGradient-1">
            <stop stop-color="#00A79D" offset="0%"></stop>
            <stop stop-color="#7269B0" offset="35.55%"></stop>
            <stop stop-color="#7869AF" offset="36.45%"></stop>
            <stop stop-color="#A165AA" offset="43.83%"></stop>
            <stop stop-color="#C060A5" offset="50.76%"></stop>
            <stop stop-color="#D65BA2" offset="57.04%"></stop>
            <stop stop-color="#E358A0" offset="62.45%"></stop>
            <stop stop-color="#E8569F" offset="66.38%"></stop>
            <stop stop-color="#E9619C" offset="69.66%"></stop>
            <stop stop-color="#EB7897" offset="75.77%"></stop>
            <stop stop-color="#EE9888" offset="84.04%"></stop>
            <stop stop-color="#F5C364" offset="94.04%"></stop>
            <stop stop-color="#F9DE31" offset="100%"></stop>
        </linearGradient>
        <linearGradient x1="49.9999109%" y1="100.000047%" x2="49.9999109%" y2="0.000164641188%" id="linearGradient-2">
            <stop stop-color="#00A79D" offset="0%"></stop>
            <stop stop-color="#7269B0" offset="35.55%"></stop>
            <stop stop-color="#7869AF" offset="36.45%"></stop>
            <stop stop-color="#A165AA" offset="43.83%"></stop>
            <stop stop-color="#C060A5" offset="50.76%"></stop>
            <stop stop-color="#D65BA2" offset="57.04%"></stop>
            <stop stop-color="#E358A0" offset="62.45%"></stop>
            <stop stop-color="#E8569F" offset="66.38%"></stop>
            <stop stop-color="#E9649B" offset="70.15%"></stop>
            <stop stop-color="#EC8393" offset="77.74%"></stop>
            <stop stop-color="#F1AD7A" offset="88.46%"></stop>
            <stop stop-color="#F9DE31" offset="100%"></stop>
        </linearGradient>
    </defs>
    <g id="404-error-pages" stroke="none" stroke-width="1" fill="none" fill-rule="evenodd">
        <g id="Error-404-Copy" transform="translate(-618.000000, -194.000000)">
            <g id="Cato_oops-expression" transform="translate(622.000000, 194.000000)">
                <path d="M63.2874641,190.839832 L63.2874641,137.641301 C63.2874641,137.641301 52.1303157,132.769832 52.1488432,120.631166 C52.1673707,108.664386 63.2874641,102.671513 63.2874641,102.671513 L63.2874641,85.7479132 C63.2874641,85.7479132 63.2653506,49 111.698061,49 C154.728507,49 158.116053,87.3280734 158.116053,87.3280734 L158.116053,102.671513 C158.116053,102.671513 166.543083,107.480155 166.608228,118.549575 C166.681741,131.107878 158.116053,137.641301 158.116053,137.641301 L158.116053,190.839832 L158.116053,209.031235 C158.116053,209.031235 160.107462,222.070817 176.443947,222.070817 C192.780431,222.070817 208.319635,222.070817 208.319635,222.070817 C208.319635,222.070817 221.070149,220.09532 221.468192,206.660402 C221.866235,193.225483 207.921592,190.839832 207.921592,190.839832 L196.366401,190.839832 C196.366401,190.839832 188.39718,190.85465 187.601095,181.766654 C186.803814,172.678658 193.975754,172.283322 193.975754,172.283322 L214.694295,171.887985 C214.694295,171.887985 239,176.234908 239,205.870322 C239,232.897819 216.512979,237.788848 204.733665,239.456729 C167.873478,244.677896 127.834926,217.395534 127.834926,231.653132 L127.834926,261.5849 C127.834926,261.5849 125.145449,270.17917 119.467663,270.17917 C113.789877,270.17917 111.698061,264.844795 111.698061,264.844795 C111.698061,264.844795 110.551746,243.880111 106.3717,238.886543 C103.645765,235.629611 97.5878659,234.452493 94.9635335,235.80209 C90.6000055,238.046083 87.4927624,245.87813 80.619653,249.138026 L80.3208221,276.106252 C80.3208221,276.106252 73.7465436,298.332813 55.5178621,301 L38.7833349,301 C38.7833349,301 31.3125638,298.925521 31.3125638,292.109376 C31.3125638,285.293231 37.8868424,284.404168 37.8868424,284.404168 L53.1272154,284.404168 C53.1272154,284.404168 62.3909715,282.922398 64.4827874,273.735419 L64.7816183,253.583338 L64.4827874,236.246621 L64.4827874,216.835425 C64.4827874,216.835425 58.2073397,222.021622 47.0011831,222.021622 C35.7950265,222.021622 24.8877007,216.094539 18.1640067,201.128655 C18.1640067,201.128655 16.6698525,196.386989 16.3710216,194.016156 L16.1379336,162.423619 C14.6862134,167.07875 24.9038376,145.912545 36.887552,146.249203 C49.3487982,146.598308 79.1254988,146.174522 79.1254988,146.174522 C79.1254988,146.174522 87.2417445,145.414077 87.2417445,153.415639 C87.2417445,161.417201 80.1994968,163.191177 80.1994968,163.191177 L62.701158,163.73469 C62.701158,163.73469 49.3266847,162.361385 40.2290785,166.374613 C36.7680197,167.901429 32.3584718,172.234127 32.3584718,172.234127 L32.3584718,192.682562 C32.3584718,192.682562 35.4961956,205.42579 47.8976756,205.870322 C60.2991556,206.314853 63.2874641,190.839832 63.2874641,190.839832 Z" id="Shape" fill="url(#linearGradient-1)" fill-rule="nonzero" opacity="0.7"></path>
                <path d="M62.9039134,190.839832 C62.3042485,185.216809 62.2146572,174.759657 62.3090267,164.59471 C62.3496415,160.260827 86.0937419,169.534341 86.8427257,153.416232 C87.4328342,140.688414 62.6435011,146.309067 62.7080069,144.024769 C62.8167111,140.110524 62.9039134,137.641301 62.9039134,137.641301 C62.9039134,137.641301 51.7539695,132.769832 51.7724851,120.631166 C51.7910006,108.664386 62.9039134,102.671513 62.9039134,102.671513 L62.9039134,85.7479132 C62.9039134,85.7479132 62.8818142,49 111.28325,49 C154.28591,49 157.671269,87.3280734 157.671269,87.3280734 L157.671269,102.671513 C157.671269,102.671513 166.092857,107.480155 166.15796,118.549575 C166.231425,131.107878 157.671269,137.641301 157.671269,137.641301 L157.671269,190.839832 C157.671269,190.839832 157.539271,204.485162 157.671269,209.031235 C158.337231,231.953042 191.230999,234.528952 204.258778,239.456729 C211.147159,242.062274 220.584713,249.730734 220.982499,263.560396 L220.982499,277.390058 C220.982499,277.390058 221.779265,284.502558 212.620638,284.897894 C203.462012,285.293231 203.860992,278.180731 203.860992,278.180731 L204.258778,263.560396 C204.258778,263.560396 202.268655,253.286984 192.313263,253.286984 C182.359065,253.286984 169.218998,253.286984 169.218998,253.286984 C169.218998,253.286984 162.321061,252.453636 158.86582,250.520814 L158.766672,271.66094 C158.766672,271.66094 161.454413,283.348555 171.906739,284.913305 L184.150892,284.913305 C184.150892,284.913305 191.318201,284.700522 191.616839,292.702084 C191.915477,300.703646 186.838633,301 186.838633,301 L165.038068,301 C165.038068,301 143.237503,298.629167 143.237503,278.180731 C143.237503,257.732296 143.237503,242.618235 143.237503,242.618235 C143.237503,242.618235 132.86342,229.950873 119.250908,228.986537 C109.291932,228.281214 112.219181,251.360682 111.28325,264.844795 C110.816777,271.570849 111.28325,291.813022 111.28325,291.813022 C111.28325,291.813022 111.880526,301 103.518665,301 C95.1568043,301 94.2608907,292.40573 94.2608907,292.40573 L94.5595285,235.80209 C94.5595285,235.80209 95.0469056,232.671997 87.9894952,235.505735 C84.177084,237.036108 76.0822057,251.360682 64.3971028,253.583338 C55.8184311,255.215064 29.4564709,253.286984 29.4564709,253.286984 C29.4564709,253.286984 18.4068694,254.4724 16.6150421,264.548441 L16.6150421,278.77344 C16.6150421,278.77344 16.0177664,285.737762 7.50658684,285.737762 C-1.00459271,285.737762 0.04063987,278.921617 0.04063987,278.921617 L2.51185203e-05,259.658598 C2.51185203e-05,259.658598 4.22157017,236.246621 24.8275838,236.098444 L64.0984649,236.246621 C64.0984649,236.246621 67.7932127,223.465459 67.6821194,218.613549 C67.5328005,212.109762 63.9563133,200.704276 62.9039134,190.839832 Z" id="Shape" fill="url(#linearGradient-2)" fill-rule="nonzero" opacity="0.7"></path>
                <g id="Group" transform="translate(28.000000, 49.000000)" fill-rule="nonzero" fill="#FFFFFF" opacity="0.3">
                    <g transform="translate(0.000000, 115.326024)" id="Shape">
                        <path d="M34.93625,0.472598915 L34.7284375,28.3410733 C34.7284375,28.3410733 22.9834688,61.5478348 4.13665625,29.594798 C4.13665625,29.594798 2.4379375,48.532639 19.2321563,48.8405714 C36.0275625,49.1485037 40.9770625,33.2745304 42.0380938,24.8390856 C42.510125,21.0814784 42.757125,10.7782276 42.8847813,0.507077829 L34.93625,0.472598915 Z"></path>
                        <path d="M123.591437,66.4206565 C123.591437,66.4206565 137.456687,76.0545408 162.382312,75.9344591 C187.307937,75.8143773 190.680437,72.7736938 197.900437,67.1601698 C205.120438,61.5466458 208.918656,48.8405714 208.918656,48.8405714 C208.918656,48.8405714 197.699156,68.1374687 170.386656,70.8613029 C143.074156,73.5851372 123.591437,66.4206565 123.591437,66.4206565 Z"></path>
                        <path d="M130.258656,87.6043827 L130.160094,108.807132 C130.160094,108.807132 132.536281,118.68653 141.144469,121.623777 L144.161906,122.099348 C144.161906,122.099348 132.831969,126.047184 125.410094,112.820359 C125.410094,112.820359 124.371031,109.699422 123.628844,102.863086 C122.886656,96.0267493 122.491219,83.6416854 122.491219,83.6416854 L130.258656,87.6043827 Z"></path>
                        <path d="M164.696156,91.0837808 C164.696156,91.0837808 136.123125,92.9610982 122.491219,83.682109 C108.859313,74.4031197 106.871438,70.8618974 106.871438,70.8618974 C106.871438,70.8618974 117.789906,77.5002774 132.435344,82.0574387 C147.081969,86.6146001 157.269531,84.7140985 163.113219,86.2180926 C163.113219,86.2180926 175.932281,86.7762943 176.107437,99.0733775 C176.282594,111.370461 174.919937,99.0733775 174.919937,99.0733775 C174.919937,99.0733775 173.602406,91.7882207 164.696156,91.0837808"></path>
                        <path d="M82.9569687,56.4942959 C82.9569687,56.4942959 79.0975938,119.210253 75.9804063,124.411813 C72.8632188,129.613373 70.4882188,131.396765 66.3319688,127.978597 C66.3319688,127.978597 66.3319688,138.827566 75.2382188,138.233102 C84.1444687,137.638638 82.9569687,122.777037 82.9569687,122.777037 L82.9569687,56.4942959 Z"></path>
                        <path d="M98.3944687,49.6579594 L98.9882187,97.3755882 C98.9882187,97.3755882 96.7616562,106.132044 90.6757187,107.320972 C84.5897813,108.5099 86.385875,106.079731 86.385875,106.079731 C86.385875,106.079731 91.7147812,103.902803 93.0507187,94.8372267 C94.3866562,85.7716501 98.3944687,49.6579594 98.3944687,49.6579594 Z"></path>
                        <path d="M0.12646875,90.4827776 C0.12646875,90.4827776 39.0194688,87.1091942 49.5585313,79.5297776 C60.0975938,71.9503611 62.1757188,64.5290719 66.3319688,46.4674709 L66.3319688,71.9503611 C66.3319688,71.9503611 59.6119063,84.1327127 47.9637188,88.4467383 C36.3155313,92.7607638 0.12646875,90.4827776 0.12646875,90.4827776 Z"></path>
                        <path d="M52.0493125,89.1910073 L51.6146875,113.801819 C51.6146875,113.801819 47.2138125,129.901094 34.8044375,135.701874 C34.8044375,135.701874 43.32475,123.222885 44.6606875,110.144676 C45.996625,97.0664669 45.2544375,89.1910073 45.2544375,89.1910073 L52.0825625,87.6043827 L52.0493125,89.1910073 Z"></path>
                        <polygon points="50.5975937 33.3101982 50.5975937 63.4792484 44.0811875 71.3356852 44.0811875 44.5764808"></polygon>
                    </g>
                    <path d="M84.1444688,0.218168304 C36.0507187,0.218168304 34.8632187,37.6694031 34.8632187,37.6694031 L34.8632187,54.6431349 L47.1188125,54.6431349 C47.1188125,54.6431349 41.7899062,41.2361873 52.7445937,24.6470737 C67.2214063,2.72086193 94.0131875,0.218168304 84.1444688,0.218168304 Z" id="Shape"></path>
                </g>
                <g id="Group" opacity="0.6" transform="translate(16.000000, 176.000000)" fill-rule="nonzero" fill="#FFFFFF">
                    <g>
                        <g transform="translate(0.596257, 0.000000)">
                            <ellipse id="Oval" cx="3.31399465" cy="5.97117857" rx="2.88647861" ry="5.81716837"></ellipse>
                            <path d="M8.20806952,26.2002398 C9.4458984,29.25 9.22110963,32.0544184 7.70840642,32.4627245 C6.19570321,32.8710306 3.96570321,30.7298112 2.72727807,27.6794541 C1.48885294,24.6290969 1.71423797,21.8252755 3.22694118,21.4169694 C4.73964439,21.0086633 6.96964439,23.1498827 8.20806952,26.2002398 Z" id="Shape"></path>
                        </g>
                        <ellipse id="Oval" transform="translate(19.851045, 41.796757) rotate(22.885625) translate(-19.851045, -41.796757) " cx="19.8510451" cy="41.7967566" rx="5.61147519" ry="2.92326312"></ellipse>
                        <ellipse id="Oval" transform="translate(39.686412, 43.852234) rotate(-14.614365) translate(-39.686412, -43.852234) " cx="39.6864119" cy="43.8522339" rx="5.61110525" ry="2.92247349"></ellipse>
                        <ellipse id="Oval" transform="translate(23.984895, 76.998255) rotate(-3.675339) translate(-23.984895, -76.998255) " cx="23.984895" cy="76.9982547" rx="5.61172441" ry="2.92248543"></ellipse>
                        <path d="M220.148104,30.3000153 C221.759786,30.3441888 222.998807,32.8937143 222.914139,35.9954082 C222.830067,39.0965051 221.453906,41.5755918 219.84461,41.5320153 C218.231735,41.4872449 216.993906,38.9371224 217.077382,35.8354286 C217.162051,32.7349286 218.537615,30.2564388 220.148104,30.3000153 Z" id="Shape"></path>
                        <path d="M131.398874,76.8081122 C133.010556,76.8522857 134.249578,79.4018112 134.164909,82.5035051 C134.080837,85.604602 132.704676,88.0836888 131.09538,88.0401122 C129.482505,87.9953418 128.244676,85.4452194 128.328152,82.3435255 C128.412821,79.2430255 129.788385,76.7645357 131.398874,76.8081122 Z" id="Shape"></path>
                        <path d="M131.398874,97.3523571 C133.010556,97.3965306 134.249578,99.9460561 134.164909,103.04775 C134.080837,106.148847 132.704676,108.627934 131.09538,108.584357 C129.482505,108.539587 128.244676,105.989464 128.328152,102.88777 C128.412821,99.7872704 129.788385,97.3087806 131.398874,97.3523571 Z" id="Shape"></path>
                        <ellipse id="Oval" transform="translate(216.467209, 14.163276) rotate(-119.720720) translate(-216.467209, -14.163276) " cx="216.467209" cy="14.1632764" rx="5.61227626" ry="2.92277282"></ellipse>
                        <ellipse id="Oval" transform="translate(6.798190, 80.321661) rotate(-23.696632) translate(-6.798190, -80.321661) " cx="6.79819042" cy="80.3216612" rx="5.61205237" ry="2.92325318"></ellipse>
                    </g>
                    <ellipse id="Oval" transform="translate(45.179758, 77.000235) rotate(-3.675339) translate(-45.179758, -77.000235) " cx="45.1797575" cy="77.0002346" rx="5.61112818" ry="2.92248543"></ellipse>
                    <ellipse id="Oval" transform="translate(65.407240, 72.690110) rotate(-31.851116) translate(-65.407240, -72.690110) " cx="65.40724" cy="72.69011" rx="5.61122478" ry="2.92253574"></ellipse>
                    <ellipse id="Oval" transform="translate(61.826434, 91.893441) rotate(-87.873814) translate(-61.826434, -91.893441) " cx="61.8264338" cy="91.8934409" rx="5.61130685" ry="2.92257849"></ellipse>
                    <ellipse id="Oval" transform="translate(58.564192, 110.097894) rotate(-63.768060) translate(-58.564192, -110.097894) " cx="58.564192" cy="110.097894" rx="5.6112959" ry="2.92197586"></ellipse>
                    <ellipse id="Oval" transform="translate(143.386716, 73.629472) rotate(26.659857) translate(-143.386716, -73.629472) " cx="143.386716" cy="73.6294717" rx="5.61205597" ry="2.92206115"></ellipse>
                    <ellipse id="Oval" transform="translate(164.886125, 77.062739) rotate(0.819356) translate(-164.886125, -77.062739) " cx="164.886125" cy="77.0627386" rx="5.61198054" ry="2.92202188"></ellipse>
                    <path d="M214.543888,52.172449 C215.305307,53.5949541 213.707936,55.936148 210.975888,57.4016327 C208.246225,58.8671173 205.41162,58.9011429 204.652586,57.4798316 C203.891166,56.0567296 205.488537,53.7149388 208.219393,52.250051 C210.950249,50.7839694 213.782468,50.7505408 214.543888,52.172449 Z" id="Shape"></path>
                    <ellipse id="Oval" transform="translate(187.836007, 62.987684) rotate(1.604504) translate(-187.836007, -62.987684) " cx="187.836007" cy="62.9876842" rx="5.61192347" ry="2.92199216"></ellipse>
                    <ellipse id="Oval" transform="translate(164.880738, 62.389058) rotate(1.604504) translate(-164.880738, -62.389058) " cx="164.880738" cy="62.3890576" rx="5.61132722" ry="2.92199216"></ellipse>
                    <ellipse id="Oval" transform="translate(185.674175, 81.166504) rotate(33.856929) translate(-185.674175, -81.166504) " cx="185.674175" cy="81.1665041" rx="5.61116002" ry="2.92250202"></ellipse>
                </g>
                <g id="Group" transform="translate(64.000000, 189.000000)" stroke="#353342" stroke-width="8" stroke-linecap="round" stroke-linejoin="round">
                    <path d="M0.428377119,29.4935267 C0.428377119,29.4935267 11.9294364,21.4553588 15.066089,6.5698626 L15.066089,39.1690992 C15.066089,39.1690992 12.2281653,47.6538321 0.428377119,48.9935267" id="Shape"></path>
                    <path d="M30.8987161,48.5469618 L30.8987161,0.46680916" id="Shape"></path>
                    <path d="M47.6275297,77.7225344 L47.6275297,0.46680916" id="Shape"></path>
                    <path d="M63.7588856,35.4477252 L63.7588856,0.46680916" id="Shape"></path>
                    <g transform="translate(0.597458, 55.374046)" id="Shape">
                        <path d="M0.129648305,11.0355115 C0.129648305,11.0355115 9.58859746,11.1307786 15.9622754,6.5698626"></path>
                        <path d="M78.9940551,0.0202442748 C78.9940551,0.0202442748 89.9687542,5.68923664 94.6271314,7.9589771"></path>
                    </g>
                    <path d="M77.7991398,0.46680916 L77.7991398,24.5068855 C77.7991398,24.5068855 77.3008602,40.5087939 100.203801,47.6538321 C113.539055,51.8140305 140.631369,52.2183206 140.631369,52.2183206" id="Shape"></path>
                </g>
                <path d="M63.0343997,165.519188 L63.0343997,192.737824 C63.0343997,192.737824 60.0417976,208.227175 47.622499,207.782232 C35.2032004,207.337289 32.0609682,194.582261 32.0609682,194.582261 L32.0609682,183.013747 C32.0609682,183.013747 32.0118895,173.787412 37.4476519,168.775576 C42.0335154,164.546839 52.447172,165.40113 52.447172,165.40113 C52.447172,165.40113 70.7984065,165.914297 76.897928,165.507916 C80.1610613,165.290784 86.9716251,164.197411 87.0542209,156.650587 C87.130233,149.659052 83.9903949,148.104125 75.9193471,147.714948 C68.8149098,147.373232 36.5971544,148.105905 36.5971544,148.105905 C36.5971544,148.105905 26.5216618,148.731198 20.7351664,156.384808 C16.4820803,162.010665 15.7518854,170.703662 15.7518854,170.703662 L16.0511456,195.917089 C16.3504059,198.290118 17.8467069,203.036175 17.8467069,203.036175 C24.5800615,218.015917 35.5030591,223.948488 46.7253169,223.948488 C57.9475747,223.948488 64.232039,218.757489 64.232039,218.757489 L64.232039,238.186659 L24.8793218,238.038345 C4.23036746,238.186659 2.51708645e-05,261.620316 2.51708645e-05,261.620316 L0.040724559,280.901172 C0.040724559,280.901172 -1.00668617,287.723629 7.52222974,287.723629 C16.0511456,287.723629 16.6496661,280.752858 16.6496661,280.752858 L16.6496661,266.514687 C18.4452273,256.429316 29.517855,255.242802 29.517855,255.242802 L64.5312992,255.53943 L64.232039,275.710172 C62.1372176,284.905658 52.8601511,286.388801 52.8601511,286.388801 L37.5978806,286.388801 C37.5978806,286.388801 31.014156,287.278686 31.014156,294.101143 C31.014156,300.9236 38.4956612,303 38.4956612,303 L55.2542328,303 C73.5091054,300.330343 80.09283,278.083201 80.09283,278.083201 L80.3920902,251.090002 C87.275075,247.827088 94.7565801,237.741717 94.7565801,237.741717 L94.4573199,294.397772 C94.4573199,294.397772 95.3551005,303 103.734386,303 C112.113672,303 111.515152,293.804515 111.515152,293.804515 L111.515152,266.811316 C111.515152,266.811316 113.609973,272.15063 119.295917,272.15063 C124.981861,272.15063 127.675203,263.548401 127.675203,263.548401 L127.675203,224.69006 C133.061887,237.148459 143.535994,244.564173 143.535994,244.564173 C143.535994,244.564173 143.535994,259.69223 143.535994,280.159601 C143.535994,300.626972 165.381989,303 165.381989,303 L187.227984,303 C187.227984,303 192.315408,302.703371 192.016147,294.6944 C191.716887,286.685429 184.534642,286.898408 184.534642,286.898408 L172.264974,286.898408 C161.790867,285.331616 159.097525,273.633772 159.097525,273.633772 L159.196879,252.474071 C163.883294,254.675055 172.364328,255.242802 172.364328,255.242802 C172.364328,255.242802 182.739081,255.242802 192.714022,255.242802 C202.690161,255.242802 204.684431,265.525727 204.684431,265.525727 L204.285816,280.159601 C204.285816,280.159601 203.886004,287.278686 213.063716,286.882984 C222.241428,286.487281 221.443002,279.368196 221.443002,279.368196 L221.443002,265.525727 C221.044388,251.683259 204.684431,241.39974 204.684431,241.39974 C204.684431,241.39974 239,237.445088 239,207.782232 C239,178.119376 214.658773,173.768428 214.658773,173.768428 L193.910465,174.16413 C193.910465,174.16413 186.72822,174.559833 187.526646,183.656244 C188.323875,192.752656 196.304546,192.737824 196.304546,192.737824 L207.87634,192.737824 C207.87634,192.737824 221.841018,195.125684 221.442404,208.573044 C221.043789,222.020403 208.274955,223.997729 208.274955,223.997729 C208.274955,223.997729 192.713424,223.997729 176.353467,223.997729 C159.99351,223.997729 157.99924,210.946072 157.99924,210.946072 L157.99924,192.737824 L157.99924,139.490031 C157.99924,139.490031 169.628491,130.311751 165.700402,114.45992 C161.771714,98.6063101 144.656424,102.39663 144.656424,102.39663" id="Shape" stroke="#353342" stroke-width="8" stroke-linecap="round"></path>
                <path d="M74,102.102897 C74,102.102897 58.8588897,99.9023387 53.9916098,115.854187 C49.1249068,131.804863 63.753854,138.681094 63.753854,138.681094 L63.753854,145" id="Shape" stroke="#353342" stroke-width="8" stroke-linecap="round"></path>
                <g id="Group" opacity="0.4" transform="translate(76.000000, 56.000000)" fill-rule="nonzero" fill="#FFFFFF">
                    <ellipse id="Oval" transform="translate(28.510582, 5.921707) rotate(-8.771863) translate(-28.510582, -5.921707) " cx="28.5105816" cy="5.92170653" rx="2.32557693" ry="1.27176983"></ellipse>
                    <ellipse id="Oval" transform="translate(22.525112, 3.289202) rotate(-17.097674) translate(-22.525112, -3.289202) " cx="22.5251117" cy="3.28920241" rx="3.64043397" ry="1.69528154"></ellipse>
                    <ellipse id="Oval" transform="translate(22.445284, 8.370002) rotate(-18.518296) translate(-22.445284, -8.370002) " cx="22.4452842" cy="8.37000209" rx="2.96657179" ry="1.51935139"></ellipse>
                    <ellipse id="Oval" transform="translate(13.665970, 14.148242) rotate(-37.099080) translate(-13.665970, -14.148242) " cx="13.6659703" cy="14.1482424" rx="4.61786713" ry="2.08572636"></ellipse>
                    <ellipse id="Oval" transform="translate(7.200477, 22.614114) rotate(-66.608809) translate(-7.200477, -22.614114) " cx="7.20047669" cy="22.6141141" rx="3.60003285" ry="1.57023124"></ellipse>
                    <ellipse id="Oval" transform="translate(4.592948, 33.730010) rotate(8.343211) translate(-4.592948, -33.730010) " cx="4.59294801" cy="33.7300103" rx="1.92138279" ry="3.74416285"></ellipse>
                    <path d="M10.1042453,10.8526774 C11.0558868,11.3313548 12.896,10.9243871 14.6647547,9.75435484 C16.8148679,8.33180645 18.0414151,6.32209677 17.4056226,5.26729032 C17.2231321,4.96329032 16.9031887,4.77512903 16.4925849,4.69054839 C14.3167358,6.4796129 12.1549245,8.52303226 10.1042453,10.8526774 Z" id="Shape"></path>
                    <path d="M3.90366038,19.57 C4.7640566,19.8715484 6.18069811,18.9319677 7.22007547,17.3108387 C8.21383019,15.7644839 8.53143396,14.1145484 8.04362264,13.3416774 C7.04284906,14.6306129 6.07892453,15.9949355 5.16588679,17.4432258 C4.71492453,18.1597097 4.30139623,18.8663871 3.90366038,19.57 Z" id="Shape"></path>
                    <path d="M1.37569811,30.0181613 C2.35249057,30.1683226 3.37841509,28.6158387 3.66735849,26.5503548 C3.95630189,24.4854839 3.39888679,22.6896774 2.42326415,22.5395161 C2.40279245,22.5364516 2.38232075,22.5382903 2.36184906,22.5364516 C1.44003774,24.4769032 0.70890566,26.3572903 0.143301887,28.1573871 C0.32345283,29.1931935 0.767396226,29.9243871 1.37569811,30.0181613 Z" id="Shape"></path>
                </g>
                <path d="M63,104 L63,86.6575044 C63,86.6575044 63,49 110.987597,49 C154.347056,49 157,88.2767771 157,88.2767771 L157,104" id="Shape" stroke="#353342" stroke-width="8" stroke-linecap="round"></path>
                <path d="M159.705821,102.870024 C155.123701,101.979353 141.886663,101.46843 122.157091,102.870024 C122.157091,102.870024 113.353745,103.340216 109.5,103.377952 C105.645058,103.340815 96.8429093,102.870024 96.8429093,102.870024 C77.1133371,101.46843 63.8762994,101.979353 59.2941788,102.870024 C54.7108612,103.761892 43,105.927773 43,105.927773 L43,114.844662 C48.4738865,116.246256 49.1100926,118.539119 50.7643483,123.125444 C52.4198009,127.711769 55.983872,135.482226 59.4204624,138.921521 C62.8570529,142.360815 65.1481131,142.87054 75.7134442,142.997522 C86.2781768,143.125103 91.6251811,138.284215 91.6251811,138.284215 C99.1357651,131.532608 98.7521263,124.016713 101.553109,117.647849 C103.878284,112.35953 108.124047,111.551517 109.500599,111.428728 C110.877748,111.551517 115.123512,112.35953 117.448088,117.647849 C120.247874,124.016713 119.865432,131.532608 127.376016,138.284215 C127.376016,138.284215 132.721823,143.125103 143.287753,142.997522 C153.852485,142.87054 156.143546,142.361414 159.580735,138.921521 C163.016128,135.482226 166.581396,127.711769 168.235652,123.125444 C169.891104,118.539119 170.526712,116.246256 176,114.844662 L176,105.927773 C175.998204,105.927773 164.287942,103.761892 159.705821,102.870024 Z M91.1140616,131.151063 C86.4044604,136.501676 74.6935992,137.648107 68.9659485,136.629257 C63.2382977,135.610406 55.7767908,128.349673 56.8732439,115.737729 C56.8732439,115.737729 57.5100485,110.896841 66.037485,109.495248 C74.5661186,108.093654 88.4405594,108.222433 91.8771499,111.915692 C95.3143388,115.609549 95.8236628,125.800451 91.1140616,131.151063 Z M150.032256,136.628658 C144.304605,137.647508 132.593744,136.501077 127.884143,131.150464 C123.174542,125.799852 123.683866,115.609549 127.119858,111.915093 C130.557645,108.221834 144.432086,108.093055 152.960719,109.494649 C161.488156,110.896242 162.124362,115.73713 162.124362,115.73713 C163.222012,128.349074 155.760505,135.609807 150.032256,136.628658 Z" id="Shape" fill="#353342" fill-rule="nonzero"></path>
                <circle id="Oval" fill="#FFFFFF" fill-rule="nonzero" cx="74.5" cy="122.5" r="10.5"></circle>
                <circle id="Oval" fill="#FFFFFF" fill-rule="nonzero" cx="145.5" cy="122.5" r="10.5"></circle>
                <path d="M74.9720598,114 C71.6712151,114.014946 69,116.694249 69,119.99935 C69,123.313549 71.6868096,126 75,126 C78.3131904,126 81,123.312899 81,119.99935 C81,119.591899 80.9584146,117.893859 80.8804418,117.509152 C80.1793372,118.22008 74.5204678,114.618001 74.9720598,114 Z" id="Shape" fill="#353342" fill-rule="nonzero"></path>
                <path d="M146.973359,114 C143.672515,114.014946 141,116.694249 141,119.99935 C141,123.313549 143.68681,126 147,126 C150.31514,126 153,123.312899 153,119.99935 C153,119.591899 152.959714,119.193545 152.881741,118.808838 C152.180637,119.519766 146.520468,114.618001 146.973359,114 Z" id="Shape" fill="#353342" fill-rule="nonzero"></path>
                <circle id="Oval" stroke="#353342" stroke-width="8" stroke-linecap="round" cx="74.5" cy="122.5" r="10.5"></circle>
                <circle id="Oval" stroke="#353342" stroke-width="8" stroke-linecap="round" cx="145.5" cy="122.5" r="10.5"></circle>
                <path d="M66,94 C66,94 72.2522252,83.1110755 84,91.5948274 C84,91.594254 71.4241287,77.5307311 66,94 Z" id="Shape" stroke="#353342" stroke-width="3" fill="#353342" fill-rule="nonzero" stroke-linecap="round" stroke-linejoin="round"></path>
                <path d="M154,98 C154,98 149.363524,89.7872731 141,96.3534249 C141,96.3534249 149.892981,85.5387512 154,98 Z" id="Shape" stroke="#353342" stroke-width="2" fill="#353342" fill-rule="nonzero" stroke-linecap="round" stroke-linejoin="round"></path>
                <path d="M243.234093,0 L169.764718,0 C154.983936,0 143,12.0340758 143,26.876421 C143,38.1781383 149.951991,47.8450311 159.791777,51.8154047 L157.09123,66 L175.463032,53.7516482 L243.234093,53.7516482 C258.017253,53.7516482 270,41.7199598 270,26.876421 C270,12.0340758 258.017253,0 243.234093,0 Z" id="Shape" fill="#5D5CA8" fill-rule="nonzero"></path>
                <g id="Group" transform="translate(173.000000, 21.000000)" fill-rule="nonzero" fill="#FFFFFF">
                    <path d="M11.8667094,0.3756 L11.8667094,9.4434 C11.8667094,10.479 11.6330769,11.3862 11.1639915,12.1662 C10.6961197,12.9456 10.0188889,13.5432 9.13229915,13.9584 C8.24813675,14.3736 7.20012821,14.5818 5.99130769,14.5818 C4.1695812,14.5818 2.75322222,14.1198 1.74465812,13.1964 C0.737307692,12.273 0.232418803,11.0088 0.232418803,9.4056 L0.232418803,0.3756 L3.22898291,0.3756 L3.22898291,8.955 C3.22898291,10.035 3.44805128,10.8276 3.88800855,11.3322 C4.32796581,11.8368 5.05435043,12.0894 6.07019658,12.0894 C7.05266667,12.0894 7.76509402,11.835 8.20687179,11.3268 C8.64986325,10.8186 8.87196581,10.0218 8.87196581,8.9352 L8.87196581,0.375 L11.8667094,0.375 L11.8667094,0.3756 Z" id="Shape"></path>
                    <polygon id="Shape" points="26.9520855 14.3898 23.9555214 14.3898 23.9555214 8.3412 18.3434872 8.3412 18.3434872 14.3898 15.3378205 14.3898 15.3378205 0.3756 18.3434872 0.3756 18.3434872 5.868 23.9555214 5.868 23.9555214 0.3756 26.9520855 0.3756"></polygon>
                    <polygon id="Shape" points="29.3369573 10.3254 29.3369573 7.929 34.5436239 7.929 34.5436239 10.3254"></polygon>
                    <path d="M49.7843504,7.3638 C49.7843504,9.684 49.2023932,11.4666 48.0384786,12.7128 C46.8757778,13.959 45.208188,14.5818 43.0369231,14.5818 C40.8644444,14.5818 39.1980684,13.9584 38.0341538,12.7128 C36.8702393,11.4666 36.2882821,9.6768 36.2882821,7.3446 C36.2882821,5.0118 36.871453,3.2304 38.0390085,2.0004 C39.2053504,0.7704 40.8777949,0.1554 43.0563419,0.1554 C45.2348889,0.1554 46.9000513,0.7752 48.0542564,2.0154 C49.2072479,3.2544 49.7843504,5.0376 49.7843504,7.3638 Z M39.4395897,7.3638 C39.4395897,8.9292 39.7393675,10.1088 40.3413504,10.9008 C40.9421197,11.6934 41.8408462,12.0894 43.0363162,12.0894 C45.4339316,12.0894 46.6336496,10.5144 46.6336496,7.3638 C46.6336496,4.2066 45.44,2.6286 43.055735,2.6286 C41.8596581,2.6286 40.9591111,3.0264 40.3510598,3.822 C39.7430085,4.6176 39.4395897,5.7984 39.4395897,7.3638 Z" id="Shape"></path>
                    <polygon id="Shape" points="64.3369231 14.3898 61.340359 14.3898 61.340359 8.3412 55.7271111 8.3412 55.7271111 14.3898 52.7214444 14.3898 52.7214444 0.3756 55.7271111 0.3756 55.7271111 5.868 61.340359 5.868 61.340359 0.3756 64.3369231 0.3756"></polygon>
                    <path d="M67.2643077,13.0194 C67.2643077,12.4824 67.4099487,12.0768 67.7006239,11.802 C67.991906,11.5272 68.4154786,11.3898 68.9713419,11.3898 C69.5083932,11.3898 69.9228632,11.5308 70.2171795,11.8116 C70.5108889,12.093 70.6583504,12.4956 70.6583504,13.0194 C70.6583504,13.524 70.5102821,13.9218 70.2129316,14.2128 C69.9155812,14.5032 69.5017179,14.649 68.9719487,14.649 C68.4288291,14.649 68.0095043,14.5068 67.7109402,14.2224 C67.4135897,13.938 67.2643077,13.5372 67.2643077,13.0194 Z M70.1631709,9.741 L67.7977179,9.741 L67.3037521,0.3756 L70.6577436,0.3756 L70.1631709,9.741 Z" id="Shape"></path>
                </g>
                <path d="M114,156 C114,156 120.6136,144.366782 132,149.156931" id="Shape" stroke="#353342" stroke-width="8" stroke-linecap="round"></path>
            </g>
        </g>
    </g>
</svg>