<svg aria-hidden="true" xmlns="http://www.w3.org/2000/svg" viewBox="0 0 274.875 99.438" aria-labelledby="home">
  <path fill="#00538E" d="M37.385 9.403c0 .72 0 1.224-.777 1.224-.454 0-.843-.144-1.555-1.296-2.333-3.888-4.73-7.272-10.692-7.272-10.627 0-15.552 11.519-15.552 20.735 0 10.08 5.314 21.599 15.099 21.599 5.962 0 8.813-4.032 11.535-9.576.129-.288.648-1.368 1.296-1.368.972 0 .972.648.972 1.152l-.519 6.12c-.065 1.008-.194 1.656-1.555 2.52-1.037.72-5.378 2.952-11.923 2.952C7.319 46.193.127 32.226.127 23.082.127 13.075 7.903.187 24.816.187c2.981 0 4.082.216 8.489 1.008 2.916.576 3.24 1.224 3.499 3.168l.581 5.04z"/>
  <path fill="#00538E" d="M40.238 35.415l-2.85 6.181c-3.083-3.273-4.86-8-4.86-12.322 0-8.207 6.091-16.919 15.747-16.919 7.388 0 15.617 5.399 15.617 16.271 0 5.513-2.104 10.5-5.609 13.741l-2.59-4.688c.918-2.381 1.46-5.237 1.46-8.333 0-4.968-2.333-15.335-9.396-15.335-4.665 0-8.489 5.184-8.489 13.967 0 2.648.348 5.182.97 7.437z"/>
  <path fill="#00538E" d="M117.603 45.474s5.702.288 6.545.288c.583 0 1.23 0 1.23-.864 0-.648-.324-1.008-1.943-1.224-2.657-.432-2.657-1.296-2.657-5.328V23.082c0-1.728.194-3.023 1.037-4.032 1.231-1.512 2.657-2.448 5.573-2.448 4.471 0 5.378 4.032 5.378 7.704v14.039c0 4.104 0 4.896-2.657 5.328-1.49.216-1.943.504-1.943 1.152 0 .936.583.936 1.102.936 1.036 0 3.11-.288 6.674-.288 3.501 0 5.573.288 6.61.288.455 0 1.102 0 1.102-.864 0-.648-.324-1.008-1.943-1.224-2.657-.432-2.657-1.296-2.657-5.328V22.866c0-1.512.064-3.023.971-4.104a7.521 7.521 0 0 1 5.574-2.448c5.443 0 5.443 4.896 5.443 6.984v15.047c0 4.104 0 4.896-2.658 5.328-1.426.216-1.943.504-1.943 1.152 0 .936.648.936 1.102.936 1.037 0 2.98-.288 6.674-.288 3.371 0 5.639.288 6.609.288.455 0 1.104 0 1.104-.864 0-.648-.324-1.008-1.945-1.224-2.656-.432-2.656-1.296-2.656-5.328V21.139c0-2.376-.713-8.784-9.137-8.784-2.268 0-4.666 1.008-7.258 3.384-.324.288-1.815 2.088-2.268 2.088-.26 0-.39-.144-1.297-1.728-2.073-3.672-6.091-3.744-6.868-3.744-2.917 0-5.249.432-8.878 4.68-.389.432-.713.792-.907.792-.26 0-.26-.216-.26-1.44v-3.528c0-.648-.13-1.296-.713-1.296-.453 0-.972.72-1.426 1.296-2.008 2.592-6.155 4.536-6.608 4.68-.713.216-.973.504-.973.936 0 .936.777.936 1.814 1.008 1.943.144 1.943 1.728 1.943 5.112v13.824c0 3.936-.007 4.783-2.599 5.223-2.474-.443-2.481-1.358-2.481-5.295V21.139c0-2.376-.713-8.784-9.137-8.784-2.268 0-4.666 1.008-7.258 3.384-.323.288-1.815 2.088-2.268 2.088-.259 0-.389-.144-1.296-1.728-2.073-3.672-6.092-3.744-6.869-3.744-2.916 0-5.249.432-8.878 4.68-.389.432-.713.792-.907.792-.259 0-.259-.216-.259-1.44v-3.528c0-.648-.13-1.296-.713-1.296-.454 0-.973.72-1.426 1.296-2.009 2.592-6.156 4.536-6.609 4.68-.713.216-.973.504-.973.936 0 .936.778.936 1.815 1.008 1.943.144 1.943 1.728 1.943 5.112v13.824c0 4.032 0 4.824-2.786 5.255-1.426.216-2.01.504-2.01 1.152 0 .936.713.936 1.232.936 1.036 0 3.693-.288 6.674-.288 3.305 0 5.702.288 6.545.288.584 0 1.231 0 1.231-.864 0-.648-.324-1.008-1.944-1.224-2.656-.432-2.656-1.296-2.656-5.328V23.082c0-1.728.193-3.023 1.036-4.032 1.231-1.512 2.657-2.448 5.573-2.448 4.471 0 5.379 4.032 5.379 7.704v14.039c0 4.104 0 4.896-2.657 5.328-1.491.216-1.944.504-1.944 1.152 0 .936.584.936 1.102.936 1.037 0 3.111-.288 6.675-.288 3.499 0 5.573.288 6.609.288.453 0 1.102 0 1.102-.864 0-.648-.323-1.008-1.944-1.224-2.656-.432-2.656-1.296-2.656-5.328V22.866c0-1.512.064-3.023.973-4.104a7.516 7.516 0 0 1 5.572-2.448c5.443 0 5.443 4.896 5.443 6.984v15.047c0 4.104 0 4.896-2.657 5.328-1.425.216-1.944.504-1.944 1.152 0 .936.648.936 1.103.936 1.037 0 2.98-.288 6.675-.288h11.299z"/>
  <path fill="#00538E" d="M180.393 20.778c0-4.032 0-4.824-2.785-5.256-1.621-.288-1.945-.576-1.945-1.224 0-.864.648-.864 1.102-.864 1.037 0 3.436.288 6.48.288.777 0 1.23-.072 1.555-.072.389-.072.648-.072.973-.072.906 0 .906.648.906 2.16V38.85c0 3.096.584 3.24 2.982 3.384.389 0 1.102.144 1.102.72s-.648.864-.973.936l-7.387 2.304c-.648.216-1.166.288-1.297.288-.906 0-.906-.936-.906-1.368v-2.808c0-.432-.064-.864-.455-.864-.258 0-.582.144-1.037.576-3.629 3.024-6.609 4.176-9.006 4.176-1.879 0-8.619-.792-8.619-10.872V20.851c0-4.104 0-4.896-2.785-5.328-1.621-.216-1.945-.576-1.945-1.224 0-.864.648-.864 1.102-.864.844 0 3.369.288 4.99.288.973 0 1.814-.072 2.527-.072.713-.072 1.23-.072 1.555-.072.52 0 .906.216.906 1.008 0 .576-.064 1.08-.064 1.584V35.61c0 2.952 1.102 6.408 6.48 6.408 1.23 0 6.545 0 6.545-5.184V20.778h-.001z"/>
  <path fill="#00538E" d="M212.068 25.386c0-3.384 0-8.784-6.35-8.784a7.308 7.308 0 0 0-5.443 2.448c-.973 1.08-1.23 2.304-1.23 4.032v15.264c0 4.032 0 4.896 2.785 5.328 1.621.216 1.943.576 1.943 1.224 0 .864-.646.864-1.1.864-.973 0-5.574-.288-6.805-.288-.973 0-5.639.288-6.676.288-.518 0-1.166 0-1.166-.936 0-.648.52-.936 1.945-1.152 2.785-.432 2.785-1.224 2.785-5.255V24.594c0-3.384 0-4.968-1.943-5.112-1.037-.072-1.75-.072-1.75-1.008 0-.432.195-.72.908-.936.453-.144 4.6-2.088 6.609-4.68.453-.576.971-1.296 1.426-1.296.582 0 .711.648.711 1.296v3.528c0 1.224 0 1.44.26 1.44.389 0 .713-.216.908-.432 3.953-4.103 5.896-5.039 9.525-5.039 4.277 0 8.943 2.592 8.943 9.288v16.703c0 4.032 0 4.896 2.785 5.328 1.621.216 1.945.576 1.945 1.224 0 .864-.648.864-1.102.864-.973 0-5.703-.288-6.74-.288-.973 0-5.703.288-6.805.288-.453 0-1.102 0-1.102-.936 0-.648.455-.936 1.943-1.152 2.787-.432 2.787-1.224 2.787-5.255V25.386h.004z"/>
  <path fill="#00538E" d="M224.277 24.81c0-3.672-.584-4.68-2.916-4.824-.195 0-1.23-.072-1.23-.936 0-.504.258-.864 1.035-1.152 3.111-1.152 4.602-2.088 5.703-2.952.453-.36 2.463-2.304 2.98-2.304.713 0 .713.936.713 2.52v23.255c0 3.959 0 4.824 2.787 5.255 1.619.216 1.943.576 1.943 1.224 0 .864-.649.864-1.102.864-.973 0-3.758-.288-6.738-.288-2.723 0-5.703.288-6.805.288-.453 0-1.102 0-1.102-.936 0-.648.518-.936 1.943-1.152 2.787-.432 2.787-1.224 2.787-5.184V24.81h.002zm3.112-14.559c-2.074 0-3.629-1.8-3.629-3.888 0-2.016 1.488-3.96 3.629-3.96 2.008 0 3.562 1.8 3.562 4.032 0 1.872-1.426 3.816-3.562 3.816zm16.237 3.853c-1.361 0-1.562-.669-1.562-2.037V7.171c0-1.152-.648-1.152-.844-1.152-.453 0-.842.504-1.102.864-2.137 3.672-4.146 5.616-5.701 6.48l-1.75 1.008c-.26.144-.973.576-.973 1.296 0 .792.777.792 1.102.792.518 0 .973-.072 1.49-.072.973-.072 1.49.36 1.49 1.296v20.663c0 5.4 3.176 7.848 6.545 7.848 4.73 0 8.879-4.392 8.879-5.472 0-.288-.195-.648-.52-.648-.193 0-.518.144-.713.288-2.268 1.583-3.174 1.8-4.146 1.8-3.369 0-3.758-3.312-3.758-6.552V18.042c0-1.512.129-1.656 1.23-1.656.798 0 1.486.01 2.092.024.66.549 1.17 1.581 1.938 3.694l8.301 22.666c.193.429.902 3.146.902 3.575 0 .429-.258 1.287-.516 1.931l-1.609 4.075c-.965 2.432-1.865 2.574-2.83 2.574l-1.803-.072c-2.252 0-2.767 1.789-2.767 3.361 0 1.002.129 3.004 3.539 3.004 3.348 0 3.668-1.145 4.506-4.076 1.223-4.289 4.182-12.441 5.984-17.447 2.703-7.508 5.02-12.656 7.723-18.805 1.48-3.361 2.123-4.862 3.603-5.077 1.994-.286 2.381-.358 2.381-1.144 0-.858-.774-.858-.965-.858-.516.001-2.445.286-4.955.286-2.383 0-4.377-.286-5.149-.286-.387-.001-1.223-.001-1.223.929s.643.93 2.252 1.001c1.674.072 2.316.858 2.316 2.145 0 .715-.258 2.002-.836 3.575l-5.791 15.159-6.051-16.517c-.129-.214-.578-1.573-.578-2.36 0-1.215.836-1.716 1.609-1.787 2.445-.286 2.701-.286 2.701-1.216 0-.715-.451-.93-1.094-.93-1.029.001-2.252.215-5.277.215-.571 0-1.49.078-1.49.078h-6.58zm-130.33 47.011c0-2.088 0-6.984-5.442-6.984a7.522 7.522 0 0 0-5.573 2.447c-.907 1.08-.972 2.592-.972 4.104v15.481c0 4.031 0 4.894 2.656 5.328 1.621.215 1.944.576 1.944 1.223 0 .865-.648.865-1.102.865-1.037 0-3.11-.289-6.609-.289-3.564 0-5.638.289-6.675.289-.519 0-1.102 0-1.102-.938 0-.646.454-.935 1.943-1.15 2.658-.434 2.658-1.225 2.658-5.328v-14.04c0-3.672-.908-7.705-5.379-7.705-2.916 0-4.342.937-5.573 2.449-.842 1.008-1.036 2.303-1.036 4.031v15.264c0 4.031 0 4.894 2.656 5.328 1.62.215 1.944.576 1.944 1.223 0 .865-.648.865-1.231.865-.627 0-2.117-.16-4.202-.242-.377-.014-.587-.045-1.002-.053-.371-.008-1.938-2.875-4.451-7.049V62.41c0-3.383 0-4.967-1.944-5.111-1.036-.072-1.815-.072-1.815-1.008 0-.432.259-.721.972-.936.454-.145 4.602-2.088 6.61-4.681.454-.576.972-1.296 1.426-1.296.583 0 .713.648.713 1.296v3.528c0 1.223 0 1.439.259 1.439.194 0 .519-.359.907-.791 3.629-4.248 5.962-4.681 8.878-4.681.777 0 4.795.072 6.868 3.743.908 1.584 1.037 1.728 1.296 1.728.454 0 1.945-1.801 2.269-2.088 2.593-2.375 4.99-3.384 7.258-3.384 8.424 0 9.137 6.407 9.137 8.784v17.207c0 4.031 0 4.894 2.657 5.328 1.62.215 1.943.576 1.943 1.223 0 .865-.647.865-1.102.865-.972 0-3.24-.289-6.609-.289-3.693 0-5.638.289-6.674.289-.454 0-1.102 0-1.102-.938 0-.646.519-.935 1.943-1.15 2.656-.434 2.656-1.225 2.656-5.328V61.115h.002z"/>
  <path fill="#00538E" d="M130.569 61.906c-1.102 0-1.685.072-1.685 3.817 0 8.062 4.795 14.256 11.47 14.256 2.916 0 5.572-1.225 7.129-2.881.971-1.08 1.035-1.152 1.424-1.152.455 0 .584.432.584.648 0 1.08-4.537 7.416-12.766 7.416-8.553 0-15.034-6.264-15.034-16.271 0-10.656 7.259-17.567 16.071-17.567 9.786 0 11.858 7.991 11.858 10.438 0 1.297-.713 1.297-1.75 1.297h-17.301v-.001zm8.97-2.232c2.787 0 4.406-1.584 4.406-3.455 0-4.248-4.406-4.393-5.378-4.393-5.832 0-7.841 5.904-7.841 7.057 0 .791.259.791 1.75.791h7.063zm22.287-5.326c0 .432 0 1.008.389 1.008.195 0 .52-.434.584-.576.129-.217 3.305-4.32 7.062-4.32 2.334 0 4.666 1.439 4.666 4.32 0 2.951-2.332 4.103-3.953 4.103-1.426 0-2.332-.576-3.369-1.873-1.102-1.367-1.619-1.512-2.008-1.512-1.297 0-3.176 1.08-3.176 7.057v13.68c0 2.951 0 4.895 3.305 5.111 1.426.072 2.332.145 2.332 1.225 0 1.008-.842 1.008-1.359 1.008-1.102 0-6.352-.289-7.518-.289-.973 0-5.703.289-6.74.289-.453 0-1.102 0-1.102-.938 0-.646.455-.935 1.945-1.15 2.852-.434 2.852-1.225 2.852-5.256V62.338c0-4.535-.844-4.68-3.307-4.824-.193 0-.842 0-.842-.791 0-.504.26-.793 1.037-1.008 1.49-.576 5.184-2.809 6.545-4.392.129-.143 1.619-1.799 1.943-1.799.648 0 .713.576.713 1.224v3.6h.001zm17.996 8.279c0-3.672-.584-4.68-2.916-4.824-.195 0-1.232-.072-1.232-.936 0-.504.26-.865 1.037-1.152 3.111-1.152 4.602-2.088 5.703-2.953.453-.359 2.463-2.303 2.98-2.303.713 0 .713.935.713 2.519v23.256c0 3.959 0 4.822 2.787 5.256 1.619.215 1.943.576 1.943 1.223 0 .865-.648.865-1.102.865-.973 0-3.758-.289-6.74-.289-2.721 0-5.701.289-6.803.289-.453 0-1.102 0-1.102-.938 0-.646.518-.935 1.943-1.15 2.787-.434 2.787-1.225 2.787-5.186V62.627h.002zm29.83 17.566c3.176 0 6.092-1.439 7.322-2.592.131-.072.453-.359.713-.359.26 0 .584.287.584.719 0 1.441-4.861 6.049-11.795 6.049-7.387 0-16.135-4.824-16.135-15.984 0-11.592 9.59-17.854 17.625-17.854 1.037 0 9.98.576 9.98 4.751 0 1.008-.324 5.041-1.945 5.041-1.1 0-1.879-1.152-4.016-4.32-2.01-2.951-3.242-3.889-5.055-3.889-2.852 0-9.463 3.602-9.463 14.832.002 7.847 6.093 13.606 12.185 13.606zm26.434-22.318c0-2.52-.195-5.977-3.24-5.977-3.758 0-5.184 4.393-5.701 6.049-1.037 3.238-4.797 3.527-4.861 3.527-.713 0-1.426-.504-1.426-1.439 0-2.449 4.082-9.864 13.934-9.864 6.09 0 7.58 2.304 7.58 5.255v20.088c0 2.232.195 4.031 2.01 4.031.713 0 1.359-.287 1.879-.719.713-.648.777-.721 1.102-.721.389 0 .584.432.584.648 0 1.729-3.953 5.111-6.805 5.111-2.527 0-3.758-2.16-4.535-3.887-.584-1.369-.715-1.369-.908-1.369-.129 0-.453.289-.453.289-2.723 2.447-6.221 5.111-9.137 5.111-4.73 0-5.055-4.969-5.055-6.049 0-5.256 3.434-8.352 13.412-12.742 1.557-.721 1.621-1.297 1.621-2.592v-4.75h-.001zm0 9.719c0-.719-.389-.791-.713-.791-.908 0-2.527.936-3.564 1.512-4.082 2.16-4.082 4.895-4.082 6.336 0 3.455 1.49 4.752 2.916 4.752 2.916 0 5.443-2.592 5.443-7.633v-4.176zM27.566 97.543c-.025.461-.013.642-.403.894-.705.477-1.599.645-2.417.645-1.107 0-2.404-.281-3.311-1.037-.956-.797-1.599-2.125-1.599-3.469 0-1.385.629-2.645 1.623-3.471.982-.797 2.329-1.174 3.538-1.174.592 0 1.309.111 1.888.293.34.111.34.168.403.559l.101.715c.025.139.05.266.05.404 0 .154-.101.238-.239.238-.579 0-.617-1.664-2.316-1.664-.831 0-1.599.517-2.077 1.258-.491.771-.692 1.791-.692 2.715 0 .91.189 1.918.629 2.688.479.826 1.234 1.398 2.14 1.398.491 0 .944-.195 1.322-.531.378-.35.605-.812.831-1.287.063-.154.151-.295.315-.295.277 0 .265.322.252.533l-.038.588zm19.819-.154c.239.531.302.824.856.951.151.041.265.098.265.293 0 .238-.214.266-.378.266-.353 0-.692-.027-1.045-.027s-.692.027-1.044.027c-.29 0-.315-.168-.428-.447l-1.158-2.561c-.126-.279-.377-.84-.579-1.035-.113-.125-.277-.141-.428-.141-.239 0-.176.184-.176.463v1.861c0 .824-.051 1.16.743 1.301.164.027.403.07.403.322 0 .209-.139.266-.302.266-.655 0-1.284-.057-1.938-.057-.605 0-1.208.057-1.813.057-.176 0-.302-.057-.302-.266 0-.225.189-.295.34-.322.831-.154.793-.393.793-1.301v-4.983c0-.824.075-1.217-.692-1.357-.164-.027-.403-.014-.403-.252 0-.223.138-.293.327-.293.579 0 1.158.057 1.737.057.982 0 1.938-.057 2.908-.057.542 0 1.133.07 1.574.434.479.406.743 1.021.743 1.707 0 1.344-1.058 1.945-2.14 2.057.718.07 1.007.588 1.31 1.232l.827 1.805zm-4.116-3.864c0 .352-.076.631.264.631.377 0 .78-.07 1.095-.336.39-.309.592-.854.592-1.371 0-.896-.503-1.75-1.385-1.75-.189 0-.529.084-.566.281-.025.152 0 .488 0 .656v1.889zm20.486-.209c0 .42-.025.658.416.658.264 0 .817 0 1.057-.057.353-.07.504-.377.604-.74.05-.184.138-.463.365-.463.201 0 .251.168.251.363-.025.393-.025.812-.05 1.203 0 .393.024.812.05 1.203 0 .184-.05.393-.264.393-.604 0-.164-1.342-1.498-1.342l-.542.027c-.415.027-.39.223-.39.602V96.8c0 .35.013.867.214 1.162.214.307.629.404.97.404.881 0 1.623-.391 2.026-1.273.075-.195.202-.488.429-.488.2 0 .276.098.276.32 0 .127-.076.49-.101.631l-.139 1.119c-.013.168-.037.252-.201.252-.932 0-1.863-.057-2.795-.057-1.208 0-2.417.057-3.625.057-.177 0-.303-.043-.303-.252 0-.225.19-.309.34-.336.856-.154.831-.434.831-1.273V92.1c0-.826.037-1.26-.768-1.4-.164-.027-.403-.098-.403-.209 0-.225.126-.336.303-.336.755 0 1.484.057 2.24.057 1.309 0 2.618-.057 3.94-.057.276 0 .214.238.214.49v1.133c0 .209.037.434-.252.434-.189 0-.303-.225-.391-.377a3.437 3.437 0 0 0-.578-.729c-.265-.266-.655-.279-.995-.279-.214 0-.906 0-1.095.125-.151.098-.139.477-.139.645v1.719h.003zm17.552-1.23c0-.715.037-1.203-.68-1.148-.188.014-.466.098-.466-.225 0-.643 3.411-.781 3.966-.781 1.208 0 2.328.195 3.373.922 1.095.77 1.774 1.986 1.774 3.443 0 2.881-2.505 4.631-4.884 4.631-1.058 0-2.114-.057-3.172-.057-.228 0-.479.057-.718.057-.164 0-.303-.084-.303-.309 0-.223.189-.238.354-.279.805-.211.755-.434.755-1.371v-4.883h.001zm2.077 4.547c0 .938-.051 1.764.994 1.764.831 0 1.6-.561 2.053-1.316.465-.742.654-1.791.654-2.686 0-1.861-.919-3.848-2.782-3.848-.906 0-.919.223-.919 1.174v4.912zm21.669.406c0 .824-.051 1.16.743 1.301.163.027.402.07.402.322 0 .209-.139.266-.303.266-.654 0-1.283-.057-1.939-.057-.604 0-1.208.057-1.812.057-.176 0-.302-.057-.302-.266 0-.225.188-.295.34-.322.83-.154.793-.393.793-1.301V92.07c0-.854.076-1.217-.73-1.371-.151-.027-.402-.041-.402-.279 0-.225.126-.266.302-.266.654 0 1.284.057 1.938.057.605 0 1.209-.057 1.801-.057.176 0 .314.041.314.266s-.201.252-.353.279c-.855.154-.793.434-.793 1.371v4.969h.001zm19.066 0c0 .824-.05 1.16.742 1.301.164.027.403.07.403.322 0 .209-.139.266-.303.266-.654 0-1.283-.057-1.938-.057-.604 0-1.209.057-1.813.057-.176 0-.302-.057-.302-.266 0-.225.188-.295.34-.322.83-.154.793-.393.793-1.301v-5.906c-.013-.391 0-.404-.352-.404-.857 0-1.195.377-1.661 1.133-.101.168-.315.49-.517.49-.163 0-.227-.141-.227-.309 0-.098.038-.209.063-.309l.402-1.637c.05-.209.101-.475.34-.475.138 0 .214.07.251.209.113.393.202.322.555.322h4.519c.39 0 .704.041.932-.363.062-.127.15-.266.302-.266.29 0 .239.266.214.502l-.164 1.791c-.025.225-.013.574-.276.574-.215 0-.328-.223-.391-.42-.364-1.008-.528-1.26-1.573-1.26-.327 0-.34.043-.34.406v5.922h.001zm36.346-1.26c0 .965.014 1.805-.742 2.49-.705.629-1.611.813-2.504.813-.832 0-1.814-.154-2.518-.631-.908-.615-1.033-1.482-1.033-2.561v-3.82c0-.854.076-1.217-.731-1.371-.15-.027-.402-.041-.402-.279 0-.225.125-.266.301-.266.656 0 1.285.057 1.939.057.605 0 1.209-.057 1.801-.057.176 0 .314.041.314.266s-.201.252-.352.279c-.857.154-.795.434-.795 1.371v3.08c0 .572-.012 1.707.178 2.197.289.824 1.031 1.133 1.773 1.133.656 0 1.361-.184 1.775-.785.416-.572.391-1.23.391-1.916v-3.555c0-.307.012-.824-.113-1.119-.139-.293-.391-.363-.668-.406-.201-.027-.49.057-.49-.266 0-.279.238-.279.428-.279.377 0 .756.027 1.133.027.365 0 .744-.027 1.121-.027.15 0 .289.084.289.279 0 .279-.264.238-.453.266-.289.043-.467.098-.566.449-.063.252-.076.74-.076.992v3.639zm21.299-3.609c0-.281 0-.742-.1-.994-.139-.336-.391-.434-.68-.477-.215-.027-.479.057-.479-.252 0-.293.275-.293.465-.293.377 0 .742.027 1.121.027.365 0 .742-.027 1.107-.027.189 0 .354.041.354.279 0 .336-.43.238-.643.266-.592.084-.516.756-.516 1.303v6.631c0 .393.063.645-.367.645-.314 0-.479-.295-.654-.547l-4.971-6.896v4.617c0 .336 0 1.062.088 1.357.125.42.391.504.729.531.178.014.529-.014.529.293 0 .238-.201.295-.377.295-.402 0-.781-.057-1.184-.057-.402 0-.807.057-1.197.057-.176 0-.338-.07-.338-.295 0-.307.314-.279.516-.293.277-.014.428-.111.529-.42.139-.434.113-1.176.113-1.65v-4.351c0-.547.049-1.176-.58-1.219-.201-.014-.49.014-.49-.293 0-.252.25-.252.428-.252h2.215c.504 0 .467.027.781.461l3.6 4.953V92.17h.001zm17.277 4.869c0 .824-.051 1.16.744 1.301.164.027.402.07.402.322 0 .209-.139.266-.303.266-.654 0-1.283-.057-1.938-.057-.605 0-1.209.057-1.812.057-.178 0-.303-.057-.303-.266 0-.225.187-.295.34-.322.83-.154.793-.393.793-1.301V92.07c0-.854.076-1.217-.73-1.371-.15-.027-.402-.041-.402-.279 0-.225.125-.266.303-.266.654 0 1.283.057 1.938.057.605 0 1.209-.057 1.801-.057.176 0 .314.041.314.266s-.201.252-.352.279c-.857.154-.795.434-.795 1.371v4.969zm14.994.908c-.918-.797-1.434-2.127-1.434-3.4 0-1.23.477-2.393 1.27-3.244.857-.938 1.914-1.371 3.109-1.371 2.393 0 4.658 1.705 4.658 4.561 0 2.715-2.076 4.59-4.432 4.59-1.042-.001-2.341-.407-3.171-1.136zm5.438-3.092c0-1.664-.703-4.436-2.566-4.436-1.611 0-2.115 2.281-2.115 3.709 0 .951.176 1.93.566 2.783.402.854 1.07 1.666 2.002 1.666 1.622.001 2.113-2.294 2.113-3.722zm21.757-2.685c0-.281 0-.742-.1-.994-.139-.336-.391-.434-.68-.477-.215-.027-.479.057-.479-.252 0-.293.275-.293.465-.293.377 0 .742.027 1.121.027.365 0 .742-.027 1.107-.027.189 0 .353.041.353.279 0 .336-.43.238-.642.266-.592.084-.516.756-.516 1.303v6.631c0 .393.062.645-.367.645-.314 0-.479-.295-.654-.547l-4.971-6.896v4.617c0 .336 0 1.062.088 1.357.125.42.391.504.728.531.178.014.529-.014.529.293 0 .238-.201.295-.377.295-.402 0-.781-.057-1.184-.057-.402 0-.807.057-1.197.057-.176 0-.338-.07-.338-.295 0-.307.314-.279.516-.293.277-.014.428-.111.529-.42.139-.434.113-1.176.113-1.65v-4.351c0-.547.049-1.176-.58-1.219-.201-.014-.49.014-.49-.293 0-.252.25-.252.428-.252h2.215c.504 0 .467.027.781.461l3.6 4.953V92.17h.002zm12.924-24.93a3.578 3.578 0 0 1 1.078 2.619c0 1.031-.359 1.91-1.078 2.637-.719.727-1.592 1.09-2.619 1.09-1.027 0-1.9-.363-2.619-1.09-.715-.727-1.072-1.605-1.072-2.637 0-1.023.359-1.896 1.078-2.619.723-.727 1.594-1.09 2.613-1.09 1.024 0 1.897.364 2.619 1.09zm.428-.416c-.84-.834-1.855-1.254-3.047-1.254-1.184 0-2.193.42-3.029 1.254-.84.842-1.26 1.852-1.26 3.035 0 1.195.416 2.213 1.248 3.053.836.844 1.85 1.266 3.041 1.266 1.191 0 2.207-.422 3.047-1.266.84-.844 1.26-1.859 1.26-3.053 0-1.187-.42-2.199-1.26-3.035zm-2.408 2.836c-.176.07-.439.105-.791.105h-.75v-1.711h.709c.461 0 .795.059 1.004.176.209.117.314.348.314.691 0 .364-.162.61-.486.739zm-2.373 2.549h.832v-1.863h.656c.441 0 .75.051.926.152.297.176.445.537.445 1.084v.375l.018.152.012.053.012.047h.779l-.029-.059a.754.754 0 0 1-.041-.246 5.52 5.52 0 0 1-.012-.352v-.346c0-.238-.086-.482-.258-.732-.172-.25-.443-.404-.814-.463.293-.047.521-.123.686-.229.309-.199.463-.51.463-.932 0-.594-.244-.992-.732-1.195-.273-.113-.703-.17-1.289-.17h-1.652v4.724h-.002zM23.089 84.863c-3.222.633-8.08 2.398-9.097 2.918L8.366 90.34l38.741-70.381 37.416 66.557-.373-.027c-6.177-.473-20.998-1.525-28.625-1.365-9.849.207-27.571 2.559-27.809 2.57-1.664.121-3.168.242-3.168-.967 0-.561.858-1.326.927-1.826.081-.606-.934-.331-2.386-.038z"/>
  <path fill="#ED1C2E" d="M57.237 74.781c-11.938 1.365-25.265 4.006-25.747 4.008-.472.002-1.414-.529-.278-1.742.481-.514.614-.91.389-1.232-.134-.191-.535-.256-.521-.256-1.002-.049-2.716.18-5.896 1.242-3.238 1.08-8.49 2.314-8.471 2.307l-3.921 7.158c1.686-.879 4.927-2.195 9.089-3.014 3.822-.748 6.517-1.041 6.61-.063.038.391-.329.797-.742 1.168-.353.4-.729.68-.669 1.002.02.324.19.482.639.48.239-.01 17.901-2.361 27.765-2.57 9.863-.205 25.668 1.16 25.668 1.16l-5.615-10.014c.002.001-8.788-.722-18.3.366z"/>
  <path fill="#00538E" d="M53.916 63.523a19.44 19.44 0 0 1 1.168-.219c4.111-.582 13.539-1.182 13.539-1.182L47.118 23.604l-23.86 43.552c-.028-.006 8.84-1.963 11.987-2.781 6.561-1.705 3.733.643 3.191 1.35-.426.555-1.285 1.836-.027 1.648.116-.018.891-.211 2.396-.602l13.111-3.248z"/>
  <path fill="#ED1C2E" d="M39.74 69.373c-1.791.404-3.069.668-3.494.668-.502.019-.723-.119-.701-.479.026-.443 2.081-1.971.292-2.404-.971-.236-1.695.209-4.937 1.082-3.095.807-8.861 1.785-9.206 1.775l-3.76 6.867s6.334-1.541 9.197-2.281c3.294-.891 5.078-1.358 6.088-1.43 3.019-.215-1.749 3.92.349 3.574.229-.037 11.582-2.445 22.213-3.811 9.029-1.158 18.414-.961 18.414-.961l-4.091-7.193s-7.118-.119-15.17 1.303l-15.194 3.29z"/>
  <path fill="#fff" d="M55.764 71.568l-8.673-5.931-8.672 5.931 3.312-9.599-8.672-5.932h10.72l3.312-9.598 3.313 9.598h10.72l-8.672 5.934 3.312 9.597z"/>
</svg>