<svg xmlns="http://www.w3.org/2000/svg" viewBox="0 0 1245.847 657.317"><defs><linearGradient id="a" y1=".133" x2=".968" y2=".963" gradientUnits="objectBoundingBox"><stop offset="0" stop-color="#9e0ffc"/><stop offset="1" stop-color="#5c5aa7"/></linearGradient></defs><g data-name="Group 1"><path data-name="Path 3" d="M148.157 47.921A100 100 0 0 1 249.521 1.292l912.3 147.857a100 100 0 0 1 81.442 121.192l-40 173.393a100 100 0 0 1-80.7 76.11L321.072 655.9a100 100 0 0 1-92.672-33.517L24.065 383.92a100 100 0 0 1-9.43-117.15z" fill="url(#a)"/><path data-name="“" d="M183.348 228.757a20.726 20.726 0 0 1-9.228-2.05 22.087 22.087 0 0 1-7.451-6.15 27.9 27.9 0 0 1-4.921-9.806 47.386 47.386 0 0 1-1.641-13.017 57.216 57.216 0 0 1 3.415-19.817 59.52 59.52 0 0 1 8.818-16.195 48.454 48.454 0 0 1 11.622-10.933c4.127-2.675 7.875-4.032 11.142-4.032 2.994 0 5.317.851 6.9 2.528a9.482 9.482 0 0 1 2.392 6.765 10.147 10.147 0 0 1-1.333 5.3 9.675 9.675 0 0 1-4 3.587 36.006 36.006 0 0 0-11.348 9.362c-2.54 3.4-4.1 7.883-4.649 13.325h1.782a18.424 18.424 0 0 1 7.3 1.486 22.323 22.323 0 0 1 6.58 4.458 19.874 19.874 0 0 1 4.666 6.68 20.953 20.953 0 0 1 1.554 8.145 19.969 19.969 0 0 1-1.555 7.927 19.768 19.768 0 0 1-4.666 6.56 21.038 21.038 0 0 1-6.956 4.408 23.53 23.53 0 0 1-8.423 1.469zm-60.156-.274a20.9 20.9 0 0 1-9.143-2 22.357 22.357 0 0 1-7.468-6 26.75 26.75 0 0 1-4.973-9.686 47.021 47.021 0 0 1-1.66-13.063 58.744 58.744 0 0 1 1.453-13.1 56.356 56.356 0 0 1 4.357-12.252 64.787 64.787 0 0 1 6.46-10.592 48.246 48.246 0 0 1 7.76-8.133 37.8 37.8 0 0 1 7.947-5.177 16.923 16.923 0 0 1 7.023-1.723 9.005 9.005 0 0 1 6.836 2.6 9.381 9.381 0 0 1 2.462 6.7 10.008 10.008 0 0 1-1.333 5.227 10.137 10.137 0 0 1-4 3.656 37.389 37.389 0 0 0-11.484 9.287 23.611 23.611 0 0 0-4.781 13.394h1.91a18.839 18.839 0 0 1 7.4 1.486 22.165 22.165 0 0 1 6.613 4.458 19.874 19.874 0 0 1 4.666 6.68 20.953 20.953 0 0 1 1.555 8.149 20.024 20.024 0 0 1-1.555 7.978 18.787 18.787 0 0 1-4.666 6.441 21.151 21.151 0 0 1-6.955 4.253 24.294 24.294 0 0 1-8.426 1.417z" fill="#fff" opacity=".3"/></g></svg>