<svg xmlns="http://www.w3.org/2000/svg" xmlns:xlink="http://www.w3.org/1999/xlink" viewBox="0 0 1195 614.241">
  <defs>
    <style>
      .cls-1 {
        fill: url(#linear-gradient);
      }

      .cls-2, .cls-6 {
        fill: none;
      }

      .cls-3 {
        clip-path: url(#clip-path);
      }

      .cls-4 {
        opacity: 0.671;
      }

      .cls-5 {
        clip-path: url(#clip-path-2);
      }

      .cls-6 {
        stroke: #707070;
        stroke-linecap: square;
        stroke-miterlimit: 10;
        stroke-width: 4px;
      }
    </style>
    <linearGradient id="linear-gradient" x1="0.931" y1="0.785" x2="-0.182" y2="-0.202" gradientUnits="objectBoundingBox">
      <stop offset="0" stop-color="#a6a8d3"/>
      <stop offset="0.724" stop-color="#6252d8"/>
      <stop offset="1" stop-color="#4831d9"/>
    </linearGradient>
    <clipPath id="clip-path">
      <path id="Subtraction_2" data-name="Subtraction 2" class="cls-1" d="M688.2,2494.729h-.013c-14.037,0-27.93-.439-41.294-1.3-13.738-.89-27.287-2.255-40.27-4.056-13.34-1.851-26.45-4.214-38.966-7.022-12.849-2.884-25.427-6.317-37.385-10.2a364.687,364.687,0,0,1-35.525-13.6,326.1,326.1,0,0,1-33.387-17.216,300.452,300.452,0,0,1-30.971-21.045,288.137,288.137,0,0,1-28.275-25.089,403.251,403.251,0,0,1-60.914-86.457c-16.244-31.376-27.181-63.729-32.508-96.159a282.377,282.377,0,0,1-3.738-50.141,271.565,271.565,0,0,1,5.6-50.674c1.758-8.479,3.957-17,6.535-25.339,2.616-8.458,5.695-16.948,9.15-25.236,3.507-8.411,7.5-16.841,11.857-25.053,4.428-8.339,9.36-16.68,14.658-24.792a176.544,176.544,0,0,1,15.107-19.859,194.3,194.3,0,0,1,17.858-17.8,223.717,223.717,0,0,1,20.409-15.852,265.583,265.583,0,0,1,22.759-14.009c7.82-4.3,16.2-8.429,24.908-12.273,8.484-3.745,17.519-7.327,26.856-10.645a525.318,525.318,0,0,1,58.755-16.831c19.8-4.515,41.378-8.418,64.14-11.6,21.137-2.956,43.988-5.387,67.92-7.226,41.616-3.2,87.658-4.753,140.755-4.753,53.261,0,106.761,1.582,153.963,2.978h.009c41.131,1.216,79.98,2.365,113.584,2.365,55.019,0,98.476,0,132.444,1.8,17.265.915,31.669,2.282,44.033,4.18a200.7,200.7,0,0,1,34.344,8.082c41.034,13.948,66.435,41.729,117.039,97.074,3.994,4.368,8.521,9.319,13.156,14.371a273.783,273.783,0,0,1,30.591,40.434,306.048,306.048,0,0,1,23.48,46.231,334.957,334.957,0,0,1,15.983,50.636,354.755,354.755,0,0,1,8.1,53.649,360.836,360.836,0,0,1-8.994,110.773,345.6,345.6,0,0,1-45.161,106.127c-45.235-24.954-105.411-38.144-174.025-38.144-71.028,0-148.3,14.177-217.572,39.919-28.487,10.586-57.527,20.279-86.313,28.81-30.8,9.129-61.613,17.014-91.579,23.436-66.622,14.279-129.57,21.519-187.095,21.519Z" transform="translate(-201.914 -1805)"/>
    </clipPath>
    <clipPath id="clip-path-2">
      <path id="Mask" class="cls-2" d="M2.575,70.846C-6.68,31.37,8.625,0,54.836,0s77.789,26.686,103.778,39.209S190.158,90,163.546,90s-57.356,20.324-83.169,33.558S11.829,110.322,2.575,70.846Z" transform="translate(0)"/>
    </clipPath>
  </defs>
  <g id="Group_1" data-name="Group 1" transform="translate(-103.001 -75.488)">
    <path id="Subtraction_1" data-name="Subtraction 1" class="cls-1" d="M688.2,2494.729h-.013c-14.037,0-27.93-.439-41.294-1.3-13.738-.89-27.287-2.255-40.27-4.056-13.34-1.851-26.45-4.214-38.966-7.022-12.849-2.884-25.427-6.317-37.385-10.2a364.76,364.76,0,0,1-35.525-13.6,326.1,326.1,0,0,1-33.387-17.216,300.452,300.452,0,0,1-30.971-21.045,288.137,288.137,0,0,1-28.275-25.089,403.251,403.251,0,0,1-60.914-86.457c-16.244-31.376-27.181-63.729-32.508-96.159a282.377,282.377,0,0,1-3.738-50.141,271.561,271.561,0,0,1,5.6-50.674c1.758-8.479,3.957-17,6.535-25.339,2.616-8.458,5.695-16.948,9.15-25.236,3.507-8.411,7.5-16.841,11.857-25.053,4.428-8.339,9.36-16.68,14.658-24.792a210.457,210.457,0,0,1,18.376-24.21,187.137,187.137,0,0,1,20.422-19.869,180.663,180.663,0,0,1,22.325-15.87,189.638,189.638,0,0,1,24.083-12.215,214.3,214.3,0,0,1,25.7-8.9,256.557,256.557,0,0,1,27.168-5.934c9.029-1.479,18.616-2.593,28.495-3.309,9.4-.681,19.382-1.027,29.677-1.027,13.4,0,27.369.557,42.714,1.7,13.69,1.021,28.188,2.493,44.321,4.5,30,3.731,61.49,8.831,91.943,13.763,64.442,10.437,131.073,21.228,194.063,21.228,70.763,0,134.183-6.808,190.137-12.815,23.118-2.482,44.954-4.826,65.934-6.564,23.54-1.951,42.647-2.859,60.13-2.859a359.988,359.988,0,0,1,51.217,3.311c8.308,1.188,16.405,2.734,24.066,4.593a219.381,219.381,0,0,1,23.116,6.956c31.677,11.517,59.2,30.333,84.154,57.524a273.783,273.783,0,0,1,30.591,40.434,306.047,306.047,0,0,1,23.48,46.231,334.982,334.982,0,0,1,15.983,50.636,354.772,354.772,0,0,1,8.1,53.649,360.836,360.836,0,0,1-8.994,110.773,345.6,345.6,0,0,1-45.161,106.127c-45.235-24.954-105.412-38.144-174.025-38.144-71.028,0-148.3,14.177-217.572,39.919-28.489,10.586-57.529,20.279-86.313,28.81-30.8,9.129-61.613,17.014-91.579,23.436-66.622,14.279-129.57,21.519-187.095,21.519Z" transform="translate(-201.914 -1805)"/>
    <g id="Mask_Group_1" data-name="Mask Group 1" class="cls-3">
      <image id="image01" width="453" height="674" transform="translate(782 99)" xlink:href="/assets/resources/images/homepage-bg-image.png"/>
    </g>
    <g id="Group_2" data-name="Group 2" class="cls-4" transform="translate(1029 520)">
      <path id="Mask-2" data-name="Mask" class="cls-2" d="M2.575,70.846C-6.68,31.37,8.625,0,54.836,0s77.789,26.686,103.778,39.209S190.158,90,163.546,90s-57.356,20.324-83.169,33.558S11.829,110.322,2.575,70.846Z" transform="translate(0)"/>
      <g id="Group_2-2" data-name="Group 2" class="cls-5">
        <g id="Group_2-3" data-name="Group 2" transform="translate(-90.974 -42.649)">
          <path id="Line_4" data-name="Line 4" class="cls-6" d="M153.72.44.433,193.851"/>
          <path id="Line_4-2" data-name="Line 4" class="cls-6" d="M153.72.44.433,193.851" transform="translate(8.66)"/>
          <path id="Line_4-3" data-name="Line 4" class="cls-6" d="M153.72.44.433,193.851" transform="translate(17.321)"/>
          <path id="Line_4-4" data-name="Line 4" class="cls-6" d="M153.72.44.433,193.851" transform="translate(25.981)"/>
          <path id="Line_4-5" data-name="Line 4" class="cls-6" d="M153.72.44.433,193.851" transform="translate(34.641)"/>
          <path id="Line_4-6" data-name="Line 4" class="cls-6" d="M153.72.44.433,193.851" transform="translate(43.301)"/>
          <path id="Line_4-7" data-name="Line 4" class="cls-6" d="M153.72.44.433,193.851" transform="translate(51.962)"/>
          <path id="Line_4-8" data-name="Line 4" class="cls-6" d="M153.72.44.433,193.851" transform="translate(60.622)"/>
          <path id="Line_4-9" data-name="Line 4" class="cls-6" d="M153.72.44.433,193.851" transform="translate(69.282)"/>
          <path id="Line_4-10" data-name="Line 4" class="cls-6" d="M153.72.44.433,193.851" transform="translate(77.943)"/>
          <path id="Line_4-11" data-name="Line 4" class="cls-6" d="M153.72.44.433,193.851" transform="translate(86.603)"/>
          <path id="Line_4-12" data-name="Line 4" class="cls-6" d="M153.72.44.433,193.851" transform="translate(95.263)"/>
          <path id="Line_4-13" data-name="Line 4" class="cls-6" d="M153.72.44.433,193.851" transform="translate(103.923)"/>
          <path id="Line_4-14" data-name="Line 4" class="cls-6" d="M153.72.44.433,193.851" transform="translate(112.584)"/>
          <path id="Line_4-15" data-name="Line 4" class="cls-6" d="M153.72.44.433,193.851" transform="translate(121.244)"/>
          <path id="Line_4-16" data-name="Line 4" class="cls-6" d="M153.72.44.433,193.851" transform="translate(129.904)"/>
          <path id="Line_4-17" data-name="Line 4" class="cls-6" d="M153.72.44.433,193.851" transform="translate(138.565)"/>
          <path id="Line_4-18" data-name="Line 4" class="cls-6" d="M153.72.44.433,193.851" transform="translate(147.225)"/>
          <path id="Line_4-19" data-name="Line 4" class="cls-6" d="M153.72.44.433,193.851" transform="translate(155.885)"/>
          <path id="Line_4-20" data-name="Line 4" class="cls-6" d="M153.72.44.433,193.851" transform="translate(164.545)"/>
          <path id="Line_4-21" data-name="Line 4" class="cls-6" d="M153.72.44.433,193.851" transform="translate(173.206)"/>
          <path id="Line_4-22" data-name="Line 4" class="cls-6" d="M153.72.44.433,193.851" transform="translate(181.866)"/>
          <path id="Line_4-23" data-name="Line 4" class="cls-6" d="M153.72.44.433,193.851" transform="translate(190.526)"/>
          <path id="Line_4-24" data-name="Line 4" class="cls-6" d="M153.72.44.433,193.851" transform="translate(199.187)"/>
          <path id="Line_4-25" data-name="Line 4" class="cls-6" d="M153.72.44.433,193.851" transform="translate(207.847)"/>
        </g>
      </g>
    </g>
  </g>
</svg>
