<svg xmlns="http://www.w3.org/2000/svg" viewBox="0 0 2333 1133.6">
  <title>Asset 1220</title>
  <g id="Layer_2" data-name="Layer 2">
    <g id="Layer_2-2" data-name="Layer 2">
      <g>
        <path d="M989.3,1008.6c-9.4,0-14-5.9-18.2-11.1s-7-8.9-13.5-8.9-9.7,4.1-13.5,8.9-8.8,11.1-18.2,11.1-14-5.9-18.2-11.1-7-8.9-13.5-8.9-9.7,4.1-13.5,8.9-8.8,11.1-18.2,11.1-14-5.9-18.2-11.1-7-8.9-13.5-8.9a3,3,0,0,1,0-6c9.4,0,14,5.9,18.2,11.1s7,8.9,13.5,8.9,9.7-4.1,13.5-8.9,8.8-11.1,18.2-11.1,14,5.9,18.2,11.1,7,8.9,13.5,8.9,9.7-4.1,13.5-8.9,8.8-11.1,18.2-11.1,14,5.9,18.2,11.1,7,8.9,13.5,8.9a3,3,0,0,1,0,6Z" fill="#fff"/>
        <path d="M871.5,581.8c-9.4,0-14-5.9-18.2-11.1s-7-8.9-13.5-8.9-9.7,4.1-13.5,8.9-8.8,11.1-18.2,11.1-14-5.9-18.2-11.1-7-8.9-13.5-8.9-9.7,4.1-13.5,8.9-8.8,11.1-18.2,11.1-14-5.9-18.2-11.1-7-8.9-13.5-8.9a3,3,0,1,1,0-6c9.4,0,14,5.9,18.2,11.1s7,8.9,13.5,8.9,9.7-4.1,13.5-8.9,8.8-11.1,18.2-11.1,14,5.9,18.2,11.1,7,8.9,13.5,8.9,9.7-4.1,13.5-8.9,8.8-11.1,18.2-11.1,14,5.9,18.2,11.1,7,8.9,13.5,8.9a3,3,0,0,1,0,6Z" fill="#fff"/>
        <path d="M157.4,634.9a3,3,0,0,1-.7-5.9l34.6-7.8,7.8-34.6a3,3,0,0,1,2.3-2.3l34.6-7.8,7.8-34.6a3,3,0,0,1,2.3-2.3l36.5-8.2a3,3,0,1,1,1.3,5.9L249.3,545l-7.8,34.6a3,3,0,0,1-2.3,2.3l-34.6,7.8-7.8,34.6a3,3,0,0,1-2.3,2.3l-36.5,8.2Z" fill="#fff"/>
        <path d="M830.7,281.7a3,3,0,0,1-1.6-.5l-30-19-30,19a3,3,0,0,1-3.2,0l-30-19-30,19a3,3,0,0,1-3.2,0l-31.6-20a3,3,0,0,1,3.2-5.1l30,19,30-19a3,3,0,0,1,3.2,0l30,19,30-19a3,3,0,0,1,3.2,0l31.6,20a3,3,0,0,1-1.6,5.5Z" fill="#fff"/>
        <path d="M878.9,717.8a3,3,0,0,1-1.6-.5l-30-19-30,19a3,3,0,0,1-3.2,0l-31.6-20a3,3,0,0,1,3.2-5.1l30,19,30-19a3,3,0,0,1,3.2,0l31.6,20a3,3,0,0,1-1.6,5.5Z" fill="#fff"/>
        <path d="M878.9,745a3,3,0,0,1-1.6-.5l-30-19-30,19a3,3,0,0,1-3.2-5.1l31.6-20a3,3,0,0,1,3.2,0l31.6,20a3,3,0,0,1-1.6,5.5Z" fill="#fff"/>
        <path d="M599.9,231.3a3,3,0,0,1-1.6-.5l-30-19-30,19a3,3,0,1,1-3.2-5.1l31.6-20a3,3,0,0,1,3.2,0l31.6,20a3,3,0,0,1-1.6,5.5Z" fill="#fff"/>
        <path d="M1128,382.9a3,3,0,0,1-1.6-.5l-30-19-30,19a3,3,0,1,1-3.2-5.1l31.6-20a3,3,0,0,1,3.2,0l31.6,20a3,3,0,0,1-1.6,5.5Z" fill="#fff"/>
        <path d="M1100.6,1095.3a3,3,0,0,1-1.6-.5l-30-19-30,19a3,3,0,0,1-3.2,0l-31.6-20a3,3,0,0,1,3.2-5.1l30,19,30-19a3,3,0,0,1,3.2,0l31.6,20a3,3,0,0,1-1.6,5.5Z" fill="#fff"/>
        <path d="M1100.6,1122.6a3,3,0,0,1-1.6-.5l-30-19-30,19a3,3,0,1,1-3.2-5.1l31.6-20a3,3,0,0,1,3.2,0l31.6,20a3,3,0,0,1-1.6,5.5Z" fill="#fff"/>
        <path d="M119.8,259.4a3,3,0,0,1-1.6-.5l-30-19-30,19a3,3,0,0,1-3.2,0L23.4,239a3,3,0,0,1,3.2-5.1l30,19,30-19a3,3,0,0,1,3.2,0l31.6,20a3,3,0,0,1-1.6,5.5Z" fill="#fff"/>
        <path d="M56.6,286.7a3,3,0,0,1-1.6-5.5l31.6-20a3,3,0,0,1,3.2,0l31.6,20a3,3,0,0,1-3.2,5.1l-30-19-30,19A3,3,0,0,1,56.6,286.7Z" fill="#fff"/>
        <path d="M434,471.3a3,3,0,0,1-1.6-.5l-30-19-30,19a3,3,0,0,1-3.2,0l-31.6-20a3,3,0,0,1,3.2-5.1l30,19,30-19a3,3,0,0,1,3.2,0l31.6,20a3,3,0,0,1-1.6,5.5Z" fill="#fff"/>
        <path d="M434,498.5a3,3,0,0,1-1.6-.5l-30-19-30,19a3,3,0,0,1-3.2-5.1l31.6-20a3,3,0,0,1,3.2,0l31.6,20a3,3,0,0,1-1.6,5.5Z" fill="#fff"/>
        <path d="M104,636.5a3,3,0,0,1-1.6-.5l-30-19-30,19a3,3,0,0,1-3.2-5.1l31.6-20a3,3,0,0,1,3.2,0l31.6,20a3,3,0,0,1-1.6,5.5Z" fill="#fff"/>
        <path d="M539.3,974a3,3,0,0,1-.7-5.9l34.6-7.8,7.8-34.6a3,3,0,0,1,2.3-2.3l36.5-8.2a3,3,0,0,1,1.3,5.9l-34.6,7.8-7.8,34.6a3,3,0,0,1-2.3,2.3l-36.5,8.2Z" fill="#fff"/>
        <path d="M1018.3,232.5a3,3,0,0,1-.7-5.9l34.6-7.8,7.8-34.6a3,3,0,0,1,2.3-2.3l36.5-8.2a3,3,0,1,1,1.3,5.9l-34.6,7.8-7.8,34.6a3,3,0,0,1-2.3,2.3l-36.5,8.2Z" fill="#fff"/>
        <path d="M294.7,921.4a3,3,0,0,1-1.6-.5l-30-19-30,19a3,3,0,0,1-3.2-5.1l31.6-20a3,3,0,0,1,3.2,0l31.6,20a3,3,0,0,1-1.6,5.5Z" fill="#fff"/>
        <path d="M554.9,567.3a3,3,0,0,1-1.6-.5l-30-19-30,19a3,3,0,0,1-3.2-5.1l31.6-20a3,3,0,0,1,3.2,0l31.6,20a3,3,0,0,1-1.6,5.5Z" fill="#fff"/>
        <path d="M910.6,93.4a3,3,0,0,1-1.6-.5l-30-19-30,19a3,3,0,1,1-3.2-5.1l31.6-20a3,3,0,0,1,3.2,0l31.6,20a3,3,0,0,1-1.6,5.5Z" fill="#fff"/>
        <g>
          <path d="M434,646.3a3,3,0,0,1-3-3V603.8a3,3,0,1,1,6,0v39.5A3,3,0,0,1,434,646.3Z" fill="#fff"/>
          <path d="M453.7,626.5H414.2a3,3,0,1,1,0-6h39.5a3,3,0,0,1,0,6Z" fill="#fff"/>
        </g>
        <g>
          <path d="M426.6,282.8a3,3,0,0,1-3-3V240.3a3,3,0,0,1,6,0v39.5A3,3,0,0,1,426.6,282.8Z" fill="#fff"/>
          <path d="M446.3,263.1H406.8a3,3,0,0,1,0-6h39.5a3,3,0,1,1,0,6Z" fill="#fff"/>
        </g>
        <g>
          <path d="M101.4,149.5a3,3,0,0,1-3-3V107a3,3,0,0,1,6,0v39.5A3,3,0,0,1,101.4,149.5Z" fill="#fff"/>
          <path d="M121.2,129.8H81.7a3,3,0,0,1,0-6h39.5a3,3,0,0,1,0,6Z" fill="#fff"/>
        </g>
        <path d="M351.4,959.2a19,19,0,1,1,19-19A19.1,19.1,0,0,1,351.4,959.2Zm0-32.1a13,13,0,1,0,13,13A13.1,13.1,0,0,0,351.4,927.2Z" fill="#fff"/>
        <path d="M231.5,436.3a19,19,0,1,1,19-19A19.1,19.1,0,0,1,231.5,436.3Zm0-32.1a13,13,0,1,0,13,13A13.1,13.1,0,0,0,231.5,404.2Z" fill="#fff"/>
        <path d="M568.4,342.6a19,19,0,1,1,19-19A19.1,19.1,0,0,1,568.4,342.6Zm0-32.1a13,13,0,1,0,13,13A13.1,13.1,0,0,0,568.4,310.5Z" fill="#fff"/>
        <path d="M101.4,957.1a19,19,0,1,1,19-19A19.1,19.1,0,0,1,101.4,957.1Zm0-32.1a13,13,0,1,0,13,13A13.1,13.1,0,0,0,101.4,925Z" fill="#fff"/>
        <g>
          <path d="M260.4,245.2a3,3,0,0,1-2.6-1.5l-.4-.7-.4.7a3,3,0,1,1-5.2-3l3-5.2a3,3,0,0,1,5.2,0l3,5.2a3,3,0,0,1-2.6,4.5Z" fill="#fff"/>
          <path d="M241.1,268.2a3,3,0,0,1-2.6-4.5l6.6-11.5a3,3,0,1,1,5.2,3l-6.6,11.5A3,3,0,0,1,241.1,268.2Z" fill="#fff"/>
          <path d="M237.5,284.9h-6a3,3,0,0,1-2.6-4.5l3-5.2a3,3,0,0,1,5.2,3l-.4.7h.8a3,3,0,0,1,0,6Z" fill="#fff"/>
          <path d="M264,284.9H250.8a3,3,0,0,1,0-6H264a3,3,0,0,1,0,6Z" fill="#fff"/>
          <path d="M283.3,284.9h-6a3,3,0,0,1,0-6h.8l-.4-.7a3,3,0,0,1,5.2-3l3,5.2a3,3,0,0,1-2.6,4.5Z" fill="#fff"/>
          <path d="M273.7,268.2a3,3,0,0,1-2.6-1.5l-6.6-11.5a3,3,0,0,1,5.2-3l6.6,11.5a3,3,0,0,1-2.6,4.5Z" fill="#fff"/>
        </g>
        <path d="M1125.4,535.9h-7.7a3,3,0,0,1,0-6h2.6a3,3,0,0,1,5.5-2.3l2.2,3.8a3,3,0,0,1-2.6,4.5Zm-19.7,0h-12a3,3,0,0,1,0-6h12a3,3,0,0,1,0,6Zm-24,0h-8.2a3,3,0,0,1-2.6-4.5l1.9-3.3a3,3,0,0,1,5.6,1.8h3.3a3,3,0,0,1,0,6Zm-.3-13.7a3,3,0,0,1-2.6-4.5l6-10.4a3,3,0,1,1,5.2,3l-6,10.4A3,3,0,0,1,1081.5,522.1Zm35.8-.4a3,3,0,0,1-2.6-1.5l-6-10.4a3,3,0,1,1,5.2-3l6,10.4a3,3,0,0,1-2.6,4.5Zm-23.8-20.3a3,3,0,0,1-2.6-4.5l6-10.4a3,3,0,0,1,5.2,0l5.7,10a3,3,0,1,1-5.2,3l-3.1-5.5-3.4,5.9A3,3,0,0,1,1093.5,501.4Z" fill="#fff"/>
        <path d="M665.7,681.4H658a3,3,0,0,1,0-6h2.6a3,3,0,0,1,5.5-2.3l2.2,3.8a3,3,0,0,1-2.6,4.5Zm-19.7,0H634a3,3,0,0,1,0-6h12a3,3,0,0,1,0,6Zm-24,0h-8.2a3,3,0,0,1-2.6-4.5l1.9-3.3a3,3,0,0,1,5.6,1.8H622a3,3,0,0,1,0,6Zm-.3-13.7a3,3,0,0,1-2.6-4.5l6-10.4a3,3,0,1,1,5.2,3l-6,10.4A3,3,0,0,1,621.7,667.7Zm35.8-.4a3,3,0,0,1-2.6-1.5l-6-10.4a3,3,0,0,1,5.2-3l6,10.4a3,3,0,0,1-2.6,4.5Zm-23.8-20.3a3,3,0,0,1-2.6-4.5l6-10.4a3,3,0,0,1,5.2,0l5.7,10a3,3,0,1,1-5.2,3l-3.1-5.5-3.4,5.9A3,3,0,0,1,633.7,646.9Z" fill="#fff"/>
        <path d="M696.7,177.7a19,19,0,1,1,19-19A19.1,19.1,0,0,1,696.7,177.7Zm0-32.1a13,13,0,1,0,13,13A13.1,13.1,0,0,0,696.7,145.7Z" fill="#fff"/>
        <path d="M233.1,83.1a3,3,0,0,1-.7-5.9l34.6-7.8,7.8-34.6a3,3,0,0,1,2.3-2.3l36.5-8.2a3,3,0,0,1,1.3,5.9l-34.6,7.8-7.8,34.6a3,3,0,0,1-2.3,2.3l-36.5,8.2Z" fill="#fff"/>
        <path d="M860,432.4a3,3,0,0,1-.7-5.9l34.6-7.8,7.8-34.6a3,3,0,0,1,2.3-2.3l36.5-8.2a3,3,0,1,1,1.3,5.9l-34.6,7.8-7.8,34.6a3,3,0,0,1-2.3,2.3l-36.5,8.2Z" fill="#fff"/>
        <path d="M785.1,905.5H750.9a3,3,0,0,1-3-3V868.3a3,3,0,0,1,3-3h34.3a3,3,0,0,1,3,3v34.3A3,3,0,0,1,785.1,905.5Zm-31.3-6h28.3V871.3H753.9Z" fill="#fff"/>
        <path d="M468.7,919.7a3,3,0,0,1-2.1-.9l-24.2-24.2a3,3,0,0,1,0-4.2l24.2-24.2a3.1,3.1,0,0,1,4.2,0l24.2,24.2a3,3,0,0,1,0,4.2l-24.2,24.2A3,3,0,0,1,468.7,919.7Zm-20-27.2,20,20,20-20-20-20Z" fill="#fff"/>
        <path d="M247.5,1133.6h0a3,3,0,0,1-2.1-.9l-24.2-24.2a3,3,0,0,1,0-4.2l24.2-24.2a3.1,3.1,0,0,1,4.2,0l24.2,24.2a3,3,0,0,1,0,4.2l-24.2,24.2A3,3,0,0,1,247.5,1133.6Zm-20-27.2,20,20,20-20-20-20Z" fill="#fff"/>
        <g>
          <path d="M1047,911.3H989.6a3,3,0,0,1-3-3V850.9a3,3,0,0,1,3-3H1047a3,3,0,0,1,3,3v57.3A3,3,0,0,1,1047,911.3Zm-54.3-6H1044V853.9H992.6Z" fill="#fff"/>
          <path d="M1047,853.9h-11a3,3,0,0,1,0-6h9.9a3,3,0,0,1,3.8,4.6l-.8.7A3,3,0,0,1,1047,853.9Zm-23,0h-12a3,3,0,0,1,0-6h12a3,3,0,1,1,0,6Zm-24,0H989.6a3,3,0,0,1-1.9-5.3l1.2-1.1a3,3,0,0,1,4.2.3h6.9a3,3,0,0,1,0,6Zm56.9-8.5a3,3,0,0,1-2.9-2.1h-6.7a3,3,0,0,1,0-6h12a3,3,0,0,1,2,5.3l-2.5,2.1A3,3,0,0,1,1056.9,845.5Zm-56.9-.4a3,3,0,0,1-2-5.3l2-1.7a3,3,0,0,1,1.9-.7h9.3a3,3,0,0,1,0,6h-8.2l-1.2,1A3,3,0,0,1,1000,845.1Zm35.4-1.7h-12a3,3,0,0,1,0-6h12a3,3,0,0,1,0,6Z" fill="#fff"/>
          <path d="M1047,911.3l-1.3-.3a3,3,0,0,1-1.7-2.7v-11a3,3,0,0,1,6,0v8.3h.1a3,3,0,0,1-.3,4.2l-.8.7A3,3,0,0,1,1047,911.3Zm9.9-8.5a3,3,0,0,1-2-5.3l1.4-1.2V885.7a3,3,0,1,1,6,0v12a3,3,0,0,1-1,2.3l-2.5,2.1A3,3,0,0,1,1056.9,902.8Zm-9.9-14.5a3,3,0,0,1-3-3v-12a3,3,0,0,1,6,0v12A3,3,0,0,1,1047,888.3Zm12.4-11.6a3,3,0,0,1-3-3v-12a3,3,0,1,1,6,0v12A3,3,0,0,1,1059.3,876.7ZM1047,864.3a3,3,0,0,1-3-3V850.9a3,3,0,0,1,1-2.3l1.2-1.1a3,3,0,1,1,3.9,4.6l-.2.2v9A3,3,0,0,1,1047,864.3Zm12.4-11.6a3,3,0,0,1-3-3v-4.8a3,3,0,0,1-1-5.1l2-1.7a3,3,0,0,1,5,2.3v9.3A3,3,0,0,1,1059.3,852.7Z" fill="#fff"/>
        </g>
        <path d="M1720.4,1129.3c-9.4,0-14-5.9-18.2-11.1s-7-8.9-13.5-8.9-9.7,4.1-13.5,8.9-8.8,11.1-18.2,11.1-14-5.9-18.2-11.1-7-8.9-13.5-8.9-9.7,4.1-13.5,8.9-8.8,11.1-18.2,11.1-14-5.9-18.2-11.1-7-8.9-13.5-8.9a3,3,0,0,1,0-6c9.4,0,14,5.9,18.2,11.1s7,8.9,13.5,8.9,9.7-4.1,13.5-8.9,8.8-11.1,18.2-11.1,14,5.9,18.2,11.1,7,8.9,13.5,8.9,9.7-4.1,13.5-8.9,8.8-11.1,18.2-11.1,14,5.9,18.2,11.1,7,8.9,13.5,8.9a3,3,0,0,1,0,6Z" fill="#fff"/>
        <path d="M2330,57.8c-9.4,0-14-5.9-18.2-11.1s-7-8.9-13.5-8.9-9.7,4.1-13.5,8.9-8.8,11.1-18.2,11.1-14-5.9-18.2-11.1-7-8.9-13.5-8.9-9.7,4.1-13.5,8.9-8.8,11.1-18.2,11.1-14-5.9-18.2-11.1-7-8.9-13.5-8.9a3,3,0,0,1,0-6c9.4,0,14,5.9,18.2,11.1s7,8.9,13.5,8.9,9.7-4.1,13.5-8.9,8.8-11.1,18.2-11.1,14,5.9,18.2,11.1,7,8.9,13.5,8.9,9.7-4.1,13.5-8.9,8.8-11.1,18.2-11.1,14,5.9,18.2,11.1,7,8.9,13.5,8.9a3,3,0,0,1,0,6Z" fill="#fff"/>
        <path d="M2072.8,581.8c-9.4,0-14-5.9-18.2-11.1s-7-8.9-13.5-8.9-9.7,4.1-13.5,8.9-8.8,11.1-18.2,11.1-14-5.9-18.2-11.1-7-8.9-13.5-8.9-9.7,4.1-13.5,8.9-8.8,11.1-18.2,11.1-14-5.9-18.2-11.1-7-8.9-13.5-8.9a3,3,0,0,1,0-6c9.4,0,14,5.9,18.2,11.1s7,8.9,13.5,8.9,9.7-4.1,13.5-8.9,8.8-11.1,18.2-11.1,14,5.9,18.2,11.1,7,8.9,13.5,8.9,9.7-4.1,13.5-8.9,8.8-11.1,18.2-11.1,14,5.9,18.2,11.1,7,8.9,13.5,8.9a3,3,0,0,1,0,6Z" fill="#fff"/>
        <path d="M1358.7,634.9a3,3,0,0,1-.7-5.9l34.6-7.8,7.8-34.6a3,3,0,0,1,2.3-2.3l34.6-7.8,7.8-34.6a3,3,0,0,1,2.3-2.3l36.5-8.2a3,3,0,1,1,1.3,5.9l-34.6,7.8-7.8,34.6a3,3,0,0,1-2.3,2.3l-34.6,7.8-7.8,34.6a3,3,0,0,1-2.3,2.3l-36.5,8.2Z" fill="#fff"/>
        <path d="M1295,1071.7a3,3,0,0,1-.7-5.9l11.7-2.6a3,3,0,1,1,1.3,5.9l-11.7,2.6Zm23.4-5.3a3,3,0,0,1-.7-5.9l11.7-2.6a3,3,0,1,1,1.3,5.9l-11.7,2.6Zm15.4-13.3h-.7a3,3,0,0,1-2.3-3.6l2.6-11.7a3,3,0,0,1,5.9,1.3l-2.6,11.7A3,3,0,0,1,1333.8,1053.1Zm5.3-23.4h-.7a3,3,0,0,1-2.3-3.6l.6-2.7a3,3,0,0,1,2.3-2.3l9-2a3,3,0,1,1,1.3,5.9l-7.1,1.6-.2.9A3,3,0,0,1,1339.1,1029.7Zm21.3-7.4a3,3,0,0,1-.7-5.9l11.7-2.6a3,3,0,0,1,1.3,5.9l-11.7,2.6Zm17.5-11.2h-.7a3,3,0,0,1-2.3-3.6l2.6-11.7a3,3,0,1,1,5.9,1.3l-2.6,11.7A3,3,0,0,1,1377.9,1011.2Zm5.3-23.4h-.7a3,3,0,0,1-2.3-3.6l1.2-5.5a3,3,0,0,1,2.3-2.3l6.2-1.4a3,3,0,1,1,1.3,5.9l-4.4,1-.8,3.6A3,3,0,0,1,1383.2,987.8Zm19.2-9.5a3,3,0,0,1-.7-5.9l11.7-2.6a3,3,0,1,1,1.3,5.9l-11.7,2.6Z" fill="#fff"/>
        <path d="M1801.2,231.3a3,3,0,0,1-1.6-.5l-30-19-30,19a3,3,0,1,1-3.2-5.1l31.6-20a3,3,0,0,1,3.2,0l31.6,20a3,3,0,0,1-1.6,5.5Z" fill="#fff"/>
        <path d="M2329.3,382.9a3,3,0,0,1-1.6-.5l-30-19-30,19a3,3,0,1,1-3.2-5.1l31.6-20a3,3,0,0,1,3.2,0l31.6,20a3,3,0,0,1-1.6,5.5Z" fill="#fff"/>
        <path d="M2301.9,1122.6a3,3,0,0,1-1.6-.5l-30-19-30,19a3,3,0,0,1-3.2-5.1l31.6-20a3,3,0,0,1,3.2,0l31.6,20a3,3,0,0,1-1.6,5.5Z" fill="#fff"/>
        <path d="M1321.1,259.4a3,3,0,0,1-1.6-.5l-30-19-30,19a3,3,0,0,1-3.2,0l-31.6-20a3,3,0,0,1,3.2-5.1l30,19,30-19a3,3,0,0,1,3.2,0l31.6,20a3,3,0,0,1-1.6,5.5Z" fill="#fff"/>
        <path d="M1321.1,286.7a3,3,0,0,1-1.6-.5l-30-19-30,19a3,3,0,1,1-3.2-5.1l31.6-20a3,3,0,0,1,3.2,0l31.6,20a3,3,0,0,1-1.6,5.5Z" fill="#fff"/>
        <path d="M1635.3,471.3a3,3,0,0,1-1.6-.5l-30-19-30,19a3,3,0,0,1-3.2,0l-31.6-20a3,3,0,0,1,3.2-5.1l30,19,30-19a3,3,0,0,1,3.2,0l31.6,20a3,3,0,0,1-1.6,5.5Z" fill="#fff"/>
        <path d="M1305.3,636.5a3,3,0,0,1-1.6-.5l-30-19-30,19a3,3,0,0,1-3.2-5.1l31.6-20a3,3,0,0,1,3.2,0l31.6,20a3,3,0,0,1-1.6,5.5Z" fill="#fff"/>
        <path d="M1740.6,974a3,3,0,0,1-.7-5.9l34.6-7.8,7.8-34.6a3,3,0,0,1,2.3-2.3l36.5-8.2a3,3,0,1,1,1.3,5.9l-34.6,7.8-7.8,34.6a3,3,0,0,1-2.3,2.3l-36.5,8.2Z" fill="#fff"/>
        <path d="M2219.6,232.5a3,3,0,0,1-.7-5.9l34.6-7.8,7.8-34.6a3,3,0,0,1,2.3-2.3l36.5-8.2a3,3,0,1,1,1.3,5.9l-34.6,7.8L2259,222a3,3,0,0,1-2.3,2.3l-36.5,8.2Z" fill="#fff"/>
        <path d="M1496,921.4a3,3,0,0,1-1.6-.5l-30-19-30,19a3,3,0,1,1-3.2-5.1l31.6-20a3,3,0,0,1,3.2,0l31.6,20a3,3,0,0,1-1.6,5.5Z" fill="#fff"/>
        <path d="M1756.2,567.3a3,3,0,0,1-1.6-.5l-30-19-30,19a3,3,0,1,1-3.2-5.1l31.6-20a3,3,0,0,1,3.2,0l31.6,20a3,3,0,0,1-1.6,5.5Z" fill="#fff"/>
        <path d="M2048.7,93.4a3,3,0,0,1-1.6-5.5l31.6-20a3,3,0,0,1,3.2,0l31.6,20a3,3,0,1,1-3.2,5.1l-30-19-30,19A3,3,0,0,1,2048.7,93.4Z" fill="#fff"/>
        <g>
          <path d="M1552.7,852.8a3,3,0,0,1-3-3V810.3a3,3,0,0,1,6,0v39.5A3,3,0,0,1,1552.7,852.8Z" fill="#fff"/>
          <path d="M1572.5,833.1H1533a3,3,0,0,1,0-6h39.5a3,3,0,0,1,0,6Z" fill="#fff"/>
        </g>
        <g>
          <path d="M1627.9,282.8a3,3,0,0,1-3-3V240.3a3,3,0,0,1,6,0v39.5A3,3,0,0,1,1627.9,282.8Z" fill="#fff"/>
          <path d="M1647.6,263.1h-39.5a3,3,0,0,1,0-6h39.5a3,3,0,0,1,0,6Z" fill="#fff"/>
        </g>
        <g>
          <path d="M2260.7,727.5a3,3,0,0,1-3-3V685a3,3,0,0,1,6,0v39.5A3,3,0,0,1,2260.7,727.5Z" fill="#fff"/>
          <path d="M2280.4,707.8h-39.5a3,3,0,0,1,0-6h39.5a3,3,0,0,1,0,6Z" fill="#fff"/>
        </g>
        <path d="M1552.7,959.2a19,19,0,1,1,19-19A19.1,19.1,0,0,1,1552.7,959.2Zm0-32.1a13,13,0,1,0,13,13A13.1,13.1,0,0,0,1552.7,927.2Z" fill="#fff"/>
        <path d="M1432.8,436.3a19,19,0,1,1,19-19A19.1,19.1,0,0,1,1432.8,436.3Zm0-32.1a13,13,0,1,0,13,13A13.1,13.1,0,0,0,1432.8,404.2Z" fill="#fff"/>
        <path d="M1769.7,342.6a19,19,0,1,1,19-19A19.1,19.1,0,0,1,1769.7,342.6Zm0-32.1a13,13,0,1,0,13,13A13.1,13.1,0,0,0,1769.7,310.5Z" fill="#fff"/>
        <path d="M1302.7,957.1a19,19,0,1,1,19-19A19.1,19.1,0,0,1,1302.7,957.1Zm0-32.1a13,13,0,1,0,13,13A13.1,13.1,0,0,0,1302.7,925Z" fill="#fff"/>
        <g>
          <path d="M1461.7,245.2a3,3,0,0,1-2.6-1.5l-.4-.7-.4.7a3,3,0,1,1-5.2-3l3-5.2a3,3,0,0,1,5.2,0l3,5.2a3,3,0,0,1-2.6,4.5Z" fill="#fff"/>
          <path d="M1442.4,268.2a3,3,0,0,1-2.6-4.5l6.6-11.5a3,3,0,1,1,5.2,3l-6.6,11.5A3,3,0,0,1,1442.4,268.2Z" fill="#fff"/>
          <path d="M1438.8,284.9h-6a3,3,0,0,1-2.6-4.5l3-5.2a3,3,0,1,1,5.2,3l-.4.7h.8a3,3,0,0,1,0,6Z" fill="#fff"/>
          <path d="M1465.4,284.9h-13.3a3,3,0,0,1,0-6h13.3a3,3,0,0,1,0,6Z" fill="#fff"/>
          <path d="M1484.6,284.9h-6a3,3,0,0,1,0-6h.8l-.4-.7a3,3,0,1,1,5.2-3l3,5.2a3,3,0,0,1-2.6,4.5Z" fill="#fff"/>
          <path d="M1475,268.2a3,3,0,0,1-2.6-1.5l-6.6-11.5a3,3,0,1,1,5.2-3l6.6,11.5a3,3,0,0,1-2.6,4.5Z" fill="#fff"/>
        </g>
        <path d="M1867,681.4h-7.7a3,3,0,0,1,0-6h2.6a3,3,0,0,1,5.5-2.3l2.2,3.8a3,3,0,0,1-2.6,4.5Zm-19.7,0h-12a3,3,0,0,1,0-6h12a3,3,0,0,1,0,6Zm-24,0h-8.2a3,3,0,0,1-2.6-4.5l1.9-3.3a3,3,0,0,1,5.6,1.8h3.3a3,3,0,0,1,0,6Zm-.3-13.7a3,3,0,0,1-2.6-4.5l6-10.4a3,3,0,1,1,5.2,3l-6,10.4A3,3,0,0,1,1823.1,667.7Zm35.8-.4a3,3,0,0,1-2.6-1.5l-6-10.4a3,3,0,0,1,5.2-3l6,10.4a3,3,0,0,1-2.6,4.5Zm-23.8-20.3a3,3,0,0,1-2.6-4.5l6-10.4a3,3,0,0,1,5.2,0l5.7,10a3,3,0,0,1-5.2,3l-3.1-5.5-3.4,5.9A3,3,0,0,1,1835.1,646.9Z" fill="#fff"/>
        <path d="M1898,177.7a19,19,0,1,1,19-19A19.1,19.1,0,0,1,1898,177.7Zm0-32.1a13,13,0,1,0,13,13A13.1,13.1,0,0,0,1898,145.7Z" fill="#fff"/>
        <path d="M1434.4,83.1a3,3,0,0,1-.7-5.9l34.6-7.8,7.8-34.6a3,3,0,0,1,2.3-2.3l36.5-8.2a3,3,0,1,1,1.3,5.9l-34.6,7.8-7.8,34.6a3,3,0,0,1-2.3,2.3l-36.5,8.2Z" fill="#fff"/>
        <path d="M2061.4,432.4a3,3,0,0,1-.7-5.9l34.6-7.8,7.8-34.6a3,3,0,0,1,2.3-2.3l36.5-8.2a3,3,0,1,1,1.3,5.9l-34.6,7.8-7.8,34.6a3,3,0,0,1-2.3,2.3l-36.5,8.2Z" fill="#fff"/>
        <path d="M1986.5,905.5h-34.3a3,3,0,0,1-3-3V868.3a3,3,0,0,1,3-3h34.3a3,3,0,0,1,3,3v34.3A3,3,0,0,1,1986.5,905.5Zm-31.3-6h28.3V871.3h-28.3Z" fill="#fff"/>
        <path d="M62.1,474.9a3,3,0,0,1-2.1-5.1c6.6-6.6,14.1-5.7,20.7-5s11.2,1.3,15.8-3.2,4-9.8,3.2-15.8-1.7-14.1,5-20.7,14.1-5.7,20.7-5,11.2,1.3,15.8-3.2,4-9.8,3.2-15.8-1.7-14.1,5-20.7,14.1-5.7,20.7-5,11.2,1.3,15.8-3.2a3,3,0,0,1,4.2,4.2c-6.6,6.6-14.1,5.7-20.7,5s-11.2-1.3-15.8,3.2-4,9.8-3.2,15.8,1.7,14.1-5,20.7-14.1,5.7-20.7,5-11.2-1.3-15.8,3.2-4,9.8-3.2,15.8,1.7,14.1-5,20.7-14.1,5.7-20.7,5-11.2-1.3-15.8,3.2A3,3,0,0,1,62.1,474.9Z" fill="#e4f2f9"/>
        <path d="M519.1,1129.3c-9.4,0-14-5.9-18.2-11.1s-7-8.9-13.5-8.9-9.7,4.1-13.5,8.9-8.8,11.1-18.2,11.1-14-5.9-18.2-11.1-7-8.9-13.5-8.9-9.7,4.1-13.5,8.9-8.8,11.1-18.2,11.1-14-5.9-18.2-11.1-7-8.9-13.5-8.9a3,3,0,0,1,0-6c9.4,0,14,5.9,18.2,11.1s7,8.9,13.5,8.9,9.7-4.1,13.5-8.9,8.8-11.1,18.2-11.1,14,5.9,18.2,11.1,7,8.9,13.5,8.9,9.7-4.1,13.5-8.9,8.8-11.1,18.2-11.1,14,5.9,18.2,11.1,7,8.9,13.5,8.9a3,3,0,0,1,0,6Z" fill="#e4f2f9"/>
        <path d="M1128.6,57.8c-9.4,0-14-5.9-18.2-11.1s-7-8.9-13.5-8.9-9.7,4.1-13.5,8.9-8.8,11.1-18.2,11.1-14-5.9-18.2-11.1-7-8.9-13.5-8.9-9.7,4.1-13.5,8.9-8.8,11.1-18.2,11.1-14-5.9-18.2-11.1-7-8.9-13.5-8.9a3,3,0,0,1,0-6c9.4,0,14,5.9,18.2,11.1s7,8.9,13.5,8.9,9.7-4.1,13.5-8.9,8.8-11.1,18.2-11.1,14,5.9,18.2,11.1,7,8.9,13.5,8.9,9.7-4.1,13.5-8.9,8.8-11.1,18.2-11.1,14,5.9,18.2,11.1,7,8.9,13.5,8.9a3,3,0,0,1,0,6Z" fill="#e4f2f9"/>
        <path d="M767.9,307.3a3,3,0,0,1-1.6-.5l-10.1-6.4a3,3,0,0,1,3.2-5.1l10.1,6.4a3,3,0,0,1-1.6,5.5Zm60.8-1.5a3,3,0,0,1-1.6-.5L817,298.9a3,3,0,0,1,3.2-5.1l10.1,6.4a3,3,0,0,1-1.6,5.5Zm60.8-1.5a3,3,0,0,1-1.6-.5l-10.1-6.4a3,3,0,1,1,3.2-5.1l10.1,6.4a3,3,0,0,1-1.6,5.5Zm-50.7-.4a3,3,0,0,1-1.6-5.5l10.1-6.4a3,3,0,1,1,3.2,5.1l-10.1,6.4A3,3,0,0,1,838.9,303.9ZM778,302.4a3,3,0,0,1-1.6-5.5l10.1-6.4a3,3,0,0,1,3.2,5.1l-10.1,6.4A3,3,0,0,1,778,302.4Zm-30.4-7.9a3,3,0,0,1-1.6-.5l-10.1-6.4a3,3,0,0,1,3.2-5.1l10.1,6.4a3,3,0,0,1-1.6,5.5Zm60.8-1.5a3,3,0,0,1-1.6-.5l-6.2-3.9-.8.5a3,3,0,0,1-3.2-5.1l2.4-1.5a3,3,0,0,1,3.2,0l7.8,4.9a3,3,0,0,1-1.6,5.5Zm60.8-1.5a3,3,0,0,1-1.6-.5l-3.8-2.4-3.2,2a3,3,0,1,1-3.2-5.1l4.8-3a3,3,0,0,1,3.2,0l5.4,3.4a3,3,0,0,1-1.6,5.5Z" fill="#e4f2f9"/>
        <path d="M93.7,1071.7a3,3,0,0,1-.7-5.9l11.7-2.6a3,3,0,1,1,1.3,5.9l-11.7,2.6Zm23.4-5.3a3,3,0,0,1-.7-5.9l11.7-2.6a3,3,0,0,1,1.3,5.9l-11.7,2.6Zm15.4-13.3h-.7a3,3,0,0,1-2.3-3.6l2.6-11.7a3,3,0,1,1,5.9,1.3l-2.6,11.7A3,3,0,0,1,132.5,1053.1Zm5.3-23.4h-.7a3,3,0,0,1-2.3-3.6l.6-2.7a3,3,0,0,1,2.3-2.3l9-2a3,3,0,0,1,1.3,5.9l-7.1,1.6-.2.9A3,3,0,0,1,137.7,1029.7Zm21.3-7.4a3,3,0,0,1-.7-5.9l11.7-2.6a3,3,0,0,1,1.3,5.9l-11.7,2.6Zm17.5-11.2h-.7a3,3,0,0,1-2.3-3.6l2.6-11.7a3,3,0,1,1,5.9,1.3l-2.6,11.7A3,3,0,0,1,176.6,1011.2Zm5.3-23.4h-.7a3,3,0,0,1-2.3-3.6l1.2-5.5a3,3,0,0,1,2.3-2.3l6.2-1.4a3,3,0,0,1,1.3,5.9l-4.4,1-.8,3.6A3,3,0,0,1,181.8,987.8Zm19.2-9.5a3,3,0,0,1-.7-5.9l11.7-2.6a3,3,0,0,1,1.3,5.9l-11.7,2.6Z" fill="#e4f2f9"/>
        <g>
          <path d="M351.4,852.8a3,3,0,0,1-3-3V810.3a3,3,0,0,1,6,0v39.5A3,3,0,0,1,351.4,852.8Z" fill="#e4f2f9"/>
          <path d="M371.2,833.1H331.7a3,3,0,1,1,0-6h39.5a3,3,0,0,1,0,6Z" fill="#e4f2f9"/>
        </g>
        <g>
          <path d="M1059.3,727.5a3,3,0,0,1-3-3V685a3,3,0,0,1,6,0v39.5A3,3,0,0,1,1059.3,727.5Z" fill="#e4f2f9"/>
          <path d="M1079.1,707.8h-39.5a3,3,0,0,1,0-6h39.5a3,3,0,0,1,0,6Z" fill="#e4f2f9"/>
        </g>
        <path d="M601.5,54.4a3,3,0,0,1-2.1-.9L575.1,29.3a3,3,0,0,1,0-4.2L599.3.9a3,3,0,0,1,4.2,0l24.2,24.2a3,3,0,0,1,0,4.2L603.6,53.6A3,3,0,0,1,601.5,54.4Zm-20-27.2,20,20,20-20-20-20Z" fill="#e4f2f9"/>
        <path d="M27.2,58.4a3,3,0,0,1-2.1-.9L.9,33.3a3,3,0,0,1,0-4.2L25.1,4.8a3.1,3.1,0,0,1,4.2,0L53.6,29.1a3,3,0,0,1,0,4.2L29.3,57.5A3,3,0,0,1,27.2,58.4ZM7.2,31.2l20,20,20-20-20-20Z" fill="#e4f2f9"/>
        <g>
          <path d="M615.8,479.9H558.4a3,3,0,0,1-3-3V419.6a3,3,0,0,1,3-3h57.3a3,3,0,0,1,3,3v57.3A3,3,0,0,1,615.8,479.9Zm-54.3-6h51.3V422.6H561.4Z" fill="#e4f2f9"/>
          <path d="M615.8,422.6h-11a3,3,0,0,1,0-6h9.9a3,3,0,0,1,3.8,4.6l-.8.7A3,3,0,0,1,615.8,422.6Zm-23,0h-12a3,3,0,0,1,0-6h12a3,3,0,0,1,0,6Zm-24,0H558.4a3,3,0,0,1-1.9-5.3l1.2-1.1a3,3,0,0,1,4.2.3h6.9a3,3,0,0,1,0,6Zm56.9-8.5a3,3,0,0,1-2.9-2.1h-6.7a3,3,0,0,1,0-6h12a3,3,0,0,1,2,5.3l-2.5,2.1A3,3,0,0,1,625.7,414.1Zm-56.9-.4a3,3,0,0,1-2-5.3l2-1.7a3,3,0,0,1,1.9-.7h9.3a3,3,0,0,1,0,6h-8.2l-1.2,1A3,3,0,0,1,568.8,413.7Zm35.4-1.7h-12a3,3,0,0,1,0-6h12a3,3,0,0,1,0,6Z" fill="#e4f2f9"/>
          <path d="M615.8,479.9l-1.3-.3a3,3,0,0,1-1.7-2.7v-11a3,3,0,0,1,6,0v8.3h.1a3,3,0,0,1-.3,4.2l-.8.7A3,3,0,0,1,615.8,479.9Zm9.9-8.5a3,3,0,0,1-2-5.3l1.4-1.2V454.3a3,3,0,0,1,6,0v12a3,3,0,0,1-1.1,2.3l-2.5,2.1A3,3,0,0,1,625.7,471.4Zm-9.9-14.5a3,3,0,0,1-3-3v-12a3,3,0,0,1,6,0v12A3,3,0,0,1,615.8,456.9Zm12.4-11.6a3,3,0,0,1-3-3v-12a3,3,0,0,1,6,0v12A3,3,0,0,1,628.1,445.3Zm-12.4-12.4a3,3,0,0,1-3-3V419.6a3,3,0,0,1,1-2.3l1.2-1.1a3,3,0,0,1,3.9,4.6l-.2.2v9A3,3,0,0,1,615.8,432.9Zm12.4-11.6a3,3,0,0,1-3-3v-4.8a3,3,0,0,1-1-5.1l2-1.7a3,3,0,0,1,4.9,2.3v9.3A3,3,0,0,1,628.1,421.3Z" fill="#e4f2f9"/>
        </g>
        <g>
          <path d="M84.6,825.6H27.2a3,3,0,0,1-3-3V765.3a3,3,0,0,1,3-3H84.6a3,3,0,0,1,3,3v57.3A3,3,0,0,1,84.6,825.6Zm-54.3-6H81.6V768.3H30.2Z" fill="#e4f2f9"/>
          <path d="M84.6,768.3H27.2a3,3,0,0,1-1.9-5.3l12.4-10.6a3,3,0,0,1,1.9-.7H96.9a3,3,0,0,1,1.9,5.3L86.5,767.6A3,3,0,0,1,84.6,768.3Zm-49.2-6H83.5l5.4-4.6H40.7Z" fill="#e4f2f9"/>
          <path d="M84.6,825.6l-1.3-.3a3,3,0,0,1-1.7-2.7V765.3a3,3,0,0,1,1.1-2.3L95,752.4a3,3,0,0,1,4.9,2.3V812a3,3,0,0,1-1.1,2.3L86.5,824.9A3,3,0,0,1,84.6,825.6Zm3-59v49.4l6.4-5.5V761.2ZM96.9,812h0Z" fill="#e4f2f9"/>
        </g>
        <path d="M1263.4,474.9a3,3,0,0,1-2.1-5.1c6.6-6.6,14.1-5.7,20.7-5s11.2,1.3,15.8-3.2,4-9.8,3.2-15.8-1.7-14.1,5-20.7,14.1-5.7,20.7-5,11.2,1.3,15.8-3.2,4-9.8,3.2-15.8-1.7-14.1,5-20.7,14.1-5.7,20.7-5,11.2,1.3,15.8-3.2a3,3,0,1,1,4.2,4.2c-6.6,6.6-14.1,5.7-20.7,5s-11.2-1.3-15.8,3.2-4,9.8-3.2,15.8,1.7,14.1-5,20.7-14.1,5.7-20.7,5-11.2-1.3-15.8,3.2-4,9.8-3.2,15.8,1.7,14.1-5,20.7-14.1,5.7-20.7,5-11.2-1.3-15.8,3.2A3,3,0,0,1,1263.4,474.9Z" fill="#e4f2f9"/>
        <path d="M2190.6,1008.6c-9.4,0-14-5.9-18.2-11.1s-7-8.9-13.5-8.9-9.7,4.1-13.5,8.9-8.8,11.1-18.2,11.1-14-5.9-18.2-11.1-7-8.9-13.5-8.9-9.7,4.1-13.5,8.9-8.8,11.1-18.2,11.1-14-5.9-18.2-11.1-7-8.9-13.5-8.9a3,3,0,0,1,0-6c9.4,0,14,5.9,18.2,11.1s7,8.9,13.5,8.9,9.7-4.1,13.5-8.9,8.8-11.1,18.2-11.1,14,5.9,18.2,11.1,7,8.9,13.5,8.9,9.7-4.1,13.5-8.9,8.8-11.1,18.2-11.1,14,5.9,18.2,11.1,7,8.9,13.5,8.9a3,3,0,0,1,0,6Z" fill="#e4f2f9"/>
        <path d="M2032,281.7a3,3,0,0,1-1.6-.5l-30-19-30,19a3,3,0,0,1-3.2,0l-30-19-30,19a3,3,0,0,1-3.2,0l-31.6-20a3,3,0,0,1,3.2-5.1l30,19,30-19a3,3,0,0,1,3.2,0l30,19,30-19a3,3,0,0,1,3.2,0l31.6,20a3,3,0,0,1-1.6,5.5Z" fill="#e4f2f9"/>
        <path d="M1969.2,307.3a3,3,0,0,1-1.6-.5l-10.1-6.4a3,3,0,0,1,3.2-5.1l10.1,6.4a3,3,0,0,1-1.6,5.5Zm60.8-1.5a3,3,0,0,1-1.6-.5l-10.1-6.4a3,3,0,1,1,3.2-5.1l10.1,6.4a3,3,0,0,1-1.6,5.5Zm60.8-1.5a3,3,0,0,1-1.6-.5l-10.1-6.4a3,3,0,1,1,3.2-5.1l10.1,6.4a3,3,0,0,1-1.6,5.5Zm-50.7-.4a3,3,0,0,1-1.6-5.5l10.1-6.4a3,3,0,1,1,3.2,5.1l-10.1,6.4A3,3,0,0,1,2040.2,303.9Zm-60.8-1.5a3,3,0,0,1-1.6-5.5l10.1-6.4a3,3,0,0,1,3.2,5.1l-10.1,6.4A3,3,0,0,1,1979.4,302.4Zm-30.4-7.9a3,3,0,0,1-1.6-.5l-10.1-6.4a3,3,0,0,1,3.2-5.1l10.1,6.4a3,3,0,0,1-1.6,5.5Zm60.8-1.5a3,3,0,0,1-1.6-.5l-6.2-3.9-.8.5a3,3,0,1,1-3.2-5.1l2.4-1.5a3,3,0,0,1,3.2,0l7.8,4.9a3,3,0,0,1-1.6,5.5Zm60.8-1.5a3,3,0,0,1-1.6-.5l-3.8-2.4-3.2,2a3,3,0,1,1-3.2-5.1l4.8-3a3,3,0,0,1,3.2,0l5.4,3.4a3,3,0,0,1-1.6,5.5Z" fill="#e4f2f9"/>
        <path d="M2080.3,717.8a3,3,0,0,1-1.6-.5l-30-19-30,19a3,3,0,0,1-3.2,0l-31.6-20a3,3,0,1,1,3.2-5.1l30,19,30-19a3,3,0,0,1,3.2,0l31.6,20a3,3,0,0,1-1.6,5.5Z" fill="#e4f2f9"/>
        <path d="M2080.3,745a3,3,0,0,1-1.6-.5l-30-19-30,19a3,3,0,0,1-3.2-5.1l31.6-20a3,3,0,0,1,3.2,0l31.6,20a3,3,0,0,1-1.6,5.5Z" fill="#e4f2f9"/>
        <path d="M2301.9,1095.3a3,3,0,0,1-1.6-.5l-30-19-30,19a3,3,0,0,1-3.2,0l-31.6-20a3,3,0,0,1,3.2-5.1l30,19,30-19a3,3,0,0,1,3.2,0l31.6,20a3,3,0,0,1-1.6,5.5Z" fill="#e4f2f9"/>
        <path d="M1635.3,498.5a3,3,0,0,1-1.6-.5l-30-19-30,19a3,3,0,1,1-3.2-5.1l31.6-20a3,3,0,0,1,3.2,0l31.6,20a3,3,0,0,1-1.6,5.5Z" fill="#e4f2f9"/>
        <g>
          <path d="M1635.3,646.3a3,3,0,0,1-3-3V603.8a3,3,0,0,1,6,0v39.5A3,3,0,0,1,1635.3,646.3Z" fill="#e4f2f9"/>
          <path d="M1655,626.5h-39.5a3,3,0,0,1,0-6H1655a3,3,0,0,1,0,6Z" fill="#e4f2f9"/>
        </g>
        <g>
          <path d="M1302.7,149.5a3,3,0,0,1-3-3V107a3,3,0,0,1,6,0v39.5A3,3,0,0,1,1302.7,149.5Z" fill="#e4f2f9"/>
          <path d="M1322.5,129.8H1283a3,3,0,0,1,0-6h39.5a3,3,0,0,1,0,6Z" fill="#e4f2f9"/>
        </g>
        <path d="M2326.7,535.9h-7.7a3,3,0,0,1,0-6h2.6a3,3,0,0,1,5.5-2.3l2.2,3.8a3,3,0,0,1-2.6,4.5Zm-19.7,0h-12a3,3,0,0,1,0-6h12a3,3,0,0,1,0,6Zm-24,0h-8.2a3,3,0,0,1-2.6-4.5l1.9-3.3a3,3,0,0,1,5.6,1.8h3.3a3,3,0,0,1,0,6Zm-.3-13.7a3,3,0,0,1-2.6-4.5l6-10.4a3,3,0,1,1,5.2,3l-6,10.4A3,3,0,0,1,2282.8,522.1Zm35.8-.4a3,3,0,0,1-2.6-1.5l-6-10.4a3,3,0,1,1,5.2-3l6,10.4a3,3,0,0,1-2.6,4.5Zm-23.8-20.3a3,3,0,0,1-2.6-4.5l6-10.4a3,3,0,0,1,2.6-1.5h0a3,3,0,0,1,2.6,1.5l5.7,10a3,3,0,1,1-5.2,3l-3.1-5.5-3.4,5.9A3,3,0,0,1,2294.8,501.4Z" fill="#e4f2f9"/>
        <path d="M1670.1,919.7h0a3,3,0,0,1-2.1-.9l-24.2-24.2a3,3,0,0,1,0-4.2l24.2-24.2a3.1,3.1,0,0,1,4.2,0l24.2,24.2a3,3,0,0,1,0,4.2l-24.2,24.2A3,3,0,0,1,1670.1,919.7Zm-20-27.2,20,20,20-20-20-20Z" fill="#e4f2f9"/>
        <path d="M1802.8,54.4a3,3,0,0,1-2.1-.9l-24.2-24.2a3,3,0,0,1,0-4.2L1800.7.9a3.1,3.1,0,0,1,4.2,0l24.2,24.2a3,3,0,0,1,0,4.2l-24.2,24.2A3,3,0,0,1,1802.8,54.4Zm-20-27.2,20,20,20-20-20-20Z" fill="#e4f2f9"/>
        <path d="M1228.5,58.4a3,3,0,0,1-2.1-.9l-24.2-24.2a3,3,0,0,1,0-4.2l24.2-24.2a3,3,0,0,1,4.2,0l24.2,24.2a3,3,0,0,1,0,4.2l-24.2,24.2A3,3,0,0,1,1228.5,58.4Zm-20-27.2,20,20,20-20-20-20Z" fill="#fff"/>
        <path d="M1448.9,1133.6h0a3,3,0,0,1-2.1-.9l-24.2-24.2a3,3,0,0,1,0-4.2l24.2-24.2a3.1,3.1,0,0,1,4.2,0l24.2,24.2a3,3,0,0,1,0,4.2l-24.2,24.2A3,3,0,0,1,1448.9,1133.6Zm-20-27.2,20,20,20-20-20-20Z" fill="#fff"/>
        <g>
          <path d="M2248.3,911.3h-57.3a3,3,0,0,1-3-3V850.9a3,3,0,0,1,3-3h57.3a3,3,0,0,1,3,3v57.3A3,3,0,0,1,2248.3,911.3Zm-54.3-6h51.3V853.9h-51.3Z" fill="#fff"/>
          <path d="M2248.3,853.9h-11a3,3,0,0,1,0-6h9.9a3,3,0,0,1,3.8,4.6l-.8.7A3,3,0,0,1,2248.3,853.9Zm-23,0h-12a3,3,0,0,1,0-6h12a3,3,0,0,1,0,6Zm-24,0h-10.4a3,3,0,0,1-2-5.3l1.2-1.1a3,3,0,0,1,4.2.3h6.9a3,3,0,0,1,0,6Zm56.9-8.5a3,3,0,0,1-2.9-2.1h-6.7a3,3,0,0,1,0-6h12a3,3,0,0,1,2,5.3l-2.5,2.1A3,3,0,0,1,2258.2,845.5Zm-56.9-.4a3,3,0,0,1-2-5.3l2-1.7a3,3,0,0,1,2-.7h9.3a3,3,0,0,1,0,6h-8.2l-1.2,1A3,3,0,0,1,2201.3,845.1Zm35.4-1.7h-12a3,3,0,0,1,0-6h12a3,3,0,0,1,0,6Z" fill="#fff"/>
          <path d="M2248.3,911.3l-1.3-.3a3,3,0,0,1-1.7-2.7v-11a3,3,0,1,1,6,0v8.3h.1a3,3,0,0,1-.3,4.2l-.8.7A3,3,0,0,1,2248.3,911.3Zm9.9-8.5a3,3,0,0,1-2-5.3l1.4-1.2V885.7a3,3,0,0,1,6,0v12a3,3,0,0,1-1,2.3l-2.5,2.1A3,3,0,0,1,2258.2,902.8Zm-9.9-14.5a3,3,0,0,1-3-3v-12a3,3,0,1,1,6,0v12A3,3,0,0,1,2248.3,888.3Zm12.4-11.6a3,3,0,0,1-3-3v-12a3,3,0,0,1,6,0v12A3,3,0,0,1,2260.7,876.7Zm-12.4-12.4a3,3,0,0,1-3-3V850.9a3,3,0,0,1,1.1-2.3l1.2-1.1a3,3,0,1,1,3.9,4.6l-.2.2v9A3,3,0,0,1,2248.3,864.3Zm12.4-11.6a3,3,0,0,1-3-3v-4.8a3,3,0,0,1-1-5.1l2-1.7a3,3,0,0,1,4.9,2.3v9.3A3,3,0,0,1,2260.7,852.7Z" fill="#fff"/>
        </g>
        <g>
          <path d="M1817.1,479.9h-57.3a3,3,0,0,1-3-3V419.6a3,3,0,0,1,3-3h57.3a3,3,0,0,1,3,3v57.3A3,3,0,0,1,1817.1,479.9Zm-54.3-6h51.3V422.6h-51.3Z" fill="#fff"/>
          <path d="M1817.1,422.6h-11a3,3,0,0,1,0-6h9.9a3,3,0,0,1,3.8,4.6l-.8.7A3,3,0,0,1,1817.1,422.6Zm-23,0h-12a3,3,0,0,1,0-6h12a3,3,0,0,1,0,6Zm-24,0h-10.4a3,3,0,0,1-2-5.3l1.2-1.1a3,3,0,0,1,4.2.3h6.9a3,3,0,0,1,0,6Zm56.9-8.5a3,3,0,0,1-2.9-2.1h-6.7a3,3,0,0,1,0-6h12a3,3,0,0,1,2,5.3l-2.5,2.1A3,3,0,0,1,1827,414.1Zm-56.9-.4a3,3,0,0,1-2-5.3l2-1.7a3,3,0,0,1,2-.7h9.3a3,3,0,0,1,0,6h-8.2l-1.2,1A3,3,0,0,1,1770.1,413.7Zm35.4-1.7h-12a3,3,0,0,1,0-6h12a3,3,0,0,1,0,6Z" fill="#fff"/>
          <path d="M1817.1,479.9l-1.3-.3a3,3,0,0,1-1.7-2.7v-11a3,3,0,0,1,6,0v8.3h.1a3,3,0,0,1-.3,4.2l-.8.7A3,3,0,0,1,1817.1,479.9Zm9.9-8.5a3,3,0,0,1-2-5.3l1.4-1.2V454.3a3,3,0,0,1,6,0v12a3,3,0,0,1-1.1,2.3l-2.5,2.1A3,3,0,0,1,1827,471.4Zm-9.9-14.5a3,3,0,0,1-3-3v-12a3,3,0,0,1,6,0v12A3,3,0,0,1,1817.1,456.9Zm12.4-11.6a3,3,0,0,1-3-3v-12a3,3,0,0,1,6,0v12A3,3,0,0,1,1829.5,445.3Zm-12.4-12.4a3,3,0,0,1-3-3V419.6a3,3,0,0,1,1-2.3l1.2-1.1a3,3,0,1,1,3.9,4.6l-.2.2v9A3,3,0,0,1,1817.1,432.9Zm12.4-11.6a3,3,0,0,1-3-3v-4.8a3,3,0,0,1-1-5.1l2-1.7a3,3,0,0,1,4.9,2.3v9.3A3,3,0,0,1,1829.5,421.3Z" fill="#fff"/>
        </g>
        <g>
          <path d="M1285.9,825.6h-57.3a3,3,0,0,1-3-3V765.3a3,3,0,0,1,3-3h57.3a3,3,0,0,1,3,3v57.3A3,3,0,0,1,1285.9,825.6Zm-54.3-6h51.3V768.3h-51.3Z" fill="#fff"/>
          <path d="M1285.9,768.3h-57.3a3,3,0,0,1-2-5.3l12.4-10.6a3,3,0,0,1,2-.7h57.3a3,3,0,0,1,2,5.3l-12.4,10.6A3,3,0,0,1,1285.9,768.3Zm-49.2-6h48.1l5.4-4.6H1242Z" fill="#fff"/>
          <path d="M1285.9,825.6l-1.3-.3a3,3,0,0,1-1.7-2.7V765.3a3,3,0,0,1,1-2.3l12.4-10.6a3,3,0,0,1,5,2.3V812a3,3,0,0,1-1.1,2.3l-12.4,10.6A3,3,0,0,1,1285.9,825.6Zm3-59v49.4l6.4-5.5V761.2Zm9.4,45.4h0Z" fill="#fff"/>
        </g>
        <g>
          <path d="M440,358.6c-9.4,0-14-5.9-18.2-11.1s-7-8.9-13.5-8.9-9.7,4.1-13.5,8.9-8.8,11.1-18.2,11.1-14-5.9-18.2-11.1-7-8.9-13.5-8.9-9.7,4.1-13.5,8.9-8.8,11.1-18.2,11.1-14-5.9-18.2-11.1-7-8.9-13.5-8.9a3,3,0,0,1,0-6c9.4,0,14,5.9,18.2,11.1s7,8.9,13.5,8.9,9.7-4.1,13.5-8.9,8.8-11.1,18.2-11.1,14,5.9,18.2,11.1,7,8.9,13.5,8.9,9.7-4.1,13.5-8.9,8.8-11.1,18.2-11.1,14,5.9,18.2,11.1,7,8.9,13.5,8.9a3,3,0,0,1,0,6Z" fill="#e4f2f9"/>
          <path d="M29.2,1098.9a3,3,0,0,1-.7-5.9l34.6-7.8,7.8-34.6a3,3,0,0,1,2.3-2.3l34.6-7.8,7.8-34.6a3,3,0,0,1,2.3-2.3l36.5-8.2a3,3,0,0,1,1.3,5.9l-34.6,7.8-7.8,34.6a3,3,0,0,1-2.3,2.3l-34.6,7.8-7.8,34.6a3,3,0,0,1-2.3,2.3l-36.5,8.2Z" fill="#e4f2f9"/>
          <path d="M104,609.3a3,3,0,0,1-1.6-.5l-30-19-30,19a3,3,0,0,1-3.2,0l-31.6-20a3,3,0,1,1,3.2-5.1l30,19,30-19a3,3,0,0,1,3.2,0l31.6,20a3,3,0,0,1-1.6,5.5Z" fill="#e4f2f9"/>
          <path d="M595,985h-.7a3,3,0,0,1-2.3-3.6l8.2-36.5a3,3,0,0,1,2.3-2.3l36.5-8.2a3,3,0,1,1,1.3,5.9l-34.6,7.8L598,982.7A3,3,0,0,1,595,985Z" fill="#e4f2f9"/>
          <path d="M1074.1,243.6h-.7a3,3,0,0,1-2.3-3.6l8.2-36.5a3,3,0,0,1,2.3-2.3l36.5-8.2a3,3,0,1,1,1.3,5.9l-34.6,7.8-7.8,34.6A3,3,0,0,1,1074.1,243.6Z" fill="#e4f2f9"/>
          <path d="M295,766.2a3,3,0,0,1-1.6-.5l-30-19-30,19a3,3,0,0,1-3.2,0l-31.6-20a3,3,0,1,1,3.2-5.1l30,19,30-19a3,3,0,0,1,3.2,0l31.6,20a3,3,0,0,1-1.6,5.5Z" fill="#e4f2f9"/>
          <g>
            <path d="M737.5,418.5a3,3,0,0,1-3-3V376a3,3,0,1,1,6,0v39.5A3,3,0,0,1,737.5,418.5Z" fill="#e4f2f9"/>
            <path d="M757.2,398.8H717.7a3,3,0,0,1,0-6h39.5a3,3,0,0,1,0,6Z" fill="#e4f2f9"/>
          </g>
          <g>
            <path d="M172.6,557.1a3,3,0,0,1-3-3V514.6a3,3,0,0,1,6,0v39.5A3,3,0,0,1,172.6,557.1Z" fill="#e4f2f9"/>
            <path d="M192.4,537.3H152.9a3,3,0,1,1,0-6h39.5a3,3,0,0,1,0,6Z" fill="#e4f2f9"/>
          </g>
          <g>
            <path d="M38.2,1023.1a3,3,0,0,1-3-3V980.6a3,3,0,0,1,6,0v39.5A3,3,0,0,1,38.2,1023.1Z" fill="#e4f2f9"/>
            <path d="M57.9,1003.4H18.4a3,3,0,1,1,0-6H57.9a3,3,0,1,1,0,6Z" fill="#e4f2f9"/>
          </g>
          <g>
            <path d="M690.9,807.1a3,3,0,0,1-2.1-5.1l27.9-27.9a3,3,0,0,1,4.2,4.2L693,806.3A3,3,0,0,1,690.9,807.1Z" fill="#e4f2f9"/>
            <path d="M718.8,807.1a3,3,0,0,1-2.1-.9l-27.9-27.9a3,3,0,0,1,4.2-4.2L720.9,802a3,3,0,0,1-2.1,5.1Z" fill="#e4f2f9"/>
          </g>
          <path d="M615.6,1068.6a19,19,0,1,1,19-19A19.1,19.1,0,0,1,615.6,1068.6Zm0-32.1a13,13,0,1,0,13,13A13.1,13.1,0,0,0,615.6,1036.5Z" fill="#e4f2f9"/>
          <path d="M288.8,94.2h-.7a3,3,0,0,1-2.3-3.6l8.2-36.5a3,3,0,0,1,2.3-2.3l36.5-8.2a3,3,0,0,1,1.3,5.9l-34.6,7.8-7.8,34.6A3,3,0,0,1,288.8,94.2Z" fill="#e4f2f9"/>
          <path d="M309.4,177.7a19,19,0,1,1,19-19A19.1,19.1,0,0,1,309.4,177.7Zm0-32.1a13,13,0,1,0,13,13A13.1,13.1,0,0,0,309.4,145.7Z" fill="#e4f2f9"/>
          <path d="M915.8,443.5h-.7a3,3,0,0,1-2.3-3.6l8.2-36.5a3,3,0,0,1,2.3-2.3l36.5-8.2a3,3,0,1,1,1.3,5.9l-34.6,7.8-7.8,34.6A3,3,0,0,1,915.8,443.5Z" fill="#e4f2f9"/>
          <path d="M936.4,527a19,19,0,1,1,19-19A19.1,19.1,0,0,1,936.4,527Zm0-32.1a13,13,0,1,0,13,13A13.1,13.1,0,0,0,936.4,494.9Z" fill="#e4f2f9"/>
          <path d="M413.1,1046.7a3,3,0,0,1-2.1-.9l-34.1-34.1a3,3,0,0,1,1.3-5l46.6-12.5a3,3,0,0,1,3.7,3.7L416,1044.5a3,3,0,0,1-2.1,2.1Zm-28.3-35.5,26.7,26.7,9.8-36.5Z" fill="#e4f2f9"/>
          <path d="M80.5,413.9a3,3,0,0,1-2.1-.9L44.3,378.9a3,3,0,0,1,1.3-5l46.6-12.5a3,3,0,0,1,3.7,3.7L83.4,411.7a3,3,0,0,1-2.1,2.1ZM52.2,378.4,79,405.1l9.8-36.5Z" fill="#e4f2f9"/>
          <path d="M772.7,86.1a3,3,0,0,1-2.1-.9L736.4,51.1a3,3,0,0,1,1.3-5l46.6-12.5a3,3,0,0,1,3.7,3.7L775.6,83.9a3,3,0,0,1-2.1,2.1ZM744.4,50.6l26.7,26.7,9.8-36.5Z" fill="#e4f2f9"/>
          <path d="M864.5,1126.5H830.2a3,3,0,0,1-3-3v-34.3a3,3,0,0,1,3-3h34.3a3,3,0,0,1,3,3v34.3A3,3,0,0,1,864.5,1126.5Zm-31.3-6h28.3v-28.3H833.2Z" fill="#e4f2f9"/>
          <path d="M361,717.8H326.7a3,3,0,0,1-3-3V680.5a3,3,0,0,1,3-3H361a3,3,0,0,1,3,3v34.3A3,3,0,0,1,361,717.8Zm-31.3-6H358V683.5H329.7Z" fill="#e4f2f9"/>
          <path d="M936.4,185.2a3,3,0,0,1-2.1-.9l-24.2-24.2a3,3,0,0,1,0-4.2l24.2-24.2a3,3,0,0,1,2.1-.9h0a3,3,0,0,1,2.1.9l24.2,24.2a3,3,0,0,1,0,4.2l-24.2,24.2A3,3,0,0,1,936.4,185.2Zm-20-27.2,20,20,20-20-20-20Z" fill="#e4f2f9"/>
          <g>
            <path d="M523.3,161.3H465.9a3,3,0,0,1-3-3V101a3,3,0,0,1,3-3h57.3a3,3,0,0,1,3,3v57.3A3,3,0,0,1,523.3,161.3Zm-54.3-6h51.3V104H468.9Z" fill="#e4f2f9"/>
            <path d="M523.3,104H465.9a3,3,0,0,1-1.9-5.3l12.4-10.6a3,3,0,0,1,1.9-.7h57.3a3,3,0,0,1,1.9,5.3l-12.4,10.6A3,3,0,0,1,523.3,104Zm-49.2-6h48.1l5.4-4.6H479.4Z" fill="#e4f2f9"/>
            <path d="M523.3,161.3,522,161a3,3,0,0,1-1.7-2.7V101a3,3,0,0,1,1.1-2.3l12.4-10.6a3,3,0,0,1,4.9,2.3v57.3a3,3,0,0,1-1.1,2.3l-12.4,10.6A3,3,0,0,1,523.3,161.3Zm3-59v49.4l6.4-5.5V96.9Zm9.4,45.4h0Z" fill="#e4f2f9"/>
          </g>
          <g>
            <path d="M537.1,779H479.7a3,3,0,0,1-3-3V718.6a3,3,0,0,1,3-3h57.3a3,3,0,0,1,3,3V776A3,3,0,0,1,537.1,779Zm-54.3-6h51.3V721.6H482.7Z" fill="#e4f2f9"/>
            <path d="M537.1,721.6H479.7a3,3,0,0,1-1.9-5.3l12.4-10.6a3,3,0,0,1,1.9-.7h57.3a3,3,0,0,1,1.9,5.3L539,720.9A3,3,0,0,1,537.1,721.6Zm-49.2-6H536l5.4-4.6H493.2Z" fill="#e4f2f9"/>
            <path d="M537.1,779l-1.3-.3a3,3,0,0,1-1.7-2.7V718.6a3,3,0,0,1,1.1-2.3l12.4-10.6a3,3,0,0,1,4.9,2.3v57.3a3,3,0,0,1-1.1,2.3L539,778.3A3,3,0,0,1,537.1,779Zm3-59v49.4l6.4-5.5V714.6Zm9.4,45.4h0Z" fill="#e4f2f9"/>
          </g>
          <path d="M1641.4,358.6c-9.4,0-14-5.9-18.2-11.1s-7-8.9-13.5-8.9-9.7,4.1-13.5,8.9-8.8,11.1-18.2,11.1-14-5.9-18.2-11.1-7-8.9-13.5-8.9-9.7,4.1-13.5,8.9-8.8,11.1-18.2,11.1-14-5.9-18.2-11.1-7-8.9-13.5-8.9a3,3,0,0,1,0-6c9.4,0,14,5.9,18.2,11.1s7,8.9,13.5,8.9,9.7-4.1,13.5-8.9,8.8-11.1,18.2-11.1,14,5.9,18.2,11.1,7,8.9,13.5,8.9,9.7-4.1,13.5-8.9,8.8-11.1,18.2-11.1,14,5.9,18.2,11.1,7,8.9,13.5,8.9a3,3,0,0,1,0,6Z" fill="#e4f2f9"/>
          <path d="M1230.5,1098.9a3,3,0,0,1-.7-5.9l34.6-7.8,7.8-34.6a3,3,0,0,1,2.3-2.3l34.6-7.8,7.8-34.6a3,3,0,0,1,2.3-2.3l36.5-8.2a3,3,0,1,1,1.3,5.9l-34.6,7.8-7.8,34.6a3,3,0,0,1-2.3,2.3l-34.6,7.8-7.8,34.6a3,3,0,0,1-2.3,2.3l-36.5,8.2Z" fill="#e4f2f9"/>
          <path d="M1305.3,609.3a3,3,0,0,1-1.6-.5l-30-19-30,19a3,3,0,0,1-3.2,0l-31.6-20a3,3,0,0,1,3.2-5.1l30,19,30-19a3,3,0,0,1,3.2,0l31.6,20a3,3,0,0,1-1.6,5.5Z" fill="#e4f2f9"/>
          <path d="M1796.4,985h-.7a3,3,0,0,1-2.3-3.6l8.2-36.5a3,3,0,0,1,2.3-2.3l36.5-8.2a3,3,0,1,1,1.3,5.9l-34.6,7.8-7.8,34.6A3,3,0,0,1,1796.4,985Z" fill="#e4f2f9"/>
          <path d="M2275.4,243.6h-.7a3,3,0,0,1-2.3-3.6l8.2-36.5a3,3,0,0,1,2.3-2.3l36.5-8.2a3,3,0,1,1,1.3,5.9l-34.6,7.8-7.8,34.6A3,3,0,0,1,2275.4,243.6Z" fill="#e4f2f9"/>
          <path d="M1496.3,766.2a3,3,0,0,1-1.6-.5l-30-19-30,19a3,3,0,0,1-3.2,0l-31.6-20a3,3,0,0,1,3.2-5.1l30,19,30-19a3,3,0,0,1,3.2,0l31.6,20a3,3,0,0,1-1.6,5.5Z" fill="#e4f2f9"/>
          <g>
            <path d="M1938.8,418.5a3,3,0,0,1-3-3V376a3,3,0,1,1,6,0v39.5A3,3,0,0,1,1938.8,418.5Z" fill="#e4f2f9"/>
            <path d="M1958.6,398.8h-39.5a3,3,0,0,1,0-6h39.5a3,3,0,0,1,0,6Z" fill="#e4f2f9"/>
          </g>
          <g>
            <path d="M1374,557.1a3,3,0,0,1-3-3V514.6a3,3,0,0,1,6,0v39.5A3,3,0,0,1,1374,557.1Z" fill="#e4f2f9"/>
            <path d="M1393.7,537.3h-39.5a3,3,0,0,1,0-6h39.5a3,3,0,0,1,0,6Z" fill="#e4f2f9"/>
          </g>
          <g>
            <path d="M1239.5,1023.1a3,3,0,0,1-3-3V980.6a3,3,0,0,1,6,0v39.5A3,3,0,0,1,1239.5,1023.1Z" fill="#e4f2f9"/>
            <path d="M1259.2,1003.4h-39.5a3,3,0,1,1,0-6h39.5a3,3,0,1,1,0,6Z" fill="#e4f2f9"/>
          </g>
          <g>
            <path d="M1892.2,807.1a3,3,0,0,1-2.1-5.1l27.9-27.9a3,3,0,0,1,4.2,4.2l-27.9,27.9A3,3,0,0,1,1892.2,807.1Z" fill="#e4f2f9"/>
            <path d="M1920.1,807.1a3,3,0,0,1-2.1-.9l-27.9-27.9a3,3,0,0,1,4.2-4.2l27.9,27.9a3,3,0,0,1-2.1,5.1Z" fill="#e4f2f9"/>
          </g>
          <path d="M1817,1068.6a19,19,0,1,1,19-19A19.1,19.1,0,0,1,1817,1068.6Zm0-32.1a13,13,0,1,0,13,13A13.1,13.1,0,0,0,1817,1036.5Z" fill="#e4f2f9"/>
          <path d="M1490.2,94.2h-.7a3,3,0,0,1-2.3-3.6l8.2-36.5a3,3,0,0,1,2.3-2.3l36.5-8.2a3,3,0,1,1,1.3,5.9l-34.6,7.8-7.8,34.6A3,3,0,0,1,1490.2,94.2Z" fill="#e4f2f9"/>
          <path d="M1510.8,177.7a19,19,0,1,1,19-19A19.1,19.1,0,0,1,1510.8,177.7Zm0-32.1a13,13,0,1,0,13,13A13.1,13.1,0,0,0,1510.8,145.7Z" fill="#e4f2f9"/>
          <path d="M2117.1,443.5h-.7a3,3,0,0,1-2.3-3.6l8.2-36.5a3,3,0,0,1,2.3-2.3l36.5-8.2a3,3,0,1,1,1.3,5.9l-34.6,7.8-7.8,34.6A3,3,0,0,1,2117.1,443.5Z" fill="#e4f2f9"/>
          <path d="M2137.7,527a19,19,0,1,1,19-19A19.1,19.1,0,0,1,2137.7,527Zm0-32.1a13,13,0,1,0,13,13A13.1,13.1,0,0,0,2137.7,494.9Z" fill="#e4f2f9"/>
          <path d="M1614.4,1046.7a3,3,0,0,1-2.1-.9l-34.1-34.1a3,3,0,0,1,1.3-5l46.6-12.5a3,3,0,0,1,3.7,3.7l-12.5,46.6a3,3,0,0,1-2.1,2.1Zm-28.3-35.5,26.7,26.7,9.8-36.5Z" fill="#e4f2f9"/>
          <path d="M1281.8,413.9a3,3,0,0,1-2.1-.9l-34.1-34.1a3,3,0,0,1,1.3-5l46.6-12.5a3,3,0,0,1,3.7,3.7l-12.5,46.6a3,3,0,0,1-2.1,2.1Zm-28.3-35.5,26.7,26.7,9.8-36.5Z" fill="#e4f2f9"/>
          <path d="M1974,86.1a3,3,0,0,1-2.1-.9l-34.1-34.1a3,3,0,0,1,1.3-5l46.6-12.5a3,3,0,0,1,3.7,3.7l-12.5,46.6a3,3,0,0,1-2.1,2.1Zm-28.3-35.5,26.7,26.7,9.8-36.5Z" fill="#e4f2f9"/>
          <path d="M2065.8,1126.5h-34.3a3,3,0,0,1-3-3v-34.3a3,3,0,0,1,3-3h34.3a3,3,0,0,1,3,3v34.3A3,3,0,0,1,2065.8,1126.5Zm-31.3-6h28.3v-28.3h-28.3Z" fill="#e4f2f9"/>
          <path d="M1562.3,717.8h-34.3a3,3,0,0,1-3-3V680.5a3,3,0,0,1,3-3h34.3a3,3,0,0,1,3,3v34.3A3,3,0,0,1,1562.3,717.8Zm-31.3-6h28.3V683.5h-28.3Z" fill="#e4f2f9"/>
          <path d="M2137.7,185.2a3,3,0,0,1-2.1-.9l-24.2-24.2a3,3,0,0,1,0-4.2l24.2-24.2a3,3,0,0,1,4.2,0l24.2,24.2a3,3,0,0,1,0,4.2l-24.2,24.2A3,3,0,0,1,2137.7,185.2Zm-20-27.2,20,20,20-20-20-20Z" fill="#e4f2f9"/>
          <g>
            <path d="M1724.6,161.3h-57.3a3,3,0,0,1-3-3V101a3,3,0,0,1,3-3h57.3a3,3,0,0,1,3,3v57.3A3,3,0,0,1,1724.6,161.3Zm-54.3-6h51.3V104h-51.3Z" fill="#e4f2f9"/>
            <path d="M1724.6,104h-57.3a3,3,0,0,1-2-5.3l12.4-10.6a3,3,0,0,1,2-.7H1737a3,3,0,0,1,2,5.3l-12.4,10.6A3,3,0,0,1,1724.6,104Zm-49.2-6h48.1l5.4-4.6h-48.1Z" fill="#e4f2f9"/>
            <path d="M1724.6,161.3l-1.3-.3a3,3,0,0,1-1.7-2.7V101a3,3,0,0,1,1-2.3L1735,88.1a3,3,0,0,1,5,2.3v57.3a3,3,0,0,1-1,2.3l-12.4,10.6A3,3,0,0,1,1724.6,161.3Zm3-59v49.4l6.4-5.5V96.9Zm9.4,45.4h0Z" fill="#e4f2f9"/>
          </g>
          <g>
            <path d="M1738.4,779h-57.3a3,3,0,0,1-3-3V718.6a3,3,0,0,1,3-3h57.3a3,3,0,0,1,3,3V776A3,3,0,0,1,1738.4,779Zm-54.3-6h51.3V721.6h-51.3Z" fill="#e4f2f9"/>
            <path d="M1738.4,721.6h-57.3a3,3,0,0,1-1.9-5.3l12.4-10.6a3,3,0,0,1,1.9-.7h57.3a3,3,0,0,1,2,5.3l-12.4,10.6A3,3,0,0,1,1738.4,721.6Zm-49.2-6h48.1l5.4-4.6h-48.1Z" fill="#e4f2f9"/>
            <path d="M1738.4,779l-1.3-.3a3,3,0,0,1-1.7-2.7V718.6a3,3,0,0,1,1-2.3l12.4-10.6a3,3,0,0,1,5,2.3v57.3a3,3,0,0,1-1,2.3l-12.4,10.6A3,3,0,0,1,1738.4,779Zm3-59v49.4l6.4-5.5V714.6Zm9.4,45.4h0Z" fill="#e4f2f9"/>
          </g>
        </g>
      </g>
    </g>
  </g>
</svg>
