<svg xmlns="http://www.w3.org/2000/svg" xmlns:xlink="http://www.w3.org/1999/xlink" viewBox="2035 1148 583 503.338">
  <defs>
    <style>
      .cls-1, .cls-12, .cls-3 {
        fill: #fff;
      }

      .cls-2 {
        fill: url(#linear-gradient);
      }

      .cls-3 {
        stroke: rgba(89,92,168,0.35);
        stroke-miterlimit: 10;
        stroke-width: 3px;
        stroke-dasharray: 2 5;
      }

      .cls-4, .cls-5 {
        fill: #f44599;
      }

      .cls-21, .cls-22, .cls-23, .cls-5, .cls-6 {
        fill-rule: evenodd;
      }

      .cls-7 {
        fill: #03363d;
      }

      .cls-8 {
        clip-path: url(#clip-path);
      }

      .cls-9 {
        fill: #ef6c00;
      }

      .cls-10 {
        fill: #ff9800;
      }

      .cls-11 {
        fill: #bf360c;
      }

      .cls-11, .cls-12 {
        opacity: 0.1;
      }

      .cls-13 {
        fill: #757575;
      }

      .cls-14 {
        fill: #32373c;
      }

      .cls-15 {
        fill: #4285f4;
      }

      .cls-16 {
        fill: #fbbc06;
      }

      .cls-17 {
        fill: #34a853;
      }

      .cls-18 {
        fill: #f2f2f2;
      }

      .cls-19 {
        fill: #f14336;
      }

      .cls-20 {
        fill: #d32e2a;
      }

      .cls-21 {
        fill: #5ca4ff;
        opacity: 0.9;
      }

      .cls-22, .cls-24 {
        fill: #499aff;
      }

      .cls-23 {
        fill: #e9f3ff;
      }
    </style>
    <linearGradient id="linear-gradient" x1="1.02" y1="1.01" x2="-0.083" gradientUnits="objectBoundingBox">
      <stop offset="0" stop-color="#a6a8d3"/>
      <stop offset="0.724" stop-color="#6252d8"/>
      <stop offset="1" stop-color="#4831d9"/>
    </linearGradient>
    <clipPath id="clip-path">
      <path id="Path_27" data-name="Path 27" d="M34.113,8.922,19.376.418a3.1,3.1,0,0,0-3.091,0L1.549,8.922A3.1,3.1,0,0,0,.01,11.6V28.628A3.1,3.1,0,0,0,1.549,31.3l7.375,4.263v8.688a.925.925,0,0,0,.932.925.882.882,0,0,0,.459-.127l23.82-13.741a3.068,3.068,0,0,0,1.539-2.675V11.6A3.1,3.1,0,0,0,34.113,8.922Z" transform="translate(-0.01 -0.005)"/>
    </clipPath>
  </defs>
  <g id="Group_28" data-name="Group 28" transform="translate(1295 -2090)">
    <rect id="Mask" class="cls-1" width="583" height="503" transform="translate(740 3238)"/>
    <path id="Path_11_Copy" data-name="Path 11 Copy" class="cls-2" d="M73.849-173.247c16.878,14.673,35.131,36.637,38.67,64.543,8.134,52.468,61.525,85.218,149.5,69.331,55.954-10.1,88.033,8.57,104.136,23.656-18.752-.289-59.865.713-292.31.212C73.849-15.5,74-159.924,73.849-173.247Z" transform="translate(1338.187 3815.187) rotate(-90)"/>
    <g id="Group_15" data-name="Group 15">
      <circle id="Oval_10" data-name="Oval 10" class="cls-3" cx="69" cy="69" r="69" transform="translate(922.5 3561.5)"/>
      <g id="logo_wordmark_white" transform="translate(-165 3401.791)">
        <g id="white_wordmark" transform="translate(1105 196.209)">
          <path id="Combined-Shape" class="cls-4" d="M14.92.209V30.4a1.378,1.378,0,0,0,2.464.848l2.343-3a.344.344,0,0,1,.543,0l2.343,3a1.378,1.378,0,0,0,2.464-.848V.249A20.159,20.159,0,0,1,39.845,19.762,20.06,20.06,0,0,1,19.922,39.956,20.06,20.06,0,0,1,0,19.762,20.156,20.156,0,0,1,14.92.209Z" transform="translate(31.695 -0.209)"/>
          <path id="heart" class="cls-5" d="M52.578,57.369a.455.455,0,0,1-.673,0,28.453,28.453,0,0,1-2.258-2.616,1.943,1.943,0,0,1,.206-2.72,1.42,1.42,0,0,1,1.61-.13,1.6,1.6,0,0,1,.642.682.149.149,0,0,0,.274,0,1.593,1.593,0,0,1,.706-.716,1.406,1.406,0,0,1,1.353.036,1.955,1.955,0,0,1,.378,2.89,30.035,30.035,0,0,1-2.238,2.577" transform="translate(-0.612 -33.967)"/>
          <path id="HelpDocs" class="cls-6" d="M156.687,44.334a1.727,1.727,0,0,1-1.706-1.7V37.45h-7.569v5.181a1.706,1.706,0,0,1-1.682,1.7,1.732,1.732,0,0,1-1.73-1.7V29.7a1.706,1.706,0,0,1,3.412,0v4.749h7.569V29.7a1.718,1.718,0,0,1,3.436,0V42.631A1.732,1.732,0,0,1,156.687,44.334Zm4.061-5.972a5.9,5.9,0,0,1,6.007-6.068,5.61,5.61,0,0,1,5.815,5.612c0,1.007-.649,1.439-1.826,1.439h-6.8a3.126,3.126,0,0,0,3.34,2.686,4.974,4.974,0,0,0,2.355-.648,1.143,1.143,0,0,1,.577-.144,1.22,1.22,0,0,1,1.2,1.2,1.263,1.263,0,0,1-.649,1.055,7.725,7.725,0,0,1-3.821.959A5.872,5.872,0,0,1,160.748,38.362Zm6.007-3.646a2.787,2.787,0,0,0-2.859,2.566h5.719A2.686,2.686,0,0,0,166.754,34.716Zm9.563,9.618A1.532,1.532,0,0,1,174.78,42.8V29.535a1.526,1.526,0,1,1,3.052,0V42.8A1.542,1.542,0,0,1,176.318,44.334Zm11.173-12.04c2.979,0,5.142,2.207,5.142,6.068s-2.162,6.092-5.142,6.092a4.47,4.47,0,0,1-3.58-1.775v7.714c-1.4,0-1.056-1.646-1.514-1.646s-.31,1.646-1.511,1.646c-.022,0-.027-1.089-.027-1.186V33.948a1.538,1.538,0,1,1,3.075,0v.072A4.486,4.486,0,0,1,187.491,32.293Zm-.961,9.45c1.754,0,2.931-1.367,2.931-3.382,0-1.991-1.178-3.358-2.931-3.358a3.419,3.419,0,0,0-2.619,1.319v4.1A3.5,3.5,0,0,0,186.53,41.743Zm10.26,2.422a1.639,1.639,0,0,1-1.8-1.823V29.967a1.632,1.632,0,0,1,1.8-1.8h4.518c5.022,0,8.506,3.19,8.506,8.011s-3.484,7.987-8.506,7.987Zm1.61-3h2.908a4.793,4.793,0,0,0,5.022-4.989,4.685,4.685,0,0,0-5.022-5.013H198.4Zm19.151,3.286a5.878,5.878,0,0,1-6.127-6.092,6.14,6.14,0,0,1,12.278,0A5.885,5.885,0,0,1,217.55,44.454Zm0-2.71c1.9,0,2.979-1.559,2.979-3.382A3.06,3.06,0,0,0,217.55,35c-1.9,0-2.956,1.559-2.956,3.358C214.594,40.184,215.652,41.743,217.55,41.743Zm7.665-3.382a5.882,5.882,0,0,1,6.151-6.068,5.681,5.681,0,0,1,3.532,1.079,1.364,1.364,0,0,1-.769,2.494,1.261,1.261,0,0,1-.793-.264,2.882,2.882,0,0,0-1.826-.6,3.1,3.1,0,0,0-3.148,3.358,3.118,3.118,0,0,0,3.148,3.382,2.769,2.769,0,0,0,1.8-.6,1.313,1.313,0,0,1,.793-.264,1.364,1.364,0,0,1,.793,2.494,5.681,5.681,0,0,1-3.532,1.079A5.887,5.887,0,0,1,225.215,38.362Zm12.494,4.965a1.268,1.268,0,0,1,.625-2.375,1.446,1.446,0,0,1,.649.168,6.3,6.3,0,0,0,3.148.983c1.322,0,1.946-.456,1.946-1.175,0-.815-1.009-1.1-2.331-1.367-1.994-.384-4.565-.863-4.565-3.622,0-1.943,1.706-3.646,4.758-3.646a7.2,7.2,0,0,1,3.82,1.031,1.142,1.142,0,0,1,.6,1.007,1.178,1.178,0,0,1-1.178,1.175,1.144,1.144,0,0,1-.577-.144,5.078,5.078,0,0,0-2.643-.744c-1.105,0-1.826.408-1.826,1.079,0,.72.913.983,2.21,1.247,1.994.384,4.662.911,4.662,3.79,0,2.135-1.8,3.718-5.022,3.718A8.251,8.251,0,0,1,237.709,43.326Z" transform="translate(-144 15.336)"/>
        </g>
      </g>
    </g>
    <g id="Group_16" data-name="Group 16">
      <circle id="Oval_10-2" data-name="Oval 10" class="cls-3" cx="58" cy="58" r="58" transform="translate(788 3470)"/>
      <g id="zendesk-medium" transform="translate(728.6 3446.021)">
        <path id="Path_12" data-name="Path 12" class="cls-7" d="M177.633,93.22v25.225H156.74Z" transform="translate(-62.384 -31.456)"/>
        <path id="Path_13" data-name="Path 13" class="cls-7" d="M177.633,52.71a10.447,10.447,0,1,1-20.893,0Z" transform="translate(-62.384)"/>
        <path id="Path_14" data-name="Path 14" class="cls-7" d="M265.62,169.787a10.447,10.447,0,1,1,20.893,0Z" transform="translate(-146.928 -82.798)"/>
        <path id="Path_15" data-name="Path 15" class="cls-7" d="M265.62,77.935V52.71h20.9Z" transform="translate(-146.928 0)"/>
        <path id="Path_16" data-name="Path 16" class="cls-7" d="M297.966,272.034a4.072,4.072,0,0,0,2.894-1.118l1.435,1.549a5.644,5.644,0,0,1-4.3,1.7c-3.5,0-5.764-2.322-5.764-5.467a5.364,5.364,0,0,1,5.447-5.469c3.478,0,5.449,2.646,5.277,6.316h-8.22a2.961,2.961,0,0,0,3.234,2.5m2.505-4.247a2.63,2.63,0,0,0-2.774-2.472,2.816,2.816,0,0,0-2.966,2.472Z" transform="translate(-167.587 -163.466)"/>
        <path id="Path_17" data-name="Path 17" class="cls-7" d="M76.4,272.784l6.327-6.428H76.55V264.34h9.11V266.4l-6.327,6.426h6.412v2.018H76.4Z" transform="translate(0 -164.33)"/>
        <path id="Path_18" data-name="Path 18" class="cls-7" d="M130.056,272.034a4.072,4.072,0,0,0,2.894-1.118l1.435,1.549a5.644,5.644,0,0,1-4.3,1.7c-3.5,0-5.764-2.322-5.764-5.467a5.364,5.364,0,0,1,5.447-5.469c3.478,0,5.449,2.646,5.277,6.316H126.82a2.961,2.961,0,0,0,3.234,2.5m2.505-4.247a2.63,2.63,0,0,0-2.774-2.472,2.816,2.816,0,0,0-2.966,2.472Z" transform="translate(-37.206 -163.466)"/>
        <path id="Path_19" data-name="Path 19" class="cls-7" d="M233.42,252.662a5.253,5.253,0,0,1,5.272-5.462,4.546,4.546,0,0,1,3.5,1.576v-6.2h2.235v15.335h-2.235v-1.451a4.492,4.492,0,0,1-3.522,1.658,5.292,5.292,0,0,1-5.252-5.46m8.9-.02a3.335,3.335,0,1,0-3.332,3.424,3.335,3.335,0,0,0,3.332-3.424" transform="translate(-121.925 -147.433)"/>
        <path id="Path_20" data-name="Path 20" class="cls-7" d="M346.72,271.666l2.025-1.05a3,3,0,0,0,2.7,1.533c1.265,0,1.92-.65,1.92-1.386,0-.84-1.223-1.03-2.552-1.3-1.788-.378-3.65-.968-3.65-3.129,0-1.661,1.58-3.194,4.07-3.172a4.835,4.835,0,0,1,4.247,2.036l-1.877,1.03a2.725,2.725,0,0,0-2.362-1.2c-1.2,0-1.815.588-1.815,1.261,0,.755.97.966,2.49,1.3,1.73.378,3.69.945,3.69,3.129,0,1.448-1.265,3.4-4.26,3.382a4.943,4.943,0,0,1-4.62-2.436" transform="translate(-209.902 -163.413)"/>
        <path id="Path_21" data-name="Path 21" class="cls-7" d="M399.7,253.242l-1.772,1.933V257.9H395.69V242.57h2.235v10.042l4.745-5.21h2.722l-4.115,4.495,4.22,6.008h-2.53Z" transform="translate(-247.927 -147.425)"/>
        <path id="Path_22" data-name="Path 22" class="cls-7" d="M186.224,263.24a4.561,4.561,0,0,0-4.884,4.58v6.135h2.278V268.1a2.493,2.493,0,0,1,2.682-2.754c1.692,0,2.532,1.03,2.532,2.754v5.851H191.1V267.82a4.566,4.566,0,0,0-4.884-4.58" transform="translate(-81.485 -163.476)"/>
      </g>
    </g>
    <g id="Group_18" data-name="Group 18">
      <circle id="Oval_10-3" data-name="Oval 10" class="cls-3" cx="65.5" cy="65.5" r="65.5" transform="translate(1133.5 3284.5)"/>
      <g id="Group_17" data-name="Group 17" transform="translate(1158 3323.025)">
        <path id="squarespace-logo-horizontal_1_" d="M26.822,45.628l-3.29,7.254h.843l.843-1.94h3.964l.843,1.94h.843l-3.29-7.254Zm-1.265,4.639,1.687-3.711,1.6,3.711ZM3.036,48.833C1.434,48.5,1.1,48.074,1.1,47.4h0c0-.675.59-1.181,1.518-1.181a3.409,3.409,0,0,1,2.109.759l.506-.59a3.9,3.9,0,0,0-2.53-.928A2.138,2.138,0,0,0,.337,47.4h0c0,1.181.759,1.687,2.446,2.109,1.518.337,1.856.675,1.856,1.35h0a1.454,1.454,0,0,1-1.6,1.265A3.378,3.378,0,0,1,.59,51.11L0,51.869A4.215,4.215,0,0,0,2.952,53.05,2.176,2.176,0,0,0,5.4,51.026h0C5.4,49.845,4.723,49.255,3.036,48.833Zm11.3.422h0a3.638,3.638,0,0,0-3.711-3.711A3.568,3.568,0,0,0,7,49.255H7a3.638,3.638,0,0,0,3.711,3.711,3.376,3.376,0,0,0,2.277-.759l.928.843.59-.59-.928-.843A4.146,4.146,0,0,0,14.339,49.255Zm-1.434,1.94-1.35-1.265-.59.59,1.35,1.181a2.677,2.677,0,0,1-1.687.506A2.863,2.863,0,0,1,7.76,49.255h0a2.869,2.869,0,1,1,5.736,0h0A2.957,2.957,0,0,1,12.905,51.195Zm8.688-1.35c0,1.6-.843,2.362-2.193,2.362s-2.193-.843-2.193-2.446V45.628h-.843v4.217A2.818,2.818,0,0,0,19.4,52.966a2.884,2.884,0,0,0,3.036-3.205V45.628h-.843Zm50.186,2.446A2.847,2.847,0,0,1,69,49.339h0a2.8,2.8,0,0,1,2.783-2.952A3.041,3.041,0,0,1,74.056,47.4l.59-.59a3.866,3.866,0,0,0-2.783-1.181,3.619,3.619,0,0,0-3.627,3.711h0a3.569,3.569,0,0,0,3.627,3.711,3.676,3.676,0,0,0,2.868-1.265l-.506-.506A3.942,3.942,0,0,1,71.779,52.291Zm-8.435-6.663-3.29,7.254H60.9l.843-1.94h3.964l.843,1.94h.843L64.1,45.628Zm-1.265,4.639,1.687-3.711,1.6,3.711Zm15.267,1.856v-2.53H81.31v-.759H77.346V46.387h4.386v-.759H76.5v7.254h5.314v-.759Zm-36.269-2.53h3.964v-.759H41.077V46.387h4.47v-.759H40.318v7.254h5.229v-.759h-4.47Zm-2.952-1.771h0a1.738,1.738,0,0,0-.59-1.434,2.952,2.952,0,0,0-2.024-.759H32.389v7.254h.843V50.1h2.109l2.109,2.783h1.012l-2.193-2.952A2.108,2.108,0,0,0,38.125,47.821Zm-4.892,1.518V46.387h2.193c1.181,0,1.856.506,1.856,1.434h0c0,.928-.759,1.518-1.856,1.518Zm16.954-.506c-1.6-.337-1.94-.759-1.94-1.434h0c0-.675.59-1.181,1.518-1.181a3.409,3.409,0,0,1,2.109.759l.506-.59a3.9,3.9,0,0,0-2.53-.928,2.138,2.138,0,0,0-2.362,1.94h0c0,1.181.759,1.687,2.446,2.109,1.518.337,1.856.675,1.856,1.35h0a1.454,1.454,0,0,1-1.6,1.265A3.378,3.378,0,0,1,47.74,51.11l-.506.59a4.215,4.215,0,0,0,2.952,1.181,2.176,2.176,0,0,0,2.446-2.024h0C52.548,49.845,51.789,49.255,50.186,48.833Zm7.085-3.205h-2.7v7.254h.843v-2.53h1.771c1.518,0,2.868-.843,2.868-2.362h0A2.526,2.526,0,0,0,57.271,45.628Zm1.856,2.362c0,.928-.759,1.6-2.024,1.6H55.331V46.387h1.856c1.181,0,1.94.59,1.94,1.6ZM44.957,10.455a1.73,1.73,0,0,0-2.446-2.446L26.485,24.035a5.845,5.845,0,1,1-8.266-8.266L31.124,2.948A1.73,1.73,0,0,0,28.678.5L15.773,13.407a9.316,9.316,0,0,0,0,13.158,9.214,9.214,0,0,0,13.074,0ZM21.171,21.167a1.731,1.731,0,0,0,2.446,0L39.643,5.141a5.854,5.854,0,0,1,8.266,0A1.73,1.73,0,0,0,50.355,2.7a9.214,9.214,0,0,0-13.074,0L21.255,18.721A1.662,1.662,0,0,0,21.171,21.167Zm34.5-2.446a1.731,1.731,0,0,0-2.446,0L37.2,34.747a5.854,5.854,0,0,1-8.266,0,1.73,1.73,0,0,0-2.446,2.446,9.214,9.214,0,0,0,13.074,0L55.585,21.167A1.662,1.662,0,0,0,55.669,18.721Zm-7.76-5.314L31.883,29.433a1.73,1.73,0,0,0,2.446,2.446L50.355,15.853a5.845,5.845,0,0,1,8.266,8.266L45.632,36.94a1.73,1.73,0,0,0,2.446,2.446L60.983,26.481A9.245,9.245,0,1,0,47.909,13.407Z"/>
      </g>
    </g>
    <g id="Group_25" data-name="Group 25">
      <circle id="Oval_10-4" data-name="Oval 10" class="cls-3" cx="71.5" cy="71.5" r="71.5" transform="translate(779.5 3270.5)"/>
      <g id="lockup" transform="translate(853.361 3297.995)">
        <g id="Group_3" data-name="Group 3" class="cls-8" transform="translate(-20.753 10.005)">
          <path id="Path_23" data-name="Path 23" class="cls-9" d="M0,13.91V34.49l8.914,5.145v10.3L35.648,34.49V13.91L17.828,24.2Z" transform="translate(-0.007 -4.096)"/>
          <path id="Path_24" data-name="Path 24" class="cls-10" d="M0,9.62,17.828-.67,35.648,9.62,17.828,19.91Z" transform="translate(-0.007 0.194)"/>
          <path id="Path_25" data-name="Path 25" class="cls-11" d="M35.232,13.56,17.517,23.787.113,13.736,0,13.807,17.828,24.1l17.821-10.29Z" transform="translate(-0.007 -3.993)"/>
          <path id="Path_26" data-name="Path 26" class="cls-12" d="M17.828,24.227.113,14,0,14.064l17.828,10.29Z" transform="translate(-0.007 -4.123)"/>
        </g>
        <path id="Path_28" data-name="Path 28" class="cls-13" d="M65.44,27.956V14.08h4.242A6.9,6.9,0,0,1,74.8,16.01a6.807,6.807,0,0,1,1.92,5.011,6.788,6.788,0,0,1-1.92,5.011,6.9,6.9,0,0,1-5.117,1.93H65.44Zm1.785-1.7h2.462a5.2,5.2,0,0,0,3.806-1.374A5.174,5.174,0,0,0,74.9,21.025a5.151,5.151,0,0,0-1.407-3.845A5.166,5.166,0,0,0,69.686,15.8H67.225Zm12.71-10.171a1.261,1.261,0,1,1,.368-.89A1.224,1.224,0,0,1,79.935,16.082Zm0,11.874h-1.78V18.462h1.78Zm5.238.31a3.758,3.758,0,0,1-2.529-.871,2.885,2.885,0,0,1-1.016-2.307,2.85,2.85,0,0,1,1.2-2.433,4.9,4.9,0,0,1,2.965-.88,5.123,5.123,0,0,1,2.578.58v-.271a2.134,2.134,0,0,0-.716-1.678,2.561,2.561,0,0,0-1.76-.629,2.769,2.769,0,0,0-1.407.368,1.931,1.931,0,0,0-.861,1.006l-1.625-.7a3.621,3.621,0,0,1,1.3-1.577,4.234,4.234,0,0,1,2.559-.725,4.387,4.387,0,0,1,3.023,1.064,3.817,3.817,0,0,1,1.2,3v5.736h-1.7V26.64h-.077A3.551,3.551,0,0,1,85.173,28.265Zm.29-1.625a2.9,2.9,0,0,0,2.007-.832,2.555,2.555,0,0,0,.9-1.944,3.535,3.535,0,0,0-2.268-.619,2.966,2.966,0,0,0-1.959.561,1.68,1.68,0,0,0-.658,1.316,1.256,1.256,0,0,0,.6,1.1,2.419,2.419,0,0,0,1.378.416Zm7.893,1.316h-1.78V14.08h1.785Zm2.9-8.362a4.986,4.986,0,0,1,7.013,0,5.038,5.038,0,0,1,1.374,3.608,5.038,5.038,0,0,1-1.374,3.608,5,5,0,0,1-7.013.01,5.038,5.038,0,0,1-1.374-3.608A5.078,5.078,0,0,1,96.258,19.594Zm1.33,6.1a3,3,0,0,0,4.237.121c.044-.039.082-.082.121-.121a3.4,3.4,0,0,0,.919-2.491,3.4,3.4,0,0,0-.919-2.491,3,3,0,0,0-4.237-.121c-.044.039-.082.082-.121.121a3.4,3.4,0,0,0-.919,2.491,3.378,3.378,0,0,0,.919,2.491Zm12.991,6.757a4.289,4.289,0,0,1-2.747-.842,4.987,4.987,0,0,1-1.533-1.93l1.625-.677a2.685,2.685,0,0,0,1,1.3,2.785,2.785,0,0,0,1.654.518,3.061,3.061,0,0,0,2.317-.88,3.316,3.316,0,0,0,.842-2.394V26.64h-.077A3.617,3.617,0,0,1,112.34,27.8a3.967,3.967,0,0,1-1.92.464,4.164,4.164,0,0,1-3.178-1.456,5.13,5.13,0,0,1-1.335-3.608,5.138,5.138,0,0,1,1.335-3.608,4.164,4.164,0,0,1,3.178-1.456,3.967,3.967,0,0,1,1.92.464,3.622,3.622,0,0,1,1.316,1.161h.077V18.447h1.7v9.01a4.721,4.721,0,0,1-1.412,3.71A4.931,4.931,0,0,1,110.579,32.454Zm.135-5.813a2.866,2.866,0,0,0,2.143-.929,3.49,3.49,0,0,0,.88-2.5,3.49,3.49,0,0,0-.88-2.5,2.911,2.911,0,0,0-4.111-.155c-.058.053-.111.106-.164.164a3.469,3.469,0,0,0-.89,2.491,3.469,3.469,0,0,0,.89,2.491,2.847,2.847,0,0,0,2.133.938Zm11.264-12.633a3.6,3.6,0,0,1,1.427.251l-.619,1.533a1.886,1.886,0,0,0-.813-.155,1.619,1.619,0,0,0-1.141.416,1.559,1.559,0,0,0-.445,1.2v1.2h2.481v1.625h-2.476v7.874h-1.785V20.092h-1.78V18.467h1.785V17.209a3.042,3.042,0,0,1,.929-2.326A3.386,3.386,0,0,1,121.979,14.007Zm4.551,13.987h-1.78V14.123h1.785Zm2.733-8.357a4.986,4.986,0,0,1,7.013,0,5.038,5.038,0,0,1,1.374,3.608,5.038,5.038,0,0,1-1.374,3.608,4.986,4.986,0,0,1-7.013,0,5.038,5.038,0,0,1-1.374-3.608A5.038,5.038,0,0,1,129.262,19.637Zm1.33,6.1a3,3,0,0,0,4.237.121c.044-.039.082-.082.121-.121a3.4,3.4,0,0,0,.919-2.491,3.4,3.4,0,0,0-.919-2.491,3,3,0,0,0-4.237-.121c-.044.039-.082.082-.121.121a3.4,3.4,0,0,0-.919,2.491,3.4,3.4,0,0,0,.919,2.491ZM149.3,27.995h-1.823l-2.365-7.289-2.346,7.289h-1.8L137.905,18.5h1.862l2.114,7.168h.019l2.346-7.168h1.838l2.346,7.168h.019l2.1-7.168h1.823Z" transform="translate(-111.801 45.445)"/>
      </g>
    </g>
    <g id="Group_26" data-name="Group 26">
      <g id="Group_19" data-name="Group 19" transform="translate(1034 3452)">
        <circle id="Oval_10-5" data-name="Oval 10" class="cls-3" cx="42.5" cy="42.5" r="42.5"/>
      </g>
      <g id="Logotype_2_" transform="translate(1029.978 3474)">
        <g id="Wordmark_2_" transform="translate(16.022 33.833)">
          <path id="Path_43" data-name="Path 43" class="cls-14" d="M472.606,509.4h-3.175v.337c.991,0,1.154.213,1.154,1.471v2.269c0,1.258-.159,1.49-1.154,1.49a3.233,3.233,0,0,1-1.986-1.293l-.817-.886a1.779,1.779,0,0,0,1.684-1.665c0-.976-.832-1.719-2.392-1.719H462.8v.337c.991,0,1.154.213,1.154,1.471v2.269c0,1.258-.159,1.49-1.154,1.49v.337h3.531v-.337c-.991,0-1.154-.232-1.154-1.49v-.639h.3l1.966,2.462H472.6c2.536,0,3.635-1.347,3.635-2.962S475.138,509.4,472.606,509.4Zm-7.429,2.888V509.93h.728a1.179,1.179,0,0,1,0,2.358Zm7.479,2.462h-.124c-.639,0-.728-.159-.728-.976v-3.848h.852c1.843,0,2.18,1.347,2.18,2.393C474.836,513.4,474.5,514.75,472.656,514.75Z" transform="translate(-444.883 -507.623)"/>
          <path id="Path_44" data-name="Path 44" class="cls-14" d="M8.048,468.819,9.272,465.2c.356-1.045.194-1.347-.941-1.347V463.5h3.333v.356c-1.115,0-1.382.267-1.827,1.56l-2.021,6.063H7.588L5.78,465.931l-1.843,5.547H3.7l-1.967-6.062c-.426-1.293-.708-1.56-1.738-1.56V463.5H3.933v.356c-1.045,0-1.328.248-.956,1.347l1.188,3.616L5.954,463.5h.337Z" transform="translate(0 -463.5)"/>
          <path id="Path_45" data-name="Path 45" class="cls-14" d="M275.446,509.764a3.2,3.2,0,1,1,3.546-3.19A3.392,3.392,0,0,1,275.446,509.764Zm0-5.815c-1.63,0-2.2,1.471-2.2,2.625,0,1.169.569,2.625,2.2,2.625,1.649,0,2.214-1.452,2.214-2.625C277.661,505.421,277.1,503.95,275.446,503.95Z" transform="translate(-261.374 -501.855)"/>
          <path id="Path_46" data-name="Path 46" class="cls-14" d="M822.161,470.921v.356H818.1v-.356c1.188,0,1.4-.3,1.4-2.075v-2.834c0-1.773-.213-2.056-1.4-2.056V463.6h3.67c1.827,0,2.838.941,2.838,2.2,0,1.223-1.011,2.18-2.838,2.18h-1.01v.867C820.76,470.619,820.973,470.921,822.161,470.921Zm-.391-6.682h-1.01v3.086h1.01a1.386,1.386,0,0,0,1.452-1.525A1.4,1.4,0,0,0,821.77,464.239Z" transform="translate(-786.429 -463.596)"/>
          <path id="Path_47" data-name="Path 47" class="cls-14" d="M1008.565,513.539l-.089.317c-.159.585-.356.8-1.614.8h-.248c-.921,0-1.08-.213-1.08-1.471v-.817c1.382,0,1.49.124,1.49,1.045h.337v-2.64h-.337c0,.921-.1,1.045-1.49,1.045V509.83h.975c1.258,0,1.452.213,1.614.8l.089.337h.283l-.124-1.665h-5.211v.337c.991,0,1.154.213,1.154,1.471v2.269c0,1.15-.135,1.44-.918,1.483a3.248,3.248,0,0,1-1.951-1.289l-.817-.886a1.779,1.779,0,0,0,1.684-1.665c0-.976-.832-1.719-2.392-1.719H996.8v.337c.991,0,1.154.213,1.154,1.471v2.269c0,1.258-.159,1.49-1.154,1.49v.337h3.527v-.337c-.991,0-1.154-.232-1.154-1.49v-.639h.3l1.967,2.462h7.286l.1-1.665h-.267Zm-9.392-1.347v-2.358h.728a1.179,1.179,0,0,1,0,2.358Z" transform="translate(-958.211 -507.527)"/>
          <path id="Path_48" data-name="Path 48" class="cls-14" d="M1338.615,509.668a2.614,2.614,0,0,1-1.6-.6,1.277,1.277,0,0,0-.282.6h-.337v-2.447h.356a1.968,1.968,0,0,0,2,1.862.914.914,0,0,0,1.029-.852c0-.461-.406-.817-1.133-1.154l-1.011-.48a1.927,1.927,0,0,1-1.238-1.7,1.739,1.739,0,0,1,1.9-1.576,2.221,2.221,0,0,1,1.382.461,1.007,1.007,0,0,0,.232-.48h.337v2.091h-.371c-.124-.832-.584-1.525-1.525-1.525-.5,0-.956.283-.956.728,0,.461.372.708,1.223,1.1l.975.48a1.849,1.849,0,0,1,1.189,1.6A2.016,2.016,0,0,1,1338.615,509.668Z" transform="translate(-1284.664 -501.759)"/>
          <path id="Path_49" data-name="Path 49" class="cls-14" d="M1477.115,509.668a2.615,2.615,0,0,1-1.6-.6,1.273,1.273,0,0,0-.283.6h-.337v-2.447h.356a1.969,1.969,0,0,0,2,1.862.914.914,0,0,0,1.03-.852c0-.461-.406-.817-1.134-1.154l-1.01-.48a1.927,1.927,0,0,1-1.238-1.7,1.738,1.738,0,0,1,1.9-1.576,2.22,2.22,0,0,1,1.382.461.966.966,0,0,0,.229-.48h.336v2.091h-.371c-.124-.832-.585-1.525-1.525-1.525-.5,0-.956.283-.956.728,0,.461.371.708,1.223,1.1l.975.48a1.849,1.849,0,0,1,1.189,1.6A2.015,2.015,0,0,1,1477.115,509.668Z" transform="translate(-1417.802 -501.759)"/>
        </g>
        <g id="W_Mark_2_" transform="translate(31.189)">
          <path id="Path_50" data-name="Path 50" class="cls-14" d="M603.57.937a14.542,14.542,0,0,1,5.7,1.149,14.94,14.94,0,0,1,2.486,1.353,14.453,14.453,0,0,1,2.169,1.791,14.724,14.724,0,0,1,3.145,4.656,14.713,14.713,0,0,1,0,11.4,14.956,14.956,0,0,1-1.353,2.487,14.471,14.471,0,0,1-1.791,2.169,14.726,14.726,0,0,1-4.656,3.144,14.71,14.71,0,0,1-11.4,0,14.947,14.947,0,0,1-2.486-1.353,14.453,14.453,0,0,1-2.169-1.791,14.725,14.725,0,0,1-3.144-4.656,14.709,14.709,0,0,1,0-11.4A14.938,14.938,0,0,1,591.424,7.4a14.463,14.463,0,0,1,1.791-2.169,14.728,14.728,0,0,1,4.656-3.144,14.542,14.542,0,0,1,5.7-1.149m0-.937a15.57,15.57,0,1,0,15.57,15.57A15.568,15.568,0,0,0,603.57,0Z" transform="translate(-588)"/>
          <path id="Path_51" data-name="Path 51" class="cls-14" d="M622.3,47.278a12.969,12.969,0,0,0,7.316,11.678l-6.19-16.961A12.861,12.861,0,0,0,622.3,47.278Zm21.738-.65a6.769,6.769,0,0,0-1.073-3.575,6.065,6.065,0,0,1-1.277-3.046,2.249,2.249,0,0,1,2.177-2.305c.06,0,.114.008.166.008a12.972,12.972,0,0,0-19.607,2.441c.3.008.59.015.839.015,1.361,0,3.462-.166,3.462-.166a.535.535,0,0,1,.083,1.066s-.7.083-1.481.121l4.724,14.059,2.842-8.518-2.018-5.54c-.7-.038-1.361-.121-1.361-.121A.535.535,0,0,1,631.6,40s2.139.166,3.417.166c1.361,0,3.462-.166,3.462-.166a.535.535,0,0,1,.083,1.066s-.7.083-1.482.121l4.686,13.953L643.1,50.9A15.032,15.032,0,0,0,644.038,46.628ZM635.5,48.412l-3.893,11.315a13,13,0,0,0,7.974-.2.675.675,0,0,1-.091-.181Zm11.156-7.354a10.475,10.475,0,0,1,.09,1.338,12.268,12.268,0,0,1-.99,4.648L641.8,58.5a12.969,12.969,0,0,0,4.86-17.445Z" transform="translate(-619.708 -31.707)"/>
        </g>
      </g>
    </g>
    <g id="Group_23" data-name="Group 23">
      <circle id="Oval_10-6" data-name="Oval 10" class="cls-3" cx="65" cy="65" r="65" transform="translate(1148 3492)"/>
      <g id="Group_22" data-name="Group 22" transform="translate(1164.941 3539.601)">
        <g id="Group_19-2" data-name="Group 19">
          <path id="Path_52" data-name="Path 52" class="cls-15" d="M17.32,24H29.091v1.164a14.218,14.218,0,0,1-3.938,10.294,13.456,13.456,0,0,1-10.115,4.117,14.144,14.144,0,0,1-10.607-4.61A14.946,14.946,0,0,1,0,24.175a15.138,15.138,0,0,1,4.52-11.01A14.707,14.707,0,0,1,15.4,8.6a15.332,15.332,0,0,1,6.713,1.522,14.735,14.735,0,0,1,5.371,4.252l-2.6,2.462A12.12,12.12,0,0,0,20.766,13.3,10.888,10.888,0,0,0,15.575,12a11.223,11.223,0,0,0-8.414,3.536,11.86,11.86,0,0,0-3.446,8.548,12.062,12.062,0,0,0,3.4,8.459,10.673,10.673,0,0,0,8.145,3.67,9.874,9.874,0,0,0,6.579-2.641A8.211,8.211,0,0,0,24.973,27.4H17.32Z" transform="translate(0 -4.751)"/>
          <path id="Path_53" data-name="Path 53" class="cls-16" d="M154.217,51.706h-3c-.134-.627-.224-1.79-.358-3.491a7.026,7.026,0,0,1-6.8,4.028,6.761,6.761,0,0,1-5.013-1.745,5.682,5.682,0,0,1-1.745-4.162,5.827,5.827,0,0,1,2.506-4.834c1.656-1.253,4.52-1.88,8.5-1.88.537,0,1.387.045,2.6.09a12.028,12.028,0,0,0-.358-3.357,3.021,3.021,0,0,0-1.522-1.656,6.55,6.55,0,0,0-3.043-.627c-3.088,0-4.834,1.164-5.371,3.491l-2.775-.492q1.007-5.371,8.593-5.371c2.685,0,4.565.582,5.684,1.79s1.7,3.222,1.7,6.176v8.28A16.139,16.139,0,0,0,154.217,51.706Zm-3.357-9.712c-1.253-.09-2.148-.134-2.82-.134a11.136,11.136,0,0,0-5.55,1.164,3.737,3.737,0,0,0-1.969,3.446,3.2,3.2,0,0,0,1.074,2.417,4.343,4.343,0,0,0,3.088.985A5.737,5.737,0,0,0,149.16,47.9a6.841,6.841,0,0,0,1.745-4.655A6.252,6.252,0,0,0,150.861,41.994Z" transform="translate(-75.851 -17.513)"/>
          <path id="Path_54" data-name="Path 54" class="cls-15" d="M187.316,11.616a2.3,2.3,0,0,1,1.745-.716,2.445,2.445,0,0,1,2.462,2.462,2.267,2.267,0,0,1-.716,1.7,2.3,2.3,0,0,1-1.745.716,2.365,2.365,0,0,1-1.745-.716,2.267,2.267,0,0,1-.716-1.7A2.471,2.471,0,0,1,187.316,11.616Zm3.536,10.159V40.215h-3.536V21.775Z" transform="translate(-103.087 -6.022)"/>
          <path id="Path_55" data-name="Path 55" class="cls-17" d="M212.636,0V34.193H209.1V0Z" transform="translate(-115.517)"/>
        </g>
        <g id="Group_21" data-name="Group 21" transform="translate(31.552 14.232)">
          <g id="Group_20" data-name="Group 20" transform="translate(1.79)">
            <path id="Path_56" data-name="Path 56" class="cls-18" d="M98.489,39.2,96.743,56.655H75.887L74.5,39.513l11.815,6.624Z" transform="translate(-74.5 -35.888)"/>
            <path id="Path_57" data-name="Path 57" class="cls-18" d="M98.183,31.8,86.592,42.675,75,31.8H98.183Z" transform="translate(-74.776 -31.8)"/>
          </g>
          <path id="Path_58" data-name="Path 58" class="cls-19" d="M73.678,40.227V55.936H71.8a1.3,1.3,0,0,1-1.3-1.3V37.9l2.059.045Z" transform="translate(-70.5 -35.17)"/>
          <path id="Path_59" data-name="Path 59" class="cls-20" d="M127.378,37.734V54.473a1.3,1.3,0,0,1-1.3,1.3H124.2V40.062l1.029-2.462Z" transform="translate(-100.166 -35.004)"/>
          <path id="Path_60" data-name="Path 60" class="cls-19" d="M97.711,33.1V34.53l-3.178,2.327L84.106,44.466,73.678,36.857,70.5,34.53V33.1a1.3,1.3,0,0,1,1.3-1.3h.716l11.592,8.459L95.7,31.8h.761A1.29,1.29,0,0,1,97.711,33.1Z" transform="translate(-70.5 -31.8)"/>
          <path id="Path_61" data-name="Path 61" class="cls-20" d="M73.678,40.227,70.5,39.735V37.9Z" transform="translate(-70.5 -35.17)"/>
        </g>
      </g>
    </g>
    <g id="Group_27" data-name="Group 27">
      <circle id="Oval_10-7" data-name="Oval 10" class="cls-3" cx="55.5" cy="55.5" r="55.5" transform="translate(973.5 3308.5)"/>
      <g id="Group_24" data-name="Group 24" transform="translate(-2162 2009)">
        <g id="Logo" transform="translate(3174.621 1326)">
          <g id="Shapes">
            <path id="Rectangle-29" class="cls-21" d="M128,0V17.02h17.02V5.318A5.317,5.317,0,0,0,139.7,0Z" transform="translate(-110.98)"/>
            <path id="Rectangle-27" class="cls-22" d="M0,128v11.7a5.317,5.317,0,0,0,5.318,5.318h11.7V128Z" transform="translate(0 -110.98)"/>
            <path id="Rectangle-28" class="cls-23" d="M128,128v17.02h11.7a5.317,5.317,0,0,0,5.318-5.318V128Z" transform="translate(-110.98 -110.98)"/>
            <path id="Path-2" class="cls-22" d="M5.318,0A5.317,5.317,0,0,0,0,5.318v11.7H17.02V0Z"/>
          </g>
        </g>
        <path id="Clearbi_t" data-name="Clearbi t" class="cls-24" d="M11.412-2.7A4.361,4.361,0,0,1,7.668-.81,5.273,5.273,0,0,1,2.376-6.372a5.262,5.262,0,0,1,5.292-5.562,4.182,4.182,0,0,1,3.438,1.674l1.08-.792A5.614,5.614,0,0,0,7.65-13.068a6.485,6.485,0,0,0-6.642,6.7A6.454,6.454,0,0,0,7.65.324a5.587,5.587,0,0,0,4.77-2.376Zm4.38-10.908H14.568V0h1.224ZM19.7-4.86a2.983,2.983,0,0,1,2.952-2.754,2.656,2.656,0,0,1,2.79,2.754Zm6.984.4A3.861,3.861,0,0,0,22.657-8.64a4.254,4.254,0,0,0-4.248,4.428A4.277,4.277,0,0,0,22.765.216a4.393,4.393,0,0,0,3.618-1.782l-.918-.72a3.191,3.191,0,0,1-2.7,1.458,3.073,3.073,0,0,1-3.078-3.06h6.984C26.689-4.1,26.689-4.3,26.689-4.464Zm7.782-.7c-3.078,0-5.94.234-5.94,2.826A2.645,2.645,0,0,0,31.447.216a3.387,3.387,0,0,0,3.06-1.584h.036A8.4,8.4,0,0,0,34.669,0h1.1a11.546,11.546,0,0,1-.144-1.89V-5.58a2.958,2.958,0,0,0-3.276-3.06,4.72,4.72,0,0,0-3.312,1.206l.684.81a3.583,3.583,0,0,1,2.5-.99,1.972,1.972,0,0,1,2.25,2.178Zm0,.954v.63a2.63,2.63,0,0,1-2.7,2.79c-.954,0-1.98-.4-1.98-1.6,0-1.6,2.322-1.818,4.32-1.818ZM38.726-6.57V0H39.95V-4.32c0-2.25,1.17-3.186,2.466-3.186a3.271,3.271,0,0,1,.864.108l.162-1.152a2.865,2.865,0,0,0-.81-.09,3,3,0,0,0-2.7,1.656H39.9c0-.36-.036-.99-.072-1.44h-1.17C38.708-7.848,38.726-7.02,38.726-6.57Zm7.728,5.148A3.885,3.885,0,0,0,49.64.216,4.235,4.235,0,0,0,54-4.212,4.235,4.235,0,0,0,49.64-8.64a3.828,3.828,0,0,0-3.186,1.674h-.036v-6.642H45.194V0h1.224V-1.422ZM52.7-4.212A3.123,3.123,0,0,1,49.514-.828a3.218,3.218,0,0,1-3.24-3.384,3.233,3.233,0,0,1,3.24-3.4A3.138,3.138,0,0,1,52.7-4.212Zm5.118-4.212H56.595V0h1.224Zm.252-3.24a.875.875,0,0,0-.864-.864.875.875,0,0,0-.864.864.875.875,0,0,0,.864.864A.875.875,0,0,0,58.071-11.664Zm6.756,3.24H62.451V-10.8H61.227v2.376H59.481V-7.4h1.746v5.256a2.008,2.008,0,0,0,2.16,2.25,3.954,3.954,0,0,0,1.44-.252l-.054-1.062a2.509,2.509,0,0,1-1.062.27c-.738,0-1.26-.288-1.26-1.548V-7.4h2.376Z" transform="translate(3158 1379.566)"/>
      </g>
    </g>
  </g>
</svg>
