<svg xmlns="http://www.w3.org/2000/svg" xmlns:xlink="http://www.w3.org/1999/xlink" viewBox="0 0 506.5 469">
  <defs>
    <style>
      .cls-1 {
        fill: none;
      }

      .cls-2 {
        clip-path: url(#clip-path);
      }

      .cls-11, .cls-3 {
        fill: #fff;
      }

      .cls-4 {
        clip-path: url(#clip-path-2);
      }

      .cls-5 {
        clip-path: url(#clip-path-3);
      }

      .cls-6 {
        fill: #03363d;
      }

      .cls-7 {
        clip-path: url(#clip-path-4);
      }

      .cls-8 {
        fill: #ef6c00;
      }

      .cls-9 {
        fill: #ff9800;
      }

      .cls-10 {
        fill: #bf360c;
      }

      .cls-10, .cls-11, .cls-17 {
        opacity: 0.1;
      }

      .cls-12 {
        fill: #757575;
      }

      .cls-13 {
        fill: #f44599;
      }

      .cls-14 {
        fill: #409ce3;
      }

      .cls-15 {
        fill: #121313;
      }

      .cls-16 {
        fill: #e3e3e3;
      }

      .cls-17 {
        fill: #231f20;
      }

      .cls-18 {
        fill: #d54b3d;
      }

      .cls-19 {
        fill: #d72b27;
      }

      .cls-20 {
        fill: url(#linear-gradient);
      }

      .cls-21 {
        fill: #5f6368;
      }

      .cls-22 {
        fill: #5ca4ff;
        opacity: 0.9;
      }

      .cls-23 {
        fill: #499aff;
      }

      .cls-24 {
        fill: #e9f3ff;
      }

      .cls-25 {
        fill: #32373c;
      }

      .cls-26 {
        filter: url(#Rectangle_26);
      }

      .cls-27 {
        filter: url(#Rectangle_23);
      }

      .cls-28 {
        filter: url(#Rectangle_28);
      }

      .cls-29 {
        filter: url(#Rectangle_27);
      }

      .cls-30 {
        filter: url(#Rectangle_25);
      }

      .cls-31 {
        filter: url(#Rectangle_24);
      }

      .cls-32 {
        filter: url(#Rectangle_22);
      }

      .cls-33 {
        filter: url(#Rectangle_21);
      }
    </style>
    <clipPath id="clip-path">
      <rect id="Rectangle_5" data-name="Rectangle 5" class="cls-1" width="184" height="184" transform="translate(499)"/>
    </clipPath>
    <clipPath id="clip-path-2">
      <rect id="Rectangle_9" data-name="Rectangle 9" class="cls-1" width="173" height="173" transform="translate(316 141)"/>
    </clipPath>
    <clipPath id="clip-path-3">
      <rect id="Rectangle_20" data-name="Rectangle 20" class="cls-1" width="160" height="160" transform="translate(450 255)"/>
    </clipPath>
    <filter id="Rectangle_21" x="169" y="0" width="199" height="199" filterUnits="userSpaceOnUse">
      <feOffset dx="-5" dy="-6" input="SourceAlpha"/>
      <feGaussianBlur stdDeviation="12.5" result="blur"/>
      <feFlood flood-opacity="0.102"/>
      <feComposite operator="in" in2="blur"/>
      <feComposite in="SourceGraphic"/>
    </filter>
    <filter id="Rectangle_22" x="119" y="143" width="185" height="185" filterUnits="userSpaceOnUse">
      <feOffset dy="3" input="SourceAlpha"/>
      <feGaussianBlur stdDeviation="14.5" result="blur-2"/>
      <feFlood flood-opacity="0.071"/>
      <feComposite operator="in" in2="blur-2"/>
      <feComposite in="SourceGraphic"/>
    </filter>
    <filter id="Rectangle_24" x="325.5" y="15.5" width="181" height="181" filterUnits="userSpaceOnUse">
      <feOffset dx="9" dy="-10" input="SourceAlpha"/>
      <feGaussianBlur stdDeviation="13" result="blur-3"/>
      <feFlood flood-opacity="0.102"/>
      <feComposite operator="in" in2="blur-3"/>
      <feComposite in="SourceGraphic"/>
    </filter>
    <clipPath id="clip-path-4">
      <path id="Path_62" data-name="Path 62" class="cls-1" d="M722.9,67.8l-11.2-6.4a2.4,2.4,0,0,0-2.3,0l-11.2,6.4a2.4,2.4,0,0,0-1.2,2V82.7a2.4,2.4,0,0,0,1.2,2l5.6,3.2v6.6a.7.7,0,0,0,.7.7h.4L723,84.8a2.3,2.3,0,0,0,1.2-2v-13A2.4,2.4,0,0,0,722.9,67.8Z"/>
    </clipPath>
    <filter id="Rectangle_25" x="252" y="158" width="208" height="207" filterUnits="userSpaceOnUse">
      <feOffset dx="9" dy="12" input="SourceAlpha"/>
      <feGaussianBlur stdDeviation="12.5" result="blur-4"/>
      <feFlood flood-opacity="0.102"/>
      <feComposite operator="in" in2="blur-4"/>
      <feComposite in="SourceGraphic"/>
    </filter>
    <filter id="Rectangle_27" x="95" y="234" width="235" height="235" filterUnits="userSpaceOnUse">
      <feOffset dy="3" input="SourceAlpha"/>
      <feGaussianBlur stdDeviation="22.5" result="blur-5"/>
      <feFlood flood-opacity="0.071"/>
      <feComposite operator="in" in2="blur-5"/>
      <feComposite in="SourceGraphic"/>
    </filter>
    <filter id="Rectangle_28" x="246.5" y="302.5" width="163" height="163" filterUnits="userSpaceOnUse">
      <feOffset dx="-4" dy="-1" input="SourceAlpha"/>
      <feGaussianBlur stdDeviation="10" result="blur-6"/>
      <feFlood flood-opacity="0.059"/>
      <feComposite operator="in" in2="blur-6"/>
      <feComposite in="SourceGraphic"/>
    </filter>
    <linearGradient id="linear-gradient" x1="-8.512" y1="-28.67" x2="-8.508" y2="-28.67" gradientUnits="objectBoundingBox">
      <stop offset="0" stop-opacity="0.102"/>
      <stop offset="1" stop-opacity="0.2"/>
    </linearGradient>
    <filter id="Rectangle_23" x="0" y="160" width="170" height="170" filterUnits="userSpaceOnUse">
      <feOffset dy="4" input="SourceAlpha"/>
      <feGaussianBlur stdDeviation="9.5" result="blur-7"/>
      <feFlood flood-opacity="0.071"/>
      <feComposite operator="in" in2="blur-7"/>
      <feComposite in="SourceGraphic"/>
    </filter>
    <filter id="Rectangle_26" x="54" y="31" width="170" height="170" filterUnits="userSpaceOnUse">
      <feOffset dx="-4" dy="-4" input="SourceAlpha"/>
      <feGaussianBlur stdDeviation="12.5" result="blur-8"/>
      <feFlood flood-opacity="0.059"/>
      <feComposite operator="in" in2="blur-8"/>
      <feComposite in="SourceGraphic"/>
    </filter>
  </defs>
  <g id="Group_63" data-name="Group 63" transform="translate(-895.5 -269.5)">
    <g id="Group_35" data-name="Group 35" class="cls-2" transform="translate(593 298)">
      <rect id="Rectangle_4" data-name="Rectangle 4" class="cls-3" width="124" height="124" rx="10" transform="translate(161 15)"/>
    </g>
    <g id="Group_36" data-name="Group 36" class="cls-4" transform="translate(593 298)">
      <rect id="Rectangle_8" data-name="Rectangle 8" class="cls-3" width="113" height="113" rx="10" transform="translate(0 156)"/>
    </g>
    <g id="Group_37" data-name="Group 37" class="cls-5" transform="translate(593 298)">
      <rect id="Rectangle_19" data-name="Rectangle 19" class="cls-3" width="100" height="100" rx="10" transform="translate(160 270)"/>
    </g>
    <g id="Group_62" data-name="Group 62">
      <g class="cls-33" transform="matrix(1, 0, 0, 1, 895.5, 269.5)">
        <rect id="Rectangle_21-2" data-name="Rectangle 21" class="cls-3" width="124" height="124" rx="10" transform="translate(211.5 43.5)"/>
      </g>
      <g id="zendesk-medium" transform="translate(593 298)">
        <g id="Group_34" data-name="Group 34">
          <path id="Path_12" data-name="Path 12" class="cls-6" d="M576,55.4V83.5H552.7Z"/>
          <path id="Path_13" data-name="Path 13" class="cls-6" d="M576,45.3a11.65,11.65,0,1,1-23.3.2q0-.1,0-.2Z"/>
          <path id="Path_14" data-name="Path 14" class="cls-6" d="M579.9,83.5a11.65,11.65,0,0,1,23.3-.2v.2Z"/>
          <path id="Path_15" data-name="Path 15" class="cls-6" d="M579.9,73.4V45.3h23.3Z"/>
        </g>
        <path id="Path_16" data-name="Path 16" class="cls-6" d="M592.9,107.5a4.5,4.5,0,0,0,3.2-1.2l1.6,1.7a6.3,6.3,0,0,1-4.8,1.9c-3.9,0-6.4-2.6-6.4-6.1a6,6,0,0,1,5.9-6.1h.2c3.9,0,6.1,2.9,5.9,7h-9.2a3.3,3.3,0,0,0,3.6,2.8m2.8-4.7a2.9,2.9,0,0,0-3.1-2.8,3.1,3.1,0,0,0-3.3,2.8Z"/>
        <path id="Path_17" data-name="Path 17" class="cls-6" d="M532.7,107.4l7.1-7.2h-6.9V98H543v2.3l-7.1,7.2H543v2.2H532.7Z"/>
        <path id="Path_18" data-name="Path 18" class="cls-6" d="M551.1,107.5a4.5,4.5,0,0,0,3.2-1.2l1.6,1.7a6.3,6.3,0,0,1-4.8,1.9c-3.9,0-6.4-2.6-6.4-6.1a6,6,0,0,1,5.9-6.1h.2c3.9,0,6.1,2.9,5.9,7h-9.2a3.3,3.3,0,0,0,3.6,2.8m2.8-4.7a2.9,2.9,0,0,0-3.1-2.8,3.1,3.1,0,0,0-3.3,2.8Z"/>
        <path id="Path_19" data-name="Path 19" class="cls-6" d="M571.8,103.8a5.9,5.9,0,0,1,5.6-6.1h.3a5.1,5.1,0,0,1,3.9,1.8v-7h2.5v17.1h-2.5V108a5,5,0,0,1-3.9,1.8,5.9,5.9,0,0,1-5.9-5.9h0m9.9,0a3.7,3.7,0,1,0,0,.1h0"/>
        <path id="Path_20" data-name="Path 20" class="cls-6" d="M600.1,107.2l2.3-1.2a3.3,3.3,0,0,0,3,1.7c1.4,0,2.1-.7,2.1-1.5s-1.4-1.1-2.8-1.4-4.1-1.1-4.1-3.5,1.8-3.6,4.5-3.5a5.4,5.4,0,0,1,4.7,2.3l-2.1,1.1a3,3,0,0,0-2.6-1.3c-1.3,0-2,.7-2,1.4s1.1,1.1,2.8,1.4,4.1,1.1,4.1,3.5-1.4,3.8-4.7,3.8a5.5,5.5,0,0,1-5.1-2.7"/>
        <path id="Path_21" data-name="Path 21" class="cls-6" d="M616.7,104.4l-2,2.2v3h-2.5V92.5h2.5v11.2l5.3-5.8h3l-4.6,5,4.7,6.7h-2.8Z"/>
        <path id="Path_22" data-name="Path 22" class="cls-6" d="M564.3,97.7a5.1,5.1,0,0,0-5.4,4.7v7.2h2.5v-6.5a2.8,2.8,0,0,1,2.5-3.1h.5c1.9,0,2.8,1.1,2.8,3.1v6.5h2.5v-6.8a5.1,5.1,0,0,0-5.1-5.1h-.4"/>
      </g>
    </g>
    <g id="Group_39" data-name="Group 39" transform="translate(593 298)">
      <g class="cls-32" transform="matrix(1, 0, 0, 1, 302.5, -28.5)">
        <rect id="Rectangle_22-2" data-name="Rectangle 22" class="cls-3" width="98" height="98" rx="10" transform="translate(162.5 183.5)"/>
      </g>
      <g id="Group_17" data-name="Group 17">
        <path id="squarespace-logo-horizontal" d="M504,220.4l-2.9,6.3h.7l.7-1.7H506l.7,1.7h.7l-2.9-6.3Zm-1.1,4,1.5-3.2,1.4,3.2Zm-19.5-1.2c-1.4-.3-1.7-.7-1.7-1.2h0c0-.6.5-1,1.3-1a3,3,0,0,1,1.8.7l.4-.5a3.4,3.4,0,0,0-2.2-.8,1.9,1.9,0,0,0-2,1.6h0c0,1,.7,1.5,2.1,1.8s1.6.6,1.6,1.2h0a1.3,1.3,0,0,1-1.4,1.1,2.9,2.9,0,0,1-2.1-.9l-.5.7a3.7,3.7,0,0,0,2.6,1,1.9,1.9,0,0,0,2.1-1.6h0C485.4,224,484.8,223.5,483.4,223.2Zm9.8.4h0a3.2,3.2,0,0,0-3.1-3.2H490a3.1,3.1,0,0,0-3.1,3q0,.1,0,.2h0a3.2,3.2,0,0,0,3.1,3.2h.1a2.9,2.9,0,0,0,2-.7l.8.7.5-.5-.8-.7a3.6,3.6,0,0,0,.7-2Zm-1.2,1.7-1.2-1.1-.5.5,1.2,1a2.3,2.3,0,0,1-1.5.4,2.5,2.5,0,0,1-2.5-2.5h0a2.5,2.5,0,0,1,5-.1v.1h0a2.6,2.6,0,0,1-.5,1.7Zm7.5-1.2c0,1.4-.7,2-1.9,2s-1.9-.7-1.9-2.1v-3.6H495V224a2.4,2.4,0,0,0,2.2,2.7h.5a2.5,2.5,0,0,0,2.6-2.8v-3.6h-.7Zm43.5,2.1a2.5,2.5,0,0,1-2.4-2.5h0a2.4,2.4,0,0,1,2.3-2.6h.1a2.6,2.6,0,0,1,2,.9l.5-.5a3.3,3.3,0,0,0-2.4-1,3.1,3.1,0,0,0-3.1,3.1h0a3.1,3.1,0,0,0,3,3.2h.2a3.2,3.2,0,0,0,2.5-1.1l-.4-.4a3.4,3.4,0,0,1-2.1.9Zm-7.3-5.8-2.9,6.3h.7l.7-1.7h3.4l.7,1.7h.7l-2.9-6.3Zm-1.1,4,1.5-3.2,1.4,3.2Zm13.2,1.6v-2.2h3.4v-.7h-3.4V221h3.8v-.7H547v6.3h4.6V226Zm-31.4-2.2h3.4v-.7h-3.4V221h3.9v-.7h-4.5v6.3h4.5V226h-3.9Zm-2.6-1.5h0a1.5,1.5,0,0,0-.5-1.2,2.6,2.6,0,0,0-1.8-.7h-2.7v6.3h.7v-2.4h1.8l1.8,2.4h.9l-1.9-2.6a1.8,1.8,0,0,0,1.6-1.8Zm-4.2,1.3V221h1.9c1,0,1.6.4,1.6,1.2h0c0,.8-.7,1.3-1.6,1.3Zm14.7-.4c-1.4-.3-1.7-.7-1.7-1.2h0c0-.6.5-1,1.3-1a3,3,0,0,1,1.8.7l.4-.5a3.4,3.4,0,0,0-2.2-.8,1.9,1.9,0,0,0-2,1.6h0c0,1,.7,1.5,2.1,1.8s1.6.6,1.6,1.2h0a1.3,1.3,0,0,1-1.4,1.1,2.9,2.9,0,0,1-2.1-.9l-.4.5a3.7,3.7,0,0,0,2.6,1,1.9,1.9,0,0,0,2.1-1.6h0c-.1-.9-.7-1.4-2.1-1.8Zm6.1-2.8H528v6.3h.7v-2.2h1.5a2.2,2.2,0,0,0,2.5-2h0a2.2,2.2,0,0,0-2.3-2.1h-.1Zm1.6,2c0,.8-.7,1.4-1.8,1.4h-1.5V221h1.6c1,0,1.7.5,1.7,1.4Zm-12.3-32.5a1.5,1.5,0,0,0-2.1-2.1l-13.9,13.9a5.1,5.1,0,0,1-7.2-7.1h0l11.2-11.1a1.5,1.5,0,0,0-2.1-2.1l-11.2,11.2a8.1,8.1,0,0,0,0,11.4,8,8,0,0,0,11.3,0h0Zm-20.6,9.3a1.5,1.5,0,0,0,2.1,0l13.9-13.9a5.1,5.1,0,0,1,7.2,0,1.5,1.5,0,0,0,2.1-2.1,8,8,0,0,0-11.3,0h0l-13.9,13.9a1.4,1.4,0,0,0-.2,2Zm29.9-2.1a1.5,1.5,0,0,0-2.1,0L513,211a5.1,5.1,0,0,1-7.2,0,1.5,1.5,0,0,0-2.1,2.1,8,8,0,0,0,11.3,0h0l13.9-13.9a1.4,1.4,0,0,0,.2-2H529Zm-6.7-4.6-13.9,13.9a1.5,1.5,0,0,0,2.1,2.1l13.9-13.9a5.1,5.1,0,0,1,7.2,7.2l-11.3,11.1a1.5,1.5,0,0,0,2.1,2.1l11.2-11.2a8,8,0,0,0-11.2-11.4h-.1Z"/>
      </g>
    </g>
    <g id="Group_42" data-name="Group 42" transform="translate(593 298)">
      <g class="cls-31" transform="matrix(1, 0, 0, 1, 302.5, -28.5)">
        <rect id="Rectangle_24-2" data-name="Rectangle 24" class="cls-3" width="103" height="103" rx="10" transform="translate(355.5 64.5)"/>
      </g>
      <g id="lockup">
        <g id="Group_41" data-name="Group 41" class="cls-7">
          <g id="Group_3" data-name="Group 3">
            <path id="Path_23" data-name="Path 23" class="cls-8" d="M697,68.5V84.1l6.8,3.9v7.8l20.3-11.7V68.5l-13.5,7.8Z"/>
            <path id="Path_24" data-name="Path 24" class="cls-9" d="M697,68.5l13.5-7.8L724,68.5l-13.5,7.8Z"/>
            <path id="Path_25" data-name="Path 25" class="cls-10" d="M723.8,68.3,710.3,76l-13.2-7.6H697l13.5,7.8L724,68.4Z"/>
            <path id="Path_26" data-name="Path 26" class="cls-11" d="M710.6,76.3l-13.4-7.8H697l13.5,7.8Z"/>
          </g>
        </g>
        <path id="Path_28" data-name="Path 28" class="cls-12" d="M677.6,109.1V98.6h3.2a5.2,5.2,0,0,1,3.9,1.5,5.7,5.7,0,0,1,0,7.6,5.2,5.2,0,0,1-3.9,1.5h-3.2Zm1.4-1.3h1.9a4,4,0,1,0,0-7.9H679Zm9.6-7.7a1,1,0,1,1,.3-.7.9.9,0,0,1-.3.7Zm0,9h-1.3v-7.2h1.3Zm4,.2a2.8,2.8,0,0,1-1.9-.7,2.229,2.229,0,0,1,.1-3.5,3.7,3.7,0,0,1,2.2-.7,3.9,3.9,0,0,1,2,.4v-.2a1.6,1.6,0,0,0-.5-1.3,1.9,1.9,0,0,0-1.3-.5,2.1,2.1,0,0,0-1.1.3,1.5,1.5,0,0,0-.7.8l-1.2-.5a2.7,2.7,0,0,1,1-1.2,3.2,3.2,0,0,1,1.9-.5,3.3,3.3,0,0,1,2.3.8,2.9,2.9,0,0,1,.9,2.3v4.3H695v-1h0a2.7,2.7,0,0,1-2.4,1.2Zm.2-1.2a2.2,2.2,0,0,0,1.5-.6,1.9,1.9,0,0,0,.7-1.5,2.7,2.7,0,0,0-1.7-.5,2.2,2.2,0,0,0-1.5.4,1.3,1.3,0,0,0-.5,1,1,1,0,0,0,.5.8,1.8,1.8,0,0,0,1,.3Zm6,1h-1.3V98.6h1.4Zm2.2-6.3a3.8,3.8,0,0,1,5.3,0,3.7,3.7,0,1,1-5.3,0Zm1,4.6a2.3,2.3,0,0,0,3.2.1h.1a2.9,2.9,0,0,0,0-3.8,2.3,2.3,0,0,0-3.2-.1H702A2.9,2.9,0,0,0,702,107.4Zm9.9,5.1a3.3,3.3,0,0,1-2.1-.6,3.8,3.8,0,0,1-1.2-1.5l1.2-.5a2,2,0,0,0,.8,1,2.1,2.1,0,0,0,1.3.4,2.3,2.3,0,0,0,1.8-.7,2.5,2.5,0,0,0,.6-1.8v-.7h-.1a2.7,2.7,0,0,1-1,.9,3,3,0,0,1-1.5.4,3.2,3.2,0,0,1-2.4-1.1,4.2,4.2,0,0,1,0-5.5,3.2,3.2,0,0,1,2.4-1.1,3,3,0,0,1,1.5.4,2.7,2.7,0,0,1,1,.9h.1v-1h1.3v6.8a3.6,3.6,0,0,1-1.1,2.8,3.7,3.7,0,0,1-2.6,1Zm.1-4.4a2.2,2.2,0,0,0,1.6-.7,3,3,0,0,0,0-3.8,2.2,2.2,0,0,0-3.1-.1h-.1a3,3,0,0,0,0,3.8,2.2,2.2,0,0,0,1.6.7Zm8.5-9.6,1.1.2-.5,1.2h-.6a1.061,1.061,0,0,0-1.2,1.2v.9h1.9v1.2h-1.9v6h-1.4v-6h-1.3V102H718v-1a2.3,2.3,0,0,1,.7-1.8,2.6,2.6,0,0,1,1.9-.7Zm3.5,10.6h-1.3V98.6H724Zm2.1-6.3a3.8,3.8,0,0,1,5.3,0,4.1,4.1,0,0,1,0,5.5,3.8,3.8,0,0,1-5.3,0,4.1,4.1,0,0,1,0-5.5Zm1,4.6a2.3,2.3,0,0,0,3.2.1h.1a2.9,2.9,0,0,0,0-3.8,2.3,2.3,0,0,0-3.2-.1H727a2.9,2.9,0,0,0,0,3.8Zm14.2,1.7h-1.4l-1.8-5.5-1.8,5.5h-1.4l-2.3-7.2H734l1.6,5.4h0l1.8-5.4h1.4l1.8,5.4h0l1.6-5.4h1.4Z"/>
      </g>
    </g>
    <g id="Group_43" data-name="Group 43" transform="translate(593 298)">
      <g class="cls-30" transform="matrix(1, 0, 0, 1, 302.5, -28.5)">
        <rect id="Rectangle_25-2" data-name="Rectangle 25" class="cls-3" width="133" height="132" rx="10" transform="translate(280.5 183.5)"/>
      </g>
      <g id="logo_wordmark_white" data-name="logo wordmark white">
        <g id="white_wordmark" data-name="white wordmark">
          <path id="Combined-Shape" class="cls-13" d="M644.6,187.6v30.2a1.4,1.4,0,0,0,2.5.8l2.3-3a.3.3,0,0,1,.5-.1h.1l2.3,3a1.4,1.4,0,0,0,2.5-.8v-30a19.9,19.9,0,1,1-10.2,0Z"/>
          <path id="heart" class="cls-13" d="M650,211a.5.5,0,0,1-.6,0h0a28.513,28.513,0,0,1-2.3-2.6,1.9,1.9,0,0,1,.2-2.7,1.4,1.4,0,0,1,1.6-.1,1.6,1.6,0,0,1,.6.7h.3a1.6,1.6,0,0,1,.7-.7,1.4,1.4,0,0,1,1.4,0,2,2,0,0,1,.5,2.7v.2l-2.2,2.6"/>
          <path id="HelpDocs" d="M610.7,247.3a1.7,1.7,0,0,1-1.7-1.7v-5.2h-7.6v5.2a1.7,1.7,0,0,1-3.4,0V232.7a1.7,1.7,0,0,1,3.4,0h0v4.7H609v-4.7a1.7,1.7,0,0,1,3.4,0v12.9a1.7,1.7,0,0,1-1.7,1.7Zm4.1-6a5.9,5.9,0,0,1,5.7-6.1h.3a5.6,5.6,0,0,1,5.8,5.4v.2c0,1-.6,1.4-1.8,1.4H618a3.1,3.1,0,0,0,3.3,2.7,5,5,0,0,0,2.4-.6h.6a1.2,1.2,0,0,1,1.2,1.2,1.3,1.3,0,0,1-.6,1.1,7.7,7.7,0,0,1-3.8,1,5.9,5.9,0,0,1-6.2-5.5,2.3,2.3,0,0,1-.2-.8Zm6-3.6a2.8,2.8,0,0,0-2.9,2.6h5.7a2.7,2.7,0,0,0-2.8-2.6h-.1Zm9.6,9.6a1.5,1.5,0,0,1-1.5-1.5h0V232.5a1.55,1.55,0,0,1,3.1,0v13.3a1.5,1.5,0,0,1-1.5,1.5Zm11.2-12c3,0,5.1,2.2,5.1,6.1s-2.2,6.1-5.1,6.1a4.5,4.5,0,0,1-3.6-1.8v7.7c-1.4,0-1.1-1.6-1.5-1.6s-.3,1.6-1.5,1.6,0-1.1,0-1.2V236.9a1.551,1.551,0,0,1,3.1-.1v.1h0a4.5,4.5,0,0,1,3.6-1.7Zm-1,9.5c1.8,0,2.9-1.4,2.9-3.4s-1.2-3.4-2.9-3.4a3.4,3.4,0,0,0-2.6,1.3v4.1a3.5,3.5,0,0,0,2.6,1.3Zm10.3,2.4a1.6,1.6,0,0,1-1.8-1.8V232.9a1.6,1.6,0,0,1,1.4-1.8h4.9c5,0,8.5,3.2,8.5,8s-3.5,8-8.5,8Zm1.6-3h2.9a4.8,4.8,0,0,0,5-4.6q0-.2,0-.4a4.7,4.7,0,0,0-4.3-5h-3.6Zm19.2,3.3a5.9,5.9,0,0,1-6.1-5.6q0-.2,0-.5a6.15,6.15,0,1,1,12.3,0,5.9,5.9,0,0,1-5.7,6.1Zm0-2.7a3.4,3.4,0,0,0,.3-6.7h-.2a3.427,3.427,0,0,0,0,6.8Zm7.7-3.4a5.9,5.9,0,0,1,5.7-6.1h.5a5.7,5.7,0,0,1,3.5,1.1,1.4,1.4,0,0,1-.8,2.5,1.3,1.3,0,0,1-.8-.3,2.9,2.9,0,0,0-1.8-.6,3.4,3.4,0,0,0-.3,6.7h.3a2.8,2.8,0,0,0,1.8-.6l.8-.3a1.4,1.4,0,0,1,.8,2.5,5.7,5.7,0,0,1-3.5,1.1,5.9,5.9,0,0,1-6.1-5.6v-.5Zm12.5,5a1.3,1.3,0,0,1,.6-2.4l.6.2a6.3,6.3,0,0,0,3.1,1c1.3,0,1.9-.5,1.9-1.2s-1-1.1-2.3-1.4-4.6-.9-4.6-3.6,1.7-3.6,4.8-3.6a7.2,7.2,0,0,1,3.8,1,1.1,1.1,0,0,1,.6,1,1.2,1.2,0,0,1-1.2,1.2h-.6a5.1,5.1,0,0,0-2.6-.7c-1.1,0-1.8.4-1.8,1.1s.9,1,2.2,1.2,4.7.9,4.7,3.8-1.8,3.7-5,3.7a8.3,8.3,0,0,1-4.3-1.1Z"/>
        </g>
      </g>
    </g>
    <g id="Group_47" data-name="Group 47" transform="translate(593 298)">
      <g class="cls-29" transform="matrix(1, 0, 0, 1, 302.5, -28.5)">
        <rect id="Rectangle_27-2" data-name="Rectangle 27" class="cls-3" width="100" height="100" rx="10" transform="translate(162.5 298.5)"/>
      </g>
      <g id="Group_46" data-name="Group 46">
        <path id="path18" class="cls-14" d="M512.9,293.2a13,13,0,0,1,6.2,0,14.8,14.8,0,0,1,11,10.6,16.4,16.4,0,0,1,.4,5.4,9,9,0,0,1,6.2,1.4,8.7,8.7,0,0,1,3.9,7.7c-.1,4.4-4.4,8.3-8.8,8.2H504.6a14,14,0,0,1-5-.5,11.8,11.8,0,0,1-7.3-7c-.9-2.1-.7-4.4-.5-6.5a11.8,11.8,0,0,1,10.3-9.6A14.7,14.7,0,0,1,512.9,293.2Zm-6.5,10.5c2.9.5,5.4,2.3,8.2,3.5-.5.8-1.2,3-1.6,3.8-1.5-.8-3.1-1.5-4.6-2.4a8.281,8.281,0,0,0-5.8-1.1c-3.6.8-6.7,3.8-6.3,7.5s4.5,6.8,8.5,6.8h25.5c2.1.1,4.8,0,5.9-1.9a4.58,4.58,0,0,0-1-6,4.8,4.8,0,0,0-5.5-.5,9.8,9.8,0,0,1-2.3,3.4c-.7-.6-2.7-1.9-3.4-2.4a9.9,9.9,0,0,0,2.4-5.4,10.5,10.5,0,0,0-6.6-11c-5.1-2-11.6.7-13.4,5.7Z"/>
        <g id="Group_45" data-name="Group 45">
          <path id="path20" class="cls-14" d="M519.8,338a5.2,5.2,0,0,1,4.3-1.9,4.3,4.3,0,0,1,3.9,1.7,4.7,4.7,0,0,1,.8,1.9c-1,.3-2,.8-2.9,1.1a3.2,3.2,0,0,0-1.1-1.6,1.7,1.7,0,0,0-2.1.5,4.4,4.4,0,0,0-.6,2.7,4.2,4.2,0,0,0,.8,2.4,1.7,1.7,0,0,0,2.4.2,4.4,4.4,0,0,0,.9-1.3l2.8,1.5a5.1,5.1,0,0,1-3.4,2.9,5.9,5.9,0,0,1-4.8-.8,6,6,0,0,1-2.2-4.2A7.5,7.5,0,0,1,519.8,338Z"/>
          <g id="_121313ff" data-name="#121313ff">
            <path id="path27" class="cls-15" d="M498.9,335.6c1-.3,2.4.2,2.4,1.4s-2.8,2.1-3.5.6a1.5,1.5,0,0,1,1.1-2Z"/>
            <path id="path29" class="cls-15" d="M502.3,336.9l3.1-1.2v12.4h-3.1Z"/>
            <path id="path31" class="cls-15" d="M481.2,336.2h3.4l4.3,11.9h-3.6l-.6-2h-3.5c-.2.7-.5,1.4-.6,2H477c1.4-4,2.8-7.9,4.3-11.9Zm1.7,3.7c-.3,1.1-.6,2.3-.9,3.4h1.9Z"/>
            <path id="path33" class="cls-15" d="M489.8,339.9a2.9,2.9,0,0,1,4.1-.2v-.6H497v7.6a4.5,4.5,0,0,1-1.1,3.2,6.2,6.2,0,0,1-3.5,1.3l-1.1-1.8a6,6,0,0,0,2.4-.8,1.6,1.6,0,0,0,.3-1.3,3.1,3.1,0,0,1-3.6.3,4.5,4.5,0,0,1-1.4-3.5,6.3,6.3,0,0,1,.9-4.3Zm2.6,1.7a2.052,2.052,0,0,0-.5,1.7,3.6,3.6,0,0,0,.5,2.2,1.4,1.4,0,0,0,1.5-.2c0-1.1,0-2.3,0-3.4a1.4,1.4,0,0,0-1.5-.3Z"/>
            <path id="path35" class="cls-15" d="M506.8,340.7a4.019,4.019,0,0,1,6.6-.1,6.7,6.7,0,0,1,.8,3.9H509a1.7,1.7,0,0,0,.9,1.3,4.1,4.1,0,0,0,2.9-.6l1.2,2a6.6,6.6,0,0,1-4.8.9,3.8,3.8,0,0,1-2.8-2.8,5.8,5.8,0,0,1,.5-4.6Zm2.1,1.8h2.5c-.1-.8-.6-1.5-1.5-1.3S509.1,342,508.9,342.5Z"/>
            <path id="path37" class="cls-15" d="M498,339.2h3.1v8.9H498Z"/>
          </g>
          <path id="path22" class="cls-14" d="M541.1,336.3h3.1c1,2.2,2,4.3,2.9,6.6.9-2.2,1.9-4.4,2.9-6.6h3.1v11.9H550v-5.8c-.8,2.1-1.9,4.2-2.9,6.3-1-2-2-4.1-2.9-6.2.1,1.9,0,3.8.1,5.7h-3.2C541,344.1,541.1,340.2,541.1,336.3Z"/>
          <path id="path24" class="cls-14" d="M529.8,336.3h5.7a4.6,4.6,0,0,1,3.4,1.3,4.3,4.3,0,0,1,.7,3.6,3.3,3.3,0,0,1-2,2.4l2.4,4.5h-3.7l-1.9-3.9h-1.3v3.9h-3.3V336.3Zm3.3,2.7v2.5a8.6,8.6,0,0,0,2.6-.1,1.3,1.3,0,0,0-.1-2.4,18.3,18.3,0,0,0-2.5-.1Z"/>
        </g>
      </g>
    </g>
    <g id="Group_52" data-name="Group 52" transform="translate(593 298)">
      <g class="cls-28" transform="matrix(1, 0, 0, 1, 302.5, -28.5)">
        <rect id="Rectangle_28-2" data-name="Rectangle 28" class="cls-3" width="103" height="103" rx="10" transform="translate(280.5 333.5)"/>
      </g>
      <g id="Group_51" data-name="Group 51">
        <g id="Group_48" data-name="Group 48">
          <path id="Path_63" data-name="Path 63" class="cls-16" d="M656.5,364.7H614.9a3,3,0,0,1-3-3v-30a3,3,0,0,1,3-3h41.6a3,3,0,0,1,3,3v30A3,3,0,0,1,656.5,364.7Z"/>
          <path id="Path_64" data-name="Path 64" class="cls-17" d="M617.9,364.7l17.8-14.3v-.8l-18.3-13.2V364Z"/>
          <path id="Path_65" data-name="Path 65" class="cls-18" d="M614.9,364.7a3,3,0,0,1-3-3V331.6c0-1.7,1.3-2,3-2s3,.3,3,2v33.1Z"/>
          <path id="Path_66" data-name="Path 66" class="cls-19" d="M614.9,330.1c2.1,0,2.5.6,2.5,1.5v32.6h-2.5a2.6,2.6,0,0,1-2.5-2.5V331.6C612.4,330.7,612.8,330.1,614.9,330.1Zm0-.4c-1.7,0-3,.3-3,2v30.1a3,3,0,0,0,3,3h3V331.6c0-1.7-1.3-2-3-2Z"/>
          <path id="Path_67" data-name="Path 67" class="cls-18" d="M656.5,364.7h-3V331.6c0-1.7,1.3-1.9,3-1.9s3,.2,3,1.9v30.2a2.9,2.9,0,0,1-3,2.9Z"/>
          <path id="Path_68" data-name="Path 68" class="cls-19" d="M656.5,330.1c1.9,0,2.5.4,2.5,1.4v30.2a2.6,2.6,0,0,1-2.5,2.5H654V331.6c0-1.1.6-1.4,2.5-1.4Zm0-.4c-1.7,0-3,.2-3,1.9v33.2h3a3,3,0,0,0,3-3V331.6C659.5,329.9,658.2,329.7,656.5,329.7Z"/>
          <path id="Path_69" data-name="Path 69" class="cls-20" d="M643.8,364.7l-31.6-31.8,1.7.7,22,15.8L659.5,332v29.7a2.9,2.9,0,0,1-3,2.9Z"/>
          <path id="Path_70" data-name="Path 70" class="cls-18" d="M635.7,350.4l-22.4-16.3a3,3,0,0,1-.7-4.2,3.1,3.1,0,0,1,4.2-.6l19,13.8,19.1-14a3,3,0,1,1,3.5,4.8l-22.6,16.4Z"/>
          <path id="Path_71" data-name="Path 71" class="cls-19" d="M656.5,329h0a2.6,2.6,0,0,1,1.5,4.6l-22.4,16.3-22.2-16.1a2.6,2.6,0,0,1-.6-3.6,2.7,2.7,0,0,1,2.1-1.1,2.5,2.5,0,0,1,1.5.5l18.9,13.7.3.2.3-.2,19.1-14a2.8,2.8,0,0,1,1.5-.5Zm0-.4a2.9,2.9,0,0,0-1.7.6l-19.1,14-19-13.8a3,3,0,0,0-1.8-.6,2.9,2.9,0,0,0-1.7,5.4l22.4,16.3L658.3,334a3,3,0,0,0,.7-4.2,2.9,2.9,0,0,0-2.4-1.3Z"/>
        </g>
        <g id="Group_50" data-name="Group 50">
          <g id="Group_49" data-name="Group 49">
            <path id="Path_72" data-name="Path 72" class="cls-21" d="M629.8,375.7v1.1a3.8,3.8,0,0,1,3.1-1.3,2.9,2.9,0,0,1,2.9,1.6,3.8,3.8,0,0,1,3.3-1.6,3.3,3.3,0,0,1,2.6,1,4.3,4.3,0,0,1,.9,2.9v7h-2.4v-6.9a2.1,2.1,0,0,0-.4-1.5,1.9,1.9,0,0,0-1.5-.5,2,2,0,0,0-1.3.4,2.3,2.3,0,0,0-.7,1.1v7.3h-2.4v-7a1.7,1.7,0,0,0-1.9-1.9,2.1,2.1,0,0,0-2,1.2v7.7h-2.4V375.7Z"/>
            <path id="Path_73" data-name="Path 73" class="cls-21" d="M651.3,386.3a3.6,3.6,0,0,1-.3-1,4.018,4.018,0,0,1-5.4.3,2.9,2.9,0,0,1-1-2.3,3,3,0,0,1,1.3-2.6,6.1,6.1,0,0,1,3.6-.9H651v-.7a1.9,1.9,0,0,0-.5-1.3,1.8,1.8,0,0,0-1.4-.5,2.1,2.1,0,0,0-1.3.4,1.3,1.3,0,0,0-.5,1h-2.4a2.6,2.6,0,0,1,.6-1.6A3.9,3.9,0,0,1,647,376a5.5,5.5,0,0,1,2.2-.4,4.4,4.4,0,0,1,3,.9,3.3,3.3,0,0,1,1.1,2.6v4.8a5.4,5.4,0,0,0,.4,2.3v.2Zm-2.6-1.7a2.7,2.7,0,0,0,1.3-.3,2.3,2.3,0,0,0,.9-.9v-2h-1.3a3.5,3.5,0,0,0-2,.5,1.5,1.5,0,0,0-.7,1.3,1.4,1.4,0,0,0,.5,1.1,1.8,1.8,0,0,0,1.3.3Z"/>
            <path id="Path_74" data-name="Path 74" class="cls-21" d="M655.9,373a1.351,1.351,0,0,1,2.7,0,1.2,1.2,0,0,1-.4.9,1.3,1.3,0,0,1-2.3-.9Zm2.5,13.4H656V375.7h2.4Z"/>
            <path id="Path_75" data-name="Path 75" class="cls-21" d="M663.5,386.3h-2.4v-15h2.4Z"/>
          </g>
          <path id="Path_76" data-name="Path 76" class="cls-21" d="M617.8,386.6a8,8,0,1,1,0-15.9,7.6,7.6,0,0,1,5.5,2.2l-1.5,1.5a5.5,5.5,0,0,0-3.9-1.6,5.8,5.8,0,0,0,0,11.6,5.3,5.3,0,0,0,4-1.6,4.5,4.5,0,0,0,1.2-2.7h-5.2v-2.2h7.3a7.1,7.1,0,0,1,.1,1.4,7.2,7.2,0,0,1-1.9,5.1,7.3,7.3,0,0,1-5.6,2.2Z"/>
        </g>
      </g>
    </g>
    <g id="Group_40" data-name="Group 40" transform="translate(593 298)">
      <g class="cls-27" transform="matrix(1, 0, 0, 1, 302.5, -28.5)">
        <rect id="Rectangle_23-2" data-name="Rectangle 23" class="cls-3" width="113" height="113" rx="10" transform="translate(28.5 184.5)"/>
      </g>
      <g id="Group_24" data-name="Group 24">
        <g id="Logo">
          <g id="Shapes">
            <path id="Rectangle-29" class="cls-22" d="M388.2,185.6v17h17V190.9a5.3,5.3,0,0,0-5.3-5.3H388.2Z"/>
            <path id="Rectangle-27" class="cls-23" d="M371.2,202.6v11.7a5.3,5.3,0,0,0,5.3,5.3h11.7v-17Z"/>
            <path id="Rectangle-28" class="cls-24" d="M388.2,202.6v17h11.7a5.3,5.3,0,0,0,5.3-5.3h0V202.6Z"/>
            <path id="Path-2" class="cls-23" d="M376.5,185.6a5.3,5.3,0,0,0-5.3,5.3h0v11.7h17v-17Z"/>
          </g>
        </g>
        <path id="Clearbi_t" data-name="Clearbi t" class="cls-23" d="M366,236.4a4.4,4.4,0,0,1-3.7,1.9,5.3,5.3,0,0,1-5.3-5.2v-.3a5.3,5.3,0,0,1,5-5.6h.3a4.2,4.2,0,0,1,3.4,1.7l1.1-.8a5.6,5.6,0,0,0-4.5-2,6.5,6.5,0,0,0-6.6,6.3v.4a6.5,6.5,0,0,0,6.2,6.7h.4a5.6,5.6,0,0,0,4.8-2.4Zm4.4-10.9h-1.2v13.6h1.2Zm3.9,8.7a3,3,0,0,1,3-2.8A2.7,2.7,0,0,1,380,234v.2Zm7,.4a3.9,3.9,0,0,0-3.5-4.2h-.5a4.3,4.3,0,0,0-4.3,4.3v.2a4.3,4.3,0,0,0,4.1,4.4h.2a4.4,4.4,0,0,0,3.6-1.8l-.9-.7a3.2,3.2,0,0,1-2.7,1.5,3.1,3.1,0,0,1-3.1-3.1h7v-.6Zm7.8-.7c-3.1,0-5.9.2-5.9,2.8a2.6,2.6,0,0,0,2.7,2.6h.2a3.4,3.4,0,0,0,3.1-1.6h0a8.4,8.4,0,0,0,.1,1.4h1.1a11.5,11.5,0,0,1-.1-1.9v-3.7a3,3,0,0,0-2.8-3.1h-.4a4.7,4.7,0,0,0-3.3,1.2l.7.8a3.6,3.6,0,0,1,2.5-1,2,2,0,0,1,2.3,2.2Zm0,1v.6a2.6,2.6,0,0,1-2.5,2.8h-.2c-1,0-2-.4-2-1.6s2.3-1.8,4.3-1.8Zm4.3-2.4v6.6h1.2v-4.3c0-2.2,1.2-3.2,2.5-3.2h.9l.2-1.2h-.8a3,3,0,0,0-2.7,1.7h0a6.6,6.6,0,0,0-.1-1.4h-1.2a12.137,12.137,0,0,0-.1,1.8Zm7.7,5.1a3.9,3.9,0,0,0,3.2,1.6,4.2,4.2,0,0,0,4.4-4.1v-.3a4.2,4.2,0,0,0-4-4.4h-.3a3.8,3.8,0,0,0-3.2,1.7h0v-6.6H400v13.6h1v-1.4Zm6.2-2.8a3.1,3.1,0,0,1-2.9,3.4h-.3a3.2,3.2,0,0,1-3.2-3.2v-.2a3.2,3.2,0,0,1,3.1-3.4h.2a3.1,3.1,0,0,1,3.2,3.4Zm5.1-4.2h-1.2V239h1.2Zm.3-3.2a.9.9,0,1,0-.9.9.9.9,0,0,0,.9-.9Zm6.8,3.2H417v-2.4h-1.2v2.4h-1.7v1h1.7V237a2,2,0,0,0,1.7,2.2h.4l1.4-.3v-1.1l-1.1.3c-.7,0-1.3-.3-1.3-1.5v-4.9h2.4Z"/>
      </g>
    </g>
    <g id="Group_44" data-name="Group 44" transform="translate(593 298)">
      <g class="cls-26" transform="matrix(1, 0, 0, 1, 302.5, -28.5)">
        <rect id="Rectangle_26-2" data-name="Rectangle 26" class="cls-3" width="95" height="95" rx="10" transform="translate(95.5 72.5)"/>
      </g>
      <g id="Logotype">
        <g id="Wordmark">
          <path id="Path_43" data-name="Path 43" class="cls-25" d="M441.9,105h-3.1v.3c1,0,1.1.2,1.1,1.4v2.2c0,1.2-.2,1.4-1.1,1.4a3.1,3.1,0,0,1-1.9-1.3l-.8-.9a1.7,1.7,0,0,0,1.6-1.6c0-.9-.8-1.7-2.3-1.7h-3v.3c1,0,1.1.2,1.1,1.4v2.2c0,1.2-.2,1.4-1.1,1.4v.3h3.4v-.3c-1,0-1.1-.2-1.1-1.4v-.6h.3l1.9,2.4h5c2.5,0,3.5-1.3,3.5-2.9S444.3,105,441.9,105Zm-7.2,2.8v-2.3h.7a1.15,1.15,0,0,1,0,2.3Zm7.3,2.4h-.1c-.6,0-.7-.2-.7-.9v-3.7h.8c1.8,0,2.1,1.3,2.1,2.3s-.3,2.4-2.1,2.4Z"/>
          <path id="Path_44" data-name="Path 44" class="cls-25" d="M422.7,108.4l1.2-3.5c.3-1,.2-1.3-.9-1.3v-.3h3.2v.3c-1.1,0-1.3.3-1.8,1.5l-2,5.9h-.2l-1.8-5.4-1.8,5.4h-.2l-1.9-5.9c-.4-1.3-.7-1.5-1.7-1.5v-.3h3.8v.3c-1,0-1.3.2-.9,1.3l1.2,3.5,1.7-5.2h.3Z"/>
          <path id="Path_45" data-name="Path 45" class="cls-25" d="M428.6,110.9a3.1,3.1,0,1,1,3.4-3.1,3.3,3.3,0,0,1-3.4,3.1Zm0-5.7a2.3,2.3,0,0,0-2.1,2.6c0,1.1.6,2.6,2.1,2.6a2.374,2.374,0,0,0,2.2-2.6,2.3,2.3,0,0,0-2.2-2.6Z"/>
          <path id="Path_46" data-name="Path 46" class="cls-25" d="M449.6,110.4v.3h-4v-.3c1.2,0,1.4-.3,1.4-2v-2.8c0-1.7-.2-2-1.4-2v-.3h3.6c1.8,0,2.8.9,2.8,2.1s-1,2.1-2.8,2.1h-1v.8C448.3,110.1,448.5,110.4,449.6,110.4Zm-.4-6.5h-1v3h1a1.3,1.3,0,0,0,1.4-1.5,1.4,1.4,0,0,0-1.2-1.5h-.2Z"/>
          <path id="Path_47" data-name="Path 47" class="cls-25" d="M463.9,109.1v.3c-.2.6-.3.8-1.6.8H462c-.9,0-1.1-.2-1.1-1.4V108c1.3,0,1.4.1,1.4,1h.3v-2.6h-.3c0,.9-.1,1-1.4,1v-1.9h.9c1.2,0,1.4.2,1.6.8v.3h.3V105h-5.1v.3c1,0,1.1.2,1.1,1.4v2.2c0,1.1-.1,1.4-.9,1.4a3.2,3.2,0,0,1-1.9-1.3l-.8-.9a1.7,1.7,0,0,0,1.6-1.6c0-.9-.8-1.7-2.3-1.7h-3v.3c1,0,1.1.2,1.1,1.4v2.2c0,1.2-.2,1.4-1.1,1.4v.3h3.4v-.3c-1,0-1.1-.2-1.1-1.4v-.6h.3l1.9,2.4H464v-1.6h-.3Zm-9.1-1.3v-2.3h.7a1.15,1.15,0,0,1,0,2.3Z"/>
          <path id="Path_48" data-name="Path 48" class="cls-25" d="M467.4,110.9a2.5,2.5,0,0,1-1.6-.6,1.2,1.2,0,0,0-.3.6h-.3v-2.4h.3a1.9,1.9,0,0,0,1.9,1.8.9.9,0,0,0,1-.8h0c0-.4-.4-.8-1.1-1.1l-1-.5a1.9,1.9,0,0,1-1.2-1.7,1.7,1.7,0,0,1,1.8-1.5h0a2.2,2.2,0,0,1,1.3.4,1,1,0,0,0,.2-.5h.3v2h-.4a1.538,1.538,0,0,0-1.5-1.5c-.9,0-.9.3-.9.7s.4.7,1.2,1.1l.9.5a1.8,1.8,0,0,1,1.2,1.6,2,2,0,0,1-2.1,1.8Z"/>
          <path id="Path_49" data-name="Path 49" class="cls-25" d="M472.6,110.9a2.5,2.5,0,0,1-1.6-.6,1.2,1.2,0,0,0-.3.6h-.3v-2.4h.3a1.9,1.9,0,0,0,1.9,1.8.9.9,0,0,0,1-.8h0c0-.4-.4-.8-1.1-1.1l-1-.5a1.9,1.9,0,0,1-1.2-1.7,1.7,1.7,0,0,1,1.8-1.5h0a2.2,2.2,0,0,1,1.3.4.9.9,0,0,0,.2-.5h.3v2h-.4a1.538,1.538,0,0,0-1.5-1.5c-.9,0-.9.3-.9.7s.4.7,1.2,1.1l.9.5a1.8,1.8,0,0,1,1.2,1.6,2,2,0,0,1-2.1,1.8Z"/>
        </g>
        <g id="W_Mark" data-name="W Mark">
          <path id="Path_50" data-name="Path 50" class="cls-25" d="M444.8,71.2a14.1,14.1,0,0,1,5.5,1.1l2.4,1.3A14.174,14.174,0,0,1,457.9,91a14.5,14.5,0,0,1-1.3,2.4,14.119,14.119,0,0,1-17.3,5.2l-2.4-1.3A14.12,14.12,0,0,1,431.7,80a14.5,14.5,0,0,1,1.3-2.4,14.1,14.1,0,0,1,1.7-2.1,14.3,14.3,0,0,1,4.5-3.1,14.1,14.1,0,0,1,5.5-1.1m0-.9a15.1,15.1,0,1,0,15.1,15.1,15.1,15.1,0,0,0-15.1-15.1Z"/>
          <path id="Path_51" data-name="Path 51" class="cls-25" d="M432.2,85.5a12.6,12.6,0,0,0,7.1,11.4l-6-16.5a12.5,12.5,0,0,0-1.1,5.1Zm21.1-.6a6.6,6.6,0,0,0-1-3.5,5.9,5.9,0,0,1-1.2-3,2.2,2.2,0,0,1,2.1-2.2h.2a12.6,12.6,0,0,0-17.8.8l-1.2,1.6h.8l3.4-.2a.5.5,0,0,1,.1,1H437l4.6,13.7,2.8-8.3-2-5.4h-1.3a.5.5,0,1,1,.1-1l3.3.2,3.4-.2a.5.5,0,1,1,.1,1h-1.4L451.2,93l1.3-4.1a14.6,14.6,0,0,0,.9-4.2ZM445,86.6l-3.8,11a12.6,12.6,0,0,0,7.8-.2v-.2Zm10.9-7.2a10.194,10.194,0,0,1,.1,1.3,11.9,11.9,0,0,1-1,4.5l-3.8,11.1a12.6,12.6,0,0,0,4.7-17Z"/>
        </g>
      </g>
    </g>
  </g>
</svg>
