<svg xmlns="http://www.w3.org/2000/svg" xmlns:xlink="http://www.w3.org/1999/xlink" viewBox="0 0 114 31"><defs><style>.a{clip-path:url(#b);}.b{fill:#0f95c9;}.c,.d{fill:#676767;}.c{fill-rule:evenodd;}</style><clipPath id="b"><rect width="114" height="31"/></clipPath></defs><g id="a" class="a"><g transform="translate(-0.259 -0.628)"><g transform="translate(1.259 1.628)"><path class="b" d="M116.977,5.976l4.8,3.7-.016,5.064,3.9-2.566,3.748,2.646,8.417-13.191ZM124.03,10.9l-1.367,2.3.006-3.871,12.517-6.027Z" transform="translate(-29.509 -1.628)"/><path class="b" d="M1.259,25.807H3.412V36.623H1.259Z" transform="translate(-1.259 -7.531)"/><path class="b" d="M6.977,36.626V25.819H7.7l6.771,6.769V25.819h2.16V36.626h-.791l-6.7-6.7v6.7Z" transform="translate(-2.655 -7.534)"/><path class="b" d="M31.356,25.819v2.017h-3.6v8.789H25.592V27.836h-3.6V25.819Z" transform="translate(-6.32 -7.534)"/><path class="b" d="M36.467,36.626v-10.8l7.943,0v2.017H38.63v2.3h4.333v2.011H38.63v2.456h5.764v2.019Z" transform="translate(-9.854 -7.534)"/><path class="b" d="M56.361,31.911l2.692,4.714H56.577l-2.59-4.468H52.014v4.468h-2.16V25.819h4.711q3.783,0,3.782,3.11A2.794,2.794,0,0,1,56.361,31.911ZM52.014,30.14h3.029c.868-.016,1.317-.411,1.338-1.188-.02-.712-.462-1.08-1.318-1.111H52.014v2.3Z" transform="translate(-13.123 -7.534)"/><path class="b" d="M63.515,36.626V25.819h.717l6.776,6.769V25.819h2.16V36.626h-.794l-6.7-6.7v6.7Z" transform="translate(-16.458 -7.534)"/><g transform="translate(58.282 9.275)"><path class="c" d="M101.63,22.723c5.173-.75,10.053-2.539,15.091-4.212C115.161,19.763,103.511,23.034,101.63,22.723Z" transform="translate(-84.045 -15.024)"/><path class="c" d="M127.2,15.169l-3.9,2.566,2.272-3.837Z" transform="translate(-89.335 -13.898)"/><path class="d" d="M84.885,26.178a5.047,5.047,0,0,1,1.547,1.079L84.994,28.7a2.479,2.479,0,0,0-2.021-.864c-.863,0-1.416.2-1.655.611a.842.842,0,0,0,0,1.045,2.817,2.817,0,0,0,1.655.649,5.344,5.344,0,0,1,2.486.9,2.7,2.7,0,0,1,1.117,2.412,2.774,2.774,0,0,1-1.19,2.233,4.383,4.383,0,0,1-2.779.937,6.384,6.384,0,0,1-2.513-.433,5.4,5.4,0,0,1-1.729-1.153L79.8,33.6a3.413,3.413,0,0,0,2.449,1.01c.962,0,1.559-.2,1.8-.611a1.141,1.141,0,0,0,0-1.226c-.24-.407-.835-.661-1.8-.757a5.806,5.806,0,0,1-2.376-.792,2.388,2.388,0,0,1-1.08-2.233,2.689,2.689,0,0,1,1.227-2.3,4.335,4.335,0,0,1,2.527-.866A6.05,6.05,0,0,1,84.885,26.178Z" transform="translate(-78.365 -16.808)"/><path class="d" d="M91.784,36.623V25.816h2.163v4.321h5.036v-4.33h2.166V36.613l-2.166.01V32.155H93.947v4.468H91.784Z" transform="translate(-81.641 -16.805)"/><path class="d" d="M106.5,36.626l4.32-10.807h2.163l4.316,10.8-2.3.01-.649-1.656h-4.9l-.649,1.656Zm5.46-7.926-1.644,4.108h3.242Z" transform="translate(-85.235 -16.808)"/><path class="d" d="M125.117,25.819v8.788h5.764v2.019h-7.926V25.819Z" transform="translate(-89.251 -16.808)"/><path class="d" d="M135.04,36.626l4.326-10.807h2.16l4.315,10.8-2.3.01L142.9,34.97H138l-.648,1.656ZM140.5,28.7l-1.643,4.108H142.1Z" transform="translate(-92.201 -16.808)"/></g></g></g></g></svg>