<?xml version="1.0" encoding="utf-8"?>
<!-- Generator: Adobe Illustrator 21.1.0, SVG Export Plug-In . SVG Version: 6.00 Build 0)  -->
<svg version="1.1" id="Layer_1" xmlns="http://www.w3.org/2000/svg" xmlns:xlink="http://www.w3.org/1999/xlink" x="0px" y="0px"
	 viewBox="0 0 2744.9 376.3" style="enable-background:new 0 0 2744.9 376.3;" xml:space="preserve">
<style type="text/css">
	.st0{fill:none;stroke:#000000;stroke-width:0.6481;stroke-miterlimit:10;}
	.st1{fill:#007FFF;}
	.st2{fill:#FFFFFF;}
	.st3{display:none;}
	.st4{font-family:'Comfortaa-Bold';}
	.st5{font-size:335px;}
</style>
<g>
	<line class="st0" x1="193.5" y1="162.5" x2="193.5" y2="156.6"/>
	<g>
		<path class="st1" d="M193.9,334.8H54.4c-1.9,0-3.5-1.6-3.5-3.5V191.8c0-79,64-143,143-143h0c79,0,143,64,143,143v0
			C336.8,270.7,272.8,334.8,193.9,334.8z"/>
		<circle class="st2" cx="113.7" cy="191.8" r="20.2"/>
		<circle class="st2" cx="193.2" cy="191.8" r="20.2"/>
		<circle class="st2" cx="272.7" cy="191.8" r="20.2"/>
	</g>
	<g>
		<g>
			<path d="M375.2,229.1v0.3c0,79-64,143-143,143h-0.3v-10.1h0.3c73.4,0,132.9-59.5,132.9-132.9v-0.3H375.2z"/>
			<path d="M231.9,376.3h-17.4c-4.6,0-8.4-3.8-8.4-8.4v-2.1c0-4.6,3.8-8.4,8.4-8.4h17.4c4.6,0,8.4,3.8,8.4,8.4v2.1
				C240.3,372.5,236.5,376.3,231.9,376.3z"/>
		</g>
		<path d="M12.6,230.1h20.2c1.9,0,3.5-1.6,3.5-3.5v-69.7c0-1.9-1.6-3.5-3.5-3.5H12.6C5.6,153.4,0,159.1,0,166v51.6
			C0,224.5,5.6,230.1,12.6,230.1z"/>
		<path d="M375.2,230.1H355c-1.9,0-3.5-1.6-3.5-3.5v-69.7c0-1.9,1.6-3.5,3.5-3.5h20.2c6.9,0,12.6,5.6,12.6,12.6v51.6
			C387.8,224.5,382.1,230.1,375.2,230.1z"/>
		<path d="M375.2,181.3h-12.6c0-93.2-75.6-168.8-168.8-168.8S25.1,88.1,25.1,181.3H12.6C12.6,81.2,93.7,0,193.9,0
			S375.2,81.2,375.2,181.3z"/>
	</g>
</g>
<g>
	<path d="M467.2,52.7c0-4.8,1.7-8.9,5.1-12.3c3.4-3.4,7.5-5.1,12.3-5.1c4.8,0,8.9,1.7,12.3,5.1c3.4,3.4,5.1,7.5,5.1,12.3v96.8
		L610.6,40.7c3.6-3.6,7.8-5.4,12.6-5.4c2.4,0,4.7,0.4,6.8,1.3c2.1,0.9,4,2.1,5.6,3.7c1.6,1.6,2.8,3.4,3.7,5.6
		c0.9,2.1,1.3,4.4,1.3,6.8c0,4.8-1.7,8.9-5.1,12.3l-85.7,85.9l87.5,118.6c2.2,3.1,3.3,6.3,3.3,9.8c0,2.3-0.4,4.5-1.3,6.7
		c-0.9,2.2-2.1,4.1-3.6,5.7c-1.5,1.6-3.3,2.9-5.4,3.9c-2.1,1-4.3,1.5-6.7,1.5c-6.4,0-11.3-2.5-14.6-7.4l-84.1-114l-23.1,23.1v81
		c0,4.8-1.7,8.9-5.1,12.3c-3.4,3.4-7.5,5.1-12.3,5.1c-4.8,0-8.9-1.7-12.3-5.1c-3.4-3.4-5.1-7.5-5.1-12.3V52.7z"/>
	<path d="M833.9,205.4c0,25.5-8.9,47.1-26.8,64.8C789,288.1,767.4,297,742.3,297c-25.3,0-46.9-8.9-64.8-26.8
		c-17.9-17.9-26.8-39.5-26.8-64.8c0-25.3,8.9-46.9,26.8-64.8c17.9-17.9,39.5-26.8,64.8-26.8c25.1,0,46.7,8.9,64.8,26.8
		c8.9,8.9,15.6,18.8,20,29.6S833.8,192.8,833.9,205.4z M742.3,148c-8.1,0-15.6,1.5-22.6,4.6c-7,3.1-13,7.2-18.2,12.4
		c-5.1,5.2-9.2,11.3-12.2,18.2c-3,7-4.5,14.4-4.5,22.2s1.5,15.3,4.5,22.2c3,7,7.1,13.1,12.2,18.2c5.1,5.2,11.2,9.3,18.2,12.4
		c7,3.1,14.5,4.6,22.6,4.6c8,0,15.4-1.5,22.4-4.6c7-3.1,13.1-7.2,18.2-12.4c5.2-5.2,9.3-11.3,12.3-18.2c3-6.9,4.5-14.3,4.5-22.2
		s-1.5-15.2-4.5-22.2c-3-6.9-7.1-13-12.3-18.2c-5.2-5.2-11.3-9.4-18.2-12.4C757.7,149.5,750.3,148,742.3,148z"/>
	<path d="M1118.7,279.9c0,4.8-1.7,8.9-5,12.2c-3.3,3.3-7.3,5-12,5c-4.8,0-8.8-1.7-12.1-5c-3.3-3.3-4.9-7.4-4.9-12.2v-93.1
		c0-5.2-1-10.2-3-14.9c-2-4.7-4.8-8.8-8.3-12.4c-3.5-3.5-7.6-6.4-12.3-8.4c-4.7-2.1-9.8-3.1-15.3-3.1c-5.3,0-10.4,1-15,3.1
		c-4.7,2.1-8.8,4.9-12.3,8.3c-3.5,3.5-6.3,7.6-8.3,12.3c-2,4.7-3,9.7-3,15v93.1c0,4.8-1.7,8.9-5,12.2c-3.3,3.3-7.3,5-12,5
		c-4.8,0-8.9-1.7-12.2-5c-3.3-3.3-5-7.4-5-12.2v-93.1c0-5.3-1-10.4-3.1-15c-2.1-4.7-4.9-8.8-8.3-12.3c-3.5-3.5-7.6-6.3-12.3-8.3
		c-4.7-2.1-9.7-3.1-15-3.1c-5.3,0-10.4,1-15,3c-4.7,2-8.8,4.8-12.3,8.3c-3.5,3.5-6.3,7.7-8.3,12.3c-2,4.7-3,9.7-3,15v93.1
		c0,4.8-1.7,8.9-5,12.2c-3.3,3.3-7.3,5-12,5c-4.8,0-8.9-1.7-12.2-5c-3.3-3.3-5-7.4-5-12.2v-149c0-4.7,1.7-8.7,5-12
		c3.3-3.3,7.3-5,12-5c3.8,0,7.2,1.1,10.1,3.2c2.9,2.1,5,4.9,6.1,8.4c11.7-7.7,24.9-11.6,39.7-11.6c10.9,0,21.2,2.2,30.8,6.5
		c9.6,4.3,18,10.8,25.2,19.5c15.2-17.3,33.8-26,55.8-26c9.9,0,19.3,1.9,28.2,5.8c8.9,3.9,16.6,9.1,23.2,15.7
		c6.6,6.6,11.8,14.3,15.7,23.2c3.9,8.9,5.8,18.3,5.8,28.2V279.9z"/>
	<path d="M1406.6,279.9c0,4.8-1.7,8.9-5,12.2c-3.3,3.3-7.3,5-12,5c-4.8,0-8.8-1.7-12.1-5c-3.3-3.3-4.9-7.4-4.9-12.2v-93.1
		c0-5.2-1-10.2-3-14.9c-2-4.7-4.8-8.8-8.3-12.4c-3.5-3.5-7.6-6.4-12.3-8.4c-4.7-2.1-9.8-3.1-15.3-3.1c-5.3,0-10.4,1-15,3.1
		c-4.7,2.1-8.8,4.9-12.3,8.3c-3.5,3.5-6.3,7.6-8.3,12.3c-2,4.7-3,9.7-3,15v93.1c0,4.8-1.7,8.9-5,12.2c-3.3,3.3-7.3,5-12,5
		c-4.8,0-8.9-1.7-12.2-5c-3.3-3.3-5-7.4-5-12.2v-93.1c0-5.3-1-10.4-3.1-15c-2.1-4.7-4.9-8.8-8.3-12.3c-3.5-3.5-7.6-6.3-12.3-8.3
		c-4.7-2.1-9.7-3.1-15-3.1c-5.3,0-10.4,1-15,3c-4.7,2-8.8,4.8-12.3,8.3c-3.5,3.5-6.3,7.7-8.3,12.3c-2,4.7-3,9.7-3,15v93.1
		c0,4.8-1.7,8.9-5,12.2c-3.3,3.3-7.3,5-12,5c-4.8,0-8.9-1.7-12.2-5c-3.3-3.3-5-7.4-5-12.2v-149c0-4.7,1.7-8.7,5-12
		c3.3-3.3,7.3-5,12-5c3.8,0,7.2,1.1,10.1,3.2c2.9,2.1,5,4.9,6.1,8.4c11.7-7.7,24.9-11.6,39.7-11.6c10.9,0,21.2,2.2,30.8,6.5
		c9.6,4.3,18,10.8,25.2,19.5c15.2-17.3,33.8-26,55.8-26c9.9,0,19.3,1.9,28.2,5.8c8.9,3.9,16.6,9.1,23.2,15.7
		c6.6,6.6,11.8,14.3,15.7,23.2c3.9,8.9,5.8,18.3,5.8,28.2V279.9z"/>
	<path d="M1589.3,297c-4.9,0-8.9-1.6-12.1-4.9c-3.2-3.3-4.8-7.3-4.9-11.9c-7.5,5.9-15.5,10.2-23.9,12.8c-8.4,2.7-17.5,4-27.3,4
		c-11.7,0-22.7-2.3-33-6.8c-10.4-4.5-19.4-10.7-27.2-18.4c-7.7-7.7-13.9-16.8-18.4-27.2c-4.5-10.4-6.8-21.4-6.8-33v-80.8
		c0-4.7,1.7-8.7,5-12c3.3-3.3,7.4-5,12.2-5c4.7,0,8.7,1.7,12,5c3.3,3.3,5,7.3,5,12v80.8c0,7.1,1.3,13.7,4,20
		c2.7,6.2,6.3,11.6,11,16.3c4.6,4.6,10.1,8.3,16.3,11c6.2,2.7,12.9,4,20,4c7,0,13.6-1.3,19.8-4c6.2-2.7,11.7-6.4,16.4-11
		c4.7-4.7,8.4-10.1,11-16.3c2.7-6.2,4-12.8,4-19.9v-80.8c0-4.7,1.7-8.7,5-12c3.3-3.3,7.4-5,12.2-5c4.7,0,8.7,1.7,12,5
		c3.3,3.3,5,7.3,5,12V280c0,4.7-1.7,8.7-5,12C1598.2,295.4,1594.1,297,1589.3,297z"/>
	<path d="M1666.2,130.7c14.5-11.2,31.6-16.8,51.2-16.8c11.4,0,22.3,2.2,32.6,6.7c10.3,4.5,19.4,10.6,27.2,18.2
		c7.9,7.7,14.1,16.7,18.6,27.2c4.6,10.4,6.9,21.5,6.9,33.3v80.6c0,4.8-1.7,8.9-5,12.2c-3.3,3.3-7.3,5-12,5c-4.8,0-8.9-1.7-12.2-5
		c-3.3-3.3-5-7.4-5-12.2v-80.6c0-7-1.4-13.6-4.1-19.8c-2.7-6.2-6.4-11.6-11-16.3c-4.6-4.6-10.1-8.3-16.3-11
		c-6.2-2.7-12.8-4.1-19.8-4.1c-7.1,0-13.7,1.3-19.9,4c-6.2,2.7-11.6,6.4-16.3,11c-4.7,4.7-8.4,10.1-11,16.4c-2.7,6.2-4,12.8-4,19.8
		v80.6c0,4.8-1.7,8.9-5,12.2c-3.3,3.3-7.3,5-12,5c-4.8,0-8.9-1.7-12.2-5c-3.3-3.3-5-7.4-5-12.2V131c0-4.7,1.7-8.7,5-12.1
		c3.3-3.4,7.4-5.1,12.2-5.1c4.7,0,8.7,1.7,12,5.1C1664.5,122.3,1666.2,126.2,1666.2,130.7z"/>
	<path d="M1874.7,81.3c0,5.6-2,10.3-5.9,14.2s-8.7,5.9-14.2,5.9s-10.3-2-14.2-5.9s-5.9-8.7-5.9-14.2s2-10.3,5.9-14.2
		s8.7-5.9,14.2-5.9s10.3,2,14.2,5.9S1874.7,75.7,1874.7,81.3z M1837.6,279.9V131c0-4.8,1.7-8.9,5-12.2c3.3-3.3,7.3-5,12-5
		c4.7,0,8.7,1.7,12,5c3.3,3.3,5,7.4,5.2,12.2v148.9c-0.1,4.8-1.8,8.9-5.2,12.2c-3.3,3.3-7.3,5-12,5c-4.7,0-8.7-1.7-12-5
		C1839.3,288.7,1837.6,284.7,1837.6,279.9z"/>
	<path d="M2046.3,245.2c4.9,0,9,1.6,12.2,4.8c3.2,3.2,4.8,7.3,4.8,12.2c0,4.8-1.8,9-5.4,12.6c-16.9,14.8-36.8,22.2-59.7,22.2
		c-25.3,0-46.9-8.9-64.8-26.8c-17.9-17.9-26.8-39.5-26.8-64.8c0-25.3,8.9-46.9,26.8-64.8c17.9-17.9,39.5-26.8,64.8-26.8
		c23,0,42.9,7.4,59.7,22.2c3.9,3.5,5.9,7.8,5.9,12.9c0,4.9-1.6,9-4.8,12.3c-3.2,3.3-7.3,4.9-12.2,4.9c-4.1,0-7.9-1.3-11.1-3.9
		c-5.6-4.7-11.4-8.2-17.5-10.6c-6.1-2.4-12.8-3.6-20-3.6c-8,0-15.4,1.5-22.4,4.5c-7,3-13.1,7.1-18.3,12.3
		c-5.2,5.2-9.4,11.3-12.4,18.2c-3,7-4.5,14.5-4.5,22.4c0,8,1.5,15.4,4.5,22.4c3,7,7.1,13.1,12.4,18.2c5.2,5.2,11.3,9.3,18.3,12.3
		c7,3,14.4,4.5,22.4,4.5c7.2,0,13.8-1.2,20-3.5c6.1-2.3,11.9-5.9,17.3-10.6C2038.6,246.5,2042.2,245.3,2046.3,245.2z"/>
	<path class="st3" d="M2239.2,280v-3.3c-8.2,6.5-17.1,11.6-26.7,15c-9.6,3.5-19.8,5.2-30.8,5.2c-25.3,0-46.9-8.9-64.8-26.8
		c-17.9-17.9-26.8-39.5-26.8-64.8c0-25.3,8.9-46.9,26.8-64.8c17.9-17.9,39.5-26.8,64.8-26.8c25.1,0,46.7,8.9,64.8,26.8
		c17.9,17.9,26.8,39.5,26.8,64.8V280c0,4.7-1.7,8.7-5,12c-3.3,3.3-7.3,5-12,5c-4.8,0-8.9-1.7-12.2-5
		C2240.8,288.7,2239.2,284.7,2239.2,280z M2181.8,148c-8.1,0-15.6,1.5-22.6,4.6c-7,3.1-13,7.2-18.2,12.4
		c-5.1,5.2-9.2,11.3-12.2,18.2c-3,7-4.5,14.4-4.5,22.2s1.5,15.3,4.5,22.2c3,7,7.1,13.1,12.2,18.2c5.1,5.2,11.2,9.3,18.2,12.4
		c7,3.1,14.5,4.6,22.6,4.6c8,0,15.4-1.5,22.4-4.6c7-3.1,13.1-7.2,18.2-12.4c5.2-5.2,9.3-11.3,12.3-18.2c3-6.9,4.5-14.3,4.5-22.2
		s-1.5-15.2-4.5-22.2c-3-6.9-7.1-13-12.3-18.2c-5.2-5.2-11.3-9.4-18.2-12.4C2197.2,149.5,2189.7,148,2181.8,148z"/>
	<path d="M2300.8,113.8h7.7V52.3c0-4.7,1.7-8.7,5-12c3.3-3.3,7.4-5,12.2-5c4.7,0,8.7,1.7,12,5c3.3,3.3,5,7.3,5,12v61.5h20.4
		c4.7,0,8.7,1.7,11.9,5c3.3,3.3,4.9,7.3,4.9,12c0,4.8-1.6,8.9-4.9,12.2c-3.3,3.3-7.3,5-11.9,5h-20.4v82.3
		c0,21.7,10.9,32.6,32.7,32.6c4.7,0,8.7,1.7,11.9,5c3.3,3.3,4.9,7.3,4.9,12c0,4.8-1.6,8.9-4.9,12.2c-3.3,3.3-7.3,5-11.9,5
		c-44.6,0-66.9-22.2-66.9-66.7V148h-7.7c-4.6,0-8.5-1.7-11.9-5c-3.3-3.3-5-7.4-5-12.2c0-4.7,1.7-8.7,5-12
		C2292.3,115.5,2296.3,113.8,2300.8,113.8z"/>
	<path d="M2545.1,245.5c4.9,0,9,1.6,12.2,4.8c3.2,3.2,4.8,7.3,4.8,12.2c0,4.8-1.6,8.9-4.9,12.3c-16.9,14.8-36.9,22.2-59.9,22.2
		c-25.3,0-46.9-8.9-64.8-26.8c-17.9-17.9-26.8-39.5-26.8-64.8c0-25.3,8.9-46.9,26.8-64.8c17.9-17.9,39.5-26.8,64.8-26.8
		c25.1,0,46.7,8.9,64.8,26.8c8.9,8.8,15.6,18.7,20.1,29.5c4.5,10.9,6.7,22.6,6.7,35.3c0,4.9-1.7,9-5,12.2c-3.3,3.2-7.4,4.8-12.2,4.8
		h-129.6c1.9,6,4.6,11.5,8.2,16.4c3.6,5,7.8,9.2,12.7,12.8c4.9,3.5,10.2,6.3,16,8.3c5.8,2,11.9,2.9,18.2,2.9
		c7.2,0,13.8-1.1,19.8-3.3c6-2.2,11.6-5.5,16.7-9.8C2537,247,2540.8,245.6,2545.1,245.5z M2552.4,188.4c-1.9-6-4.6-11.5-8.3-16.4
		c-3.7-5-7.9-9.2-12.8-12.8c-4.9-3.5-10.2-6.3-16-8.3c-5.8-2-11.9-2.9-18.1-2.9s-12.3,1-18.2,2.9s-11.3,4.7-16.2,8.3
		c-4.9,3.5-9.2,7.8-12.8,12.8c-3.6,5-6.3,10.4-8,16.4H2552.4z"/>
</g>
<g>
	<path d="M2628,287.5c0,2.6-0.9,4.9-2.8,6.8c-1.9,1.9-4.1,2.8-6.8,2.8c-2.6,0-4.9-0.9-6.8-2.8c-1.9-1.9-2.8-4.1-2.8-6.8
		c0-2.6,0.9-4.9,2.8-6.8c1.9-1.9,4.1-2.8,6.8-2.8c2.6,0,4.9,0.9,6.8,2.8C2627,282.6,2628,284.8,2628,287.5z"/>
	<path d="M2656.2,208.3c0,2.3-0.8,4.2-2.4,5.9s-3.6,2.4-5.9,2.4c-2.3,0-4.2-0.8-5.9-2.4c-1.6-1.6-2.4-3.6-2.4-5.9
		c0-2.3,0.8-4.2,2.4-5.9c1.6-1.6,3.6-2.4,5.9-2.4c2.3,0,4.2,0.8,5.9,2.4C2655.4,204,2656.2,206,2656.2,208.3z M2640.9,290v-61.2
		c0-2,0.7-3.6,2.1-5c1.4-1.4,3-2.1,4.9-2.1c1.9,0,3.6,0.7,4.9,2.1c1.4,1.4,2.1,3,2.1,5V290c0,2-0.8,3.6-2.1,5
		c-1.4,1.4-3,2.1-4.9,2.1c-1.9,0-3.6-0.7-4.9-2.1C2641.6,293.6,2640.9,291.9,2640.9,290z"/>
	<path d="M2744.9,259.3c0,10.5-3.7,19.4-11,26.7c-7.4,7.4-16.3,11-26.7,11c-10.4,0-19.3-3.7-26.7-11c-7.4-7.4-11-16.2-11-26.7
		c0-10.4,3.7-19.3,11-26.7c7.4-7.4,16.2-11,26.7-11c10.3,0,19.2,3.7,26.7,11c3.7,3.7,6.4,7.7,8.2,12.2
		C2743.9,249.3,2744.8,254.1,2744.9,259.3z M2707.2,235.7c-3.3,0-6.4,0.6-9.3,1.9c-2.9,1.3-5.4,3-7.5,5.1c-2.1,2.1-3.8,4.6-5,7.5
		c-1.2,2.9-1.9,5.9-1.9,9.2c0,3.2,0.6,6.3,1.9,9.2c1.2,2.9,2.9,5.4,5,7.5c2.1,2.1,4.6,3.8,7.5,5.1c2.9,1.3,6,1.9,9.3,1.9
		c3.3,0,6.3-0.6,9.2-1.9c2.9-1.3,5.4-3,7.5-5.1c2.1-2.2,3.8-4.7,5-7.5c1.2-2.8,1.9-5.9,1.9-9.1c0-3.2-0.6-6.3-1.9-9.1
		c-1.2-2.8-2.9-5.4-5-7.5c-2.1-2.2-4.6-3.9-7.5-5.1C2713.5,236.3,2710.4,235.7,2707.2,235.7z"/>
</g>
<text transform="matrix(1 0 0 1 435.7678 297.032)" class="st3 st4 st5">Kommunicate</text>
<path class="st1" d="M2256.7,297h-75c-50.4,0-91.6-41.2-91.6-91.6v0c0-50.4,41.2-91.6,91.6-91.6h0c50.4,0,91.6,41.2,91.6,91.6v75
	C2273.3,289.6,2265.8,297,2256.7,297z"/>
</svg>
