<svg xmlns="http://www.w3.org/2000/svg" xmlns:xlink="http://www.w3.org/1999/xlink" viewBox="0 0 1242.498 850.948">
  <defs>
    <style>
      .cls-1, .cls-2 {
        opacity: 0.07;
      }

      .cls-1 {
        fill: url(#linear-gradient);
      }

      .cls-2 {
        fill: url(#linear-gradient-2);
      }
    </style>
    <linearGradient id="linear-gradient" x1="0.001" y1="0.132" x2="0.969" y2="0.963" gradientUnits="objectBoundingBox">
      <stop offset="0" stop-color="#9e0ffc"/>
      <stop offset="1" stop-color="#5c5aa7"/>
    </linearGradient>
    <linearGradient id="linear-gradient-2" x1="0.106" y1="0.034" x2="0.862" y2="1.061" xlink:href="#linear-gradient"/>
  </defs>
  <g id="Group_1" data-name="Group 1" transform="translate(-120.751 -511.526)">
    <path id="Path_3_Copy" data-name="Path 3 Copy" class="cls-1" d="M146.191,49.523A100,100,0,0,1,250.032,1.887L1081.218,151.34a100,100,0,0,1,79.907,120.18l-41.318,185.349a100,100,0,0,1-78.868,76.471L320.944,670.668a100,100,0,0,1-95.76-34.454L21.791,390.566a100,100,0,0,1-9.12-114.561Z" transform="translate(123.163 579.54)"/>
    <path id="Path_3" data-name="Path 3" class="cls-2" d="M244.938,1.518l817.811,146.989c53.923,9.692,90.042,62.77,80.673,118.553q-.464,2.763-1.074,5.5L1103.368,447.35c-8.878,39.811-39.76,70.368-78.6,77.774L314.735,660.5c-34.727,6.621-70.237-6.374-93.214-34.114L23.849,387.742c-27.927-33.716-31.7-82.2-9.346-120.1L143.377,49.128C164.571,13.192,204.846-5.688,244.938,1.518Z" transform="matrix(0.985, 0.174, -0.174, 0.985, 235.741, 511.526)"/>
  </g>
</svg>
