<svg xmlns="http://www.w3.org/2000/svg" xmlns:xlink="http://www.w3.org/1999/xlink" viewBox="0 0 511.5 493.5">
  <defs>
    <style>
      .cls-1, .cls-32 {
        fill: none;
      }

      .cls-14, .cls-2 {
        fill: #fff;
      }

      .cls-3 {
        fill: url(#linear-gradient);
      }

      .cls-4 {
        clip-path: url(#clip-path);
      }

      .cls-5 {
        fill: #f0e496;
      }

      .cls-6 {
        fill: #f0b919;
      }

      .cls-7 {
        fill: #e7d1a7;
      }

      .cls-8 {
        fill: #ffc692;
      }

      .cls-9 {
        fill: #6353d8;
      }

      .cls-10 {
        fill: #db9e75;
      }

      .cls-11 {
        fill: rgba(219,158,117,0.1);
      }

      .cls-12 {
        fill: rgba(255,255,255,0.3);
      }

      .cls-13 {
        clip-path: url(#clip-path-2);
      }

      .cls-14 {
        opacity: 0.5;
      }

      .cls-15 {
        fill: #f19e85;
      }

      .cls-16 {
        fill: #e62329;
      }

      .cls-17 {
        fill: #3c2cae;
      }

      .cls-18 {
        clip-path: url(#clip-path-3);
      }

      .cls-19 {
        fill: #ebebeb;
      }

      .cls-20 {
        fill: #593c8e;
      }

      .cls-21 {
        clip-path: url(#clip-path-4);
      }

      .cls-22 {
        fill: #8363bc;
      }

      .cls-23 {
        fill: url(#linear-gradient-3);
      }

      .cls-24 {
        opacity: 0.9;
      }

      .cls-25 {
        clip-path: url(#clip-path-5);
      }

      .cls-26 {
        fill: #e67e4b;
      }

      .cls-27 {
        fill: #ffa97d;
      }

      .cls-28 {
        fill: #ea8f68;
      }

      .cls-29 {
        fill: #de7540;
      }

      .cls-30 {
        opacity: 0.6;
      }

      .cls-31 {
        fill: #ffdc77;
      }

      .cls-31, .cls-32 {
        opacity: 0.4;
      }

      .cls-32 {
        stroke: #ffdc77;
        stroke-linecap: round;
        stroke-miterlimit: 10;
        stroke-width: 3px;
      }

      .cls-33 {
        filter: url(#Rectangle_5-3);
      }

      .cls-34 {
        filter: url(#Rectangle_5-2);
      }

      .cls-35 {
        filter: url(#Rectangle_5);
      }
    </style>
    <filter id="Rectangle_5" x="182" y="227.5" width="284" height="266" filterUnits="userSpaceOnUse">
      <feOffset dx="3" dy="3" input="SourceAlpha"/>
      <feGaussianBlur stdDeviation="17.5" result="blur"/>
      <feFlood flood-color="#707090" flood-opacity="0.149"/>
      <feComposite operator="in" in2="blur"/>
      <feComposite in="SourceGraphic"/>
    </filter>
    <linearGradient id="linear-gradient" y1="0.133" x2="0.968" y2="0.963" gradientUnits="objectBoundingBox">
      <stop offset="0" stop-color="#9e0ffc"/>
      <stop offset="1" stop-color="#5c5aa7"/>
    </linearGradient>
    <filter id="Rectangle_5-2" x="0" y="150.5" width="241" height="238" filterUnits="userSpaceOnUse">
      <feOffset dx="2" dy="2" input="SourceAlpha"/>
      <feGaussianBlur stdDeviation="7.5" result="blur-2"/>
      <feFlood flood-color="#707090" flood-opacity="0.149"/>
      <feComposite operator="in" in2="blur-2"/>
      <feComposite in="SourceGraphic"/>
    </filter>
    <clipPath id="clip-path">
      <rect id="Mask" class="cls-1" width="179" height="161" rx="10"/>
    </clipPath>
    <clipPath id="clip-path-2">
      <rect id="Mask-2" data-name="Mask" class="cls-1" width="196" height="193" rx="10"/>
    </clipPath>
    <clipPath id="clip-path-3">
      <path id="Clip_12" data-name="Clip 12" class="cls-1" d="M0,0H19.085V77.748H0Z" transform="translate(0.178 0.23)"/>
    </clipPath>
    <clipPath id="clip-path-4">
      <path id="Clip_27" data-name="Clip 27" class="cls-1" d="M0,0H19.574V77.82H0Z" transform="translate(0.268 0.231)"/>
    </clipPath>
    <filter id="Rectangle_5-3" x="189.5" y="0" width="322" height="307" filterUnits="userSpaceOnUse">
      <feOffset dx="2" dy="2" input="SourceAlpha"/>
      <feGaussianBlur stdDeviation="15" result="blur-3"/>
      <feFlood flood-color="#707090" flood-opacity="0.149"/>
      <feComposite operator="in" in2="blur-3"/>
      <feComposite in="SourceGraphic"/>
    </filter>
    <linearGradient id="linear-gradient-3" y1="0" x2="0.968" y2="0.963" xlink:href="#linear-gradient"/>
    <clipPath id="clip-path-5">
      <rect id="Mask-3" data-name="Mask" class="cls-1" width="232" height="136.075" rx="10" transform="translate(0 0.104)"/>
    </clipPath>
  </defs>
  <g id="Group_29" data-name="Group 29" transform="translate(20.5 43)">
    <g class="cls-35" transform="matrix(1, 0, 0, 1, -20.5, -43)">
      <rect id="Rectangle_5-4" data-name="Rectangle 5" class="cls-2" width="179" height="161" rx="10" transform="translate(231.5 277)"/>
    </g>
    <rect id="Rectangle_5-5" data-name="Rectangle 5" class="cls-3" width="179" height="161" rx="10" transform="translate(211 234)"/>
    <g class="cls-34" transform="matrix(1, 0, 0, 1, -20.5, -43)">
      <rect id="Rectangle_5-6" data-name="Rectangle 5" class="cls-2" width="196" height="193" rx="10" transform="translate(20.5 171)"/>
    </g>
    <g id="Group" transform="translate(211 234)">
      <rect id="Mask-4" data-name="Mask" class="cls-1" width="179" height="161" rx="10"/>
      <g id="Group-2" data-name="Group" class="cls-4">
        <g id="Group-3" data-name="Group" transform="translate(16.186 10.479)">
          <path id="Fill_1" data-name="Fill 1" class="cls-5" d="M20.366,19.657H0L16.477,31.794,10.183,51.439,26.66,39.292,43.136,51.444,36.843,31.793,53.319,19.657H32.953L26.66,0Z" transform="translate(45.702)"/>
          <path id="Fill_2" data-name="Fill 2" class="cls-6" d="M0,0V24.769l6.665-5.841Z" transform="translate(72.362)"/>
          <path id="Fill_3" data-name="Fill 3" class="cls-6" d="M0,6.659,26.66,0,10.188,13.337Z" transform="translate(72.362 19.053)"/>
          <path id="Fill_4" data-name="Fill 4" class="cls-6" d="M0,0,16.186,25.722.007,13.579Z" transform="translate(72.362 24.769)"/>
          <path id="Fill_5" data-name="Fill 5" class="cls-6" d="M16.179,0,0,25.722,16.186,13.579Z" transform="translate(57.128 24.769)"/>
          <path id="Fill_6" data-name="Fill 6" class="cls-6" d="M0,0,26.66,6.659,16.481,13.337Z" transform="translate(45.702 19.053)"/>
          <path id="Fill_7" data-name="Fill 7" class="cls-5" d="M16.662,0,20.6,12.013H33.324l-10.3,7.416L26.96,31.438l-10.3-7.426-10.3,7.423L10.3,19.43,0,12.013H12.729Z" transform="translate(91.404 23.817)"/>
          <path id="Fill_8" data-name="Fill 8" class="cls-6" d="M0,14.29V0L4.761,10.92Z" transform="translate(108.543 23.817)"/>
          <path id="Fill_9" data-name="Fill 9" class="cls-6" d="M0,3.329,15.234,0,5.821,6.669Z" transform="translate(108.543 35.249)"/>
          <path id="Fill_10" data-name="Fill 10" class="cls-6" d="M0,0,10.473,14.29,0,7.544Z" transform="translate(108.543 39.059)"/>
          <path id="Fill_11" data-name="Fill 11" class="cls-6" d="M10.469,0,0,14.29,10.473,7.544Z" transform="translate(98.069 39.059)"/>
          <path id="Fill_12" data-name="Fill 12" class="cls-6" d="M0,0,15.234,3.329,9.418,6.669Z" transform="translate(91.404 35.249)"/>
          <path id="Fill_13" data-name="Fill 13" class="cls-5" d="M16.662,0,20.6,12.013H33.324l-10.3,7.416L26.96,31.438l-10.3-7.426-10.3,7.423L10.3,19.43,0,12.013H12.729Z" transform="translate(20.947 23.817)"/>
          <path id="Fill_14" data-name="Fill 14" class="cls-6" d="M0,14.29V0L4.761,10.92Z" transform="translate(37.133 23.817)"/>
          <path id="Fill_15" data-name="Fill 15" class="cls-6" d="M0,3.329,15.234,0,5.821,6.669Z" transform="translate(37.133 35.249)"/>
          <path id="Fill_16" data-name="Fill 16" class="cls-6" d="M0,0,10.473,14.29,0,7.544Z" transform="translate(37.133 39.059)"/>
          <path id="Fill_17" data-name="Fill 17" class="cls-6" d="M10.469,0,0,14.29,10.473,7.544Z" transform="translate(26.66 39.059)"/>
          <path id="Fill_18" data-name="Fill 18" class="cls-6" d="M0,0,15.234,3.329,9.418,6.669Z" transform="translate(20.947 35.249)"/>
          <path id="Fill_19" data-name="Fill 19" class="cls-5" d="M9.092,8.736H0l7.356,5.394-2.81,8.731,7.356-5.4,7.356,5.4-2.81-8.734L23.8,8.736H14.711L11.9,0Z" transform="translate(121.872 40.012)"/>
          <path id="Fill_20" data-name="Fill 20" class="cls-6" d="M0,12.385V0L2.856,9.464Z" transform="translate(133.298 40.012)"/>
          <path id="Fill_21" data-name="Fill 21" class="cls-6" d="M0,2.378,4.73,4.763,12.378,0Z" transform="translate(133.298 47.633)"/>
          <path id="Fill_22" data-name="Fill 22" class="cls-6" d="M0,0,6.665,12.385,0,6.538Z" transform="translate(133.298 50.491)"/>
          <path id="Fill_23" data-name="Fill 23" class="cls-6" d="M6.662,0,0,12.385,6.665,6.538Z" transform="translate(126.633 50.491)"/>
          <path id="Fill_24" data-name="Fill 24" class="cls-6" d="M0,0,12.378,2.378,7.652,4.763Z" transform="translate(121.872 47.633)"/>
          <path id="Fill_25" data-name="Fill 25" class="cls-5" d="M9.092,8.736H0l7.356,5.394-2.81,8.731,7.356-5.4,7.355,5.4-2.81-8.734L23.8,8.736H14.711L11.9,0Z" transform="translate(0 40.012)"/>
          <path id="Fill_26" data-name="Fill 26" class="cls-6" d="M0,12.385V0L2.856,9.464Z" transform="translate(12.378 40.012)"/>
          <path id="Fill_27" data-name="Fill 27" class="cls-6" d="M0,2.378,12.378,0,4.73,4.763Z" transform="translate(12.378 47.633)"/>
          <path id="Fill_28" data-name="Fill 28" class="cls-6" d="M0,0,6.665,12.385,0,6.538Z" transform="translate(12.378 50.491)"/>
          <path id="Fill_29" data-name="Fill 29" class="cls-6" d="M6.662,0,0,12.385,6.665,6.538Z" transform="translate(4.761 50.491)"/>
          <path id="Fill_30" data-name="Fill 30" class="cls-6" d="M7.652,4.763l4.726-2.385L0,0Z" transform="translate(0 47.633)"/>
          <path id="Fill_31" data-name="Fill 31" class="cls-7" d="M24.653,0l2.959,35.126-14.4,17.157L7.136,52.4,3.674,49.066,0,5.291Z" transform="translate(57.128 100.03)"/>
          <path id="Fill_32" data-name="Fill 32" class="cls-8" d="M0,0,.649,42.87l10.916-.2,13.19-15.8L24.367,1.745Z" transform="translate(58.08 108.604)"/>
          <path id="Fill_33" data-name="Fill 33" class="cls-2" d="M0,.534.693,27.37,4.21,31.438l10.321-.189L29.516,13.584,29.17,0Z" transform="translate(55.223 120.035)"/>
          <path id="Fill_34" data-name="Fill 34" class="cls-9" d="M0,.652,1.523,56.207l32.753-.777L32.515,0Z" transform="translate(54.271 129.562)"/>
          <g id="Group_51" data-name="Group 51" transform="translate(52.367 38.107)">
            <path id="Fill_35" data-name="Fill 35" class="cls-10" d="M8.183.328A3.472,3.472,0,0,1,13.048,4.1l-2.92,16.45c-.47,2.642-4.867,12.2-7.535,11.943S-.3,24.055.235,21.423L3.674,7.07C4.624,3.106,6.34,1.186,8.183.328" transform="translate(28.711 34.319)"/>
            <path id="Fill_37" data-name="Fill 37" class="cls-8" d="M9.851.041a2.92,2.92,0,0,1,3.354,3.393l-3.078,17.34c-.47,2.642-4.867,12.2-7.535,11.943S-.3,24.28.235,21.647L3.674,7.295C4.907,2.146,7.434.446,9.851.041" transform="translate(27.859 35.519)"/>
            <path id="Fill_39" data-name="Fill 39" class="cls-8" d="M24.814,4.963l.464,24.263c-2.393-3.3-8.171-1.267-8.569,3.089C14.72,28.6,9.125,30.063,7.995,33.941,5.6,30.817-.095,33.076,0,37.548l.437,20.48c.123,5.75,3.388,13.081,5.9,15.962,7.447,8.541,20.619,2.749,23.787-2.434,2.47-4.04,4.679-6.647,4.656-9.726l-.91-56.91c-.055-7.214-9.263-5.884-9.058.044" transform="translate(0.112 0.125)"/>
            <path id="Fill_41" data-name="Fill 41" class="cls-10" d="M.3,12.7h0c-.007-.168-.17-4.16-.3-7.65a3.684,3.684,0,0,1,.449.49,4.975,4.975,0,0,1,.4-.964C.634,8.131.314,12.519.3,12.7Zm8.692-.539h0l-.006-.189c-.108-3.433-.2-6.452-.264-8.731a4.269,4.269,0,0,1,.443.672,5,5,0,0,1,.484-1.734C9.479,5.609,9.075,11.067,9,12.127l0,.038Zm8.53-1.242h0c0-.007,0-.067-.012-.174C17.346,8.094,17.052,3.165,16.925,0a3.958,3.958,0,0,1,.736.735c.02.042.053.112.065.112s.005-.005.005-.016c.029,2.975-.206,10.021-.209,10.092Z" transform="translate(7.657 28.523)"/>
            <path id="Fill_43" data-name="Fill 43" class="cls-11" d="M5.22,3.3c0-.041,0-.082,0-.124C5.054,1.083,4.319-.131,2.488.011S-.141,1.486.02,3.58c.006.076.018.149.027.223,0,.037,0,.074,0,.112l.17,2.2A1.189,1.189,0,0,0,1.409,7.288l3.018-.234a1.189,1.189,0,0,0,1-1.338l-.17-2.2A1.43,1.43,0,0,0,5.22,3.3" transform="translate(26.889 1.234)"/>
            <path id="Fill_45" data-name="Fill 45" class="cls-11" d="M1.409,6.972l.056,0c0-.227.732-3.726.727-4.387A4.824,4.824,0,0,0,1.347,0C.329.524-.1,1.674.02,3.265c.006.076.018.149.027.223,0,.037,0,.074,0,.112l.17,2.2A1.189,1.189,0,0,0,1.409,6.972" transform="translate(39.589 35.626)"/>
            <path id="Fill_47" data-name="Fill 47" class="cls-10" d="M.413.824,0,19.8,1.156,0Z" transform="translate(34.076 35.785)"/>
            <path id="Fill_49" data-name="Fill 49" class="cls-12" d="M3.977,40.742C2.407,22.465,0,0,0,0L.718,40.742Z" transform="translate(6.642 106.862)"/>
          </g>
        </g>
      </g>
    </g>
    <rect id="Rectangle_5-7" data-name="Rectangle 5" class="cls-3" width="196" height="193" rx="10" transform="translate(0 128)"/>
    <g id="Group-4" data-name="Group" transform="translate(0 128)">
      <rect id="Mask-5" data-name="Mask" class="cls-1" width="196" height="193" rx="10"/>
      <g id="Group-5" data-name="Group" class="cls-13">
        <g id="Group-6" data-name="Group" transform="translate(8.602 33.042)">
          <path id="Fill_1-2" data-name="Fill 1" class="cls-14" d="M19.707,34.863c-1.665-7.3-1.537-28.964-1.665-30.657S17.914-.355,3.57.036c0,0-3.2-.391-3.2,4.3,0,2.915-.3.673-.368,19.3a14.169,14.169,0,0,1,3.442-.389,9.069,9.069,0,0,1,0,18.134,14.143,14.143,0,0,1-3.428-.387c.035,6.648.105,19.829.226,24.1,0,0-.128,3.388,2.433,3.258s11.015.261,12.04-3.779S15.994,44.114,32.131,42.29c0,0-10.759-.13-12.424-7.427" transform="translate(91.808 12.867)"/>
          <path id="Fill_3-2" data-name="Fill 3" class="cls-14" d="M34.7,27.294a6.016,6.016,0,0,1-2.055.04c-.043-20.32-.385-19.893-.385-23,0-4.691-3.252-4.3-3.252-4.3-14.568-.391-14.568,2.476-14.7,4.17s0,23.36-1.691,30.657S0,42.29,0,42.29c16.389,1.824,16.649,18.242,17.69,22.282s9.626,3.648,12.227,3.779,2.471-3.258,2.471-3.258c.149-5.187.223-21.01.248-27.8a6.023,6.023,0,0,1,2.061.039,14.8,14.8,0,0,0,5.1.975,5.994,5.994,0,0,0,0-11.988A14.8,14.8,0,0,0,34.7,27.294Z" transform="translate(54.857 12.867)"/>
          <g id="Group_26" data-name="Group 26" transform="translate(123.689)">
            <path id="Fill_5-2" data-name="Fill 5" class="cls-15" d="M51.3,21.476a23.242,23.242,0,0,0-2.6-9.358,10.049,10.049,0,0,0-2.8-3.3A19.8,19.8,0,0,0,41.8,6.038c-1.426-.633-2.773-1.418-4.232-1.97-1.687-.638-3.407-1.254-5.141-1.743A77.745,77.745,0,0,0,22.391.275a28.526,28.526,0,0,0-7.918,0C11.816.663,9.515,1.32,8.3,3.928A9.463,9.463,0,0,0,7.1,7.009c-.14,1.428-.336,2.849-.52,4.273-.188,1.46-.286,2.92-.36,4.389-.037.727-.046,1.456-.068,2.184a9.388,9.388,0,0,1-.216,2.27.437.437,0,0,0-.008.291c-.724,1.908-1.483,3.8-2.237,5.7-.544,1.371-.728,2.714.258,3.916a2.515,2.515,0,0,1,.735,2.237A20.226,20.226,0,0,1,4.1,35.051c-.935,3.625-2.707,7-4,10.5-.562,1.514,1.487,2.006,2.51,2.4a18.506,18.506,0,0,0,2.041.657c.012.022.026.044.037.066a6.02,6.02,0,0,1,.261,3.451c-.164,1.545,2.36,1.63,3.863,1.728-.219.33-.478.638-.681.975a13.111,13.111,0,0,1-1.246,1.813,3,3,0,0,0-.14,2.644c.46,1.388,2.418.7,2.908,1.9a2.245,2.245,0,0,1-.244,2.451c-.409.555-.936.9-1.09,1.6a2.485,2.485,0,0,0,.277,1.294c.2.571.261,1.2.446,1.779A4.637,4.637,0,0,0,11.594,71.1c1.281.621,2.541.373,3.892.358a11.965,11.965,0,0,0,3.9-.832c0,.062,0,.124,0,.187-.008.185-.026.37-.033.555a18.078,18.078,0,0,0,.4,2.67c.231,1.876.38,3.764.588,5.643.093.839.23,1.673.365,2.506.084.521.04,1.138.178,1.642.315,1.156,2.046.332,2.735.159a46.471,46.471,0,0,0,4.8-1.761c1.691-.633,3.349-1.368,4.976-2.157,1.441-.7,2.826-1.511,4.292-2.158.487-.215,1.042-.331,1.333-.832a4.932,4.932,0,0,0,.21-2.223q.075-6.2.691-12.357c.16-1.595.2-3.188.2-4.786a62.221,62.221,0,0,0,3.589-6.26c1.521-2.868,2.706-6,3.959-8.994A46.315,46.315,0,0,0,51.3,21.476" transform="translate(0.484 0)"/>
            <path id="Fill_7-2" data-name="Fill 7" class="cls-16" d="M16.827,5.291a7.045,7.045,0,0,0-1.569-3.966C14.7.588,13.228-.411,12.275.179A7.646,7.646,0,0,0,9.251,3.2,18.194,18.194,0,0,0,8.5,5.184c-.282.785-.644,1.526-.881,2.328a.456.456,0,0,0,.075.441c-.336.727-.7,1.446-1.054,2.164-.784,1.584-1.557,3.1-2.222,4.737A58,58,0,0,0,1.691,25.186,57.472,57.472,0,0,0,.122,35.62C.1,37.162,0,38.7,0,40.243c0,1.738.114,3.469.113,5.2A21.986,21.986,0,0,0,.7,49.553c.166.852.2,2.489,1.377,2.687.967.163,1.365-.35,1.683-1.19.28-.739.332-1.571.567-2.332.283-.918.483-1.841.706-2.774C5.426,44.3,6.09,42.781,6.6,41.18c.585-1.822,1.018-3.69,1.458-5.55.847-3.576,2.113-7.01,3.12-10.541,1-3.5,2.121-7.019,3.465-10.409,1.2-3.027,2.469-6.1,2.181-9.389" transform="translate(9.32 82.025)"/>
            <path id="Fill_9-2" data-name="Fill 9" class="cls-17" d="M45.735,80.634c0-1.45-.245-2.946-.375-4.4-.143-1.589-.209-3.161-.331-4.754-.5-6.529-.581-13.1-.9-19.644s-.748-13.1-1.65-19.6c-1.01-7.289-1.933-14.6-4.142-21.646-.918-2.931-1.8-6.26-3.6-8.8A3.983,3.983,0,0,0,32.049.029c-1.423-.195-2.6.644-3.74,1.348a19.115,19.115,0,0,0-3.434,2.441c-1.312,1.263-2.561,2.572-3.811,3.895a53.887,53.887,0,0,0-6.247,8.058,41.983,41.983,0,0,0-4.2,7.37c-1.165,3-2.381,5.982-3.584,8.967C4.557,38.252,3.385,44.891,2.088,51.36a44.769,44.769,0,0,0-1.138,8.8c0,.569-.154,1.129-.154,1.706A17.641,17.641,0,0,1,.659,64,16.359,16.359,0,0,0,.645,65.9c0,.715-.145,1.475-.184,2.193C.3,70.972.069,73.851.02,76.733a26.7,26.7,0,0,0,.153,4.411A39.5,39.5,0,0,1,.3,86.216a.546.546,0,0,0,.995.289l.017,0c3.121.155,6.258.211,9.385.326a45.707,45.707,0,0,0,4.669-.146c1.88-.122,3.8-.007,5.688-.007l11.222,0c1.617,0,3.25.1,4.865.008s3.241-.5,4.865-.643a5.378,5.378,0,0,0,3.222-1.021,1.941,1.941,0,0,0,.508-1.292,27.505,27.505,0,0,0,0-3.1" transform="translate(10.123 77.2)"/>
            <g id="Group_13" data-name="Group 13" transform="translate(33.418 88.458)">
              <path id="Clip_12-2" data-name="Clip 12" class="cls-1" d="M0,0H19.085V77.748H0Z" transform="translate(0.178 0.23)"/>
              <g id="Group_13-2" data-name="Group 13" class="cls-18">
                <path id="Fill_11-2" data-name="Fill 11" class="cls-9" d="M18.738,71.9c-.081-1.822-.3-3.621-.436-5.441-.239-3.3-.618-6.612-.784-9.922-.173-3.464-.274-6.932-.655-10.386-.187-1.691-.391-3.378-.462-5.08-.074-1.806-.311-3.607-.331-5.414-.019-1.686-.3-3.359-.381-5.042-.094-1.877-.122-3.755-.247-5.631-.084-1.262-.128-2.535-.193-3.8-.085-1.641-.363-3.254-.453-4.889-.084-1.541-.119-3.1-.276-4.633a43.06,43.06,0,0,1-.533-4.418c0-2.334-.641-5.325-2.741-6.688-2.416-1.567-5.156.469-6.6,2.471a8.112,8.112,0,0,0-1.3,4c-.211,1.752-.565,3.47-.634,5.238-.132,3.412-.639,6.819-.892,10.224-.118,1.6-.119,3.2-.238,4.8a47.506,47.506,0,0,1-.321,4.893c-.315,1.732-.11,3.553-.315,5.3a43.978,43.978,0,0,0-.252,5.051c0,1.726-.178,3.477-.286,5.2-.119,1.916.006,3.836-.128,5.753S.3,57.311.136,59.217c-.176,2.106-.08,4.261-.093,6.374C.036,66.533.116,67.468.2,68.4c-.025.308-.042.618-.043.929l-.007,2.15c0,.282.026.549.051.814-.005.423-.005.847,0,1.27,0,0,0,.009,0,.013a3.235,3.235,0,0,0-.049.5A18.468,18.468,0,0,0,0,76.422a.584.584,0,0,0,.186.435c.019.039.037.079.059.118a1.345,1.345,0,0,0,1.1.526c.758.047,1.5.2,2.26.241s1.5-.075,2.252-.059a16.979,16.979,0,0,0,2.405-.008A19.434,19.434,0,0,1,10.6,77.52c.84,0,1.656-.271,2.494-.308a22.249,22.249,0,0,0,4.108-.49c.677-.167,1.954-.116,1.877-1.192-.087-1.209-.288-2.4-.343-3.63" transform="translate(0.178 0.23)"/>
              </g>
            </g>
            <path id="Fill_14-2" data-name="Fill 14" class="cls-16" d="M4.185.222A.976.976,0,0,0,3.577,0C2.288.155,1.4,1.468.878,2.714c-.732,1.746-1.908,7.371.913,7.723,2.882.36,3.658-4.8,3.822-7.09C5.7,2.184,5.249.64,4.185.222" transform="translate(16.549 79.613)"/>
            <path id="Fill_16-2" data-name="Fill 16" class="cls-9" d="M37.745,2.444c-.5-.581-1.019-1.122-1.548-1.676-.289-.3-.481-.753-.966-.766C33.875-.037,32.3,1.009,31.075,1.5a30.423,30.423,0,0,0-3.986,2.3,26.984,26.984,0,0,0-4.258,3.181,43.47,43.47,0,0,0-3.5,3.154c-.521.6-1.094,1.141-1.656,1.7-.666.659-1.162,1.481-1.77,2.195a63.271,63.271,0,0,0-6.013,8.516c-2.815,4.675-4.3,9.89-5.6,15.14A135.232,135.232,0,0,0,1.626,54.267C.95,59.919.715,65.589.419,71.266c-.134,2.563-.175,5.13-.163,7.7.006,1.5.044,3,.041,4.5,0,.683-.079,1.369-.132,2.05-.022.281.061.81.041,1.23a.687.687,0,0,0-.055.184c-.01.071-.018.149-.023.231a.49.49,0,0,1-.044.078.353.353,0,0,0,.039.5,4.428,4.428,0,0,0,.091.746c.131.566.469.739,1.026.774a15.542,15.542,0,0,0,1.932-.161c.886-.058,1.716.114,2.584,0a.726.726,0,0,0,.687-.517,27.844,27.844,0,0,0,.16-2.821c.123-1.327.152-2.681.33-4,.2-1.51.2-3.049.316-4.568a38.774,38.774,0,0,1,.46-4.874c.328-1.565.48-3.157.821-4.722s.65-3.139.984-4.706c.651-3.053,1.513-6.07,2.249-9.1a46.359,46.359,0,0,1,2.681-8.5c1.3-2.853,2.4-5.832,3.813-8.632a42.44,42.44,0,0,1,2.332-3.9,9.9,9.9,0,0,1,1.022-1.565,1.151,1.151,0,0,0,.3-1.117c-.115-.414-.577-.724-.879-.993-.547-.487-1.044-1.024-1.6-1.5a13.993,13.993,0,0,1-1.278-1.3c-.078-.086-.161-.166-.246-.244.712,0,1.434-.117,2.147-.12a2.973,2.973,0,0,0,2.962-1.376c1.835-2.887,3.744-5.729,5.788-8.482,1.076-1.449,2.216-2.912,3.385-4.288,1.136-1.335,2.42-2.489,3.635-3.744A41.539,41.539,0,0,1,39.139,5.2c.854-.718-1-2.3-1.394-2.754" transform="translate(7.713 74.787)"/>
            <path id="Fill_18-2" data-name="Fill 18" class="cls-19" d="M24.011,4.979a23.313,23.313,0,0,1-1.55-2.63A13.956,13.956,0,0,0,21.518.331a.645.645,0,0,0-.886-.238c-2.055,1.331-4.185,2.535-6.283,3.785-1.289.769-2.629,1.457-3.909,2.241A42.429,42.429,0,0,1,6.7,8.232C5.5,8.8,4.311,9.345,3.161,10.016c-.8.465-3.421,1.5-3.14,2.1l.048.21a2.546,2.546,0,0,0,.167.664C.93,15.528,2.1,17.907,2.66,20.48c.2.919.7,1.536,1.632,1.077a20.359,20.359,0,0,0,1.774-1.325c.8-.526,1.558-1.121,2.349-1.665,2.686-1.846,4.949-3.769,7.9-6.127a98.405,98.405,0,0,0,7.6-6.657.68.68,0,0,0,.1-.805" transform="translate(18.959 69.158)"/>
          </g>
          <g id="Group_27" data-name="Group 27">
            <path id="Fill_20-2" data-name="Fill 20" class="cls-8" d="M48.9,44.388c-1.288-3.454-3.048-6.791-3.976-10.374a19.917,19.917,0,0,1-.579-2.749,2.479,2.479,0,0,1,.73-2.211c.979-1.187.8-2.515.256-3.87-.617-1.549-1.234-3.1-1.836-4.648.121-.154.248-.314.374-.5.907-1.33,1.8-2.582,2.61-3.979a14.768,14.768,0,0,0,1.441-4.228,23.3,23.3,0,0,0,.745-5.211c0-1.272.373-7.15-2.056-6.581a7.344,7.344,0,0,0-1.248.568,18.873,18.873,0,0,1-2.545.959,47.286,47.286,0,0,1-5.4.949c-3.671.609-7.4,1.074-11.106,1.375-3.169.257-6.354.194-9.515.584-3.346.412-6.753.426-9.981,1.531A10.037,10.037,0,0,0,1.21,11.8,21.884,21.884,0,0,0,.1,18.493,50.013,50.013,0,0,0,.168,25.7c.385,4.443.6,8.887,1.208,13.312.342,2.474.77,4.937,1.178,7.4.4,2.4,1.01,4.686,1.626,7.03.271,1.034.542,2.058.857,3.081a11.727,11.727,0,0,0,.943,2.68c.8,1.327,2.235,1.916,3.46,2.72q.541,5.7.612,11.439a4.862,4.862,0,0,0,.208,2.2c.289.5.84.609,1.324.822,1.456.64,2.83,1.443,4.261,2.133,1.615.78,3.261,1.506,4.94,2.132a46.41,46.41,0,0,0,4.764,1.741c.685.172,2.4.986,2.716-.157.136-.5.092-1.108.176-1.623.134-.823.27-1.648.362-2.477.206-1.858.355-3.724.583-5.578a17.794,17.794,0,0,0,.4-2.639c-.007-.183-.025-.366-.032-.549,0-.061,0-.123,0-.184A11.925,11.925,0,0,0,33.624,70c1.342.015,2.592.259,3.864-.354a4.591,4.591,0,0,0,2.538-2.762c.184-.574.241-1.195.443-1.758a2.449,2.449,0,0,0,.275-1.28c-.154-.694-.676-1.032-1.083-1.58a2.211,2.211,0,0,1-.243-2.423c.486-1.191,2.431-.509,2.887-1.881a2.95,2.95,0,0,0-.139-2.613A12.939,12.939,0,0,1,40.93,53.56c-.2-.333-.458-.638-.676-.964,1.492-.1,4-.181,3.836-1.708a5.928,5.928,0,0,1,.259-3.411c.01-.021.024-.043.036-.065a18.349,18.349,0,0,0,2.027-.649c1.016-.391,3.05-.878,2.492-2.374" transform="translate(5.623 0.804)"/>
            <path id="Fill_22-2" data-name="Fill 22" class="cls-16" d="M2.222,14.68c1.344,3.39,2.466,6.906,3.465,10.409C6.694,28.62,7.96,32.054,8.807,35.63c.44,1.86.873,3.728,1.458,5.55.514,1.6,1.178,3.121,1.571,4.764.223.933.424,1.856.706,2.774.234.761.287,1.593.567,2.332.318.841.716,1.353,1.683,1.19,1.177-.2,1.211-1.836,1.377-2.687a21.964,21.964,0,0,0,.587-4.109c0-1.732.115-3.464.113-5.2,0-1.546-.1-3.081-.122-4.623a57.472,57.472,0,0,0-1.569-10.434,57.994,57.994,0,0,0-2.725-10.332c-.665-1.641-1.438-3.154-2.222-4.737C9.875,9.4,9.514,8.68,9.177,7.953a.456.456,0,0,0,.075-.441c-.238-.8-.6-1.543-.882-2.328A18.174,18.174,0,0,0,7.618,3.2,7.649,7.649,0,0,0,4.594.178c-.953-.59-2.423.41-2.983,1.146A7.044,7.044,0,0,0,.041,5.291c-.288,3.29.981,6.362,2.181,9.389" transform="translate(29.721 82.025)"/>
            <path id="Fill_24-2" data-name="Fill 24" class="cls-20" d="M.052,83.735A1.941,1.941,0,0,0,.56,85.028a5.38,5.38,0,0,0,3.222,1.021c1.624.147,3.241.554,4.866.643s3.248-.008,4.865-.008l11.222,0c1.883,0,3.808-.115,5.688.007a45.792,45.792,0,0,0,4.669.145c3.126-.115,6.263-.17,9.385-.326l.017,0a.546.546,0,0,0,1-.289,39.386,39.386,0,0,1,.125-5.073,26.771,26.771,0,0,0,.153-4.411c-.05-2.881-.284-5.761-.441-8.638-.039-.718-.185-1.478-.184-2.193A16.42,16.42,0,0,0,45.128,64a17.589,17.589,0,0,1-.137-2.126c0-.577-.154-1.137-.154-1.706a44.744,44.744,0,0,0-1.138-8.8c-1.3-6.47-2.469-13.108-4.946-19.254-1.2-2.985-2.419-5.967-3.584-8.967a41.98,41.98,0,0,0-4.2-7.37,53.87,53.87,0,0,0-6.246-8.058c-1.251-1.323-2.5-2.632-3.812-3.9a19.1,19.1,0,0,0-3.433-2.441C16.333.672,15.161-.166,13.738.029a3.984,3.984,0,0,0-2.689,1.763c-1.8,2.539-2.682,5.869-3.6,8.8C5.24,17.642,4.317,24.948,3.307,32.237c-.9,6.506-1.33,13.048-1.65,19.6s-.4,13.116-.9,19.644C.636,73.077.569,74.649.426,76.238c-.13,1.45-.375,2.946-.375,4.4a27.577,27.577,0,0,0,0,3.1" transform="translate(0 77.2)"/>
            <g id="Group_28" data-name="Group 28" transform="translate(4.016 88.458)">
              <path id="Clip_27-2" data-name="Clip 27" class="cls-1" d="M0,0H19.574V77.82H0Z" transform="translate(0.268 0.231)"/>
              <g id="Group_28-2" data-name="Group 28" class="cls-21">
                <path id="Fill_26-2" data-name="Fill 26" class="cls-22" d="M0,75.6c-.079,1.076,1.23,1.025,1.924,1.193a23.333,23.333,0,0,0,4.214.491c.86.037,1.7.307,2.558.308a20.419,20.419,0,0,1,2.4.155,17.8,17.8,0,0,0,2.467.008c.77-.015,1.542.1,2.31.06s1.54-.194,2.317-.241a1.391,1.391,0,0,0,1.128-.527c.023-.039.041-.079.061-.118a.576.576,0,0,0,.192-.435,18.042,18.042,0,0,0-.145-2.346,3.2,3.2,0,0,0-.05-.5s0-.009,0-.013c0-.424,0-.848,0-1.271a7.976,7.976,0,0,0,.052-.815q0-1.076-.007-2.151c0-.311-.018-.621-.044-.93.083-.936.164-1.872.158-2.815-.015-2.115.084-4.272-.1-6.38-.163-1.908-.007-3.82-.145-5.728s-.009-3.842-.132-5.759c-.11-1.725-.292-3.477-.293-5.2a43.108,43.108,0,0,0-.258-5.056c-.21-1.75,0-3.573-.323-5.306a46.43,46.43,0,0,1-.33-4.9c-.122-1.6-.122-3.208-.244-4.805-.26-3.408-.779-6.818-.915-10.233-.07-1.77-.434-3.49-.65-5.243A7.994,7.994,0,0,0,14.808,3.03c-1.481-2-4.292-4.041-6.769-2.473C5.884,1.921,5.228,4.915,5.227,7.251a42.2,42.2,0,0,1-.547,4.423c-.16,1.537-.2,3.095-.283,4.637-.092,1.637-.378,3.251-.464,4.894-.067,1.265-.111,2.54-.2,3.8-.129,1.877-.157,3.757-.253,5.636C3.4,32.328,3.111,34,3.092,35.689c-.02,1.809-.263,3.611-.34,5.419-.072,1.7-.282,3.391-.474,5.084-.391,3.457-.494,6.929-.672,10.4-.17,3.313-.558,6.625-.8,9.931C.667,68.342.438,70.142.355,71.966.3,73.192.093,74.388,0,75.6" transform="translate(0.268 0.231)"/>
              </g>
            </g>
            <path id="Fill_29-2" data-name="Fill 29" class="cls-16" d="M.01,3.346c.165,2.292.941,7.45,3.822,7.09,2.821-.352,1.645-5.977.913-7.723C4.222,1.468,3.335.155,2.046,0a.977.977,0,0,0-.609.219C.374.64-.074,2.184.01,3.346" transform="translate(31.328 79.613)"/>
            <path id="Fill_31-2" data-name="Fill 31" class="cls-22" d="M.222,5.2A41.592,41.592,0,0,1,3.53,8.031c1.215,1.255,2.5,2.409,3.635,3.744,1.17,1.375,2.31,2.839,3.385,4.288,2.043,2.753,3.952,5.6,5.788,8.482A2.973,2.973,0,0,0,19.3,25.92c.713,0,1.435.123,2.147.12-.085.078-.168.158-.246.244a14,14,0,0,1-1.278,1.3c-.558.479-1.054,1.015-1.6,1.5-.3.269-.764.579-.879.993a1.15,1.15,0,0,0,.3,1.117,9.882,9.882,0,0,1,1.022,1.565,42.512,42.512,0,0,1,2.332,3.9c1.414,2.8,2.508,5.779,3.813,8.632a46.32,46.32,0,0,1,2.682,8.5c.736,3.035,1.6,6.051,2.25,9.1.334,1.567.643,3.139.984,4.706s.493,3.157.821,4.722a38.717,38.717,0,0,1,.46,4.874c.115,1.52.113,3.058.316,4.568.178,1.318.206,2.671.33,4a27.926,27.926,0,0,0,.161,2.821.726.726,0,0,0,.686.517c.868.112,1.7-.059,2.584,0a15.493,15.493,0,0,0,1.932.161c.558-.035.9-.208,1.026-.774a4.393,4.393,0,0,0,.091-.746.354.354,0,0,0,.039-.5.456.456,0,0,1-.044-.078c-.005-.082-.012-.161-.023-.231a.687.687,0,0,0-.055-.184c-.019-.42.063-.948.041-1.23-.053-.681-.131-1.367-.132-2.05,0-1.5.035-3,.042-4.5.012-2.566-.029-5.133-.163-7.7-.3-5.676-.531-11.346-1.207-17a135.227,135.227,0,0,0-2.663-16.582c-1.3-5.25-2.785-10.465-5.6-15.14a63.3,63.3,0,0,0-6.013-8.516c-.607-.713-1.1-1.535-1.77-2.195-.562-.556-1.134-1.1-1.656-1.7a43.458,43.458,0,0,0-3.5-3.154A27,27,0,0,0,12.272,3.8,30.42,30.42,0,0,0,8.286,1.5C7.063,1.01,5.486-.037,4.129,0c-.485.013-.677.463-.966.766-.528.554-1.05,1.1-1.548,1.676C1.225,2.9-.632,4.48.222,5.2" transform="translate(9.639 74.787)"/>
            <path id="Fill_33-2" data-name="Fill 33" class="cls-19" d="M.189,5.784a98.474,98.474,0,0,0,7.6,6.657c2.95,2.358,5.214,4.28,7.9,6.127.791.544,1.547,1.139,2.348,1.665a20.346,20.346,0,0,0,1.774,1.325c.93.459,1.433-.158,1.631-1.077.556-2.573,1.73-4.952,2.424-7.493a2.516,2.516,0,0,0,.167-.664q.025-.1.048-.21c.281-.6-2.342-1.633-3.14-2.1C19.787,9.345,18.6,8.8,17.4,8.232a42.231,42.231,0,0,1-3.74-2.114c-1.281-.783-2.62-1.472-3.91-2.24C7.652,2.627,5.521,1.423,3.466.093A.645.645,0,0,0,2.58.331a14,14,0,0,0-.943,2.018,23.245,23.245,0,0,1-1.55,2.63.68.68,0,0,0,.1.805" transform="translate(12.852 69.158)"/>
          </g>
        </g>
      </g>
    </g>
    <g class="cls-33" transform="matrix(1, 0, 0, 1, -20.5, -43)">
      <rect id="Rectangle_5-8" data-name="Rectangle 5" class="cls-2" width="232" height="217" rx="10" transform="translate(232.5 43)"/>
    </g>
    <rect id="Rectangle_5-9" data-name="Rectangle 5" class="cls-23" width="232" height="217" rx="10" transform="translate(212)"/>
    <g id="Group-7" data-name="Group" class="cls-24" transform="translate(212 44)">
      <rect id="Mask-6" data-name="Mask" class="cls-1" width="232" height="136.075" rx="10" transform="translate(0 0.104)"/>
      <g id="Group-8" data-name="Group" class="cls-25">
        <g id="Group-9" data-name="Group" transform="translate(-0.951 27.59)">
          <g id="Group_52" data-name="Group 52">
            <path id="Fill_6-2" data-name="Fill 6" class="cls-26" d="M35.547,0,1.737,34.78A6.091,6.091,0,0,0,6.893,45.07a11.932,11.932,0,0,0,3.253-1s1.054,8.693,10.3,8.008c0,0,1.259,8.793,11.5,6.641,0,0,4.97,9.088,19.015-3.73C57.9,48.661,80.82,30.307,80.82,30.307Z" transform="translate(81.77 30.444)"/>
            <path id="Fill_8-2" data-name="Fill 8" class="cls-27" d="M130.011,0,79.667,15.532a7.174,7.174,0,0,1-5.929-.779L54.349,2.6A10.15,10.15,0,0,0,45.6,1.612L23.934,9.194l11.4,9.193L1.726,53.527c-3.986,4.168-.565,11.222,5.126,10.4a11.724,11.724,0,0,0,3.233-1.014S11.133,71.692,20.328,71c0,0,1.251,8.884,11.431,6.71,0,0,4.94,9.182,18.9-3.769,6.888-6.39,29.675-24.934,29.675-24.934l58.485-18.37Z" transform="translate(82.721 9.514)"/>
            <path id="Fill_10-2" data-name="Fill 10" class="cls-28" d="M37.421,24.564c4.659-2.177,3.866-6.2,1.977-7.676L25.175,5.528a12.615,12.615,0,0,0-5.221-2.477L5.757,0,0,2.01l11.511,9.262L2.174,21.013A41.694,41.694,0,0,0,16.1,17.788s11.305,11.457,21.32,6.776" transform="translate(106.492 17.125)"/>
            <path id="Fill_12-2" data-name="Fill 12" class="cls-8" d="M93.615,17.863,79.583,6.651a12.445,12.445,0,0,0-5.151-2.445L55.708.18a8.059,8.059,0,0,0-6.5,1.407L32.286,14.134a4.616,4.616,0,0,1-4.316.635L2.5,5.578,0,37.039,30.047,49.472l26.6-27.526s7.74-.27,13.987-3.2c0,0,11.154,11.308,21.033,6.688,4.6-2.149,3.814-6.123,1.951-7.577" transform="translate(54.197 13.319)"/>
            <path id="Fill_14-3" data-name="Fill 14" class="cls-29" d="M89.057,13.184c-7.945.081-17.379-9.608-17.609-9.665,0,0-6.86,6.589-19.319,3.558,0,0-2.025,7.471-13.61,20.92a7.719,7.719,0,0,1-8.731,2.146c-1.151-.461-2.442-.937-3.823-1.429a8.119,8.119,0,0,1-5.341-7.947l.7-20.46C12.449-2.832.513,19.29.81,15.071L0,25.413,29.39,37.74l-.008.008.732.307.008-.009.02.009L35,32.926,56.8,10.066s7.765-.274,14.032-3.249c-.052-.015,11.051,11.459,21.1,6.8a5.723,5.723,0,0,0,3.155-3.026c-.615,1.193-2.724,2.557-6.025,2.591" transform="translate(54.197 26.639)"/>
            <path id="Fill_16-3" data-name="Fill 16" class="cls-26" d="M9.022,62.534C.59,54.363,2.428,49.243,2.428,49.243L47.081,28.188l.062-.014a7.351,7.351,0,0,0,5.771-7.562L51.811,0,106.2,15.151l.291,1-58.174,18.1S25.653,52.526,18.8,58.821C4.914,71.582,0,62.534,0,62.534s3.87,4.133,9.022,0" transform="translate(114.098 24.736)"/>
            <path id="Fill_18-3" data-name="Fill 18" class="cls-26" d="M1.087,20.752,21.673,1.088c.594-.568-.3-1.475-.891-.909L.2,19.843c-.594.568.3,1.475.891.909" transform="translate(91.279 53.278)"/>
            <path id="Fill_20-3" data-name="Fill 20" class="cls-26" d="M1.074,20.745,20.729,1.1c.58-.58-.305-1.492-.884-.913L.189,19.833c-.58.58.305,1.492.884.913" transform="translate(101.738 61.84)"/>
            <path id="Fill_22-3" data-name="Fill 22" class="cls-26" d="M1.095,17.9,18.823,1.065c.592-.562-.31-1.447-.9-.885L.193,17.011c-.592.562.31,1.447.9.886" transform="translate(113.148 71.354)"/>
            <path id="Fill_24-3" data-name="Fill 24" class="cls-29" d="M1.68,22.975l.087-.09a6.31,6.31,0,0,1,9.038.309l-.481-.486a6.178,6.178,0,0,1-.046-8.606l1.047-1.081a5.865,5.865,0,0,1,5.1-1.732,6.97,6.97,0,0,1,1.921-5.515l.1-.1A6.658,6.658,0,0,1,28,5.624L29.263,6.9a6.149,6.149,0,0,1,1.662-5.1,5.87,5.87,0,0,1,8.425-.043l5.471,5.53a6.178,6.178,0,0,1,.046,8.606,5.865,5.865,0,0,1-5.493,1.661,7.017,7.017,0,0,1-1.164,8.1l-.1.1a6.659,6.659,0,0,1-5.38,2.019A6.152,6.152,0,0,1,31.092,33l-1.047,1.081a5.87,5.87,0,0,1-8.426.043l-5.648-5.709,5.166,5.222a6.64,6.64,0,0,1,.4,9.228l-.087.09a6.31,6.31,0,0,1-9.038-.309L2.077,32.2a6.64,6.64,0,0,1-.4-9.228" transform="translate(116 47.569)"/>
            <path id="Fill_26-3" data-name="Fill 26" class="cls-2" d="M58.791,40.574l-49.23,12.7L0,16.193,62.754,0Z" transform="translate(166.393 5.708)"/>
            <path id="Fill_28-2" data-name="Fill 28" class="cls-2" d="M0,37.084,62.708,53.278l9.554-37.084L9.554,0Z" transform="translate(3.803 7.611)"/>
            <path id="Fill_30-2" data-name="Fill 30" class="cls-29" d="M12.174,11.285,1.087.187a.635.635,0,0,0-.9.9l11.087,11.1a.636.636,0,0,0,.9-.9" transform="translate(127.41 70.403)"/>
            <path id="Fill_32-2" data-name="Fill 32" class="cls-19" d="M11.513,26.388,60.647,39.007,61.8,0,0,14.63Z" transform="translate(5.705 20.931)"/>
            <path id="Fill_34-2" data-name="Fill 34" class="cls-22" d="M0,0V50.6l56.692,14.1L68.459,17.021Z"/>
            <path id="Fill_36" data-name="Fill 36" class="cls-19" d="M50.393,26.388,1.158,39.007,0,0,42.79,10.109Z" transform="translate(174.951 19.028)"/>
            <path id="Fill_38" data-name="Fill 38" class="cls-20" d="M0,0V11.1L56.466,25.688l2.485-10.461Z" transform="translate(0 40.91)"/>
            <path id="Fill_40" data-name="Fill 40" class="cls-9" d="M60.852,0,0,15.146,11.748,62.792l49.1-12.222Z" transform="translate(174)"/>
            <path id="Fill_42" data-name="Fill 42" class="cls-17" d="M52.3,0,0,13.309,2.526,23.785,52.3,11.119Z" transform="translate(182.557 40.91)"/>
            <path id="Fill_44" data-name="Fill 44" class="cls-8" d="M1.664,10.019l9.374,9.218a5.833,5.833,0,0,0,8.217,0,6.042,6.042,0,0,0,0-8.325L9.88,1.694a5.832,5.832,0,0,0-8.217,0,6.042,6.042,0,0,0,0,8.325" transform="translate(117.902 68.5)"/>
            <path id="Fill_46" data-name="Fill 46" class="cls-8" d="M1.62,9.575l9.711,8.791c2.184,1.977,5.839,2.316,7.967,0,1.98-2.156,2.333-5.851,0-7.963L9.587,1.613C7.4-.364,3.748-.7,1.62,1.613c-1.98,2.156-2.333,5.851,0,7.963" transform="translate(125.508 58.986)"/>
            <path id="Fill_48" data-name="Fill 48" class="cls-8" d="M1.645,9.718l9.535,8.625c2.218,2.006,5.931,2.351,8.092,0,2.012-2.188,2.369-5.938,0-8.081L9.737,1.637C7.519-.37,3.806-.714,1.645,1.637c-2.011,2.188-2.369,5.938,0,8.081" transform="translate(135.016 50.424)"/>
            <path id="Fill_50" data-name="Fill 50" class="cls-8" d="M1.2,7.416l6.945,6.558a4.087,4.087,0,0,0,5.877,0c1.456-1.665,1.726-4.538,0-6.168L7.072,1.248a4.087,4.087,0,0,0-5.877,0C-.261,2.914-.53,5.786,1.2,7.416" transform="translate(147.377 46.618)"/>
          </g>
        </g>
      </g>
    </g>
    <g id="Group_24" data-name="Group 24" class="cls-30" transform="translate(253 25)">
      <path id="Triangle_2" data-name="Triangle 2" class="cls-31" d="M8.109,0l8.109,16.173H0Z" transform="matrix(0.914, 0.407, -0.407, 0.914, 19.942, 21.872)"/>
      <ellipse id="Oval_6" data-name="Oval 6" class="cls-31" cx="7.155" cy="7.135" rx="7.155" ry="7.135" transform="translate(124.967 39.005)"/>
      <path id="Path_8" data-name="Path 8" class="cls-32" d="M1.922,20.886C-8.362,8,26.737,22.9,10.78,9.327S32.258,12.81,22.151,0" transform="translate(74.408)"/>
      <path id="Triangle_2-2" data-name="Triangle 2" class="cls-31" d="M6.033,0l6.033,12.033H0Z" transform="translate(137.844 134.765) rotate(59)"/>
      <path id="Polygon" class="cls-31" d="M7.632,0,14.89,5.588l-2.772,9.041H3.146L.374,5.588Z" transform="matrix(0.966, -0.259, 0.259, 0.966, 54.973, 161.773)"/>
      <path id="Path_8-2" data-name="Path 8" class="cls-32" d="M-1.922,20.886C8.362,8-26.737,22.9-10.78,9.327S-32.258,12.81-22.151,0" transform="translate(23.91 132.238)"/>
    </g>
  </g>
</svg>
