<svg xmlns="http://www.w3.org/2000/svg" xmlns:xlink="http://www.w3.org/1999/xlink" viewBox="0 0 586 450">
  <defs>
    <style>
      .cls-1 {
        fill: #fff;
      }

      .cls-2, .cls-9 {
        fill: none;
      }

      .cls-3 {
        fill: #827e7e;
        font-family: Muli-Regular, Muli;
      }

      .cls-13, .cls-15, .cls-3, .cls-5 {
        font-size: 14px;
      }

      .cls-12, .cls-13, .cls-3, .cls-4, .cls-5 {
        letter-spacing: 0.03em;
      }

      .cls-4 {
        fill: #393838;
        font-family: Muli-ExtraBold, Muli;
        font-weight: 800;
      }

      .cls-12, .cls-4 {
        font-size: 16px;
      }

      .cls-13, .cls-5 {
        fill: #696767;
      }

      .cls-5, .cls-6, .cls-8 {
        font-family: Muli-SemiBold, Muli;
        font-weight: 600;
      }

      .cls-6, .cls-8 {
        fill: #5c5aa7;
        font-size: 12px;
      }

      .cls-7, .cls-8 {
        letter-spacing: 0.05em;
      }

      .cls-9 {
        stroke: #e7e4e4;
        stroke-linecap: square;
        stroke-miterlimit: 10;
      }

      .cls-10 {
        clip-path: url(#clip-path);
      }

      .cls-11 {
        fill: url(#pattern);
      }

      .cls-12 {
        fill: #0d0d0e;
        font-family: Roboto-Medium, Roboto;
        font-weight: 500;
      }

      .cls-13 {
        font-family: Muli-Bold, Muli;
        font-weight: 700;
      }

      .cls-14 {
        clip-path: url(#clip-path-2);
      }

      .cls-15 {
        fill: #4a4949;
        font-family: Roboto-Regular, Roboto;
        letter-spacing: 0.04em;
      }

      .cls-16 {
        fill: #6353d8;
      }

      .cls-17 {
        clip-path: url(#clip-path-3);
      }

      .cls-18 {
        fill: #eef;
      }

      .cls-19 {
        fill: #e4e4f9;
      }

      .cls-20 {
        fill: #7878ba;
      }

      .cls-21 {
        fill: #313444;
      }

      .cls-22 {
        filter: url(#actionable-message-rectangle_18_Copy_4);
      }

      .cls-23 {
        filter: url(#actionable-message-rectangle_5-2);
      }

      .cls-24 {
        filter: url(#actionable-message-rectangle_8-2);
      }

      .cls-25 {
        filter: url(#actionable-message-rectangle_5);
      }

      .cls-26 {
        filter: url(#actionable-message-rectangle_8);
      }
    </style>
    <filter id="actionable-message-rectangle_8" x="300" y="84" width="286" height="366" filterUnits="userSpaceOnUse">
      <feOffset dx="1" dy="5" input="SourceAlpha"/>
      <feGaussianBlur stdDeviation="7" result="blur"/>
      <feFlood flood-color="#848181" flood-opacity="0.502"/>
      <feComposite operator="in" in2="blur"/>
      <feComposite in="SourceGraphic"/>
    </filter>
    <clipPath id="clip-path">
      <path id="actionable-message-rectangle_7" data-name="actionable-message-rectangle 7" class="cls-1" d="M5,0H239c2.761,0,5,2.764,5,6.174V114.83H0V6.174C0,2.764,2.239,0,5,0Z"/>
    </clipPath>
    <pattern id="pattern" preserveAspectRatio="none" width="100%" height="100%" viewBox="0 0 490 224">
      <image width="490" height="224" xlink:href="Group-18-image.jpg"/>
    </pattern>
    <filter id="actionable-message-rectangle_5" x="317" y="127.01" width="77" height="49.426" filterUnits="userSpaceOnUse">
      <feOffset dx="3" dy="2" input="SourceAlpha"/>
      <feGaussianBlur stdDeviation="2" result="blur-2"/>
      <feFlood flood-opacity="0.169"/>
      <feComposite operator="in" in2="blur-2"/>
      <feComposite in="SourceGraphic"/>
    </filter>
    <filter id="actionable-message-rectangle_8-2" x="38" y="84" width="286" height="366" filterUnits="userSpaceOnUse">
      <feOffset dx="1" dy="5" input="SourceAlpha"/>
      <feGaussianBlur stdDeviation="7" result="blur-3"/>
      <feFlood flood-color="#848181" flood-opacity="0.502"/>
      <feComposite operator="in" in2="blur-3"/>
      <feComposite in="SourceGraphic"/>
    </filter>
    <clipPath id="clip-path-2">
      <path id="actionable-message-rectangle_7-2" data-name="actionable-message-rectangle 7" class="cls-1" d="M5,0H239c2.761,0,5,2.749,5,6.141V114.214H0V6.141C0,2.749,2.239,0,5,0Z"/>
    </clipPath>
    <filter id="actionable-message-rectangle_5-2" x="55" y="127.01" width="77" height="49.426" filterUnits="userSpaceOnUse">
      <feOffset dx="3" dy="2" input="SourceAlpha"/>
      <feGaussianBlur stdDeviation="2" result="blur-4"/>
      <feFlood flood-opacity="0.169"/>
      <feComposite operator="in" in2="blur-4"/>
      <feComposite in="SourceGraphic"/>
    </filter>
    <filter id="actionable-message-rectangle_18_Copy_4" x="38" y="0" width="250" height="106" filterUnits="userSpaceOnUse">
      <feOffset dx="1" dy="5" input="SourceAlpha"/>
      <feGaussianBlur stdDeviation="7" result="blur-5"/>
      <feFlood flood-color="#848181" flood-opacity="0.502"/>
      <feComposite operator="in" in2="blur-5"/>
      <feComposite in="SourceGraphic"/>
    </filter>
    <clipPath id="clip-path-3">
      <circle id="Ellipse_4" data-name="Ellipse 4" class="cls-2" cx="24.097" cy="24.097" r="24.097"/>
    </clipPath>
  </defs>
  <g id="Group_18" data-name="Group 18" transform="translate(-5218 -126)">
    <g id="Group_17" data-name="Group 17">
      <g id="Group_16" data-name="Group 16">
        <g id="Group_4" data-name="Group 4" transform="translate(5538 226)">
          <g class="cls-26" transform="matrix(1, 0, 0, 1, -320, -100)">
            <rect id="actionable-message-rectangle_8-3" data-name="actionable-message-rectangle 8" class="cls-1" width="244" height="324" rx="5" transform="translate(320 100)"/>
          </g>
          <text id="This_hotel_is_the_right_choice_for_visitors_who_are_searching_for_" data-name="This hotel is the right choice for 
visitors who are searching for…" class="cls-3" transform="translate(11 180.911)"><tspan x="0" y="0">This hotel is the right choice for </tspan><tspan x="0" y="17">visitors who are searching for…</tspan></text>
          <text id="Hotel_Taj" data-name="Hotel Taj" class="cls-4" transform="translate(11 136.931)"><tspan x="0" y="0">Hotel Taj</tspan></text>
          <text id="Koramangala_Bangalore_India" data-name="Koramangala, Bangalore India" class="cls-5" transform="translate(11 159.525)"><tspan x="0" y="0">Koramangala, Bangalore India</tspan></text>
          <text id="VIEW_DETAILS" data-name="VIEW DETAILS" class="cls-6" transform="translate(78 239.069)"><tspan class="cls-7" x="0" y="0">VIEW DETAIL</tspan><tspan y="0">S</tspan></text>
          <text id="BOOK_NOW" data-name="BOOK NOW" class="cls-6" transform="translate(87 274.634)"><tspan class="cls-7" x="0" y="0">BOOK NO</tspan><tspan y="0">W</tspan></text>
          <text id="READ_REVIEWS" data-name="READ REVIEWS" class="cls-8" transform="translate(77 310.198)"><tspan x="0" y="0">READ REVIEWS</tspan></text>
          <path id="Line_3_Copy_5" data-name="Line 3 Copy 5" class="cls-9" d="M.5,1.5h244" transform="translate(-0.5 215.342)"/>
          <path id="Line_3_Copy_4" data-name="Line 3 Copy 4" class="cls-9" d="M.5,1.5h244" transform="translate(-0.5 250.906)"/>
          <path id="Line_3_Copy_3" data-name="Line 3 Copy 3" class="cls-9" d="M.5,1.5h244" transform="translate(-0.5 286.47)"/>
        </g>
        <g id="Mask_Group_1" data-name="Mask Group 1" class="cls-10" transform="translate(5538 226)">
          <rect id="Group-18-image" class="cls-11" width="267" height="122" transform="translate(-11 -4)"/>
        </g>
        <g id="Group_3" data-name="Group 3" transform="translate(5538 257.01)">
          <g class="cls-25" transform="matrix(1, 0, 0, 1, -320, -131.01)">
            <path id="actionable-message-rectangle_5-3" data-name="actionable-message-rectangle 5" class="cls-1" d="M0,0H62a3.109,3.109,0,0,1,3,3.208v31.01a3.109,3.109,0,0,1-3,3.208H0Z" transform="translate(320 131.01)"/>
          </g>
          <text id="_4700" data-name="$4700" class="cls-12" transform="translate(9 24.624)"><tspan x="0" y="0">$4700</tspan></text>
        </g>
      </g>
      <g id="Group_6" data-name="Group 6" transform="translate(82 -14)">
        <g id="Group_5" data-name="Group 5" transform="translate(5194 240)">
          <g class="cls-24" transform="matrix(1, 0, 0, 1, -58, -100)">
            <rect id="actionable-message-rectangle_8-4" data-name="actionable-message-rectangle 8" class="cls-1" width="244" height="324" rx="5" transform="translate(58 100)"/>
          </g>
          <text id="This_large_room_with_hardwood_floors_features_a_sofa_city_vie_" data-name="This large room with hardwood 
floors features a sofa, city vie…" class="cls-3" transform="translate(10 180.911)"><tspan x="0" y="0">This large room with hardwood </tspan><tspan x="0" y="17">floors features a sofa, city view…</tspan></text>
          <text id="VIEW_DETAILS-2" data-name="VIEW DETAILS" class="cls-6" transform="translate(78 239.069)"><tspan class="cls-7" x="0" y="0">VIEW DETAIL</tspan><tspan y="0">S</tspan></text>
          <text id="Hotel_Oberoi" data-name="Hotel Oberoi" class="cls-4" transform="translate(10 136.931)"><tspan x="0" y="0">Hotel Oberoi</tspan></text>
          <text id="BOOK_NOW-2" data-name="BOOK NOW" class="cls-6" transform="translate(87 274.634)"><tspan class="cls-7" x="0" y="0">BOOK NO</tspan><tspan y="0">W</tspan></text>
          <text id="Bangalore_India" data-name="Bangalore India" class="cls-13" transform="translate(10 159.525)"><tspan x="0" y="0">Bangalore India</tspan></text>
          <text id="READ_REVIEWS-2" data-name="READ REVIEWS" class="cls-8" transform="translate(77 310.198)"><tspan x="0" y="0">READ REVIEWS</tspan></text>
          <path id="Line_3_Copy_5-2" data-name="Line 3 Copy 5" class="cls-9" d="M.5,1.5h244" transform="translate(-0.5 215.342)"/>
          <path id="Line_3_Copy_4-2" data-name="Line 3 Copy 4" class="cls-9" d="M.5,1.5h244" transform="translate(-0.5 250.906)"/>
          <path id="Line_3_Copy_3-2" data-name="Line 3 Copy 3" class="cls-9" d="M.5,1.5h244" transform="translate(-0.5 286.47)"/>
        </g>
        <g id="Mask_Group_1-2" data-name="Mask Group 1" class="cls-14" transform="translate(5194 240)">
          <image id="Group-18-image2" width="251" height="167" transform="translate(-4 -16)" xlink:href="Group-18-image2.jpg"/>
        </g>
        <g id="Group_2" data-name="Group 2" transform="translate(5194 271.01)">
          <g class="cls-23" transform="matrix(1, 0, 0, 1, -58, -131.01)">
            <path id="actionable-message-rectangle_5-4" data-name="actionable-message-rectangle 5" class="cls-1" d="M0,0H62a3.109,3.109,0,0,1,3,3.208v31.01a3.109,3.109,0,0,1-3,3.208H0Z" transform="translate(58 131.01)"/>
          </g>
          <text id="_5000" data-name="$5000" class="cls-12" transform="translate(9 24.624)"><tspan x="0" y="0">$5000</tspan></text>
        </g>
      </g>
    </g>
    <g id="Group_15" data-name="Group 15">
      <g class="cls-22" transform="matrix(1, 0, 0, 1, 5218, 126)">
        <rect id="actionable-message-rectangle_18_Copy_4-2" data-name="actionable-message-rectangle 18 Copy 4" class="cls-1" width="208" height="64" rx="30" transform="translate(58 16)"/>
      </g>
      <text id="Here_are_the_list_of_hotels_available_" data-name="Here are the list of hotels 
available…" class="cls-15" transform="translate(5293 170)"><tspan x="0" y="0">Here are the list of hotels </tspan><tspan x="0" y="18">available…</tspan></text>
      <g id="Bot_DP_1_" data-name="Bot DP (1)" transform="translate(5218 143.807)">
        <circle id="Ellipse_1" data-name="Ellipse 1" class="cls-16" cx="24.097" cy="24.097" r="24.097" transform="translate(0 0)"/>
        <g id="Group_14" data-name="Group 14" class="cls-17" transform="translate(0 0)">
          <path id="Path_1" data-name="Path 1" class="cls-18" d="M389.771,167.06h-6.4a3.33,3.33,0,0,1,6.4,0Z" transform="translate(-362.474 -154.54)"/>
          <path id="Path_2" data-name="Path 2" class="cls-18" d="M599.064,276.3v1.511a3.375,3.375,0,0,1-2.634,3.212,10.394,10.394,0,0,0,.725-3.812v-.316a10.389,10.389,0,0,0-.725-3.812A3.385,3.385,0,0,1,599.064,276.3Z" transform="translate(-557.465 -253.7)"/>
          <rect id="Rectangle_1" data-name="Rectangle 1" class="cls-18" width="0.698" height="4.247" transform="translate(23.748 6.6)"/>
          <path id="Path_3" data-name="Path 3" class="cls-19" d="M216.09,276.3v1.511a3.364,3.364,0,0,0,2.6,3.212,10.5,10.5,0,0,1-.715-3.812v-.316a10.5,10.5,0,0,1,.715-3.812A3.374,3.374,0,0,0,216.09,276.3Z" transform="translate(-209.496 -253.7)"/>
          <path id="Path_4" data-name="Path 4" class="cls-19" d="M376.938,452.623a8.728,8.728,0,0,1,3.491.728v-3.2H372.1v3.2a8.728,8.728,0,0,1,3.491-.728Z" transform="translate(-352.167 -415.631)"/>
          <path id="Path_5" data-name="Path 5" class="cls-19" d="M401.365,84.471a1.849,1.849,0,0,1,1.06.334,1.858,1.858,0,1,0-2.586,2.585,1.856,1.856,0,0,1,1.525-2.919Z" transform="translate(-376.804 -80.791)"/>
          <path id="Path_6" data-name="Path 6" class="cls-18" d="M407.734,90.84a1.857,1.857,0,1,0-1,1.648A1.849,1.849,0,0,0,407.734,90.84Z" transform="translate(-381.777 -85.766)"/>
          <path id="Path_7" data-name="Path 7" class="cls-19" d="M246.413,210.818h0a11.083,11.083,0,0,1-8.392-10.667v-.316a11.083,11.083,0,0,1,8.392-10.667h0a11.1,11.1,0,0,1,2.763-.348h-.8a11.1,11.1,0,0,0-2.763.348h0a11.082,11.082,0,0,0-8.393,10.667v.316a11.083,11.083,0,0,0,8.393,10.667h0a11.1,11.1,0,0,0,2.764.342h.8A11.117,11.117,0,0,1,246.413,210.818Z" transform="translate(-228.82 -176.645)"/>
          <path id="Path_8" data-name="Path 8" class="cls-19" d="M307.942,495.349v-8.094a9.073,9.073,0,0,1,5.632-8.339,9.18,9.18,0,0,1,3.538-.706h-.8a9.184,9.184,0,0,0-3.538.706,9.08,9.08,0,0,0-5.632,8.339v8.094a9.1,9.1,0,0,0,6.96,8.767,9.214,9.214,0,0,0,2.207.278h.8a9.214,9.214,0,0,1-2.207-.278A9.1,9.1,0,0,1,307.942,495.349Z" transform="translate(-292.761 -441.292)"/>
          <path id="Path_9" data-name="Path 9" class="cls-18" d="M276.55,203.98a10.877,10.877,0,0,0,.687-3.812v-.316a10.867,10.867,0,0,0-.687-3.812,11.113,11.113,0,0,0-10.377-7.2h-8.621a10.922,10.922,0,0,0-2.74.348h0a11.065,11.065,0,0,0-8.321,10.667v.316a11.065,11.065,0,0,0,8.321,10.667h0a10.937,10.937,0,0,0,2.742.342h8.62A11.1,11.1,0,0,0,276.55,203.98Z" transform="translate(-237.513 -176.663)"/>
          <path id="Path_10" data-name="Path 10" class="cls-18" d="M335,495.349v-8.094a9.073,9.073,0,0,0-5.478-8.3c-.026-.011-.05-.025-.076-.036a8.959,8.959,0,0,0-3.491-.706H325.4a8.954,8.954,0,0,0-3.491.706,9.078,9.078,0,0,0-5.558,8.339v8.094a9.077,9.077,0,0,0,6.867,8.767,8.975,8.975,0,0,0,2.178.278h.556A9.073,9.073,0,0,0,335,495.349Z" transform="translate(-301.184 -441.292)"/>
          <path id="Path_11" data-name="Path 11" class="cls-20" d="M308.889,255.858v.171a5.862,5.862,0,0,1-5.858,5.855H291.659a5.876,5.876,0,0,1-5.858-5.858v-.171A5.875,5.875,0,0,1,291.656,250h11.372a5.862,5.862,0,0,1,5.859,5.858Z" transform="translate(-273.246 -232.594)"/>
          <circle id="Ellipse_2" data-name="Ellipse 2" class="cls-21" cx="1.665" cy="1.665" r="1.665" transform="translate(17.029 21.22)"/>
          <circle id="Ellipse_3" data-name="Ellipse 3" class="cls-21" cx="1.665" cy="1.665" r="1.665" transform="translate(27.836 21.22)"/>
        </g>
      </g>
    </g>
  </g>
</svg>
