<svg xmlns="http://www.w3.org/2000/svg" viewBox="0 0 56 43"><defs><linearGradient id="a" y1=".133" x2=".968" y2=".963" gradientUnits="objectBoundingBox"><stop offset="0" stop-color="#9e0ffc"/><stop offset="1" stop-color="#5c5aa7"/></linearGradient></defs><path data-name="“" d="M44.439 43a11.282 11.282 0 0 1-4.939-1.075 11.777 11.777 0 0 1-3.988-3.225 14.515 14.515 0 0 1-2.634-5.142A24.385 24.385 0 0 1 32 26.732a29.455 29.455 0 0 1 1.829-10.392 31.026 31.026 0 0 1 4.72-8.493 25.734 25.734 0 0 1 6.22-5.733A11.516 11.516 0 0 1 50.732 0a4.921 4.921 0 0 1 3.694 1.326 4.91 4.91 0 0 1 1.281 3.548 4.869 4.869 0 0 1-2.854 4.658 19.18 19.18 0 0 0-6.073 4.909 13.637 13.637 0 0 0-2.488 6.988h.951a10.661 10.661 0 0 1 7.427 3.118A10.257 10.257 0 0 1 56 32.322a9.986 9.986 0 0 1-3.329 7.6A11.714 11.714 0 0 1 44.439 43zm-32 0a11.346 11.346 0 0 1-4.893-1.052 11.937 11.937 0 0 1-4-3.155A13.99 13.99 0 0 1 .887 33.7 24.352 24.352 0 0 1 0 26.821a29.562 29.562 0 0 1 3.11-13.339 29.288 29.288 0 0 1 7.61-9.851C13.706 1.222 16.4 0 18.732 0a4.865 4.865 0 0 1 3.658 1.366 4.886 4.886 0 0 1 1.317 3.524 4.977 4.977 0 0 1-2.853 4.674 19.963 19.963 0 0 0-6.147 4.89 12.3 12.3 0 0 0-2.561 7.046h1.024a10.723 10.723 0 0 1 7.5 3.128A10.306 10.306 0 0 1 24 32.43a9.778 9.778 0 0 1-3.33 7.586A11.931 11.931 0 0 1 12.439 43z" opacity=".1" fill="url(#a)"/></svg>