<svg id="Group_61" data-name="Group 61" xmlns="http://www.w3.org/2000/svg" viewBox="0 0 374 332"><defs><style>.cls-1{fill:#fff}.cls-2{fill:#85c808}.cls-5{fill:#478aff}</style><filter id="Rectangle_43-2" x="93" y="110" width="223" height="222" filterUnits="userSpaceOnUse"><feOffset dx="15" dy="15"/><feGaussianBlur stdDeviation="15" result="blur"/><feFlood flood-color="#cacaca" flood-opacity=".4"/><feComposite operator="in" in2="blur"/><feComposite in="SourceGraphic"/></filter></defs><g id="Group_57" transform="translate(188 21)"><g id="Group"><rect id="Rectangle_41-2" class="cls-1" width="103" height="103" rx="10"/></g><g id="android" transform="translate(18 12)"><path id="Path_30" class="cls-2" d="M41.2 0H1.6A1.6 1.6 0 0 0 0 1.6v33.2a1.6 1.6 0 0 0 1.6 1.6h7.1v11.2a4.7 4.7 0 0 0 4.7 4.7 4.7 4.7 0 0 0 4.7-4.7V36.5h6.6v11.2a4.7 4.7 0 0 0 4.7 4.7 4.7 4.7 0 0 0 4.7-4.7V36.5h7.2a1.6 1.6 0 0 0 1.6-1.6V1.6A1.6 1.6 0 0 0 41.3 0z" transform="translate(12.1 26.2)"/><path id="Path_31" class="cls-2" d="M4.7 0A4.7 4.7 0 0 0 0 4.7v19.1a4.7 4.7 0 0 0 4.7 4.7 4.7 4.7 0 0 0 4.7-4.7V4.7A4.7 4.7 0 0 0 4.7 0z" transform="translate(.7 26.2)"/><path id="Path_32" class="cls-2" d="M4.7 0A4.7 4.7 0 0 0 0 4.7v19.1a4.7 4.7 0 0 0 4.7 4.7 4.7 4.7 0 0 0 4.7-4.7V4.7A4.7 4.7 0 0 0 4.7 0z" transform="translate(56.9 26.2)"/><path id="Path_33" class="cls-2" d="M40.564 23.45H1.238a1.608 1.608 0 0 1-1.2-1.9 21.51 21.51 0 0 1 10.4-14.3l-3.3-6A.85.85 0 0 1 7.886 0h.03a.851.851 0 0 1 .721.45l3.3 6a21.495 21.495 0 0 1 18.1 0l3.4-6a.851.851 0 0 1 .722-.45h.03a.85.85 0 0 1 .749 1.25l-3.3 6a21.5 21.5 0 0 1 10.5 14.3 1.6 1.6 0 0 1-1.573 1.9zm-9.626-10.7a1.8 1.8 0 1 0 1.8 1.8 1.8 1.8 0 0 0-1.8-1.8zm-19.6 0a1.8 1.8 0 1 0 1.8 1.8 1.8 1.8 0 0 0-1.801-1.8z" transform="translate(12.363 .45)"/></g></g><g id="Group_58" transform="translate(42)"><g id="Group-2" data-name="Group"><rect id="Rectangle_42-2" class="cls-1" width="124" height="124" rx="10"/></g><g id="apple" transform="translate(30 23)"><path id="Path_29" d="M20.308 78.006c-2.221 0-4.4-1.054-6.66-3.222A45.023 45.023 0 0 1 8.282 68.1a44.312 44.312 0 0 1-4.62-8.5A49.2 49.2 0 0 1 .644 49.35C-.342 43.783-.685 35.7 3.281 28.8a19.1 19.1 0 0 1 16.1-9.8h.215a21.592 21.592 0 0 1 7.866 2.014 14.655 14.655 0 0 0 4.82 1.388 15.22 15.22 0 0 0 4.707-1.379c2.578-1.016 5.786-2.28 9.077-2.28.411 0 .82.02 1.216.059a18.2 18.2 0 0 1 14.2 7.7 3.068 3.068 0 0 1-.253.183c-5.312 3.67-8.205 8.9-8.147 14.717a17.175 17.175 0 0 0 10.5 15.8 43.071 43.071 0 0 1-5.4 11.1 37.152 37.152 0 0 1-5.2 6.562 10 10 0 0 1-6.7 3.038h-.237a13.405 13.405 0 0 1-5.777-1.456 15.7 15.7 0 0 0-6.886-1.646 16.154 16.154 0 0 0-7.088 1.675A14.762 14.762 0 0 1 20.582 78c-.092 0-.182.006-.274.006zm12.071-59.982c-.233 0-.468-.008-.7-.024a13.9 13.9 0 0 1 .887-6.65 18.5 18.5 0 0 1 3.215-5.45 17.436 17.436 0 0 1 11.5-5.9 17.116 17.116 0 0 1-.78 6.594 17.116 17.116 0 0 1-3.22 5.807 16.3 16.3 0 0 1-4.846 3.984 12.917 12.917 0 0 1-6.056 1.639z" transform="translate(.718)" fill="#aaa"/></g></g><g id="Group_59" transform="translate(123 140)"><g transform="translate(-123 -140)" filter="url(#Rectangle_43-2)" id="Group-3" data-name="Group"><rect id="Rectangle_43-2-2" data-name="Rectangle_43-2" class="cls-1" width="133" height="132" rx="10" transform="translate(123 140)"/></g><path id="PhoneGap-Symbol-Black2" d="M38.5 78.288a11.26 11.26 0 0 1-3.974-.925 7.133 7.133 0 0 1-2.776-2.112 6.805 6.805 0 0 1-1.35-4.063c-.2-7.068-1.984-63.822-2-64.275v-.024a7.685 7.685 0 0 1 1.714-5.172A5.912 5.912 0 0 1 34.631 0 11.318 11.318 0 0 1 36 .088c8.141 1.005 26.421 3.774 26.6 3.8a7.7 7.7 0 0 1 5.6 7.4c.3 6.5 3.47 54.46 3.5 54.9a10.765 10.765 0 0 1-.737 3.275 7.3 7.3 0 0 1-1.583 2.462 5.7 5.7 0 0 1-2.98 1.562l-27.9 4.8zm.353-64.231a4.92 4.92 0 0 0-3.767 1.409 5.66 5.66 0 0 0-1.286 3.823l.008.215c.2 5.174 1.2 31.227 1.292 36.085.159 5.808 3.96 6.435 5.586 6.435a5.075 5.075 0 0 0 .608-.034l20.7-2.1h-.1c3-.516 4.278-2.012 4.825-3.175a4.97 4.97 0 0 0 .475-2.423c-.016-.265-1.7-28.112-1.9-33a5.822 5.822 0 0 0-4.2-5.6l-21.5-1.6a7.84 7.84 0 0 0-.738-.035zM20.68 70.388a10.257 10.257 0 0 1-3.631-.735 5.162 5.162 0 0 1-3.449-4.865c-.2-5.645-.992-51.24-1-51.7a5.779 5.779 0 0 1 1.31-3.952 5.306 5.306 0 0 1 4.084-1.518 10.861 10.861 0 0 1 1.209.071l8.3.9c0 2.121.112 6.083.3 10.6l-6.2-.5a9.283 9.283 0 0 0-.494-.014 4.527 4.527 0 0 0-3.494 1.278 4.4 4.4 0 0 0-1.015 3.036c0 .25.5 25.13.6 29.5.079 4.725 3.316 5.235 4.7 5.235a4.417 4.417 0 0 0 .6-.035l6.5-.6c.091 4.752.278 9.312.5 12.2l-8.8 1.1zm20.623-9.2h-.5a4.3 4.3 0 0 1-2.8-.875 5.116 5.116 0 0 1-1.6-3.725l4.6-.5c2.583-.413 3.7-1.642 4.175-2.6a4.033 4.033 0 0 0 .425-2c-.01-.222-1-22.467-1.2-26.5a4.92 4.92 0 0 0-3.7-4.6l-5.7-.5v-.5a4.4 4.4 0 0 1 1-3 3.879 3.879 0 0 1 2.725-1.11c.087 0 .18 0 .274.01h.6l7.6.6c.221 5.1 1.605 36.307 2 44.3l-8 .8.1.2zM6 60.889a7.836 7.836 0 0 1-2.524-.5A3.862 3.862 0 0 1 .8 56.888C.636 53.559.191 30.469.007 20.7v-.207a4.067 4.067 0 0 1 .955-2.75 3.942 3.942 0 0 1 3.014-1.107 8.125 8.125 0 0 1 .931.057l6.6.6v.047c0 1.769 0 4.442.1 7.354l-4.9-.3a6.445 6.445 0 0 0-.5-.019 3.235 3.235 0 0 0-2.5.911A3.076 3.076 0 0 0 3 27.388c0 .1.4 17.767.5 20.8a3.4 3.4 0 0 0 3.381 3.757 3.354 3.354 0 0 0 .619-.057l4.6-.392.013.424.032 1.067v.155c.077 2.583.15 5.022.15 7.045l-6.3.7zm16.4-4.3H22a3.6 3.6 0 0 1-2.45-.787 4.528 4.528 0 0 1-1.25-3.413v-1.3l2.8-.2a3.815 3.815 0 0 0 3.088-1.975 3.132 3.132 0 0 0 .312-1.525c0-.163 0-16.347-.1-19.2a3.522 3.522 0 0 0-2.7-3.2l-3.9-.2c-.09-1.189-.1-1.865-.1-2.1a2.9 2.9 0 0 1 2.892-3.128 3.081 3.081 0 0 1 .409.029h.5l4.4.4a3.99 3.99 0 0 1 .6 2c.173 3.2.653 26 .8 32.917v.182a4.475 4.475 0 0 1-.2 1l-4.7.5z" transform="translate(30.797 27.511)" fill="#010101"/></g><g id="Group_60" transform="translate(0 140)"><g id="Group-4" data-name="Group"><rect id="Rectangle_44-2" class="cls-1" width="104" height="104" rx="10"/></g><g id="Group_1" transform="translate(19 19)"><path id="Path_1" class="cls-5" d="M15.1 0a15.1 15.1 0 1 0 15.1 15.1A15.1 15.1 0 0 0 15.1 0z" transform="translate(18.4 17.9)"/><circle id="Ellipse_1" class="cls-5" cx="6.9" cy="6.9" r="6.9" transform="translate(48.2 5.5)"/><path id="Path_2" class="cls-5" d="M63.089 19.2l-.3-.6-.4.5a10.3 10.3 0 0 1-4.1 2.9l-.4.2.2.4a27 27 0 1 1-13.4-14l.4.2.2-.4a10.3 10.3 0 0 1 3.1-4l.5-.4-.6-.3a32.7 32.7 0 0 0-15.2-3.7 33.1 33.1 0 1 0 30.1 19.3z" transform="translate(.511 .1)"/></g></g><g id="Group_56" transform="translate(276 140)"><g id="Group-5" data-name="Group"><rect id="Rectangle_40-2" class="cls-1" width="98" height="98" rx="10"/></g><path id="earth-globe" d="M30.7 61.4A30.708 30.708 0 0 1 18.75 2.413a30.708 30.708 0 0 1 23.9 56.574A30.509 30.509 0 0 1 30.7 61.4zM17.923 30.951A9.7 9.7 0 0 1 22.3 32.3a12.917 12.917 0 0 1 2.5 1.885 10.561 10.561 0 0 0 4.4 2.715 1.679 1.679 0 0 1 1.33.859A2.91 2.91 0 0 1 30 40.3a7.065 7.065 0 0 0-.8 2.7 3.914 3.914 0 0 1-1.5 2.7 61.09 61.09 0 0 0-5 8.4 2.39 2.39 0 0 0 0 2.3 27.211 27.211 0 0 0 7.665 1.1h.335l-.2-.4h.283A25.54 25.54 0 0 0 49.7 48.7a5.283 5.283 0 0 1-1.1-1.5c-.129-.27-.267-.546-.4-.812-1.018-2.042-2.071-4.152-1.1-6.887a2.5 2.5 0 0 0-.4-2.3 1.142 1.142 0 0 0-.179-.472 1.405 1.405 0 0 1-.221-.629c-.892-2.3-1.3-2.883-2.661-2.883a16.574 16.574 0 0 0-1.939.183 4.745 4.745 0 0 1-.605.04 4.029 4.029 0 0 1-3.225-1.575A5.625 5.625 0 0 1 36.7 28.4c0-2.12.99-3.5 2.136-5.109.315-.441.642-.9.964-1.392a.931.931 0 0 1 .593-.142c.269-.011.522-.021.612-.193.1-.195-.026-.565-.405-1.165a2.289 2.289 0 0 1-.438-2.117c.28-.63 1.066-1.062 2.338-1.283a5.756 5.756 0 0 1-.2-.929c-.143-.911-.277-1.771-1.7-1.771 0-.692.148-2.3 1.5-2.3a1.207 1.207 0 0 1 1.219.786 1.813 1.813 0 0 0 .281.415 1.792 1.792 0 0 0 1.087.566.563.563 0 0 0 .413-.166.909.909 0 0 1 .453-.194c.181-.042.351-.081.405-.22.071-.184-.074-.529-.457-1.087a1.682 1.682 0 0 1 .8-2.7.523.523 0 0 0 .4-.2.522.522 0 0 1 .4-.2 31.112 31.112 0 0 0-6.9-3.8 2.229 2.229 0 0 1-.436.327c-.212.131-.364.225-.364.473a6.494 6.494 0 0 1-3.8 2.7c-1.046.38-2.994 1.087-3.4 1.9a1.051 1.051 0 0 1-.971.663A2.137 2.137 0 0 1 30.3 11h-.1a1.4 1.4 0 0 1-.7-1.9 2.641 2.641 0 0 0 .195-2.3A2.754 2.754 0 0 0 27.6 5.7a23.115 23.115 0 0 1 6.1-1.9h-3.356A25.483 25.483 0 0 0 15.7 8.4a12.756 12.756 0 0 0 5.8-1.5 4.866 4.866 0 0 1 1.965-.412c.111 0 .223 0 .334.011a3.258 3.258 0 0 1 3.1 2.3c.39 1.171-1.126 1.873-2.3 2.3a.394.394 0 0 0-.283.118.4.4 0 0 0-.117.283c.811.216 1.379 1.288 1.712 2.15a8.576 8.576 0 0 1 .589 2.45c0 .589-.222.914-.624.914a1.236 1.236 0 0 1-.476-.114 3.421 3.421 0 0 1-.946-.706c-.231-.22-.413-.393-.553-.393a33.523 33.523 0 0 0-3.4 2.7 13.113 13.113 0 0 0-5.8 6.9 2.344 2.344 0 0 0-2.385-1.712 5.51 5.51 0 0 0-1.416.211 3 3 0 0 0-1.5 1.5c0 .181-.015.373-.031.577-.054.7-.11 1.414.431 1.724a1.1 1.1 0 0 0 .545.166 1.443 1.443 0 0 0 .955-.567 1.391 1.391 0 0 1 .983-.4h.117a3.406 3.406 0 0 0 .786 2.52 3.683 3.683 0 0 1 .714 1.68c0 .7 0 1.082.361 1.082A4.125 4.125 0 0 0 15.8 31.5a4.178 4.178 0 0 1 2.123-.549zM4.3 25.7a23.685 23.685 0 0 0-.4 5 27.67 27.67 0 0 0 16 24.9 21.816 21.816 0 0 1-1.5-8.4c-.046-.264-.086-.512-.12-.719A6.913 6.913 0 0 0 16.1 41.8a9.234 9.234 0 0 1-2.325-3.2 4.2 4.2 0 0 1 .824-4.1l.054-.108a2.051 2.051 0 0 0 .375-1.354.774.774 0 0 0-.428-.438 7.992 7.992 0 0 1-3.038-1.8l-.007-.005a7.4 7.4 0 0 0-3.855-2 2.1 2.1 0 0 1-1.9-1.9 1.3 1.3 0 0 0-.4-.8 1.14 1.14 0 0 1-.47-.177 1.418 1.418 0 0 0-.63-.218zm46.072-5.3a9.17 9.17 0 0 0-3.272.6c.919 1.09 2.833 1.48 4.318 1.48 1.6 0 2.895-.413 3.382-1.079a5.581 5.581 0 0 1-2.093-.547H52.7a5.6 5.6 0 0 0-2.1-.554v.1h-.228z" transform="translate(18.3 18.3)" fill="#5ca4ff"/></g></svg>