<svg id="Layer_1" data-name="Layer 1" xmlns="http://www.w3.org/2000/svg" xmlns:xlink="http://www.w3.org/1999/xlink" viewBox="0 0 344.4 310">
            
            <path class="cls-1" fill="#5C5AA7" d="M348.5,302.2v-181A118.3,118.3,0,0,0,230.2,2.9H122.5a118.4,118.4,0,1,0,0,236.7H239s9.5.6,15.2,2.6,11.5,6.8,11.5,6.8l72,59.3s6.5,5.6,8.9,4.5S348.5,302.2,348.5,302.2Z" transform="translate(-4.1 -2.9)"/>
            <path id="first-circle" class="cls-2" fill="#FFFFFF" d="M125.8,145.3c0,7.9-6.9,14.3-15.4,14.3S95,153.2,95,145.3V94.5c0-7.9,6.9-14.3,15.4-14.3s15.4,6.4,15.4,14.3Z" transform="translate(-4.1 -2.9)"/>

            <animate xlink:href="#first-circle"
                     attributeName="d"
                     dur="1.5s"
                     
                     repeatCount="indefinite"
                     values="M125.8,145.3c0,7.9-6.9,14.3-15.4,14.3S95,153.2,95,145.3V94.5c0-7.9,6.9-14.3,15.4-14.3s15.4,6.4,15.4,14.3Z;
                    
                     M125.8,145.3c0,7.9-6.9,14.3-15.4,14.3S95,153.2,95,145.3v.2c0-7.9,6.9-14.3,15.4-14.3s15.4,6.4,15.4,14.3Z;
                     
                     M125.8,95.3c0,7.9-6.9,14.3-15.4,14.3S95,103.2,95,95.3v-.8c0-7.9,6.9-14.3,15.4-14.3s15.4,6.4,15.4,14.3Z;

                     M125.8,145.3c0,7.9-6.9,14.3-15.4,14.3S95,153.2,95,145.3V94.5c0-7.9,6.9-14.3,15.4-14.3s15.4,6.4,15.4,14.3Z;"
                     
                     keySplines=".42 0 1 1;
                     0 0 .59 1;
                     .42 0 1 1;
                     0 0 .59 1;
                     .42 0 1 1;
                     0 0 .59 1;
                     .42 0 1 1;
                     0 0 .59 1;"
                       
                       
                     
            fill="freeze"
                     id="circ-anim">
                    </animate>


            <path id="second-circle" class="cls-2" fill="#FFFFFF" d="M191.7,169.3c0,7.9-6.9,14.3-15.4,14.3s-15.4-6.4-15.4-14.3V70.5c0-7.9,6.9-14.3,15.4-14.3s15.4,6.4,15.4,14.3Z" transform="translate(-4.1 -2.9)"/>

            <animate xlink:href="#second-circle"
            attributeName="d"
            dur="1.5s"
            
            repeatCount="indefinite"
            values="M191.7,169.3c0,7.9-6.9,14.3-15.4,14.3s-15.4-6.4-15.4-14.3V70.5c0-7.9,6.9-14.3,15.4-14.3s15.4,6.4,15.4,14.3Z;
           
            M191.7,169.3c0,7.9-6.9,14.3-15.4,14.3s-15.4-6.4-15.4-14.3v-.8c0-7.9,6.9-14.3,15.4-14.3s15.4,6.4,15.4,14.3Z;
            
            M191.7,72.3c0,7.9-6.9,14.3-15.4,14.3s-15.4-6.4-15.4-14.3V70.5c0-7.9,6.9-14.3,15.4-14.3s15.4,6.4,15.4,14.3Z;

            M191.7,169.3c0,7.9-6.9,14.3-15.4,14.3s-15.4-6.4-15.4-14.3V70.5c0-7.9,6.9-14.3,15.4-14.3s15.4,6.4,15.4,14.3Z;"
            
            keySplines=".42 0 1 1;
            0 0 .59 1;
            .42 0 1 1;
            0 0 .59 1;
            .42 0 1 1;
            0 0 .59 1;
            .42 0 1 1;
            0 0 .59 1;"
              
            
            fill="freeze"
            id="circ-anim">
           </animate>


            <path id="third-circle" class="cls-2" fill="#FFFFFF" d="M257.6,145.3c0,7.9-6.9,14.3-15.4,14.3s-15.4-6.4-15.4-14.3V94.5c0-7.9,6.9-14.3,15.4-14.3s15.4,6.4,15.4,14.3Z" transform="translate(-4.1 -2.9)"/>

            <animate xlink:href="#third-circle"
            attributeName="d"
            dur="1.5s"
            
            repeatCount="indefinite"
            values="M257.6,145.3c0,7.9-6.9,14.3-15.4,14.3s-15.4-6.4-15.4-14.3V94.5c0-7.9,6.9-14.3,15.4-14.3s15.4,6.4,15.4,14.3Z;
           
            M257.6,145.3c0,7.9-6.9,14.3-15.4,14.3s-15.4-6.4-15.4-14.3v.2c0-7.9,6.9-14.3,15.4-14.3s15.4,6.4,15.4,14.3Z;
            
            M257.6,95.3c0,7.9-6.9,14.3-15.4,14.3s-15.4-6.4-15.4-14.3v-.8c0-7.9,6.9-14.3,15.4-14.3s15.4,6.4,15.4,14.3Z;

            M257.6,145.3c0,7.9-6.9,14.3-15.4,14.3s-15.4-6.4-15.4-14.3V94.5c0-7.9,6.9-14.3,15.4-14.3s15.4,6.4,15.4,14.3Z;"
            
            keySplines=".42 0 1 1;
            0 0 .59 1;
            .42 0 1 1;
            0 0 .59 1;
            .42 0 1 1;
            0 0 .59 1;
            .42 0 1 1;
            0 0 .59 1;"
             
            
            fill="freeze"
            id="circ-anim">
           </animate>

          </svg>
          