<svg xmlns="http://www.w3.org/2000/svg" xmlns:xlink="http://www.w3.org/1999/xlink" data-name="Layer 1" viewBox="0 0 352.7 316.7">
  <path fill="#5C5AA7" d="M346.4 299.3v-181A118.3 118.3 0 0 0 228.1 0H120.4a118.4 118.4 0 1 0 0 236.7h116.5s9.5.6 15.2 2.6 11.5 6.8 11.5 6.8l72 59.3s6.5 5.6 8.9 4.5 1.9-10.6 1.9-10.6z" class="cls-1"/>
  <path id="a" fill="#FFF" d="M125.8 145.3c0 7.9-6.9 14.3-15.4 14.3S95 153.2 95 145.3V94.5c0-7.9 6.9-14.3 15.4-14.3s15.4 6.4 15.4 14.3z" class="cls-2" transform="translate(-4.1 -2.9)"/>
  <animate fill="freeze" attributeName="d" dur="1.5s" keySplines=".42 0 1 1; 0 0 .59 1; .42 0 1 1; 0 0 .59 1; .42 0 1 1; 0 0 .59 1; .42 0 1 1; 0 0 .59 1;" repeatCount="indefinite" values="M125.8,145.3c0,7.9-6.9,14.3-15.4,14.3S95,153.2,95,145.3V94.5c0-7.9,6.9-14.3,15.4-14.3s15.4,6.4,15.4,14.3Z; M125.8,145.3c0,7.9-6.9,14.3-15.4,14.3S95,153.2,95,145.3v.2c0-7.9,6.9-14.3,15.4-14.3s15.4,6.4,15.4,14.3Z; M125.8,95.3c0,7.9-6.9,14.3-15.4,14.3S95,103.2,95,95.3v-.8c0-7.9,6.9-14.3,15.4-14.3s15.4,6.4,15.4,14.3Z; M125.8,145.3c0,7.9-6.9,14.3-15.4,14.3S95,153.2,95,145.3V94.5c0-7.9,6.9-14.3,15.4-14.3s15.4,6.4,15.4,14.3Z;" xlink:href="#a"/>
  <path id="b" fill="#FFF" d="M191.7 169.3c0 7.9-6.9 14.3-15.4 14.3s-15.4-6.4-15.4-14.3V70.5c0-7.9 6.9-14.3 15.4-14.3s15.4 6.4 15.4 14.3z" class="cls-2" transform="translate(-4.1 -2.9)"/>
  <animate fill="freeze" attributeName="d" dur="1.5s" keySplines=".42 0 1 1; 0 0 .59 1; .42 0 1 1; 0 0 .59 1; .42 0 1 1; 0 0 .59 1; .42 0 1 1; 0 0 .59 1;" repeatCount="indefinite" values="M191.7,169.3c0,7.9-6.9,14.3-15.4,14.3s-15.4-6.4-15.4-14.3V70.5c0-7.9,6.9-14.3,15.4-14.3s15.4,6.4,15.4,14.3Z; M191.7,169.3c0,7.9-6.9,14.3-15.4,14.3s-15.4-6.4-15.4-14.3v-.8c0-7.9,6.9-14.3,15.4-14.3s15.4,6.4,15.4,14.3Z; M191.7,72.3c0,7.9-6.9,14.3-15.4,14.3s-15.4-6.4-15.4-14.3V70.5c0-7.9,6.9-14.3,15.4-14.3s15.4,6.4,15.4,14.3Z; M191.7,169.3c0,7.9-6.9,14.3-15.4,14.3s-15.4-6.4-15.4-14.3V70.5c0-7.9,6.9-14.3,15.4-14.3s15.4,6.4,15.4,14.3Z;" xlink:href="#b"/>
  <path id="c" fill="#FFF" d="M257.6 145.3c0 7.9-6.9 14.3-15.4 14.3s-15.4-6.4-15.4-14.3V94.5c0-7.9 6.9-14.3 15.4-14.3s15.4 6.4 15.4 14.3z" class="cls-2" transform="translate(-4.1 -2.9)"/>
  <animate fill="freeze" attributeName="d" dur="1.5s" keySplines=".42 0 1 1; 0 0 .59 1; .42 0 1 1; 0 0 .59 1; .42 0 1 1; 0 0 .59 1; .42 0 1 1; 0 0 .59 1;" repeatCount="indefinite" values="M257.6,145.3c0,7.9-6.9,14.3-15.4,14.3s-15.4-6.4-15.4-14.3V94.5c0-7.9,6.9-14.3,15.4-14.3s15.4,6.4,15.4,14.3Z; M257.6,145.3c0,7.9-6.9,14.3-15.4,14.3s-15.4-6.4-15.4-14.3v.2c0-7.9,6.9-14.3,15.4-14.3s15.4,6.4,15.4,14.3Z; M257.6,95.3c0,7.9-6.9,14.3-15.4,14.3s-15.4-6.4-15.4-14.3v-.8c0-7.9,6.9-14.3,15.4-14.3s15.4,6.4,15.4,14.3Z; M257.6,145.3c0,7.9-6.9,14.3-15.4,14.3s-15.4-6.4-15.4-14.3V94.5c0-7.9,6.9-14.3,15.4-14.3s15.4,6.4,15.4,14.3Z;" xlink:href="#c"/>
</svg>
