<svg xmlns="http://www.w3.org/2000/svg" viewBox="0 0 479.64994 465.41572">
  <defs>
    <style>
      .cls-1 {
        fill: none;
        stroke: #000;
        stroke-miterlimit: 10;
        stroke-width: 0.80166px;
      }

      .cls-2 {
        fill: #007fff;
      }

      .cls-3 {
        fill: #fff;
      }
    </style>
  </defs>
  <title>Asset 1Kommunicate-logo</title>
  <g id="Layer_2" data-name="Layer 2">
    <g id="Layer_1-2" data-name="Layer 1">
      <g>
        <line class="cls-1" x1="239.39363" y1="201.00438" x2="239.39363" y2="193.6716"/>
        <g>
          <path class="cls-2" d="M239.82479,60.38758h.00035A176.84917,176.84917,0,0,1,416.67432,237.23675v.00035A176.84917,176.84917,0,0,1,239.82515,414.08628H67.289a4.3134,4.3134,0,0,1-4.3134-4.3134V237.23675A176.84917,176.84917,0,0,1,239.82479,60.38758Z"/>
          <circle class="cls-3" cx="140.6168" cy="237.23693" r="25.01771"/>
          <circle class="cls-3" cx="238.96229" cy="237.23693" r="25.01771"/>
          <circle class="cls-3" cx="337.30778" cy="237.23693" r="25.01771"/>
        </g>
        <g>
          <g>
            <path class="cls-3" d="M464.1217,283.3903v.43134A176.84758,176.84758,0,0,1,287.27236,460.671H286.841V448.16213h.43134A164.34077,164.34077,0,0,0,451.61285,283.82164v-.43134Z"/>
            <rect class="cls-3" x="254.92187" y="442.12337" width="42.27131" height="23.29235" rx="10.35216" ry="10.35216"/>
          </g>
          <path class="cls-3" d="M15.52824,189.78954H40.54595a4.3134,4.3134,0,0,1,4.3134,4.3134v86.268a4.3134,4.3134,0,0,1-4.3134,4.3134H15.52824A15.52824,15.52824,0,0,1,0,269.15608v-63.8383A15.52824,15.52824,0,0,1,15.52824,189.78954Z"/>
          <path class="cls-3" d="M450.31883,189.78954h25.01771a4.3134,4.3134,0,0,1,4.3134,4.3134v86.268a4.3134,4.3134,0,0,1-4.3134,4.3134H450.31883a15.52824,15.52824,0,0,1-15.52824-15.52824v-63.8383a15.52824,15.52824,0,0,1,15.52824-15.52824Z" transform="translate(914.44053 474.47386) rotate(-180)"/>
          <path class="cls-3" d="M464.1217,224.29673H448.59347c0-115.29717-93.47133-208.7685-208.7685-208.7685s-208.7685,93.47133-208.7685,208.7685H15.52824C15.52824,100.42453,115.95271,0,239.825,0S464.1217,100.42453,464.1217,224.29673Z"/>
        </g>
      </g>
    </g>
  </g>
</svg>
