<svg version="1.1" id="Layer_1" xmlns="http://www.w3.org/2000/svg" xmlns:xlink="http://www.w3.org/1999/xlink" x="0px" y="0px"
	 viewBox="0 0 841.7 841.7" style="enable-background:new 0 0 841.7 841.7;" xml:space="preserve">
<style type="text/css">
	
		.km-new-logo-des0{opacity:0.9;fill:url(#km-new-logo-des-grad1);stroke:#353342;stroke-width:16;stroke-linecap:round;stroke-linejoin:round;stroke-miterlimit:10;}
	.km-new-logo-des1{fill:#FFFFFF;stroke:#353342;stroke-width:14;stroke-linecap:round;stroke-miterlimit:10;}
	.km-new-logo-des2{fill:#353342;}
	.km-new-logo-des3{fill:#FFFFFF;stroke:#353342;stroke-width:8;stroke-linecap:round;stroke-miterlimit:10;}
	.km-new-logo-des4{fill:#D13351;}
	.km-new-logo-des5{fill:none;stroke:#353342;stroke-width:16;stroke-linecap:round;stroke-miterlimit:10;}
	.km-new-logo-des6{opacity:0.6;}
	.km-new-logo-des7{fill:#FFFFFF;}
	.km-new-logo-des8{fill:none;stroke:#353342;stroke-width:16;stroke-linejoin:round;stroke-miterlimit:10;}
</style>
<linearGradient id="km-new-logo-des-grad1" gradientUnits="userSpaceOnUse" x1="418.2114" y1="675.1191" x2="418.2114" y2="165.6611">
	<stop  offset="0" style="stop-color:#00A79D"/>
	<stop  offset="0.3555" style="stop-color:#7269B0"/>
	<stop  offset="0.3645" style="stop-color:#7869AF"/>
	<stop  offset="0.4383" style="stop-color:#A165AA"/>
	<stop  offset="0.5076" style="stop-color:#C060A5"/>
	<stop  offset="0.5704" style="stop-color:#D65BA2"/>
	<stop  offset="0.6245" style="stop-color:#E358A0"/>
	<stop  offset="0.6638" style="stop-color:#E8569F"/>
	<stop  offset="0.7062" style="stop-color:#EB7797"/>
	<stop  offset="0.7632" style="stop-color:#EE9789"/>
	<stop  offset="0.8188" style="stop-color:#F2B177"/>
	<stop  offset="0.8715" style="stop-color:#F5C562"/>
	<stop  offset="0.9207" style="stop-color:#F7D34B"/>
	<stop  offset="0.9649" style="stop-color:#F9DB39"/>
	<stop  offset="1" style="stop-color:#F9DE31"/>
</linearGradient>
<path class="km-new-logo-des0" d="M605.4,459.2c0,0,18.4-34.8,20.3-50.7c1.5-12.5-5.9-65.1-5.9-65.1c0-98.1-89.9-177.7-200.8-177.7
	c-110.9,0-200.8,79.6-200.8,177.7l-7.6,63.8l23.9,50.1c4.2,96.4,84.5,168.3,184.8,168.3c19,0,37.3-2.9,54.6-8.3l83.7,57.9
	l-20.9-92.6C575.9,549.2,598.2,523.6,605.4,459.2z"/>
<circle class="km-new-logo-des1" cx="286.5" cy="419.1" r="38.7"/>
<path class="km-new-logo-des2" d="M296.9,419c-7.2,0-13-5.7-13-12.7c0-2.8,0.9-5.3,2.4-7.4c-11.1,0-20.1,9.1-20.1,20.2c0,11.2,9.1,20.2,20.2,20.2
	c11.2,0,20.2-9.1,20.2-20.2c0-1.4-0.1-2.7-0.4-4C303.9,417.5,300.6,419,296.9,419z"/>
<circle class="km-new-logo-des1" cx="549.1" cy="419.1" r="38.7"/>
<path class="km-new-logo-des2" d="M559.5,419c-7.2,0-13-5.7-13-12.7c0-2.8,0.9-5.3,2.4-7.4c-11.1,0-20.1,9.1-20.1,20.2c0,11.2,9.1,20.2,20.2,20.2
	c11.2,0,20.2-9.1,20.2-20.2c0-1.4-0.1-2.7-0.4-4C566.5,417.5,563.2,419,559.5,419z"/>
<path class="km-new-logo-des2" d="M604.6,346.4c-16.8-3.3-65.2-5.1-137.4,0c0,0-32.2,1.7-46.3,1.8c-14.1-0.1-46.3-1.8-46.3-1.8
	c-72.2-5.1-120.7-3.3-137.4,0c-16.8,3.3-59.6,11.2-59.6,11.2v32.6c20,5.1,22.4,13.5,28.4,30.3c6.1,16.8,19.1,45.2,31.7,57.8
	c12.6,12.6,21,14.4,59.6,14.9c38.7,0.5,58.2-17.2,58.2-17.2c27.5-24.7,26.1-52.2,36.3-75.5c8.5-19.3,24-22.3,29.1-22.7
	c5,0.4,20.6,3.4,29.1,22.7c10.3,23.3,8.9,50.8,36.3,75.5c0,0,19.6,17.7,58.2,17.2c38.7-0.5,47.1-2.3,59.6-14.9
	c12.6-12.6,25.6-41,31.7-57.8c6.1-16.8,8.4-25.2,28.4-30.3v-32.6C664.3,357.6,621.4,349.7,604.6,346.4z M353.6,449.9
	c-17.2,19.6-60.1,23.8-81.1,20c-21-3.7-48.3-30.3-44.3-76.4c0,0,2.3-17.7,33.5-22.8c31.2-5.1,82-4.7,94.6,8.9
	C369,393,370.8,430.3,353.6,449.9z M569.2,469.9c-21,3.7-63.8-0.5-81.1-20c-17.2-19.6-15.4-56.8-2.8-70.3
	c12.6-13.5,63.4-14,94.6-8.9c31.2,5.1,33.5,22.8,33.5,22.8C617.5,439.6,590.2,466.2,569.2,469.9z"/>
<path class="km-new-logo-des3" d="M422.3,553.7l-0.9,0l-0.7,0.1c-48.8-3.5-57.6-39.7-58.6-60.3h57.7h3.8h57.7c-1,20.5-9.8,56.8-58.1,60.1
	L422.3,553.7z"/>
<path class="km-new-logo-des4" d="M422.1,547.4c-28.8,0-54-4.5-52.2-20.7c0.9-8.4,105.6-7.6,104.6,0C474.5,526.7,470.1,547.4,422.1,547.4z"/>
<path class="km-new-logo-des5" d="M422.3,553.7l-0.9,0l-0.7,0.1c-48.8-3.5-57.6-39.7-58.6-60.3h57.7h3.8h57.7c-1,20.5-9.8,56.8-58.1,60.1
	L422.3,553.7z"/>
<g class="km-new-logo-des6">
	<path class="km-new-logo-des7" d="M363.2,215.2c0.1,2.2-3.1,4.1-7.3,4.4c-4.2,0.3-7.6-1.3-7.8-3.4c-0.1-2.2,3.1-4.1,7.3-4.4
		C359.6,211.5,363.1,213,363.2,215.2z"/>
	<ellipse transform="matrix(0.978 -0.2087 0.2087 0.978 -35.5326 74.8829)" class="km-new-logo-des7" cx="337.1" cy="205.8" rx="11.8" ry="5.2"/>
	<ellipse transform="matrix(0.9725 -0.2329 0.2329 0.9725 -42.364 84.2221)" class="km-new-logo-des7" cx="335.5" cy="221.5" rx="9.6" ry="4.7"/>
	
		<ellipse transform="matrix(0.8475 -0.5307 0.5307 0.8475 -79.0327 198.2561)" class="km-new-logo-des7" cx="305.6" cy="236.7" rx="15" ry="6.4"/>
	<ellipse transform="matrix(0.4763 -0.8793 0.8793 0.4763 -81.5328 385.018)" class="km-new-logo-des7" cx="282.4" cy="261" rx="11.7" ry="4.9"/>
	
		<ellipse transform="matrix(0.2316 -0.9728 0.9728 0.2316 -78.1898 489.9157)" class="km-new-logo-des7" cx="271" cy="294.5" rx="11.6" ry="6.2"/>
	<path class="km-new-logo-des7" d="M295,225.6c2.9,1.7,9,1,15-2.1c7.3-3.8,11.8-9.6,10.1-13c-0.5-1-1.5-1.7-2.8-2
		C309.8,213.4,302.2,219,295,225.6z"/>
	<path class="km-new-logo-des7" d="M272.6,250.7c2.7,1.2,7.5-1.3,11.3-6c3.6-4.5,5.1-9.5,3.7-12c-3.6,3.7-7.1,7.6-10.4,11.8
		C275.6,246.6,274.1,248.6,272.6,250.7z"/>
	<path class="km-new-logo-des7" d="M261.6,282.1c3.1,0.7,6.8-3.7,8.3-10c1.5-6.3,0.2-12-2.9-12.7c-0.1,0-0.1,0-0.2,0c-3.5,5.7-6.4,11.3-8.7,16.7
		C258.5,279.3,259.7,281.7,261.6,282.1z"/>
</g>
<path class="km-new-logo-des8" d="M605.4,459.2c0,0,18.4-34.8,20.3-50.7c1.5-12.5-5.9-65.1-5.9-65.1c0-98.1-89.9-177.7-200.8-177.7
	c-110.9,0-200.8,79.6-200.8,177.7l-7.6,63.8l23.9,50.1c4.2,96.4,84.5,168.3,184.8,168.3c19,0,37.3-2.9,54.6-8.3l83.7,57.9
	l-20.9-92.6C575.9,549.2,598.2,523.6,605.4,459.2z"/>
</svg>
