<svg id="Layer_1" data-name="Layer 1" xmlns="http://www.w3.org/2000/svg" viewBox="0 0 270.5 260.7">
  <defs>
    <style>
      .cls-1 {
        fill: #5c5aa7;
      }
    </style>
  </defs>
  <title>km-logo-varient3</title>
  <g id="Layer_2" data-name="Layer 2">
    <g>
      <g>
        <circle class="cls-1" cx="84.2" cy="136.4" r="17.9"/>
        <circle class="cls-1" cx="137.6" cy="136.4" r="17.9"/>
        <circle class="cls-1" cx="186.3" cy="136.4" r="17.9"/>
      </g>
      <g>
        <path class="cls-1" d="M142.7,16.9A21.2,21.2,0,0,0,103.8,23a125.6,125.6,0,0,0-80.6,80.8,21.3,21.3,0,0,0-6,39.3,21,21,0,0,0,21.8-.5,21.3,21.3,0,0,0,10-18,20.9,20.9,0,0,0-5.1-13.8,103.4,103.4,0,0,1,66.6-66.9,20.9,20.9,0,0,0,14,5.2,21.2,21.2,0,0,0,18.2-10.3,20.7,20.7,0,0,0,3.1-11A22.6,22.6,0,0,0,142.7,16.9Z" transform="translate(-6.5 -6.6)"/>
        <path class="cls-1" d="M261.9,104.2a125.1,125.1,0,0,0-59.2-71.9,21.3,21.3,0,1,0-21.2,22.8,21.5,21.5,0,0,0,11.2-3.2,103.2,103.2,0,0,1,47.8,57.9,21.2,21.2,0,0,0,15.2,36,21.6,21.6,0,0,0,12-3.7,21.2,21.2,0,0,0-5.8-37.9Z" transform="translate(-6.5 -6.6)"/>
        <path class="cls-1" d="M265.1,167.7a21,21,0,0,0-16-7.3,21.6,21.6,0,0,0-5.1.6,21.2,21.2,0,0,0-12.2,33A103.3,103.3,0,0,1,53,194a21.3,21.3,0,0,0-12.3-33.1,20.7,20.7,0,0,0-5-.6,21.2,21.2,0,0,0-3,42.2,125.3,125.3,0,0,0,219.4,0,21.2,21.2,0,0,0,18.1-21A20.1,20.1,0,0,0,265.1,167.7Z" transform="translate(-6.5 -6.6)"/>
      </g>
    </g>
  </g>
</svg>
