<?xml version="1.0" encoding="utf-8"?>
<!-- Generator: Adobe Illustrator 21.0.2, SVG Export Plug-In . SVG Version: 6.00 Build 0)  -->
<svg version="1.1" id="Layer_1" xmlns="http://www.w3.org/2000/svg" xmlns:xlink="http://www.w3.org/1999/xlink" x="0px" y="0px"
	 viewBox="0 0 416 430" style="enable-background:new 0 0 416 430;" xml:space="preserve">
<style type="text/css">
	.st0{fill:#5C5AA7;}
	.st1{fill:#FFFFFF;}
</style>
<title>New-KM-Logo-Final</title>
<path class="st0" d="M381.6,320.5l19,108.3l-99.1-36.2c-28.1,14.3-59.8,22.3-93.5,22.3C93.8,414.9,1.2,322.3,1.2,208.1
	S93.8,1.2,208,1.2S414.8,93.8,414.8,208C414.8,249.5,402.6,288.1,381.6,320.5z"/>
<g id="Layer_2">
	<g id="Layer_1-2">
		<g>
			<path class="st1" d="M311.6,215.6c0-9.9-8-18-17.9-18c-9.9,0-18,8-18,17.9c0,4.5,1.6,8.8,4.7,12.2c-5,9.6-11.1,16.8-18.2,21.9
				c-7.1,5.1-12.7,7.7-16.7,7.9c-2.1,0.1-4.2-0.7-5.8-2.2c-1.5-1.3-2.4-3.2-2.4-5.2c0-1.5,0.5-4.7,1.6-9.8l18-84h-20.4l-3.7,17.7
				c-8.7-13.9-20.2-20.9-34.3-20.9c-9.5,0-18.8,3.4-27.9,10c-9.2,6.6-16.5,15.8-22.2,27.5c-5.7,11.8-8.5,23.1-8.5,34.2
				c0,14.9,3.9,27.1,11.9,36.9c7.9,9.7,17.8,14.6,29.7,14.6c11.7,0,23.1-6.3,34.3-18.8c0.5,6.7,2.4,11.6,5.6,14.6
				c3.3,2.9,8.9,4.5,16.9,4.5c16,0,31.3-8.2,45.8-24.4c5-5.6,9.2-11.8,12.6-18.5C305.3,232,311.6,224.4,311.6,215.6z M220.3,229.8
				c-3.9,9.1-9.2,16.3-15.9,21.7c-6.6,5.3-12.9,8-18.8,8c-7.4,0-13.4-3-18.1-9c-4.7-6-6.9-13.9-6.9-23.6
				c-0.2-14.1,4.1-27.8,12.1-39.3c8.1-11.7,17-17.6,26.8-17.6c8.1,0,14.6,2.9,19.4,8.9c4.8,6,7.3,14,7.3,24
				C226.1,212.1,224.1,221.3,220.3,229.8z"/>
			<path class="st1" d="M314.2,127.3H312c-3.9-5.4-8.2-10.6-12.9-15.3c-18.5-18.8-42.7-29.5-72.6-32c-5.9-10.6-19.2-14.5-29.9-8.6
				c-10.6,5.9-14.5,19.2-8.6,29.9s19.2,14.5,29.9,8.6c3.9-2.1,7.1-5.4,9-9.4c21.5,2.6,39.8,10.6,55.1,24.1c4.8,4.2,9.2,9,13,14.1
				c-5.8,10.7-1.9,24,8.8,29.8s24,1.9,29.8-8.8s1.9-24-8.8-29.8c-3.2-1.8-6.8-2.7-10.5-2.7L314.2,127.3z"/>
			<path class="st1" d="M145,83.5c-12.1,0-22,9.9-22,22c0,1.4,0.1,2.7,0.4,4.1c-12.1,10.4-22.2,23.4-30.4,39
				c-10.1,19.1-16,40.2-17.5,61.7c-11.1,4.9-16.2,17.8-11.4,28.9c4.9,11.1,17.8,16.2,28.9,11.4s16.2-17.8,11.4-28.9
				c-1.8-4.2-4.9-7.7-8.8-10c1.5-30.9,12.4-56.9,32.7-77.9c2.7-2.8,5.5-5.4,8.4-7.9c11.2,4.6,24.1-0.8,28.7-12
				c4.6-11.2-0.8-24.1-12-28.7C150.7,84.1,147.9,83.6,145,83.5L145,83.5z"/>
			<path class="st1" d="M321.4,268.8c-12.1,0-22,9.9-21.9,22c0,2.3,0.4,4.6,1.1,6.8c-7.3,6.1-15.3,11.2-23.8,15.3
				c-17.2,8.5-37.5,12.8-61.1,12.8c-37.7,0-67-9.2-88-27.7c0.8-2.3,1.2-4.8,1.2-7.3c0-0.1,0-0.2,0-0.3c0-0.1,0-0.2,0-0.3
				c0.8-12.1-8.3-22.6-20.4-23.4s-22.6,8.3-23.4,20.4c-0.1,1-0.1,2,0,3c0,0.1,0,0.2,0,0.3c0,0.1,0,0.2,0,0.3
				c0,12.1,9.9,21.9,22,21.9c1.6,0,3.3-0.2,4.8-0.6l0.6,0.6c24.9,22.2,59.1,33.3,102.6,33.3c32.2,0,58.8-6.4,79.6-19.3
				c7.3-4.4,14.1-9.5,20.5-15c11.6,3.5,23.9-3.1,27.3-14.8c3.5-11.6-3.1-23.9-14.8-27.3c-2.1-0.6-4.3-0.9-6.4-0.9L321.4,268.8z"/>
		</g>
	</g>
</g>
</svg>
