<?xml version="1.0" encoding="UTF-8"?>
<svg width="24px" height="24px" viewBox="0 0 24 24" version="1.1" xmlns="http://www.w3.org/2000/svg" xmlns:xlink="http://www.w3.org/1999/xlink">
    <!-- Generator: Sketch 49.3 (51167) - http://www.bohemiancoding.com/sketch -->
    <title>Attachment</title>
    <desc>Created with Sketch.</desc>
    <defs></defs>
    <g id="Attachment" stroke="none" stroke-width="1" fill="none" fill-rule="evenodd">
        <g id="Group" transform="translate(12.000000, 12.500000) rotate(-45.000000) translate(-12.000000, -12.500000) translate(7.000000, 3.000000)" stroke="#4A4A4A">
            <path d="M10,5.61212158 L10,14.25 C10,16.8733526 7.76142375,19 5,19 C2.23857625,19 0,16.8733526 0,14.25 L0,4.75 C0,2.12664744 2.23857625,4.21884749e-16 5,0" id="Rectangle-6" stroke-linecap="round"></path>
            <path d="M2,13 L2,5.66666667 C2,3.64162258 3.790861,2 6,2 C8.209139,2 10,3.64162258 10,5.66666667" id="Rectangle-6"></path>
            <path d="M8,7 L8,14 C8,15.6568542 6.65685425,17 5,17 C3.34314575,17 2,15.6568542 2,14 L2,7" id="Rectangle-6"></path>
            <path d="M4,13 L4,7 C4,5.8954305 4.8954305,5 6,5 C7.1045695,5 8,5.8954305 8,7 L8,13" id="Rectangle-6" stroke-linecap="round"></path>
        </g>
    </g>
</svg>