<?xml version="1.0" encoding="UTF-8"?>
<svg width="24px" height="24px" viewBox="0 0 24 24" version="1.1" xmlns="http://www.w3.org/2000/svg" xmlns:xlink="http://www.w3.org/1999/xlink">
    <!-- Generator: Sketch 50.2 (55047) - http://www.bohemiancoding.com/sketch -->
    <title>Delete</title>
    <desc>Created with Sketch.</desc>
    <defs></defs>
    <g id="Delete" stroke="none" stroke-width="1" fill="none" fill-rule="evenodd">
        <path d="M5.5,7.5 L5.5,20 C5.5,20.8284271 6.17157288,21.5 7,21.5 L18,21.5 C18.8284271,21.5 19.5,20.8284271 19.5,20 L19.5,7.5 L5.5,7.5 Z" id="Rectangle-24" stroke="#4A4A4A"></path>
        <path d="M8.5,10.4090909 L8.5,18.5909091" id="Line" stroke="#4A4A4A" stroke-linecap="round"></path>
        <path d="M12.5,10.4090909 L12.5,18.5909091" id="Line" stroke="#4A4A4A" stroke-linecap="round"></path>
        <path d="M16.5,10.4090909 L16.5,18.5909091" id="Line" stroke="#4A4A4A" stroke-linecap="round"></path>
        <path d="M9,4.33333333 L9,3.24444444 C9,2.55715676 9.62680135,2 10.4,2 L14.6,2 C15.3731986,2 16,2.55715676 16,3.24444444 L16,4.33333333" id="Rectangle-15" stroke="#4A4A4A" stroke-linecap="round"></path>
        <rect id="Rectangle-25" stroke="#4A4A4A" x="3.5" y="4.5" width="18" height="3" rx="1.5"></rect>
    </g>
</svg>