<?xml version="1.0" encoding="UTF-8"?>
<svg width="24px" height="24px" viewBox="0 0 24 24" version="1.1" xmlns="http://www.w3.org/2000/svg" xmlns:xlink="http://www.w3.org/1999/xlink">
    <!-- Generator: Sketch 49.3 (51167) - http://www.bohemiancoding.com/sketch -->
    <title>Development</title>
    <desc>Created with Sketch.</desc>
    <defs></defs>
    <g id="Development" stroke="none" stroke-width="1" fill="none" fill-rule="evenodd">
        <rect id="Rectangle-12" stroke="#4A4A4A" x="2.5" y="2.5" width="19" height="19" rx="2"></rect>
        <path d="M2.5,6.5 L21.5,6.5" id="Line" stroke="#4A4A4A" stroke-linecap="square"></path>
        <circle id="Oval-7" stroke="#4A4A4A" stroke-width="0.5" fill="#4A4A4A" cx="4.5" cy="4.5" r="1"></circle>
        <circle id="Oval-7" stroke="#4A4A4A" stroke-width="0.5" fill="#4A4A4A" cx="6.5" cy="4.5" r="1"></circle>
        <circle id="Oval-7" stroke="#4A4A4A" stroke-width="0.5" fill="#4A4A4A" cx="8.5" cy="4.5" r="1"></circle>
        <path d="M7.41005051,17.6 L8.4,18.5899495 L9.91211168,17.0778378 L10.2400969,17.255566 C10.4633447,17.3765392 10.6986128,17.4742246 10.9426248,17.5468462 L11.3,17.6532062 L11.3,19.5 L12.7,19.5 L12.7,17.6532062 L13.0573752,17.5468462 C13.3013872,17.4742246 13.5366553,17.3765392 13.7599031,17.255566 L14.0878883,17.0778378 L15.6,18.5899495 L16.5899495,17.6 L15.0778378,16.0878883 L15.255566,15.7599031 C15.3765392,15.5366553 15.4742246,15.3013872 15.5468462,15.0573752 L15.6532062,14.7 L17.5,14.7 L17.5,13.3 L15.6532062,13.3 L15.5468462,12.9426248 C15.4742246,12.6986128 15.3765392,12.4633447 15.255566,12.2400969 L15.0778378,11.9121117 L16.5899495,10.4 L15.6,9.41005051 L14.0878883,10.9221622 L13.7599031,10.744434 C13.5366553,10.6234608 13.3013872,10.5257754 13.0573752,10.4531538 L12.7,10.3467938 L12.7,8.5 L11.3,8.5 L11.3,10.3467938 L10.9426248,10.4531538 C10.6986128,10.5257754 10.4633447,10.6234608 10.2400969,10.744434 L9.91211168,10.9221622 L8.4,9.41005051 L7.41005051,10.4 L8.92216218,11.9121117 L8.74443396,12.2400969 C8.62346075,12.4633447 8.52577535,12.6986128 8.45315384,12.9426248 L8.34679378,13.3 L6.5,13.3 L6.5,14.7 L8.34679378,14.7 L8.45315384,15.0573752 C8.52577535,15.3013872 8.62346075,15.5366553 8.74443396,15.7599031 L8.92216218,16.0878883 L7.41005051,17.6 Z" id="Combined-Shape" stroke="#4A4A4A"></path>
        <circle id="Oval-10" stroke="#4A4A4A" cx="12" cy="14" r="1.75"></circle>
    </g>
</svg>