<?xml version="1.0" encoding="UTF-8"?>
<svg width="24px" height="24px" viewBox="0 0 24 24" version="1.1" xmlns="http://www.w3.org/2000/svg" xmlns:xlink="http://www.w3.org/1999/xlink">
    <!-- Generator: Sketch 49.3 (51167) - http://www.bohemiancoding.com/sketch -->
    <title>FAQ</title>
    <desc>Created with Sketch.</desc>
    <defs></defs>
    <g id="FAQ" stroke="none" stroke-width="1" fill="none" fill-rule="evenodd">
        <path d="M5,1.5 C4.17157288,1.5 3.5,2.17157288 3.5,3 L3.5,21 C3.5,21.8284271 4.17157288,22.5 5,22.5 L19,22.5 C19.8284271,22.5 20.5,21.8284271 20.5,21 L20.5,8.01093367 C20.5,7.87699363 20.4462612,7.74865355 20.3508264,7.65467415 L14.2468033,1.64374048 C14.1532656,1.55162928 14.0272544,1.5 13.8959769,1.5 L5,1.5 Z" id="Rectangle-19" stroke="#4A4A4A"></path>
        <path d="M14,2 L14.0063132,6.00315413 C14.0080533,7.10649069 14.9029728,8 16.0063108,8 L20,8" id="Path-8" stroke="#4A4A4A"></path>
        <path d="M14.0159183,9.9410138 C14.0159183,10.1695391 13.9339485,10.3657699 13.7700064,10.529712 C13.6060643,10.693654 13.4098335,10.7756238 13.1813082,10.7756238 C12.942847,10.7756238 12.7416484,10.693654 12.5777063,10.529712 C12.4137642,10.3657699 12.3317944,10.1695391 12.3317944,9.9410138 C12.3317944,9.70752054 12.4137642,9.50756388 12.5777063,9.34113783 C12.7416484,9.17471178 12.942847,9.0915 13.1813082,9.0915 C13.4098335,9.0915 13.6060643,9.17471178 13.7700064,9.34113783 C13.9339485,9.50756388 14.0159183,9.70752054 14.0159183,9.9410138 Z M13.136597,13.3614246 C13.136597,13.669437 13.0322717,14.0370592 12.8236182,14.4643022 L11.1991093,17.7580311 C11.0301993,18.0958512 10.9457456,18.3392767 10.9457456,18.4883149 C10.9457456,18.6075455 10.9854885,18.6671599 11.0649756,18.6671599 C11.2289177,18.6671599 11.5667326,18.3715718 12.0784306,17.7803868 C12.3168919,17.4972141 12.4559921,17.3556299 12.4957357,17.3556299 C12.5603189,17.3556299 12.6162074,17.3841951 12.6634029,17.4413264 C12.7105983,17.4984578 12.7341957,17.5543463 12.7341957,17.6089936 C12.7341957,17.6785448 12.5416908,17.9157605 12.1566753,18.3206477 C11.7716599,18.725535 11.4090055,19.0434785 11.0687015,19.2744878 C10.7283975,19.5054971 10.4439871,19.621 10.2154618,19.621 C9.73853938,19.621 9.50008175,19.4024138 9.50008175,18.965235 C9.50008175,18.7118699 9.60937483,18.3492156 9.82796427,17.8772611 L11.4524731,14.598436 C11.6213831,14.2606159 11.7058369,14.0072547 11.7058369,13.8383447 C11.7058369,13.7389858 11.6611261,13.6893071 11.5717031,13.6893071 C11.4027931,13.6893071 11.0500745,13.9997989 10.5135368,14.6207916 C10.2949474,14.8741566 10.1707507,15.0008372 10.140943,15.0008372 C10.0763598,15.0008372 10.0229552,14.9747559 9.98072771,14.9225925 C9.93850021,14.8704291 9.91738677,14.8120567 9.91738677,14.7474735 C9.91738677,14.6729543 10.1074077,14.4344967 10.4874552,14.0320934 C10.8675028,13.6296901 11.2289151,13.3129886 11.5717031,13.0819793 C11.9144911,12.85097 12.2026274,12.7354671 12.4361207,12.7354671 C12.9031072,12.7354671 13.136597,12.9441175 13.136597,13.3614246 Z" id="i" stroke="#4A4A4A" stroke-width="0.2" fill="#4A4A4A"></path>
    </g>
</svg>