<?xml version="1.0" encoding="utf-8"?>
<!-- Generator: Adobe Illustrator 22.1.0, SVG Export Plug-In . SVG Version: 6.00 Build 0)  -->
<svg version="1.1" id="Layer_1" xmlns="http://www.w3.org/2000/svg" xmlns:xlink="http://www.w3.org/1999/xlink" x="0px" y="0px"
	 viewBox="0 0 24 24" style="enable-background:new 0 0 24 24;" xml:space="preserve">
<style type="text/css">
	.st0{fill:#4A4A4A;}
</style>
<g id="Combined-Shape">
	<path class="st0" d="M8.6,22.1c-0.6,0-1-0.4-1-1v-3.6H5c-1.1,0-2-0.9-2-2V5c0-1.1,0.9-2,2-2h15c1.1,0,2,0.9,2,2v10.5
		c0,1.1-0.9,2-2,2h-5l-5.9,4.4C9,22,8.8,22.1,8.6,22.1z M8.6,21.1L8.6,21.1l6.1-4.6H20c0.6,0,1-0.4,1-1V5c0-0.6-0.4-1-1-1H5
		C4.4,4,4,4.4,4,5v10.5c0,0.6,0.4,1,1,1h3.6L8.6,21.1L8.6,21.1z"/>
</g>
<g id="Oval">
	<path class="st0" d="M12.5,10.1c-0.8,0-1.5-0.7-1.5-1.5S11.7,7,12.5,7S14,7.7,14,8.5S13.3,10.1,12.5,10.1z M12.5,8
		C12.2,8,12,8.3,12,8.5c0,0.3,0.2,0.5,0.5,0.5c0.3,0,0.5-0.2,0.5-0.5C13,8.3,12.8,8,12.5,8z"/>
</g>
<g id="Oval_1_">
	<path class="st0" d="M15.3,14.1H9.9c-0.3,0-0.5-0.2-0.5-0.5c0-1.8,1.4-3.2,3.2-3.2s3.2,1.4,3.2,3.2C15.8,13.9,15.6,14.1,15.3,14.1z
		 M10.4,13.1h4.3c-0.2-1-1.1-1.7-2.2-1.7S10.7,12.1,10.4,13.1z"/>
</g>
<g id="Oval_2_">
	<path class="st0" d="M8.6,13H5c-0.3,0-0.5-0.2-0.5-0.5c0-1.7,1.4-3.1,3.1-3.1c0.8,0,1.5,0.3,2.1,0.8c0.2,0.2,0.2,0.5,0,0.7
		c-0.2,0.2-0.5,0.2-0.7,0c-0.4-0.4-0.9-0.6-1.4-0.6c-1,0-1.8,0.7-2,1.6h3c0.3,0,0.5,0.2,0.5,0.5S8.8,13,8.6,13z"/>
</g>
<g id="Oval_3_">
	<path class="st0" d="M7.4,9.2c-0.9,0-1.6-0.7-1.6-1.6S6.5,6,7.4,6c0.9,0,1.6,0.7,1.6,1.6S8.2,9.2,7.4,9.2z M7.4,7
		C7,7,6.8,7.3,6.8,7.6S7,8.2,7.4,8.2c0.3,0,0.6-0.3,0.6-0.6S7.7,7,7.4,7z"/>
</g>
<g id="Oval_4_">
	<path class="st0" d="M20.3,13h-3.6c-0.3,0-0.5-0.2-0.5-0.5s0.2-0.5,0.5-0.5h3c-0.2-0.9-1-1.6-2-1.6c-0.5,0-1,0.2-1.4,0.6
		c-0.2,0.2-0.5,0.2-0.7,0c-0.2-0.2-0.2-0.5,0-0.7c0.6-0.5,1.3-0.8,2.1-0.8c1.7,0,3.1,1.4,3.1,3.1C20.8,12.8,20.5,13,20.3,13z"/>
</g>
<g id="Oval_5_">
	<path class="st0" d="M17.5,9.2c-0.9,0-1.6-0.7-1.6-1.6S16.7,6,17.5,6s1.6,0.7,1.6,1.6S18.4,9.2,17.5,9.2z M17.5,7
		c-0.3,0-0.6,0.3-0.6,0.6s0.3,0.6,0.6,0.6s0.6-0.3,0.6-0.6S17.9,7,17.5,7z"/>
</g>
</svg>
