<?xml version="1.0" encoding="UTF-8"?>
<svg width="24px" height="24px" viewBox="0 0 24 24" version="1.1" xmlns="http://www.w3.org/2000/svg" xmlns:xlink="http://www.w3.org/1999/xlink">
    <!-- Generator: Sketch 49.3 (51167) - http://www.bohemiancoding.com/sketch -->
    <title>Help</title>
    <desc>Created with Sketch.</desc>
    <defs></defs>
    <g id="Help" stroke="none" stroke-width="1" fill="none" fill-rule="evenodd">
        <path d="M8,12.1062968 C8,11.6356434 8.15110224,11.1588043 8.45331125,10.6757654 C8.75552026,10.1927264 9.19644155,9.79267699 9.77608834,9.47560524 C10.3557351,9.1585335 11.0319796,9 11.804842,9 C12.5232076,9 13.1573416,9.13252409 13.7072629,9.39757626 C14.2571843,9.66262842 14.6820045,10.0230444 14.9817364,10.4788351 C15.2814683,10.9346257 15.431332,11.4300429 15.431332,11.9651014 C15.431332,12.3862124 15.3458725,12.7552982 15.174951,13.0723699 C15.0040295,13.3894417 14.8009085,13.6631596 14.5655818,13.8935321 C14.3302551,14.1239045 13.9079119,14.5115685 13.2985397,15.0565355 C13.1300953,15.2101172 12.9950941,15.3451183 12.8935321,15.4615431 C12.79197,15.5779679 12.7164189,15.6844826 12.6668765,15.7810904 C12.617334,15.8776982 12.5789392,15.9743046 12.5516908,16.0709124 C12.5244425,16.1675202 12.4835706,16.3372005 12.4290738,16.5799586 C12.3349432,17.0952002 12.0401699,17.3528171 11.5447453,17.3528171 C11.2871245,17.3528171 11.0703795,17.2685962 10.8945038,17.1001518 C10.7186281,16.9317075 10.6306915,16.6815218 10.6306915,16.3495873 C10.6306915,15.9334306 10.6950957,15.5730146 10.8239061,15.2683285 C10.9527165,14.9636424 11.1236355,14.6961171 11.336668,14.4657447 C11.5497006,14.2353722 11.8370426,13.9616542 12.1987026,13.6445825 C12.5157743,13.3671447 12.7449047,13.1578309 12.8861008,13.0166349 C13.0272968,12.8754389 13.1461969,12.718144 13.2428047,12.5447453 C13.3394125,12.3713467 13.3877157,12.1830882 13.3877157,11.9799641 C13.3877157,11.5836244 13.2403291,11.2492178 12.9455514,10.9767343 C12.6507738,10.7042508 12.2705411,10.568011 11.804842,10.568011 C11.2598749,10.568011 10.858587,10.7054893 10.6009662,10.98045 C10.3433454,11.2554106 10.1253618,11.6604142 9.94700897,12.1954727 C9.77856461,12.7553025 9.45902053,13.0352133 8.98836715,13.0352133 C8.71092937,13.0352133 8.47684475,12.9373684 8.28610628,12.7416756 C8.09536781,12.5459829 8,12.3341921 8,12.1062968 Z M11.62649,20.296395 C11.324281,20.296395 11.0604713,20.1985501 10.8350531,20.0028574 C10.6096349,19.8071647 10.4969275,19.5334467 10.4969275,19.1816952 C10.4969275,18.8695777 10.6059193,18.6070066 10.8239061,18.393974 C11.041893,18.1809414 11.3094182,18.0744268 11.62649,18.0744268 C11.9386075,18.0744268 12.2011786,18.1809414 12.4142112,18.393974 C12.6272438,18.6070066 12.7337585,18.8695777 12.7337585,19.1816952 C12.7337585,19.5284924 12.6222896,19.8009719 12.3993485,19.9991417 C12.1764074,20.1973116 11.9187905,20.296395 11.62649,20.296395 Z" id="?" fill="#4A4A4A"></path>
        <path d="M5,1.5 C4.17157288,1.5 3.5,2.17157288 3.5,3 L3.5,21 C3.5,21.8284271 4.17157288,22.5 5,22.5 L19,22.5 C19.8284271,22.5 20.5,21.8284271 20.5,21 L20.5,8.01093367 C20.5,7.87699363 20.4462612,7.74865355 20.3508264,7.65467415 L14.2468033,1.64374048 C14.1532656,1.55162928 14.0272544,1.5 13.8959769,1.5 L5,1.5 Z" id="Rectangle-19" stroke="#4A4A4A"></path>
        <path d="M14,2 L14.0063132,6.00315413 C14.0080533,7.10649069 14.9029728,8 16.0063108,8 L20,8" id="Path-8" stroke="#4A4A4A"></path>
    </g>
</svg>