<?xml version="1.0" encoding="utf-8"?>
<!-- Generator: Adobe Illustrator 22.1.0, SVG Export Plug-In . SVG Version: 6.00 Build 0)  -->
<svg version="1.1" id="Layer_1" xmlns="http://www.w3.org/2000/svg" xmlns:xlink="http://www.w3.org/1999/xlink" x="0px" y="0px"
	 viewBox="0 0 24 24" style="enable-background:new 0 0 24 24;" xml:space="preserve">
<style type="text/css">
	.st0{fill:#4A4A4A;}
</style>
<path class="st0" d="M11.5,10.9c-4,0-7.9,0.9-11.5,2.8h22.9C19.3,11.8,15.5,10.9,11.5,10.9z"/>
<path class="st0" d="M16.7,14.8c-1.7,0-3.1,1.1-3.6,2.6c-1-0.3-1.9-0.3-2.8-0.1c-0.6-1.4-1.9-2.4-3.6-2.4c-2.1,0-3.8,1.7-3.8,3.8
	c0,2.1,1.7,3.8,3.8,3.8s3.8-1.7,3.8-3.8c0-0.1,0-0.3,0-0.4c0.8-0.2,1.6-0.1,2.4,0.2c0,0.1,0,0.2,0,0.3c0,2.1,1.7,3.8,3.8,3.8
	c2.1,0,3.8-1.7,3.8-3.8C20.5,16.6,18.8,14.8,16.7,14.8z M9.5,18.7c0,1.6-1.3,2.8-2.8,2.8c-1.6,0-2.8-1.3-2.8-2.8s1.3-2.8,2.8-2.8
	c1.2,0,2.2,0.7,2.6,1.7C9.4,17.9,9.5,18.2,9.5,18.7C9.5,18.6,9.5,18.6,9.5,18.7z M16.7,21.5c-1.6,0-2.8-1.3-2.8-2.8s1.3-2.8,2.8-2.8
	s2.8,1.3,2.8,2.8S18.2,21.5,16.7,21.5z"/>
<polygon class="st0" points="16.7,2 9.9,3.1 6.6,2 4.4,8.7 18.9,8.7 "/>
</svg>
