<?xml version="1.0" encoding="UTF-8"?>
<svg width="24px" height="24px" viewBox="0 0 24 24" version="1.1" xmlns="http://www.w3.org/2000/svg" xmlns:xlink="http://www.w3.org/1999/xlink">
    <!-- Generator: Sketch 49.3 (51167) - http://www.bohemiancoding.com/sketch -->
    <title>Integration</title>
    <desc>Created with Sketch.</desc>
    <defs></defs>
    <g id="Integration" stroke="none" stroke-width="1" fill="none" fill-rule="evenodd">
        <path d="M21.7679293,8.95934344 L22.6770202,8.95934344 C23.2293049,8.95934344 23.6770202,9.40705869 23.6770202,9.95934344 L23.6770202,10.504798 C23.6770202,11.0570827 23.2293049,11.504798 22.6770202,11.504798 L21.7679293,11.504798 L21.7679293,14.0502525 C18.5637693,14.0502525 15.8624256,11.8974405 15.0314252,8.95934344 L11.9497475,8.95934344 C11.3974627,8.95934344 10.9497475,8.51162819 10.9497475,7.95934344 L10.9497475,6.14116162 C10.9497475,5.58887687 11.3974627,5.14116162 11.9497475,5.14116162 L15.0314252,5.14116162 C15.8624256,2.20306461 18.5637693,0.0502525317 21.7679293,0.0502525317 L21.7679293,2.59570708 L22.6770202,2.59570708 C23.2293049,2.59570708 23.6770202,3.04342233 23.6770202,3.59570708 L23.6770202,4.14116162 C23.6770202,4.69344637 23.2293049,5.14116162 22.6770202,5.14116162 L21.7679293,5.14116162 L21.7679293,8.95934344 Z" id="Combined-Shape" stroke="#4A4A4A" transform="translate(17.313384, 7.050253) scale(-1, 1) rotate(45.000000) translate(-17.313384, -7.050253) "></path>
        <path d="M5.86148718,19.0838269 L2.77980946,19.0838269 C2.22752472,19.0838269 1.77980946,18.6361116 1.77980946,18.0838269 L1.77980946,16.2656451 C1.77980946,15.7133603 2.22752472,15.2656451 2.77980946,15.2656451 L5.86148718,15.2656451 C6.69248758,12.3275481 9.39383133,10.174736 12.5979913,10.174736 L12.5979913,24.174736 C9.39383133,24.174736 6.69248758,22.0219239 5.86148718,19.0838269 Z" id="Combined-Shape" stroke="#4A4A4A" transform="translate(7.188900, 17.174736) scale(1, -1) rotate(45.000000) translate(-7.188900, -17.174736) "></path>
    </g>
</svg>