<?xml version="1.0" encoding="UTF-8"?>
<svg width="24px" height="24px" viewBox="0 0 24 24" version="1.1" xmlns="http://www.w3.org/2000/svg" xmlns:xlink="http://www.w3.org/1999/xlink">
    <!-- Generator: Sketch 49.3 (51167) - http://www.bohemiancoding.com/sketch -->
    <title>Mail</title>
    <desc>Created with Sketch.</desc>
    <defs></defs>
    <g id="Mail" stroke="none" stroke-width="1" fill="none" fill-rule="evenodd">
        <path d="M3.11035156,9.74855082 L3.11035156,19.1147461 C3.11035156,20.2193156 4.00578206,21.1147461 5.11035156,21.1147461 L19.8532283,21.1147461 C20.9577978,21.1147461 21.8532283,20.2193156 21.8532283,19.1147461 L21.8532283,9.74855082 C21.8532283,9.10403886 21.5426305,8.49902462 21.0189086,8.12337717 L13.0646301,2.4180509 C12.7162453,2.16816666 12.2473345,2.16816666 11.8989498,2.4180509 L3.94467124,8.12337717 C3.42094932,8.49902462 3.11035156,9.10403886 3.11035156,9.74855082 Z" id="Path-5" stroke="#4A4A4A"></path>
        <path d="M21.8406419,16.5243669 C21.7776711,15.9656746 21.4813864,15.4550964 21.0189086,15.1233772 C20.019941,14.4068526 19.2707152,13.8694591 18.7712314,13.5111968 C18.5492106,13.3519491 18.3077545,13.178761 18.0468631,12.9916327 C17.2273544,12.4038277 15.5666101,11.2126338 13.0646301,9.4180509 C12.7162453,9.16816666 12.2473345,9.16816666 11.8989498,9.4180509 L3.94467124,15.1233772 C3.55850496,15.4003608 3.28821105,15.8020476 3.1728653,16.2523218 C3.15444093,16.3242449 3.13996995,16.3974076 3.12961159,16.4714997" id="Path-5" stroke="#4A4A4A" transform="translate(12.485127, 12.877502) scale(1, -1) translate(-12.485127, -12.877502) "></path>
    </g>
</svg>