<?xml version="1.0" encoding="UTF-8"?>
<svg width="24px" height="24px" viewBox="0 0 24 24" version="1.1" xmlns="http://www.w3.org/2000/svg" xmlns:xlink="http://www.w3.org/1999/xlink">
    <!-- Generator: Sketch 49.3 (51167) - http://www.bohemiancoding.com/sketch -->
    <title>Maintenance</title>
    <desc>Created with Sketch.</desc>
    <defs></defs>
    <g id="Maintenance" stroke="none" stroke-width="1" fill="none" fill-rule="evenodd">
        <path d="M9.7344954,10.5701671 L10.5533722,9.71770056 L7.63274137,6.79706972 L7.53636,6.66159592 L6.16096194,3.82391902 L3.64485546,2.60502975 L2.60578,3.64410521 L3.84319948,6.18023962 L6.66030895,7.53573848 L6.79706972,7.63274137 L9.7344954,10.5701671 Z M15.0361109,12.6576608 L12.6361128,15.0145629 L18.8456201,21.2240702 C19.0408823,21.4193324 19.3574648,21.4193324 19.5527269,21.2240702 L21.2240702,19.5527269 C21.4193324,19.3574648 21.4193324,19.0408823 21.2240702,18.8456201 L15.0361109,12.6576608 Z" id="Combined-Shape" stroke="#4A4A4A"></path>
        <path d="M10.088477,23.4586838 C8.8399826,22.7364688 8,21.3865946 8,19.8405318 C8,18.2944691 8.8399826,16.9445949 10.088477,16.2223799 L10.088477,7.31762105 C8.8399826,6.59540602 8,5.24553177 8,3.69946907 C8,2.15340636 8.8399826,0.803532112 10.088477,0.0813170782 L10.088477,2.61163563 L12.120867,4.73554947 L14.1180752,2.61163563 L14.1180752,-1.26565425e-14 C15.4473822,0.698929379 16.3539081,2.09333399 16.3539081,3.69946907 C16.3539081,5.24553177 15.5139255,6.59540602 14.2654311,7.31762105 L14.2654311,16.2223799 C15.5139255,16.9445949 16.3539081,18.2944691 16.3539081,19.8405318 C16.3539081,21.4466669 15.4473822,22.8410715 14.1180752,23.5400009 L14.1180752,20.9283653 L12.120867,18.8044514 L10.088477,20.9283653 L10.088477,23.4586838 Z" id="Combined-Shape" stroke="#4A4A4A" stroke-linecap="round" stroke-linejoin="round" transform="translate(12.176954, 11.770000) rotate(45.000000) translate(-12.176954, -11.770000) "></path>
    </g>
</svg>