<?xml version="1.0" encoding="UTF-8"?>
<svg width="24px" height="24px" viewBox="0 0 24 24" version="1.1" xmlns="http://www.w3.org/2000/svg" xmlns:xlink="http://www.w3.org/1999/xlink">
    <!-- Generator: Sketch 49.3 (51167) - http://www.bohemiancoding.com/sketch -->
    <title>Multi Platform</title>
    <desc>Created with Sketch.</desc>
    <defs></defs>
    <g id="Multi-Platform" stroke="none" stroke-width="1" fill="none" fill-rule="evenodd">
        <path d="M16.5,6.5 L16.5,4 C16.5,3.17157288 15.8284271,2.5 15,2.5 L3,2.5 C2.17157288,2.5 1.5,3.17157288 1.5,4 L1.5,15 C1.5,15.8284271 2.17157288,16.5 3,16.5 L10.5,16.5 L10.5,8 C10.5,7.17157288 11.1715729,6.5 12,6.5 L16.5,6.5 Z" id="Combined-Shape" stroke="#4A4A4A"></path>
        <path d="M20.5,11.5 L20.5,8 C20.5,7.17157288 19.8284271,6.5 19,6.5 L12,6.5 C11.1715729,6.5 10.5,7.17157288 10.5,8 L10.5,19 C10.5,19.8284271 11.1715729,20.5 12,20.5 L16.5,20.5 L16.5,13 C16.5,12.1715729 17.1715729,11.5 18,11.5 L20.5,11.5 Z" id="Combined-Shape" stroke="#4A4A4A"></path>
        <rect id="Rectangle-12" stroke="#4A4A4A" x="16.5" y="11.5" width="6" height="10" rx="2"></rect>
        <path d="M1.5,13.5 L10.5,13.5" id="Line" stroke="#4A4A4A" stroke-linecap="square"></path>
        <path d="M8.5,16.5 L8.5,19.5" id="Line-2" stroke="#4A4A4A" stroke-linecap="square"></path>
        <path d="M5.5,19.5 L10.5,19.5" id="Line-3" stroke="#4A4A4A" stroke-linecap="round"></path>
        <circle id="Oval-8" stroke="#4A4A4A" fill="#D8D8D8" cx="15.5" cy="18.5" r="1"></circle>
        <circle id="Oval-8" stroke="#4A4A4A" fill="#D8D8D8" cx="19.5" cy="19.5" r="1"></circle>
    </g>
</svg>