<?xml version="1.0" encoding="UTF-8"?>
<svg width="24px" height="24px" viewBox="0 0 24 24" version="1.1" xmlns="http://www.w3.org/2000/svg" xmlns:xlink="http://www.w3.org/1999/xlink">
    <!-- Generator: Sketch 49.3 (51167) - http://www.bohemiancoding.com/sketch -->
    <title>Notification</title>
    <desc>Created with Sketch.</desc>
    <defs></defs>
    <g id="Notification" stroke="none" stroke-width="1" fill="none" fill-rule="evenodd">
        <path d="M12.926927,3.56552612 L12.466423,3.49982243 L12.4987603,3.0357802 C12.4997893,3.01807238 12.4997893,3.01807238 12.5,3 L12.5,2 C12.5,1.72385763 12.2761424,1.5 12,1.5 C11.7238576,1.5 11.5,1.72385763 11.5,2 L11.5,3 C11.5002107,3.01807238 11.5002107,3.01807238 11.5012397,3.0357802 L11.533577,3.49982243 L11.073073,3.56552612 C7.89240353,4.019337 5.5,6.75512773 5.5,10 L5.5,16.5 L4,16.5 C3.17157288,16.5 2.5,17.1715729 2.5,18 C2.5,18.8284271 3.17157288,19.5 4,19.5 L20,19.5 C20.8284271,19.5 21.5,18.8284271 21.5,18 C21.5,17.1715729 20.8284271,16.5 20,16.5 L18.5,16.5 L18.5,10 C18.5,6.75512773 16.1075965,4.019337 12.926927,3.56552612 Z" id="Combined-Shape" stroke="#4A4A4A"></path>
        <path d="M10,20 C10,21.1045695 10.8954305,22 12,22 C13.1045695,22 14,21.1045695 14,20" id="Oval" stroke="#4A4A4A"></path>
    </g>
</svg>