<?xml version="1.0" encoding="utf-8"?>
<!-- Generator: Adobe Illustrator 22.1.0, SVG Export Plug-In . SVG Version: 6.00 Build 0)  -->
<svg version="1.1" id="Layer_1" xmlns="http://www.w3.org/2000/svg" xmlns:xlink="http://www.w3.org/1999/xlink" x="0px" y="0px"
	 viewBox="0 0 24 24" style="enable-background:new 0 0 24 24;" xml:space="preserve">
<style type="text/css">
	.st0{fill:#4A4A4A;}
</style>
<title>One-to-one Chat</title>
<desc>Created with Sketch.</desc>
<g>
	<path class="st0" d="M21,7h-5V4c0-1.1-0.9-2-2-2H3C1.9,2,1,2.9,1,4v7.4c0,1.1,0.9,2,2,2h1.4v2.3c0,0.6,0.4,1,1,1
		c0.2,0,0.4-0.1,0.6-0.2l2-1.5v1.3c0,1.1,0.9,2,2,2h3.7l4.4,3.1c0.2,0.1,0.4,0.2,0.6,0.2c0.6,0,1-0.4,1-1v-2.3H21c1.1,0,2-0.9,2-2V9
		C23,7.9,22.1,7,21,7z M5.4,15.7v-3.3H3c-0.6,0-1-0.4-1-1V4c0-0.6,0.4-1,1-1h11c0.6,0,1,0.4,1,1v7.4c0,0.6-0.4,1-1,1h-4L5.4,15.7z
		 M22,16.4c0,0.6-0.4,1-1,1h-2.4v3.3L14,17.4h-4c-0.6,0-1-0.4-1-1v-2.1l1.3-0.9H14c1.1,0,2-0.9,2-2V8h5c0.6,0,1,0.4,1,1V16.4z"/>
	<path class="st0" d="M11.8,10.3c0-1.6-1.3-2.9-2.8-3c0.7-0.1,1.2-0.7,1.2-1.5c0-0.8-0.7-1.5-1.5-1.5S7.1,5,7.1,5.8
		c0,0.8,0.6,1.4,1.3,1.5c-1.5,0.1-2.7,1.4-2.7,3c0,0.3,0.2,0.5,0.5,0.5h5C11.5,10.8,11.8,10.6,11.8,10.3z M8.1,5.8
		c0-0.3,0.2-0.5,0.5-0.5s0.5,0.2,0.5,0.5S8.9,6.3,8.6,6.3S8.1,6.1,8.1,5.8z M6.8,9.8c0.2-0.9,1-1.5,2-1.5s1.7,0.6,2,1.5H6.8z"/>
</g>
</svg>
