<?xml version="1.0" encoding="UTF-8"?>
<svg width="24px" height="24px" viewBox="0 0 24 24" version="1.1" xmlns="http://www.w3.org/2000/svg" xmlns:xlink="http://www.w3.org/1999/xlink">
    <!-- Generator: Sketch 49.3 (51167) - http://www.bohemiancoding.com/sketch -->
    <title>Pricing</title>
    <desc>Created with Sketch.</desc>
    <defs></defs>
    <g id="Pricing" stroke="none" stroke-width="1" fill="none" fill-rule="evenodd">
        <rect id="Rectangle-12" stroke="#4A4A4A" x="4.5" y="4.5" width="17" height="17" rx="2"></rect>
        <path d="M3,19 L3,5 C3,3.8954305 3.8954305,3 5,3 L19,3" id="Rectangle-12" stroke="#4A4A4A" stroke-linecap="round"></path>
        <path d="M10.0640244,10.3467977 C10.0640244,9.63641258 10.2703231,9.06361063 10.6829268,8.62837467 C11.0955305,8.19313871 11.7144268,7.91048971 12.5396341,7.7804192 L12.5396341,7 L14.4603659,7 L14.4603659,7.7804192 C15.2998009,7.90048429 15.9293678,8.17813065 16.3490854,8.61336661 C16.7688029,9.04860257 16.9786585,9.62640716 16.9786585,10.3467977 L16.9786585,10.6769751 L14.7591463,10.6769751 L14.7591463,10.2417413 C14.7591463,9.86153515 14.655997,9.59389407 14.4496951,9.43880999 C14.2433933,9.28372591 13.9552864,9.20618504 13.5853659,9.20618504 C13.2154453,9.20618504 12.9273384,9.28372591 12.7210366,9.43880999 C12.5147347,9.59389407 12.4115854,9.86153515 12.4115854,10.2417413 C12.4115854,10.6019366 12.5254054,10.9121001 12.7530488,11.1722411 C12.9806922,11.4323821 13.2652422,11.67501 13.6067073,11.9001321 C13.9481724,12.1252541 14.3145306,12.3453702 14.7057927,12.5604868 C15.0970548,12.7756034 15.4634129,13.0182313 15.804878,13.2883778 C16.1463432,13.5585242 16.4308932,13.871189 16.6585366,14.2263816 C16.88618,14.5815742 17,15.0092996 17,15.5095709 C17,16.2299614 16.7865875,16.8102673 16.3597561,17.250506 C15.9329247,17.6907447 15.2998009,17.9708923 14.4603659,18.0909574 L14.4603659,18.8563686 L12.5396341,18.8563686 L12.5396341,18.0909574 C11.6859713,17.9708923 11.0492907,17.6907447 10.6295732,17.250506 C10.2098556,16.8102673 10,16.2299614 10,15.5095709 L10,14.7891839 L12.2195122,14.7891839 L12.2195122,15.6146273 C12.2195122,15.9948334 12.3297753,16.2599732 12.5503049,16.4100545 C12.7708344,16.5601359 13.0660551,16.6351755 13.4359756,16.6351755 C13.8058962,16.6351755 14.1011168,16.5601359 14.3216463,16.4100545 C14.5421759,16.2599732 14.652439,15.9948334 14.652439,15.6146273 C14.652439,15.254432 14.538619,14.9442685 14.3109756,14.6841275 C14.0833322,14.4239864 13.7987822,14.1813585 13.4573171,13.9562365 C13.115852,13.7311144 12.7494938,13.5109984 12.3582317,13.2958818 C11.9669696,13.0807652 11.6006115,12.8381373 11.2591463,12.5679908 C10.9176812,12.2978443 10.6331312,11.9851795 10.4054878,11.629987 C10.1778444,11.2747944 10.0640244,10.8470689 10.0640244,10.3467977 Z" id="$" stroke="#4A4A4A"></path>
    </g>
</svg>