<?xml version="1.0" encoding="utf-8"?>
<!-- Generator: Adobe Illustrator 22.1.0, SVG Export Plug-In . SVG Version: 6.00 Build 0)  -->
<svg version="1.1" id="Layer_1" xmlns="http://www.w3.org/2000/svg" xmlns:xlink="http://www.w3.org/1999/xlink" x="0px" y="0px"
	 viewBox="0 0 24 24" style="enable-background:new 0 0 24 24;" xml:space="preserve">
<style type="text/css">
	.st0{fill:#4A4A4A;}
</style>
<title>SDK</title>
<desc>Created with Sketch.</desc>
<path class="st0" d="M22.9,12.5c0.4-1-0.2-2.2-1.2-2.6L20,9.4l1.7-0.6c0.6-0.2,1-0.6,1.2-1.2c0.4-1-0.2-2.2-1.2-2.6l-9.1-3.3
	c-0.4-0.2-0.9-0.2-1.3,0L2.1,5c-0.6,0.2-1,0.6-1.2,1.2c-0.4,1,0.2,2.2,1.2,2.6l1.7,0.6L2.1,10c-0.6,0.2-1,0.6-1.2,1.2
	c-0.4,1,0.2,2.2,1.2,2.6l1.8,0.6L2.1,15c-0.6,0.2-1,0.6-1.2,1.2c-0.4,1,0.2,2.2,1.2,2.6l9.1,3.3c0.4,0.2,0.9,0.2,1.3,0l9.1-3.3
	c0.6-0.2,1-0.6,1.2-1.2c0.4-1-0.2-2.2-1.2-2.6L20,14.4l1.8-0.6C22.3,13.5,22.7,13.1,22.9,12.5z M1.9,6.5C2,6.2,2.2,6,2.5,5.9
	l9.1-3.3c0.2-0.1,0.5-0.1,0.7,0l9.1,3.3c0.5,0.2,0.8,0.8,0.6,1.3c-0.1,0.3-0.3,0.5-0.6,0.6l-9.1,3.3c-0.2,0.1-0.5,0.1-0.7,0L2.5,7.8
	C2,7.6,1.7,7,1.9,6.5z M12.9,16.9l5.5-2l2.9,1c0.5,0.2,0.8,0.8,0.6,1.3c-0.1,0.3-0.3,0.5-0.6,0.6l-9.1,3.3c-0.2,0.1-0.5,0.1-0.7,0
	l-9.1-3.3C2,17.6,1.7,17,1.9,16.5C2,16.2,2.2,16,2.5,15.9c1.7-0.6,1.7-0.6,2.8-1l0.2-0.1c0,0,0,0,0.1,0c0.1,0,0.1,0,0.2,0.1l5.1,1.8
	c0.1,0,0.1,0,0.2,0.1c0,0,0,0,0,0l0.3,0.1c0.4,0.2,0.9,0.2,1.3,0l0.2-0.1C12.9,16.9,12.9,16.9,12.9,16.9z M12.5,16
	c-0.4,0.1-0.8,0.1-1.2,0l-0.2-0.1c-2.5-0.9-4.2-1.5-5.1-1.8l-3.5-1.3C2,12.6,1.7,12,1.9,11.5C2,11.2,2.2,11,2.5,10.9l2.8-1l0,0
	l5.9,2.1c0.4,0.2,0.9,0.2,1.3,0l5.9-2.1l2.9,1c0.5,0.2,0.8,0.8,0.6,1.3c-0.1,0.3-0.3,0.5-0.6,0.6L12.5,16z"/>
</svg>
