<?xml version="1.0" encoding="UTF-8"?>
<svg width="24px" height="24px" viewBox="0 0 24 24" version="1.1" xmlns="http://www.w3.org/2000/svg" xmlns:xlink="http://www.w3.org/1999/xlink">
    <!-- Generator: Sketch 49.3 (51167) - http://www.bohemiancoding.com/sketch -->
    <title>Server</title>
    <desc>Created with Sketch.</desc>
    <defs>
        <rect id="path-1" x="11" y="20" width="3" height="3" rx="1"></rect>
    </defs>
    <g id="Server" stroke="none" stroke-width="1" fill="none" fill-rule="evenodd">
        <rect id="Rectangle-14" stroke="#4A4A4A" x="2.5" y="2.5" width="20" height="6" rx="2"></rect>
        <circle id="Oval" fill="#4A4A4A" cx="6.5" cy="5.5" r="1.5"></circle>
        <path d="M16.5,4.5 L16.5,6.5" id="Line" stroke="#4A4A4A" stroke-linecap="round"></path>
        <path d="M12.5,8.5 L12.5,11.5" id="Line" stroke="#4A4A4A" stroke-linecap="round"></path>
        <path d="M18.5,4.5 L18.5,6.5" id="Line" stroke="#4A4A4A" stroke-linecap="round"></path>
        <path d="M20.5,4.5 L20.5,6.5" id="Line" stroke="#4A4A4A" stroke-linecap="round"></path>
        <rect id="Rectangle-14" stroke="#4A4A4A" x="2.5" y="11.5" width="20" height="6" rx="2"></rect>
        <circle id="Oval" fill="#4A4A4A" cx="6.5" cy="14.5" r="1.5"></circle>
        <path d="M16.5,13.5 L16.5,15.5" id="Line" stroke="#4A4A4A" stroke-linecap="round"></path>
        <path d="M18.5,13.5 L18.5,15.5" id="Line" stroke="#4A4A4A" stroke-linecap="round"></path>
        <path d="M20.5,13.5 L20.5,15.5" id="Line" stroke="#4A4A4A" stroke-linecap="round"></path>
        <path d="M12.5,17.5 L12.5,20.5" id="Line" stroke="#4A4A4A" stroke-linecap="round"></path>
        <path d="M13.5,21.5 L17.5,21.5" id="Line-2" stroke="#4A4A4A" stroke-linecap="round"></path>
        <path d="M13.5,21.5 L17.5,21.5" id="Line-2" stroke="#4A4A4A" stroke-linecap="round"></path>
        <path d="M7.5,21.5 L11.5,21.5" id="Line-2" stroke="#4A4A4A" stroke-linecap="round"></path>
        <g id="Rectangle">
            <use fill="#E2E2E2" fill-rule="evenodd" xlink:href="#path-1"></use>
            <rect stroke="#4A4A4A" stroke-width="1" x="11.5" y="20.5" width="2" height="2" rx="1"></rect>
        </g>
    </g>
</svg>