<?xml version="1.0" encoding="UTF-8"?>
<svg width="24px" height="24px" viewBox="0 0 24 24" version="1.1" xmlns="http://www.w3.org/2000/svg" xmlns:xlink="http://www.w3.org/1999/xlink">
    <!-- Generator: Sketch 49.3 (51167) - http://www.bohemiancoding.com/sketch -->
    <title>Settings</title>
    <desc>Created with Sketch.</desc>
    <defs></defs>
    <g id="Settings" stroke="none" stroke-width="1" fill="none" fill-rule="evenodd">
        <path d="M6.28098531,15.0919809 L6.45871353,15.4199661 L4.23223305,17.6464466 C4.0369709,17.8417088 4.0369709,18.1582912 4.23223305,18.3535534 L5.64644661,19.767767 C5.84170876,19.9630291 6.15829124,19.9630291 6.35355339,19.767767 L8.58003387,17.5412865 L8.90801913,17.7190147 C9.3003094,17.9315884 9.71377296,18.1032621 10.1426248,18.2308947 L10.5,18.3372547 L10.5,21 C10.5,21.2761424 10.7238576,21.5 11,21.5 L13,21.5 C13.2761424,21.5 13.5,21.2761424 13.5,21 L13.5,18.3372547 L13.8573752,18.2308947 C14.286227,18.1032621 14.6996906,17.9315884 15.0919809,17.7190147 L15.4199661,17.5412865 L17.6464466,19.767767 C17.8417088,19.9630291 18.1582912,19.9630291 18.3535534,19.767767 L19.767767,18.3535534 C19.9630291,18.1582912 19.9630291,17.8417088 19.767767,17.6464466 L17.5412865,15.4199661 L17.7190147,15.0919809 C17.9315884,14.6996906 18.1032621,14.286227 18.2308947,13.8573752 L18.3372547,13.5 L21,13.5 C21.2761424,13.5 21.5,13.2761424 21.5,13 L21.5,11 C21.5,10.7238576 21.2761424,10.5 21,10.5 L18.3372547,10.5 L18.2308947,10.1426248 C18.1032621,9.71377296 17.9315884,9.3003094 17.7190147,8.90801913 L17.5412865,8.58003387 L19.767767,6.35355339 C19.9630291,6.15829124 19.9630291,5.84170876 19.767767,5.64644661 L18.3535534,4.23223305 C18.1582912,4.0369709 17.8417088,4.0369709 17.6464466,4.23223305 L15.4199661,6.45871353 L15.0919809,6.28098531 C14.6996906,6.06841157 14.286227,5.89673786 13.8573752,5.76910531 L13.5,5.66274525 L13.5,3 C13.5,2.72385763 13.2761424,2.5 13,2.5 L11,2.5 C10.7238576,2.5 10.5,2.72385763 10.5,3 L10.5,5.66274525 L10.1426248,5.76910531 C9.71377296,5.89673786 9.3003094,6.06841157 8.90801913,6.28098531 L8.58003387,6.45871353 L6.35355339,4.23223305 C6.15829124,4.0369709 5.84170876,4.0369709 5.64644661,4.23223305 L4.23223305,5.64644661 C4.0369709,5.84170876 4.0369709,6.15829124 4.23223305,6.35355339 L6.45871353,8.58003387 L6.28098531,8.90801913 C6.06841157,9.3003094 5.89673786,9.71377296 5.76910531,10.1426248 L5.66274525,10.5 L3,10.5 C2.72385763,10.5 2.5,10.7238576 2.5,11 L2.5,13 C2.5,13.2761424 2.72385763,13.5 3,13.5 L5.28987868,13.5 L5.66274525,13.5 L5.76910531,13.8573752 C5.89673786,14.286227 6.06841157,14.6996906 6.28098531,15.0919809 Z" id="Combined-Shape" stroke="#4A4A4A"></path>
        <circle id="Oval-10" stroke="#4A4A4A" cx="12.2123653" cy="11.7876347" r="3.19065994"></circle>
    </g>
</svg>