<?xml version="1.0" encoding="UTF-8"?>
<svg width="23px" height="40px" viewBox="0 0 23 40" version="1.1" xmlns="http://www.w3.org/2000/svg" xmlns:xlink="http://www.w3.org/1999/xlink">
    <!-- Generator: Sketch 52.6 (67491) - http://www.bohemiancoding.com/sketch -->
    <title>Rectangle 30</title>
    <desc>Created with Sketch.</desc>
    <defs>
        <linearGradient x1="50%" y1="0%" x2="50%" y2="100%" id="linearGradient-1">
            <stop stop-color="#FAD961" offset="0%"></stop>
            <stop stop-color="#F7CB1C" offset="100%"></stop>
        </linearGradient>
    </defs>
    <g id="Page-1" stroke="none" stroke-width="1" fill="none" fill-rule="evenodd">
        <g id="FAQ-Web-view05" transform="translate(-1118.000000, -412.000000)" fill="url(#linearGradient-1)">
            <path d="M1122,412 L1137,412 C1139.20914,412 1141,413.790861 1141,416 L1141,450.002558 C1141,451.107128 1140.10457,452.002558 1139,452.002558 C1138.42601,452.002558 1137.87968,451.755943 1137.50002,451.325455 L1130.99998,443.955309 C1130.26937,443.126892 1129.00552,443.047608 1128.1771,443.778224 C1128.11443,443.833495 1128.05529,443.892639 1128.00002,443.955309 L1121.49998,451.325455 C1120.76937,452.153872 1119.50552,452.233156 1118.6771,451.50254 C1118.24662,451.122875 1118,450.57655 1118,450.002558 L1118,416 C1118,413.790861 1119.79086,412 1122,412 Z" id="Rectangle-30"></path>
        </g>
    </g>
</svg>