<svg xmlns="http://www.w3.org/2000/svg">
  <symbol id="star" viewBox="0 0 26 25">
    <path d="M13.0004 20.5497L19.0525 24.2102C20.1608 24.881 21.517 23.8893 21.2254 22.6352L19.6212 15.7518L24.9733 11.1143C25.9504 10.2685 25.4254 8.66432 24.142 8.56224L17.0983 7.96432L14.342 1.46016C13.8462 0.278906 12.1545 0.278906 11.6587 1.46016L8.90246 7.94974L1.85871 8.54766C0.575381 8.64974 0.0503805 10.2539 1.02746 11.0997L6.37955 15.7372L4.77538 22.6206C4.48371 23.8747 5.83996 24.8664 6.9483 24.1956L13.0004 20.5497Z" fill="#B3B3B3"/>
  </symbol>
  <symbol id="marker" viewBox="0 0 11 15">
    <g fill="#787474" fill-rule="nonzero">
      <path d="M5.5 0C2.46718421 0 0 2.46718421 0 5.5c0 2.95465789 5.06868421 8.6370263 5.28463158 8.8775789.05471053.061079.13315789.0961053.21536842.0961053s.16065789-.0350263.21536842-.0961053C5.93102632 14.1370263 11 8.45465789 11 5.5 11 2.46718421 8.53281579 0 5.5 0zm0 13.7447895C4.52505263 12.6184474.57894737 7.90957895.57894737 5.5.57894737 2.78647368 2.78647368.57894737 5.5.57894737S10.4210526 2.78647368 10.4210526 5.5c0 2.40842105-3.94610523 7.1184474-4.9210526 8.2447895z" stroke="#787474" stroke-width="0.3"/>
      <path d="M5.5 2.89473684c-1.43636842 0-2.60526316 1.16889474-2.60526316 2.60526316 0 1.43636842 1.16889474 2.60526316 2.60526316 2.60526316 1.43665789 0 2.60526316-1.16889474 2.60526316-2.60526316 0-1.43636842-1.16860527-2.60526316-2.60526316-2.60526316zm0 4.63157895c-1.11736842 0-2.02631579-.90894737-2.02631579-2.02631579S4.38263158 3.47368421 5.5 3.47368421c1.11707895 0 2.02631579.90894737 2.02631579 2.02631579S6.61707895 7.52631579 5.5 7.52631579z" stroke="#787474" stroke-width="0.3"/>
    </g>
  </symbol>
  <symbol id="upload" viewBox="0 0 16 18">
    <path fill="#787474" fill-rule="nonzero" d="M2.79801641 16.79165738l.01279906.00769045c2.7142501 1.62062499 4.9765631.04219128 6.1885999-1.97497667.3270023-.54422324 1.55448623-2.52445363 1.55448623-2.52445363l-.0042666 4.30129998c.00036555.73061069-.59374364 1.32471878-1.32435433 1.32471878-2.5510617-.0199961-5.71546061-.03875874-8.13250061-.00254141-.73061069.01095841-1.32471878-.59314917-1.32471878-1.32375986V5.74772318c0-.73061068.59410809-1.32471878 1.32471878-1.32471878h3.00465502v-.992.001h-.992v-.992h-.992V.992h-.992V0h2.976c.54735 0 .992.44465.992.992v10.03689038c0 .39368646.3190526.71273906.7127391.71273906s.7127391-.3190526.7127391-.71273906V3.49869298l2.0600734 2.0600734c.39272477.39272477 1.02981083.39272477 1.4225356 0 .3927248-.39272477.3927248-1.02981083 0-1.4225356L8.40121378.29321049C8.00848901-.09951427 7.37140295-.09951427 6.97867818.29321049L2.79801641 4.47387226c-.39272477.39272477-.39272477 1.02981083 0 1.4225356.39272477.39272477 1.02981083.39272477 1.4225356 0l.98575774-.98575775V15.4766s.92173895 1.72008702 1.59147888 2.31954607"/>
  </symbol>
  <symbol id="envelope-grey" viewBox="0 0 512 311">
    <path d="M512 26c-.021-14.449-12.555-26-27-26L26 1c-7 .009-13.053 2.04-18 7a27.439 27.439 0 0 0-8 19v258c.009 7.005 3.04 13.053 8 18a27.514 27.514 0 0 0 19 8l459-1a25.874 25.874 0 0 0 26-26zm-55 0L256 166 55 27zM304.486 158.416L460 284l-408 1 155.333-126.584c5.722-4.439-11.276-25.438-17-21L27 271 26 39l223 153c2.244 1.551 4.394 3 7 3s5.751-1.437 8-3L485 38l1 233-165.514-133.584c-5.719-4.437-21.724 16.562-16 21z" fill="#6b6767"/>
  </symbol>
  <symbol id="envelope-red" viewBox="0 0 512 311">
    <path d="M512 26c-.021-14.449-12.555-26-27-26L26 1c-7 .009-13.053 2.04-18 7a27.439 27.439 0 0 0-8 19v258c.009 7.005 3.04 13.053 8 18a27.514 27.514 0 0 0 19 8l459-1a25.874 25.874 0 0 0 26-26zm-55 0L256 166 55 27zM304.486 158.416L460 284l-408 1 155.333-126.584c5.722-4.439-11.276-25.438-17-21L27 271 26 39l223 153c2.244 1.551 4.394 3 7 3s5.751-1.437 8-3L485 38l1 233-165.514-133.584c-5.719-4.437-21.724 16.562-16 21z" fill="#D64242"/>
  </symbol>
  <symbol id="close-white" viewBox="0 0 24 24">
    <path d="M19 6.41L17.59 5 12 10.59 6.41 5 5 6.41 10.59 12 5 17.59 6.41 19 12 13.41 17.59 19 19 17.59 13.41 12z" fill="#FFFFFF"/>
  </symbol>
  <symbol id="close-dark" viewBox="0 0 20 20">
    <path d="M15.2501 4.75831C14.9251 4.43331 14.4001 4.43331 14.0751 4.75831L10.0001 8.82498L5.9251 4.74998C5.6001 4.42498 5.0751 4.42498 4.7501 4.74998C4.4251 5.07498 4.4251 5.59998 4.7501 5.92498L8.8251 9.99998L4.7501 14.075C4.4251 14.4 4.4251 14.925 4.7501 15.25C5.0751 15.575 5.6001 15.575 5.9251 15.25L10.0001 11.175L14.0751 15.25C14.4001 15.575 14.9251 15.575 15.2501 15.25C15.5751 14.925 15.5751 14.4 15.2501 14.075L11.1751 9.99998L15.2501 5.92498C15.5668 5.60831 15.5668 5.07498 15.2501 4.75831V4.75831Z" fill="#1C1C1C"/>
  </symbol>
  <symbol id="error" viewBox="0 0 12 12">
    <path d="M6 1C3.24 1 1 3.24 1 6C1 8.76 3.24 11 6 11C8.76 11 11 8.76 11 6C11 3.24 8.76 1 6 1ZM6 8.5C5.725 8.5 5.5 8.275 5.5 8V6C5.5 5.725 5.725 5.5 6 5.5C6.275 5.5 6.5 5.725 6.5 6V8C6.5 8.275 6.275 8.5 6 8.5ZM6.5 4.5H5.5V3.5H6.5V4.5Z" fill="#D64242"/>
  </symbol>
  <symbol id="arrow-left" viewBox="0 0 24 24">
    <path d="M15.41 16.09l-4.58-4.59 4.58-4.59L14 5.5l-6 6 6 6z"/>
    <path d="M0-.5h24v24H0z" fill="none"/>
  </symbol>
  <symbol id="dots-vertical" viewBox="0 0 16 16">
    <path fill-rule="evenodd" d="M9.5 13a1.5 1.5 0 1 1-3 0 1.5 1.5 0 0 1 3 0zm0-5a1.5 1.5 0 1 1-3 0 1.5 1.5 0 0 1 3 0zm0-5a1.5 1.5 0 1 1-3 0 1.5 1.5 0 0 1 3 0z"/>
  </symbol>
  <symbol id="search" viewBox="0 0 16 16">
    <path fill="#585555" fill-rule="nonzero" d="M10.557 9.573l5.162 5.162-.984.984-5.162-5.162a5.913 5.913 0 1 1 .984-.984zm-4.644.862a4.522 4.522 0 1 0 0-9.044 4.522 4.522 0 0 0 0 9.044z" opacity=".618"/>
  </symbol>
  <symbol id="clear-search" viewBox="0 0 14 14">
    <g fill="none" fill-rule="evenodd">
      <circle cx="7" cy="7" r="7" fill="#B7B4B4" fill-rule="nonzero"/>
      <path fill="#FFF" d="M6.814 6.26L4.502 3.945a.393.393 0 0 0-.555.555l2.313 2.313a.262.262 0 0 1 0 .371L3.946 9.498a.393.393 0 0 0 .555.555L6.814 7.74a.262.262 0 0 1 .371 0l2.313 2.314a.393.393 0 0 0 .556-.555L7.74 7.185a.262.262 0 0 1 0-.37L10.054 4.5a.393.393 0 0 0-.556-.555L7.185 6.259a.262.262 0 0 1-.37 0z"/>
    </g>
  </symbol>
  <symbol id="spinner" viewBox="25 25 50 50">
    <circle class="mck-spinner-path" cx="50" cy="50" r="20" fill="none" stroke-width="2" stroke-miterlimit="10"/>
  </symbol>
  <symbol id="rating-sad" viewBox="0 0 17 18">
    <path d="M10.9307 8.30567C11.506 8.30567 11.9723 7.83929 11.9723 7.264C11.9723 6.6887 11.506 6.22233 10.9307 6.22233C10.3554 6.22233 9.889 6.6887 9.889 7.264C9.889 7.83929 10.3554 8.30567 10.9307 8.30567Z" fill="#D64242"/>
    <path d="M6.06955 8.30567C6.64485 8.30567 7.11122 7.83929 7.11122 7.264C7.11122 6.6887 6.64485 6.22233 6.06955 6.22233C5.49426 6.22233 5.02789 6.6887 5.02789 7.264C5.02789 7.83929 5.49426 8.30567 6.06955 8.30567Z" fill="#D64242"/>
    <path d="M8.49317 2.05566C4.65983 2.05566 1.55566 5.16678 1.55566 9.00011C1.55566 12.8334 4.65983 15.9446 8.49317 15.9446C12.3334 15.9446 15.4446 12.8334 15.4446 9.00011C15.4446 5.16678 12.3334 2.05566 8.49317 2.05566ZM8.50011 14.5557C5.43066 14.5557 2.94455 12.0696 2.94455 9.00011C2.94455 5.93066 5.43066 3.44455 8.50011 3.44455C11.5696 3.44455 14.0557 5.93066 14.0557 9.00011C14.0557 12.0696 11.5696 14.5557 8.50011 14.5557ZM8.50011 10.389C7.18067 10.389 5.97928 11.0626 5.27094 12.1807C5.11816 12.4237 5.19455 12.7432 5.43761 12.8959C5.68066 13.0487 6.00011 12.9723 6.15289 12.7293C6.66678 11.9098 7.54178 11.4237 8.50011 11.4237C9.45844 11.4237 10.3334 11.9098 10.8473 12.7293C10.9446 12.889 11.1182 12.9723 11.2918 12.9723C11.389 12.9723 11.4793 12.9446 11.5696 12.8959C11.8126 12.7432 11.889 12.4237 11.7362 12.1807C11.0209 11.0557 9.81955 10.389 8.50011 10.389Z" fill="#D64242"/>
  </symbol>
  <symbol id="rating-neutral" viewBox="0 0 17 18">
    <path d="M6.93761 11.4307H10.0626C10.3473 11.4307 10.5834 11.1946 10.5834 10.9098C10.5834 10.6251 10.3473 10.389 10.0626 10.389H6.93761C6.65289 10.389 6.41678 10.6251 6.41678 10.9098C6.41678 11.1946 6.65289 11.4307 6.93761 11.4307Z" fill="#ED9D00"/>
    <path d="M10.9307 8.30567C11.506 8.30567 11.9723 7.83929 11.9723 7.264C11.9723 6.6887 11.506 6.22233 10.9307 6.22233C10.3554 6.22233 9.889 6.6887 9.889 7.264C9.889 7.83929 10.3554 8.30567 10.9307 8.30567Z" fill="#ED9D00"/>
    <path d="M6.06955 8.30567C6.64485 8.30567 7.11122 7.83929 7.11122 7.264C7.11122 6.6887 6.64485 6.22233 6.06955 6.22233C5.49426 6.22233 5.02789 6.6887 5.02789 7.264C5.02789 7.83929 5.49426 8.30567 6.06955 8.30567Z" fill="#ED9D00"/>
    <path d="M8.49317 2.05566C4.65983 2.05566 1.55566 5.16678 1.55566 9.00011C1.55566 12.8334 4.65983 15.9446 8.49317 15.9446C12.3334 15.9446 15.4446 12.8334 15.4446 9.00011C15.4446 5.16678 12.3334 2.05566 8.49317 2.05566ZM8.50011 14.5557C5.43066 14.5557 2.94455 12.0696 2.94455 9.00011C2.94455 5.93066 5.43066 3.44455 8.50011 3.44455C11.5696 3.44455 14.0557 5.93066 14.0557 9.00011C14.0557 12.0696 11.5696 14.5557 8.50011 14.5557Z" fill="#ED9D00"/>
  </symbol>
  <symbol id="rating-happy" viewBox="0 0 18 18">
    <path d="M11.4307 8.30567C12.006 8.30567 12.4723 7.83929 12.4723 7.264C12.4723 6.6887 12.006 6.22233 11.4307 6.22233C10.8554 6.22233 10.389 6.6887 10.389 7.264C10.389 7.83929 10.8554 8.30567 11.4307 8.30567Z" fill="#2EA63A"/>
    <path d="M6.56955 8.30567C7.14485 8.30567 7.61122 7.83929 7.61122 7.264C7.61122 6.6887 7.14485 6.22233 6.56955 6.22233C5.99426 6.22233 5.52789 6.6887 5.52789 7.264C5.52789 7.83929 5.99426 8.30567 6.56955 8.30567Z" fill="#2EA63A"/>
    <path d="M9.00011 11.7779C7.97233 11.7779 7.09039 11.2154 6.60428 10.389H5.44455C6.00011 11.8126 7.38205 12.8196 9.00011 12.8196C10.6182 12.8196 12.0001 11.8126 12.5557 10.389H11.3959C10.9098 11.2154 10.0279 11.7779 9.00011 11.7779ZM8.99317 2.05566C5.15983 2.05566 2.05566 5.16678 2.05566 9.00011C2.05566 12.8334 5.15983 15.9446 8.99317 15.9446C12.8334 15.9446 15.9446 12.8334 15.9446 9.00011C15.9446 5.16678 12.8334 2.05566 8.99317 2.05566ZM9.00011 14.5557C5.93066 14.5557 3.44455 12.0696 3.44455 9.00011C3.44455 5.93066 5.93066 3.44455 9.00011 3.44455C12.0696 3.44455 14.5557 5.93066 14.5557 9.00011C14.5557 12.0696 12.0696 14.5557 9.00011 14.5557Z" fill="#2EA63A"/>
  </symbol>
  <symbol id="send" viewBox="0 0 15 15">
    <path class="km-custom-widget-fill" fill="#5553B7" fill-rule="evenodd" d="M7.878 7.858l-6.032.584-1.588 5.076a.787.787 0 0 0 1.097.944l13.22-6.401a.752.752 0 0 0 0-1.353L1.364.302a.787.787 0 0 0-1.096.944l1.587 5.077 6.021.584a.475.475 0 0 1 0 .946l.002.005z"/>
  </symbol>
  <symbol id="mic" viewBox="0 0 24 24">
    <path fill="#787474" d="M12 14c1.66 0 2.99-1.34 2.99-3L15 5c0-1.66-1.34-3-3-3S9 3.34 9 5v6c0 1.66 1.34 3 3 3zm5.3-3c0 3-2.54 5.1-5.3 5.1S6.7 14 6.7 11H5c0 3.41 2.72 6.23 6 6.72V21h2v-3.28c3.28-.48 6-3.3 6-6.72h-1.7z"/>
    <path d="M0 0h24v24H0z" fill="none"/>
  </symbol>
  <symbol id="voice-note" viewBox="0 0 24 24">
    <path d="M8.85 16.5C7.125 16.5 5.55 15.15 5.55 13.35H4.5C4.5 15.45 6.225 17.25 8.25 17.55V19.575H9.525V17.55C11.55 17.25 13.275 15.45 13.275 13.35H12.225C12.15 15.225 10.575 16.5 8.85 16.5Z" fill="#919EAD"/>
    <path d="M8.85 15.225C9.9 15.225 10.725 14.4 10.725 13.35V9.59998C10.725 8.54998 9.9 7.72498 8.85 7.72498C7.8 7.72498 6.975 8.54998 6.975 9.59998V13.35C6.975 14.325 7.8 15.225 8.85 15.225Z" fill="#919EAD"/>
    <path d="M13 5.48601V10.514C13 10.8974 13.4288 11.1304 13.759 10.9217L17.7708 8.40767C18.0764 8.2184 18.0764 7.7816 17.7708 7.58747L13.759 5.07833C13.4288 4.86964 13 5.1026 13 5.48601Z" fill="#919EAD"/>
  </symbol>
  <symbol id="voice-input" viewBox="0 0 24 24">
    <path d="M14.15 0.75H9.35C8.225 0.75 7.325 1.65 7.325 2.775V5.775C7.325 6.9 8.225 7.8 9.35 7.8H14.15C15.275 7.8 16.175 6.9 16.175 5.775V2.775C16.25 1.65 15.275 0.75 14.15 0.75ZM15.125 5.775C15.125 6.3 14.675 6.75 14.15 6.75H9.35C8.825 6.75 8.375 6.3 8.375 5.775V2.775C8.375 2.25 8.825 1.8 9.35 1.8H14.15C14.675 1.8 15.125 2.25 15.125 2.775V5.775Z" fill="#919EAD"/>
    <path d="M10.025 3.675C9.65 3.675 9.425 3.975 9.425 4.275C9.425 4.575 9.725 4.875 10.025 4.875C10.4 4.875 10.625 4.575 10.625 4.275C10.625 3.975 10.325 3.675 10.025 3.675Z" fill="#919EAD"/>
    <path d="M11.75 3.675C11.375 3.675 11.15 3.975 11.15 4.275C11.15 4.575 11.45 4.875 11.75 4.875C12.125 4.875 12.35 4.575 12.35 4.275C12.35 3.975 12.125 3.675 11.75 3.675Z" fill="#919EAD"/>
    <path d="M13.55 3.675C13.175 3.675 12.95 3.975 12.95 4.275C12.95 4.575 13.25 4.875 13.55 4.875C13.925 4.875 14.15 4.575 14.15 4.275C14.15 3.975 13.85 3.675 13.55 3.675Z" fill="#919EAD"/>
    <path d="M4.85 13.5C3.125 13.5 1.55 12.15 1.55 10.35H0.5C0.5 12.45 2.225 14.25 4.25 14.55V16.575H5.525V14.55C7.55 14.25 9.275 12.45 9.275 10.35H8.225C8.15 12.225 6.575 13.5 4.85 13.5Z" fill="#919EAD"/>
    <path d="M4.85 12.225C5.9 12.225 6.725 11.4 6.725 10.35V6.6C6.725 5.55 5.9 4.725 4.85 4.725C3.8 4.725 2.975 5.55 2.975 6.6V10.35C2.975 11.325 3.8 12.225 4.85 12.225Z" fill="#919EAD"/>
  </symbol>
  <symbol id="bot" viewBox="0 0 20 26">
    <path d="M19.463 11.2112H18.7112V8.83055C18.6933 8.54415 18.4606 8.31146 18.1742 8.29356H13.037V5H11.963V8.29356H6.82578C6.53938 8.31146 6.30668 8.54415 6.28878 8.83055V11.2112H5.53699C5.2327 11.2112 5 11.4439 5 11.7482V15.2924C5 15.5967 5.2327 15.8294 5.53699 15.8294H6.28878V19.1408C6.30668 19.4272 6.53938 19.6599 6.82578 19.6778H18.1742C18.4606 19.6599 18.6933 19.4272 18.7112 19.1408V15.8294H19.463C19.7673 15.8294 20 15.5967 20 15.2924V11.7482C20 11.4439 19.7673 11.2112 19.463 11.2112ZM8.50835 12.4821C8.50835 11.6229 9.20644 10.9248 10.0656 10.9248C10.9248 10.9248 11.6229 11.6229 11.6229 12.4821C11.6229 13.3413 10.9248 14.0394 10.0656 14.0394C9.20644 14.0394 8.50835 13.3413 8.50835 12.4821ZM14.8628 17.1539H10.1372V16.08H14.8628V17.1539V17.1539ZM16.4916 12.4821C16.4916 13.3413 15.7936 14.0394 14.9344 14.0394C14.0573 14.0394 13.3592 13.3413 13.3413 12.4821C13.3413 11.605 14.0394 10.9069 14.8986 10.889C15.7578 10.8711 16.4737 11.5871 16.4916 12.4463C16.4916 12.4642 16.4916 12.4642 16.4916 12.4821Z" fill="#8F8F8F"/>
  </symbol>
  <symbol id="emoji" viewBox="0 0 24 24">
    <path d="M15.65 10.675C16.025 10.675 16.3438 10.5437 16.6062 10.2812C16.8688 10.0188 17 9.7 17 9.325C17 8.95 16.8688 8.63125 16.6062 8.36875C16.3438 8.10625 16.025 7.975 15.65 7.975C15.275 7.975 14.9562 8.10625 14.6938 8.36875C14.4312 8.63125 14.3 8.95 14.3 9.325C14.3 9.7 14.4312 10.0188 14.6938 10.2812C14.9562 10.5437 15.275 10.675 15.65 10.675ZM8.35 10.675C8.725 10.675 9.04375 10.5437 9.30625 10.2812C9.56875 10.0188 9.7 9.7 9.7 9.325C9.7 8.95 9.56875 8.63125 9.30625 8.36875C9.04375 8.10625 8.725 7.975 8.35 7.975C7.975 7.975 7.65625 8.10625 7.39375 8.36875C7.13125 8.63125 7 8.95 7 9.325C7 9.7 7.13125 10.0188 7.39375 10.2812C7.65625 10.5437 7.975 10.675 8.35 10.675ZM12 0C5.38306 0 0 5.38306 0 12C0 18.6169 5.38306 24 12 24C18.6169 24 24 18.6169 24 12C24 5.38306 18.6169 0 12 0ZM12 22.2C7.02862 22.2 2.8 17.9714 2.8 13C2.8 8.02862 7.02862 3.8 12 3.8C16.9714 3.8 21.2 8.02862 21.2 13C21.2 17.9714 16.9714 22.2 12 22.2ZM11.9997 19.025C10.8747 19.025 9.85 18.6844 8.925 18.0031C8 17.3219 7.45 16.45 7.275 15.3875H8.625C8.79999 16.0875 9.21666 16.6375 9.87499 17.0375C10.5333 17.4375 11.2333 17.6375 11.975 17.6375C12.7167 17.6375 13.4167 17.4375 14.075 17.0375C14.7333 16.6375 15.15 16.0875 15.325 15.3875H16.675C16.5 16.45 15.95 17.3219 15.025 18.0031C14.1 18.6844 13.0747 19.025 11.9497 19.025H11.9997Z" fill="#8F8F8F"/>
  </symbol>
  <symbol id="stop" viewBox="0 0 24 24">
    <circle cx="12" cy="12" r="12" fill="#ED495C"/>
    <circle cx="12" cy="12" r="11" fill="white"/>
    <rect x="7" y="7" width="10" height="10" fill="#ED495C"/>
  </symbol>
  <symbol id="star-small" viewBox="0 0 16 16">
    <path d="M8 11.8467L12.12 14.3334 11.0266 9.64675 14.6666 6.49341 9.87331 6.08675 8 1.66675 6.12665 6.08675 1.33331 6.49341 4.97331 9.64675 3.87998 14.3334 8 11.8467Z" fill="#8F8F8F"/>
  </symbol>
  <symbol id="restart" viewBox="0 0 16 16">
    <path d="M4 8.85669c0-1.1.44667-2.1 1.17333-2.82667L4.22667 5.08336C3.26667 6.05002 2.66667 7.38336 2.66667 8.85669c0 2.72 2.03333 4.96 4.66666 5.28671v-1.3467C5.44667 12.4767 4 10.8367 4 8.85669Zm9.33333 0c0-2.94667-2.38667-5.33333-5.33333-5.33333-.04 0-.08.00667-.12.00667l.72667-.72667-.94-.94667L5.33333 4.19002l2.33334 2.33334.94-.94-.72-.72c.04 0 .08-.00667.11333-.00667 2.20667 0 4 1.79333 4 4 0 1.98-1.44667 3.62-3.33333 3.94v1.3467c2.63334-.32671 4.66667-2.56671 4.66667-5.28671Z" fill="#8F8F8F"/>
  </symbol>
  <symbol id="volume-on" viewBox="0 0 13 12">
    <path d="M.459 4.66672v2.66667c0 .36667.30984.66667.68853.66667h2.06557l2.26525 2.19334c.43377.42 1.17738.12 1.17738-.47334V2.27339c0-.59333-.74361-.89333-1.17738-.47333L3.2131 4.00006H1.14753c-.37869 0-.68853.3-.68853.66666Zm9.29509 1.33334c0-1.18-.7023-2.19334-1.71962-2.68667v5.36667c1.01902-.48667 1.72132-1.5 1.72132-2.68Zm-1.72132-5.03334v.13334c0 .25333.17214.47333.41312.56667 1.77643.68667 3.02953 2.37334 3.02953 4.33334s-1.2531 3.64667-3.02953 4.33334c-.24787.09333-.41312.31333-.41312.56666v.13334c0 .43334.43378.72667.83312.58 2.33413-.86 3.98653-3.04 3.98653-5.6s-1.6524-4.74-3.98653-5.6c-.39934-.15333-.83312.14667-.83312.56667Z" fill="#8F8F8F"/>
  </symbol>
  <symbol id="volume-off" viewBox="0 0 7 10">
    <path d="M.459 3.66668v2.66667c0 .36666.30984.66666.68853.66666h2.06558l2.26524 2.19334c.43377.42 1.17738.12 1.17738-.47334V1.27334c0-.593328-.74361-.893328-1.17738-.473328L3.21311 3.00001H1.14753C.76884 3.00001.459 3.30001.459 3.66668Z" fill="#8F8F8F"/>
  </symbol>
  <symbol id="faq" viewBox="0 0 14 14">
    <path d="M9 1.66667V6.33334H2.44659L1.66659 7.11334V1.66667H9Zm.66667-1.333334H1c-.36667 0-.66667.3-.66667.666664V10.3333L3 7.66667h6.66667c.36666 0 .66666-.3.66666-.66667V1c0-.366664-.3-.666664-.66666-.666664ZM13 3h-1.3333V9H3v1.3333c0 .3667.3.6667.66667.6667H11l2.6667 2.6667V3.66667C13.6667 3.3 13.3667 3 13 3Z" fill="#8F8F8F"/>
  </symbol>
  <symbol id="talk-human" viewBox="0 0 18 15">
    <path d="M15.6666.756661H2.34163C1.42496.756661.674959 1.50666.674959 2.42333L.666626 15.4067c0 .7416.9 1.1166 1.425 0.5916L3.99996 14.09h11.66664c.9167 0 1.6667-.75 1.6667-1.6667V2.42333c0-.91667-.75-1.666669-1.6667-1.666669ZM9 4.08999c.91663 0 1.66663.75 1.66663 1.66667S9.91663 7.42333 9 7.42333c-.91667 0-1.66667-.75-1.66667-1.66667S8.08333 4.08999 9 4.08999Zm3.3333 6.66671H5.66663V10.2817c0-.675.4-1.27566 1.01666-1.54233.71667-.30834 1.501  -.48334 2.32601-.48334.825 0 1.6083.175 2.325  .48334.6334.26667 1.0334.86667 1.0334 1.54167V10.7567Z" fill="#8F8F8F"/>
  </symbol>
  <symbol id="no-results" viewBox="0 0 24 24">
    <path d="M18.01 22H6a2 2 0 0 1-2-2V8l6-6h8a2 2 0 0 1 1.991 2l.01 16a2 2 0 0 1-1.991 2zM6.037 16v1.5h7V16zm0-3v1.5h10V13zM11 3.5 5.5 9H11V3.5z" fill="#c5c5c7"/>
    <path fill="none" d="M24 0H0v24h24z"/>
  </symbol>
  <symbol id="rating-complete" viewBox="0 0 35 35">
    <g fill="none" fill-rule="evenodd">
      <circle cx="17.497" cy="17.497" r="17.497" fill="#FFCC4D"/>
      <g fill="#6F543A" transform="translate(8.089 8.713)">
        <circle cx="4.411" cy="2.787" r="2.5"/>
        <circle cx="14.411" cy="2.787" r="2.5"/>
        <path d="M1.499 15.287h16.825c.783 0 .783-1 0-1H1.499c-.783 0-.783 1 0 1z"/>
      </g>
    </g>
  </symbol>
  <symbol id="camera" viewBox="0 0 24 24">
    <path d="M11.8889 15.5556c1.4727 0 2.6667-1.194 2.6667-2.6667S13.3616 10.2222 11.8889 10.2222 9.22222 11.4161 9.22222 12.8889s1.194 2.6667 2.66668 2.6667Z" fill="#787474"/>
    <path d="M19 5.77778h-2.8178l-1.1022-1.2c-.3289-.36445-.8089-.57778-1.3067-.57778H10.0044c-.49777 0-.97777.21333-1.31555.57778L7.59556 5.77778H4.77778C3.8 5.77778 3 6.57778 3 7.55556V18.2222C3 19.2 3.8 20 4.77778 20H19c.9778 0 1.7778-.8 1.7778-1.7778V7.55556C20.7778 6.57778 19.9778 5.77778 19 5.77778ZM11.8889 17.3333c-2.45334 0-4.44445-1.9911-4.44445-4.4444S9.43556 8.44444 11.8889 8.44444s4.4444 1.99112 4.4444 4.44446-1.9911 4.4444-4.4444 4.4444Z" fill="#787474"/>
  </symbol>
  <symbol id="video" viewBox="0 0 24 24">
    <path d="M17 10.5V7c0-.55-.45-1-1-1H4c-.55 0-1 .45-1 1v10c0 .55.45 1 1 1h12c.55 0 1-.45 1-1v-3.5l2.29 2.29c.63.63 1.71.18 1.71-.71V8.91c0-.89-1.08-1.34-1.71-.71L17 10.5z" fill="#787474"/>
  </symbol>
  <symbol id="trash" viewBox="0 0 18 22">
    <path d="M2 19.1667C2 20.45 3.05 21.5 4.33333 21.5h9.33334C14.95 21.5 16 20.45 16 19.1667V7.5C16 6.21667 14.95 5.16667 13.6667 5.16667H4.33333C3.05 5.16667 2 6.21667 2 7.5v11.6667Zm14-17.5h-2.9167l-.8283-.828337c-.21-.21-.5134-.338333-.8167-.338333H6.56167c-.30333 0-.60666.128333-.81666.338333L4.91667 1.66667H2c-.64167 0-1.16667.525-1.16667 1.16666 0 .64167.525 1.16667 1.16667 1.16667h14c.6417 0 1.1667-.525 1.1667-1.16667 0-.64166-.525-1.16666-1.1667-1.16666Z" fill="#919EAD"/>
  </symbol>
  <symbol id="pause" viewBox="0 0 24 24">
    <path d="M12 0C5.38306 0 0 5.38306 0 12c0 6.61694 5.38306 12 12 12s12-5.38306 12-12S18.6169 0 12 0ZM10.0466 16.186c0 .6165-.49992 1.1162-1.11622 1.1162-.61649 0-1.11618-.4999-1.11618-1.1162V7.81395c0-.61649.49988-1.11618 1.11618-1.11618.6163 0 1.1161.4999 1.1161 1.11618V16.186Zm6.1395 0c0 .6165-.4999 1.1162-1.1162 1.1162-.6165 0-1.1162-.4999-1.1162-1.1162V7.81395c0-.61649.4997-1.11618 1.1162-1.11618.6163 0 1.1162.4999 1.1162 1.11618V16.186Z" fill="#919EAD"/>
  </symbol>
  <symbol id="play" viewBox="0 0 24 24">
    <path d="M12 0C5.38105 0 0 5.38105 0 12s5.38105 12 12 12 12-5.38105 12-12S18.6189 0 12 0Zm3.8653 12.6063-5.659 3.7641c-.48.3285-1.13678-.0252-1.13678-.6063V8.23565c0-.581 .65688-.93469 1.13688-.60636l5.659 3.76434c.4294.278.4294.9349 0 1.21271Z" fill="#919EAD"/>
  </symbol>
  <symbol id="edit" viewBox="0 0 24 24">
    <path d="M3 17.25V21h3.75L17.81 9.94l-3.75-3.75L3 17.25zM20.71 7.04c.39-.39.39-1.02 0-1.41l-2.34-2.34c-.39-.39-1.02-.39-1.41 0l-1.83 1.83 3.75 3.75 1.83-1.83z"/>
    <path d="M0 0h24v24H0z" fill="none"/>
  </symbol>
  <symbol id="check" viewBox="0 0 24 24">
    <path fill="none" d="M0 0h24v24H0z"/>
    <path d="M9 16.2 4.8 12l-1.4 1.4L9 19l12-12-1.4-1.4L9 16.2z"/>
  </symbol>
  <symbol id="person-add" viewBox="0 0 24 24">
    <path fill="none" d="M0 0h24v24H0z"/>
    <path d="M15 12c2.21 0 4-1.79 4-4s-1.79-4-4-4-4 1.79-4 4 1.79 4 4 4zm-9-2V7H4v3H1v2h3v3h2v-3h3v-2H6zm9 4c-2.67 0-8 1.34-8 4v2h16v-2c0-2.66-5.33-4-8-4z"/>
  </symbol>
</svg>
