<?xml version="1.0" encoding="UTF-8"?>
<svg width="1440px" height="375px" viewBox="0 0 1440 375" version="1.1" xmlns="http://www.w3.org/2000/svg" xmlns:xlink="http://www.w3.org/1999/xlink">
    <title>Group 5</title>
    <desc>Created with Sketch.</desc>
    <g id="Page-1" stroke="none" stroke-width="1" fill="none" fill-rule="evenodd">
        <g id="FAQ-Web-view01" fill="#FFFFFF">
            <g id="Group-5" transform="translate(-346.000000, 0.000000)">
                <path d="M954,0 L0,0 L433.719706,231.25898 C463.355458,247.060739 498.944334,246.930473 528.463616,230.91219 L954,0 Z" id="Rectangle-4" opacity="0.06"></path>
                <path d="M1635,0 L220,0 L886.139619,356.169803 C915.829453,372.044286 951.514405,371.91347 981.087055,355.821738 L1635,0 Z" id="Rectangle-4" opacity="0.07"></path>
                <path d="M1802,0 L1206,0 L1459.07866,135.19927 C1488.75172,151.051163 1524.40684,150.920518 1553.96294,134.851601 L1802,0 Z" id="Rectangle-4" opacity="0.08"></path>
                <path d="M1973,189 L1237,189 L1560.63792,362.150041 C1590.33996,378.040975 1626.04662,377.910034 1655.63131,361.801689 L1973,189 Z" id="Rectangle-4" opacity="0.07" transform="translate(1605.000000, 281.500000) scale(1, -1) translate(-1605.000000, -281.500000) "></path>
                <path d="M1025,207 L351,207 L643.42515,363.20062 C673.095924,379.049439 708.746987,378.918817 738.300829,362.853005 L1025,207 Z" id="Rectangle-4" opacity="0.13" transform="translate(688.000000, 291.000000) scale(1, -1) translate(-688.000000, -291.000000) "></path>
                <path d="M1874,93 L751,93 L1253.6154,361.218932 C1282.45212,376.607544 1316.98938,376.932028 1346.11014,362.087937 L1874,93 Z" id="Rectangle-4" opacity="0.03" transform="translate(1312.500000, 233.000000) scale(1, -1) translate(-1312.500000, -233.000000) "></path>
            </g>
        </g>
    </g>
</svg>