<svg data-name="Layer 1" xmlns="http://www.w3.org/2000/svg" viewBox="0 0 725.88 133">
  <path class="cls-1-kmlogo" fill="#fff" d="M147.71 128.42V50.76A50.76 50.76 0 0 0 96.94 0H50.76a50.77 50.77 0 0 0 0 101.53h50a29.19 29.19 0 0 1 6.51 1.13 21.67 21.67 0 0 1 5 2.92L143.15 131s2.81 2.42 3.8 1.92.76-4.5.76-4.5zM52.19 61.13a6.61 6.61 0 0 1-13.19 0V39.3a6.61 6.61 0 0 1 13.19 0zm28.27 10.29a6.61 6.61 0 0 1-13.19 0v-42.4a6.61 6.61 0 0 1 13.19 0zm28.26-10.29a6.61 6.61 0 0 1-13.19 0V39.3a6.61 6.61 0 0 1 13.19 0z"/>
  <path class="cls-2-km-logo"  fill="#fff" d="M176.56 84.45a4.61 4.61 0 0 1-3.32 1.34 4.59 4.59 0 0 1-4.62-4.62V31.61a4.61 4.61 0 0 1 4.62-4.62 4.58 4.58 0 0 1 3.32 1.35 4.35 4.35 0 0 1 1.39 3.27v29.07l17.22-17.22a4.42 4.42 0 0 1 3.27-1.35 4.58 4.58 0 0 1 3.32 1.35 4.51 4.51 0 0 1 0 6.55l-12.6 12.6 12.94 15.54a4.35 4.35 0 0 1 .5 5 4.2 4.2 0 0 1-3.86 2.64 4.42 4.42 0 0 1-3.78-1.68l-12.35-14.95-4.62 4.62v7.39a4.38 4.38 0 0 1-1.43 3.28zM233.98 86.04a19 19 0 0 1-14.37-6.21 21.74 21.74 0 0 1 0-29.78 18.93 18.93 0 0 1 14.27-6.26 18.57 18.57 0 0 1 14.16 6.34 21.53 21.53 0 0 1 5.84 15.08A19.29 19.29 0 0 1 248 79.66a17.75 17.75 0 0 1-14.02 6.38zm-8.1-29.9a13 13 0 0 0-3 8.74 13.63 13.63 0 0 0 3 8.9 11.58 11.58 0 0 0 15.79 0 12.92 12.92 0 0 0 3.28-8.9 12.32 12.32 0 0 0-3.28-8.74 11.36 11.36 0 0 0-15.79 0zM272.62 85.79l-.84-.08a5 5 0 0 1-2.61-1.6 4.13 4.13 0 0 1-1-2.77V48.3a4.4 4.4 0 0 1 1.31-3.24 4.29 4.29 0 0 1 3.15-1.3 4 4 0 0 1 4 2.52 17.45 17.45 0 0 1 9-2.52 16.77 16.77 0 0 1 13.18 5.8 15.93 15.93 0 0 1 12.69-5.8 17.34 17.34 0 0 1 12.85 5.17 17 17 0 0 1 5.12 12.47v19.9a4.44 4.44 0 0 1-4.45 4.45 4.41 4.41 0 0 1-3.19-1.3 4.21 4.21 0 0 1-1.34-3.15V61.43a8.35 8.35 0 0 0-2.51-6.13 8.22 8.22 0 0 0-6-2.52 8.34 8.34 0 0 0-6 2.44 8.55 8.55 0 0 0-2.68 6V81.3a4.3 4.3 0 0 1-1.31 3.15 4.22 4.22 0 0 1-3.1 1.3 4.49 4.49 0 0 1-3.2-1.34 4.22 4.22 0 0 1-1.38-3.11V61.18a8.7 8.7 0 0 0-8.61-8.4 8.2 8.2 0 0 0-6 2.52 8.35 8.35 0 0 0-2.52 6.13V81.3l-.08.59v.25l-.25.5v.42a4.42 4.42 0 0 1-4.23 2.73zM352.5 85.79l-.84-.08a5 5 0 0 1-2.61-1.6 4.12 4.12 0 0 1-1-2.77V48.3a4.39 4.39 0 0 1 1.3-3.24 4.33 4.33 0 0 1 3.15-1.3 4 4 0 0 1 4 2.52 17.47 17.47 0 0 1 9-2.52 16.8 16.8 0 0 1 13.19 5.8 15.91 15.91 0 0 1 12.68-5.8 17.33 17.33 0 0 1 12.85 5.17 17 17 0 0 1 5.13 12.47v19.9a4.3 4.3 0 0 1-1.31 3.15 4.25 4.25 0 0 1-3.14 1.3 4.43 4.43 0 0 1-3.2-1.3 4.25 4.25 0 0 1-1.32-3.15V61.43a8.35 8.35 0 0 0-2.5-6.13 8.22 8.22 0 0 0-6-2.52 8.31 8.31 0 0 0-6 2.44 8.56 8.56 0 0 0-2.69 6V81.3a4.33 4.33 0 0 1-1.3 3.15 4.25 4.25 0 0 1-3.11 1.3 4.45 4.45 0 0 1-3.19-1.34 4.19 4.19 0 0 1-1.39-3.11V61.18a8.68 8.68 0 0 0-8.61-8.4 8.22 8.22 0 0 0-6 2.52 8.35 8.35 0 0 0-2.52 6.13V81.3l-.08.59v.25l-.25.5v.42a4.42 4.42 0 0 1-4.24 2.73zM462.29 68.3a16.73 16.73 0 0 1-5.25 12.31 17.17 17.17 0 0 1-12.44 5.16 17.57 17.57 0 0 1-17.51-17.47V48.24a4.31 4.31 0 0 1 1.3-3.1 4.35 4.35 0 0 1 6.3 0 4.31 4.31 0 0 1 1.3 3.1V68.3a8.47 8.47 0 0 0 8.57 8.57 8.58 8.58 0 0 0 6.18-2.48 8.43 8.43 0 0 0 2.64-6.09V48.24a4.39 4.39 0 0 1 1.26-3.1 4 4 0 0 1 3.07-1.35 4.44 4.44 0 0 1 3.19 1.35 4.21 4.21 0 0 1 1.39 3.1zM488.49 81.3a4.09 4.09 0 0 1-1.43 3.15 4.66 4.66 0 0 1-3.23 1.3 4.44 4.44 0 0 1-4.41-4.45V48.2a4.49 4.49 0 0 1 8.57-1.84 16.3 16.3 0 0 1 8.9-2.61 17.58 17.58 0 0 1 17.56 17.55v20a4.37 4.37 0 0 1-1.26 3.15 4.1 4.1 0 0 1-3.07 1.3 4.39 4.39 0 0 1-3.15-1.3 4.25 4.25 0 0 1-1.34-3.15v-20a8.06 8.06 0 0 0-2.56-6 8.54 8.54 0 0 0-6.14-2.48 8.08 8.08 0 0 0-6 2.48 8.22 8.22 0 0 0-2.44 6zM540.07 31.53v1.77a4.58 4.58 0 0 1-1.3 3.28 4.31 4.31 0 0 1-3.2 1.34A4.58 4.58 0 0 1 531 33.3v-1.76a4.33 4.33 0 0 1 1.34-3.19 4.56 4.56 0 0 1 6.43-.05 4.43 4.43 0 0 1 1.3 3.23zm-7.77 13.65a4.68 4.68 0 0 1 6.47 0 4.52 4.52 0 0 1 1.3 3.32v32.8a4.41 4.41 0 0 1-1.3 3.23 4.35 4.35 0 0 1-3.2 1.3 4.41 4.41 0 0 1-3.23-1.34A4.35 4.35 0 0 1 531 81.3V48.5a4.48 4.48 0 0 1 1.3-3.32zM557.88 79.62a20.55 20.55 0 0 1 0-29.61 21.12 21.12 0 0 1 15-6.22 21.51 21.51 0 0 1 13.36 4.62 4.33 4.33 0 0 1 1.68 3 4.24 4.24 0 0 1-.88 3.32 4.4 4.4 0 0 1-2.94 1.68 4 4 0 0 1-3.24-.92 13.87 13.87 0 0 0-8.36-2.69 11.7 11.7 0 0 0-8.36 3.61 11.6 11.6 0 0 0 0 16.93 11.64 11.64 0 0 0 8.36 3.57 13.92 13.92 0 0 0 8.4-2.69 4 4 0 0 1 3.19-.84 4.48 4.48 0 0 1 3 1.68 4.1 4.1 0 0 1 .88 3.23 4.9 4.9 0 0 1-1.68 3.07 22.51 22.51 0 0 1-13.41 4.43 20.75 20.75 0 0 1-15-6.17zM603.78 79.66a22 22 0 0 1 0-29.69 18.68 18.68 0 0 1 14.24-6.18 18.91 18.91 0 0 1 11.17 3.7 5.2 5.2 0 0 1 1.6-2.65 4.18 4.18 0 0 1 2.89-1.05 4.09 4.09 0 0 1 3 1.35 4.41 4.41 0 0 1 1.3 3.19v33a4.29 4.29 0 0 1-1.3 3.15 4.15 4.15 0 0 1-3 1.3 4.25 4.25 0 0 1-2.89-1 4.94 4.94 0 0 1-1.6-2.6 19 19 0 0 1-11.17 3.61 18.74 18.74 0 0 1-14.24-6.13zm3.23-14.83a12.39 12.39 0 0 0 3.07 8.53 10.09 10.09 0 0 0 7.9 3.44 10.33 10.33 0 0 0 8-3.44 12.1 12.1 0 0 0 3.15-8.48 12.35 12.35 0 0 0-3.25-8.58 10.29 10.29 0 0 0-7.94-3.53 10.05 10.05 0 0 0-7.86 3.49 12.41 12.41 0 0 0-3.07 8.57zM668.67 43.79a4.6 4.6 0 0 1 3.32 1.35 4.33 4.33 0 0 1 1.38 3.23 4.71 4.71 0 0 1-4.7 4.66h-2.1v23.44a4.41 4.41 0 0 1 3.28 1.38 4.63 4.63 0 0 1 1.34 3.32 4.58 4.58 0 0 1-4.62 4.62 9.32 9.32 0 0 1-9.32-9.32V53.03h-2.44a4.62 4.62 0 1 1 0-9.24h2.44V31.61a4.37 4.37 0 0 1 1.38-3.27 4.6 4.6 0 0 1 3.32-1.35 4.59 4.59 0 0 1 4.62 4.62v12.18zM725.88 63.7a3.87 3.87 0 0 1-1.21 3 4.56 4.56 0 0 1-3.24 1.14h-26.72a10.1 10.1 0 0 0 2.86 5.54 11.82 11.82 0 0 0 7.85 3.74 12.34 12.34 0 0 0 9-2.06 4.41 4.41 0 0 1 3.36-1.34 3.49 3.49 0 0 1 2.94 1.09q2.34 2.6 0 5.46a21 21 0 0 1-14.83 5.5 19.75 19.75 0 0 1-14.7-6.17 21.24 21.24 0 0 1 0-29.61 19.11 19.11 0 0 1 14.32-6.18 19.75 19.75 0 0 1 14.16 5.5 20.27 20.27 0 0 1 6.21 13.99zm-20.24-11.93a11.86 11.86 0 0 0-7.81 3 10.94 10.94 0 0 0-3.53 5.88h23.77a11.45 11.45 0 0 0-4.07-5.72 14.64 14.64 0 0 0-8.37-3.16z"/>
</svg>