<svg xmlns="http://www.w3.org/2000/svg" xmlns:xlink="http://www.w3.org/1999/xlink" viewBox="0 0 486.8 525.5">
  <defs>
    <style>
      .cls-1, .cls-2, .cls-4, .cls-6, .cls-9 {
        stroke: #353342;
      }

      .cls-1, .cls-2, .cls-4, .cls-6 {
        stroke-linecap: round;
      }

      .cls-1, .cls-9 {
        stroke-linejoin: round;
      }

      .cls-1, .cls-6, .cls-9 {
        stroke-width: 16px;
      }

      .cls-1 {
        opacity: 0.9;
        fill: url(#linear-gradient);
      }

      .cls-2, .cls-4, .cls-8 {
        fill: #fff;
      }

      .cls-2, .cls-4, .cls-6 {
        stroke-miterlimit: 10;
      }

      .cls-2 {
        stroke-width: 14px;
      }

      .cls-3 {
        fill: #353342;
      }

      .cls-4 {
        stroke-width: 8px;
      }

      .cls-5 {
        fill: #d13351;
      }

      .cls-6, .cls-9 {
        fill: none;
      }

      .cls-7 {
        opacity: 0.6;
      }
    </style>
    <linearGradient id="linear-gradient" x1="240.74" y1="517.46" x2="240.74" y2="8" gradientUnits="userSpaceOnUse">
      <stop offset="0" stop-color="#00a79d"/>
      <stop offset="0.36" stop-color="#7269b0"/>
      <stop offset="0.4" stop-color="#8a65ac"/>
      <stop offset="0.48" stop-color="#b35fa7"/>
      <stop offset="0.55" stop-color="#d05aa2"/>
      <stop offset="0.62" stop-color="#e257a0"/>
      <stop offset="0.66" stop-color="#e8569f"/>
      <stop offset="0.68" stop-color="#e95e99"/>
      <stop offset="0.75" stop-color="#ef8b74"/>
      <stop offset="0.82" stop-color="#f3af57"/>
      <stop offset="0.89" stop-color="#f6c942"/>
      <stop offset="0.95" stop-color="#f8d935"/>
      <stop offset="1" stop-color="#f9de31"/>
    </linearGradient>
  </defs>
  <title>Asset 12</title>
  <g id="Layer_2" data-name="Layer 2">
    <g id="Layer_1-2" data-name="Layer 1">
      <path class="cls-1" d="M427.9,301.5s18.4-34.8,20.3-50.7c1.5-12.5-5.9-65.1-5.9-65.1C442.3,87.6,352.4,8,241.5,8S40.7,87.6,40.7,185.7l-7.6,63.8L57,299.6c4.2,96.4,84.5,168.3,184.8,168.3a181.6,181.6,0,0,0,54.6-8.3l83.7,57.9-20.9-92.6C398.4,391.6,420.7,365.9,427.9,301.5Z"/>
      <circle class="cls-2" cx="109" cy="261.4" r="38.7"/>
      <path class="cls-3" d="M119.5,261.3a12.9,12.9,0,0,1-13-12.7,12.5,12.5,0,0,1,2.4-7.4,20.2,20.2,0,1,0,19.9,16.2A13.1,13.1,0,0,1,119.5,261.3Z"/>
      <circle class="cls-2" cx="371.6" cy="261.4" r="38.7"/>
      <path class="cls-3" d="M382.1,261.3a12.9,12.9,0,0,1-13-12.7,12.5,12.5,0,0,1,2.4-7.4,20.2,20.2,0,1,0,19.9,16.2A13.1,13.1,0,0,1,382.1,261.3Z"/>
      <path class="cls-3" d="M427.2,188.8c-16.8-3.3-65.2-5.1-137.4,0,0,0-32.2,1.7-46.3,1.8s-46.3-1.8-46.3-1.8c-72.2-5.1-120.7-3.3-137.4,0S0,199.9,0,199.9v32.6c20,5.1,22.4,13.5,28.4,30.3S47.5,308,60.1,320.6s21,14.4,59.6,14.9S178,318.3,178,318.3c27.5-24.7,26.1-52.2,36.3-75.5,8.5-19.3,24-22.3,29.1-22.7s20.6,3.4,29.1,22.7c10.2,23.3,8.9,50.8,36.3,75.5,0,0,19.6,17.7,58.2,17.2s47.1-2.3,59.6-14.9,25.6-41,31.7-57.8,8.4-25.2,28.4-30.3V199.9S443.9,192,427.2,188.8ZM176.1,292.2C158.9,311.8,116,316,95,312.2s-48.3-30.3-44.3-76.4c0,0,2.3-17.7,33.5-22.8s82-4.7,94.6,8.9S193.3,272.6,176.1,292.2Zm215.7,20c-21,3.7-63.8-.5-81.1-20s-15.4-56.8-2.8-70.3,63.4-14,94.6-8.9S436,235.8,436,235.8C440,281.9,412.7,308.5,391.8,312.2Z"/>
      <path class="cls-4" d="M244.8,396h-1.6c-48.8-3.5-57.6-39.7-58.6-60.3H303.8c-1,20.5-9.8,56.8-58.1,60.1Z"/>
      <path class="cls-5" d="M244.7,389.7c-28.8,0-54-4.5-52.2-20.7.9-8.4,105.6-7.6,104.6,0C297,369.1,292.6,389.7,244.7,389.7Z"/>
      <path class="cls-6" d="M244.8,396h-1.6c-48.8-3.5-57.6-39.7-58.6-60.3H303.8c-1,20.5-9.8,56.8-58.1,60.1Z"/>
      <g class="cls-7">
        <path class="cls-8" d="M185.8,57.5c.1,2.2-3.1,4.1-7.3,4.4s-7.6-1.3-7.8-3.4,3.1-4.1,7.3-4.4S185.6,55.3,185.8,57.5Z"/>
        <ellipse class="cls-8" cx="159.7" cy="48.2" rx="11.8" ry="5.2" transform="translate(-6.5 34.4) rotate(-12)"/>
        <ellipse class="cls-8" cx="158" cy="63.9" rx="9.6" ry="4.7" transform="translate(-10.5 38.6) rotate(-13.5)"/>
        <ellipse class="cls-8" cx="128.1" cy="79" rx="15" ry="6.4" transform="translate(-22.4 80) rotate(-32.1)"/>
        <ellipse class="cls-8" cx="105" cy="103.3" rx="11.7" ry="4.9" transform="translate(-35.9 146.4) rotate(-61.6)"/>
        <ellipse class="cls-8" cx="93.6" cy="136.8" rx="11.6" ry="6.2" transform="translate(-61.2 196.1) rotate(-76.6)"/>
        <path class="cls-8" d="M117.5,67.9c2.9,1.7,9,1,15-2.1s11.8-9.6,10.1-13a4.3,4.3,0,0,0-2.8-2A175.4,175.4,0,0,0,117.5,67.9Z"/>
        <path class="cls-8" d="M95.2,93c2.7,1.2,7.5-1.3,11.3-6s5.1-9.5,3.7-12c-3.6,3.7-7.1,7.6-10.4,11.8C98.1,88.9,96.6,91,95.2,93Z"/>
        <path class="cls-8" d="M84.2,124.5c3.1.7,6.8-3.7,8.3-10s.2-12-2.9-12.7h-.2a131,131,0,0,0-8.7,16.7C81,121.6,82.2,124,84.2,124.5Z"/>
      </g>
      <path class="cls-9" d="M427.9,301.5s18.4-34.8,20.3-50.7c1.5-12.5-5.9-65.1-5.9-65.1C442.3,87.6,352.4,8,241.5,8S40.7,87.6,40.7,185.7l-7.6,63.8L57,299.6c4.2,96.4,84.5,168.3,184.8,168.3a181.6,181.6,0,0,0,54.6-8.3l83.7,57.9-20.9-92.6C398.4,391.6,420.7,365.9,427.9,301.5Z"/>
    </g>
  </g>
</svg>
