<svg id="Layer_1" data-name="Layer 1" xmlns="http://www.w3.org/2000/svg" viewBox="0 0 250 250">
  <defs>
    <style>
      .cls-1, .cls-2, .cls-4 {
        fill: #5c5aa7;
      }

      .cls-1 {
        opacity: 0.16;
      }

      .cls-1, .cls-2 {
        isolation: isolate;
      }

      .cls-2 {
        opacity: 0.09;
      }

      .cls-3, .cls-5, .cls-6 {
        fill: none;
        stroke: #5c5aa7;
        stroke-width: 1.69px;
      }

      .cls-3, .cls-5 {
        stroke-linecap: round;
      }

      .cls-3, .cls-6 {
        stroke-miterlimit: 10;
      }

      .cls-5 {
        stroke-linejoin: round;
      }
    </style>
  </defs>
  <title>Enterprise-plan-icon</title>
  <circle class="cls-1" cx="125" cy="125" r="125"/>
  <circle class="cls-2" cx="125" cy="125" r="90.6"/>
  <g>
    <line class="cls-3" x1="125" y1="92.6" x2="125" y2="95.6"/>
    <path class="cls-3" d="M111.3,138.8s0,13,.5,18,.8,7.3.8,7.3"/>
    <path class="cls-3" d="M122.9,152.6a20.8,20.8,0,0,0-7,1.4"/>
    <path class="cls-3" d="M114.1,171a33.6,33.6,0,0,1,9.8-1.9"/>
    <path class="cls-3" d="M125,76.7s3-.6,4.9,7.4,6.3,29.6,7.9,39c0,0,1.7,11.5,7.2,16.4s14.3,13.6,15.2,15.3,1.3,8.1-1,9.5-20.1,4.1-20.1,4.1-3.3.8-3.4,3.9-2.6,3.4-4.3,3.9-4.9,1.7-4.9,1.7.4,3.1-1.3,3.1-1.3-3.1-1.3-3.1-3.2-1.3-4.9-1.7-4.2-.8-4.3-3.9-3.4-3.9-3.4-3.9-17.8-2.7-20.1-4.1-1.9-7.8-1-9.5,9.7-10.4,15.2-15.3,7.2-16.4,7.2-16.4c1.6-9.4,5.9-31,7.9-39S125,76.7,125,76.7Z"/>
    <path class="cls-4" d="M125,104.7a1.9,1.9,0,0,1,1,.3l1.3,1.2a1.3,1.3,0,0,0,1.9.3c.8-.7,0-2.1,0-2.1a24,24,0,0,0-1.9-2.1,3.7,3.7,0,0,0-2.3-.8h0a3.7,3.7,0,0,0-2.3.8,24.4,24.4,0,0,0-1.9,2.1s-.8,1.5,0,2.1a1.3,1.3,0,0,0,1.9-.3l1.3-1.2a1.9,1.9,0,0,1,1-.3Z"/>
    <path class="cls-3" d="M138.7,138.8s0,13-.5,18-.8,7.3-.8,7.3"/>
    <path class="cls-3" d="M127.1,152.6a20.8,20.8,0,0,1,7,1.4"/>
    <polyline class="cls-5" points="126.3 177.9 125 126.6 125 126.6 123.7 177.9"/>
    <path class="cls-3" d="M135.9,171a33.6,33.6,0,0,0-9.8-1.9"/>
    <path class="cls-4" d="M120,84.5H130a21.4,21.4,0,0,0-2.5-6.2c-1.6-2.1-4.4-1.2-5.7,1.2A17.5,17.5,0,0,0,120,84.5Z"/>
    <line class="cls-6" x1="109.4" y1="174" x2="109.4" y2="183.2"/>
    <path class="cls-6" d="M104.3,174h10.5v5.6a3.6,3.6,0,0,1-3.1,3.6h-3.8c-3.5,0-4-3.7-4-3.7V167.3"/>
    <line class="cls-6" x1="140.9" y1="174" x2="140.9" y2="183.2"/>
    <path class="cls-6" d="M146,174H135.5v5.6a3.6,3.6,0,0,0,3.1,3.6h3.8c3.5,0,4-3.7,4-3.7V167.3"/>
    <path class="cls-6" d="M104,140.5V101.9s1.1-9.8,5.3-9.8,5.1,9.5,5.1,10.4.1,8.7.1,8.7"/>
    <line class="cls-3" x1="104" y1="103.7" x2="114.4" y2="103.7"/>
    <polygon class="cls-4" points="113.8 114.3 104 114.3 104 117 112.9 117 113.8 114.3"/>
    <path class="cls-3" d="M145.5,140V101.9s-1.1-9.8-5.3-9.8-5.1,9.5-5.1,10.4-.1,6-.1,6"/>
    <line class="cls-3" x1="145.5" y1="103.7" x2="135.1" y2="103.7"/>
    <polygon class="cls-4" points="135.7 114.3 145.5 114.3 145.5 117 136.6 117 135.7 114.3"/>
    <line class="cls-3" x1="114.3" y1="81.3" x2="120.7" y2="81.3"/>
    <path class="cls-6" d="M135.3,101.6V81.3s-1.7-14.5-10.7-14.5h.4c-9,0-10.7,14.5-10.7,14.5v20.3"/>
    <line class="cls-3" x1="135.3" y1="81.3" x2="128.9" y2="81.3"/>
  </g>
</svg>
