<svg xmlns="http://www.w3.org/2000/svg" id="Layer_1" data-name="Layer 1" viewBox="0 0 250 250">
  <defs>
    <style>
      .cls-3{fill:#5c5aa7;stroke:#5c5aa7;stroke-miterlimit:10}
    </style>
  </defs>
  <circle style="isolation:isolate" cx="125" cy="125" r="125" fill="#5c5aa7" opacity=".16"/>
  <circle style="isolation:isolate" cx="125" cy="125" r="90.6" fill="#5c5aa7" opacity=".09"/>
  <path d="M55.3 105.3a.6.6 0 0 1-.6-.6v-3.3c.2-3 4-3.7 4.2-3.7l44.6-2.7a.5.5 0 0 1 .6.4.6.6 0 0 1-.5.6L59 98.8s-3 .5-3.2 2.6v3.3a.6.6 0 0 1-.5.6zm31.2 13.2l-3-.2a.6.6 0 0 1 .1-1.1l3 .2a.6.6 0 0 1 .3.8l-.3.3z" class="cls-3"/>
  <path fill="#5c5aa7" stroke="#5c5aa7" stroke-miterlimit="10" stroke-width=".99" d="M105.4 119.9h-.3c-3.1-.1-10-.6-15.2-1a.6.6 0 0 1 .1-1.1c5.2.4 12.1.9 15.2 1s3.5-.6 3.9-1.1a1.3 1.3 0 0 0 .4-1v-11.3a.6.6 0 0 1 .8-.3l.3.3v11.2a2.4 2.4 0 0 1-.6 1.8c-.9 1-2.5 1.5-4.6 1.5z"/>
  <path d="M78.1 119.9a.6.6 0 0 1-.6-.6v-5.7a3.2 3.2 0 0 0-3-3.4H61.7a3.3 3.3 0 0 0-3.5 2.8v4.5a.6.6 0 1 1-1.1 0v-4.6a4.5 4.5 0 0 1 4.6-3.8h12.9a4.3 4.3 0 0 1 4.1 4.5v5.7a.6.6 0 0 1-.6.6zm27.8 46.7a.6.6 0 0 1-.2-1.1L117 161a.6.6 0 1 1 .9.8l-.5.2-11.3 4.5z" class="cls-3"/>
  <path d="M122.3 179h-18.1c-5.4 0-5.7-4-5.7-4v-4.5c0-4.7 2.9-6.4 3.1-6.5l16.8-6.6a.6.6 0 0 1 .4 1L102 165s-2.4 1.5-2.4 5.5v4.5c0 .1.3 3 4.6 3h18.1a.6.6 0 0 1 .3.8l-.3.3z" class="cls-3"/>
  <path d="M110.6 179a.6.6 0 0 1-.6-.6v-6.3a.6.6 0 0 1 .8-.3l.3.3v6.3a.6.6 0 0 1-.5.6zm6.6 0a.6.6 0 0 1-.6-.6v-4.5a.6.6 0 0 1 .8-.3l.3.3v4.5a.6.6 0 0 1-.5.6z" class="cls-3"/>
  <path d="M124.7 182.9a2.5 2.5 0 0 1-1.9-.6c-1.1-1.1-1.1-3.1-1.1-5.4a26.5 26.5 0 0 0-.1-3.6c-.2-1.7-1.2-5.6-2.4-10.1-1.6-6.5-3.7-14.5-4.4-19.8-1.1-7.7-1.8-17.5-1.9-19.8L58.6 119s-6.2-.1-6.4-8 0-10.6 0-10.6a4.8 4.8 0 0 1 1.3-3.2c1.4-1.6 3.8-2.4 7-2.6 8-.3 51.8-3.1 52.2-3.1a.5.5 0 0 1 .6.4.6.6 0 0 1-.5.6c-.4 0-44.3 2.8-52.2 3.1s-7.3 4.5-7.3 4.6-.2 3.3 0 10.6 5.2 6.9 5.4 6.9l55.3 4.7v.5c0 .1.8 11.5 1.9 20.2a188.3 188.3 0 0 0 4.4 19.6c1.2 4.5 2.1 8.5 2.4 10.2a27.7 27.7 0 0 1 .1 3.8c0 2 0 3.9.7 4.6a1.6 1.6 0 0 0 1.2.4h.3a1.6 1.6 0 0 0 1.2-.4c.8-.8.8-2.6.7-4.6a27.6 27.6 0 0 1 .1-3.8c.2-1.7 1.2-5.7 2.4-10.2 1.6-6.5 3.7-14.5 4.4-19.6 1.2-8.7 1.9-20 1.9-20.2v-.5l55.2-4.7c.3 0 5.3-.1 5.4-6.9s0-10.5 0-10.5.1-4.4-7.3-4.7-51.3-3.1-51.7-3.1a.6.6 0 1 1 .1-1.1c.4 0 43.8 2.8 51.7 3.1 3.2.1 5.6 1 7 2.6a4.8 4.8 0 0 1 1.3 3.2s.2 3.2 0 10.5-6.4 8-6.5 8l-54.2 4.6c-.2 2.3-.9 12.1-1.9 19.8-.7 5.2-2.8 13.3-4.4 19.8-1.1 4.5-2.1 8.4-2.4 10.1a26.8 26.8 0 0 0-.1 3.6c0 2.3 0 4.4-1.1 5.4a2.7 2.7 0 0 1-2 .7h-.1z" class="cls-3"/>
  <path d="M136.7 121.4a.6.6 0 0 1-.5-.6c0-.1.9-13 .8-18.3v-.6c-.1-5.8-.2-19.3-1.4-23.7s-4.5-3.6-6.5-3.7h-1.3v-1.1h2c3.6 0 14.5.1 15.6-.9s-2.7-1.4-2.7-1.4h-15.2v-.5a2.5 2.5 0 0 0-5 0v.5h-14.9s-2.5.2-2.7 1.4 12 1 15.6.9h2v1.1H121c-2 .1-5.7.7-6.5 3.7s-1.4 17.9-1.4 23.7v.6c-.1 5.3.8 18.2.8 18.3a.6.6 0 1 1-1.1.1c0-.1-.9-13-.8-18.4v-.6c.1-5.8.2-19.5 1.5-24a5.3 5.3 0 0 1 2.8-3.4c-6.9 0-11.3-.3-12.3-1.4a1 1 0 0 1-.3-.7c.2-2.3 3.6-2.5 3.8-2.5h13.9a3.6 3.6 0 0 1 7.1 0h13.9c.2 0 3.6.2 3.8 2.5a1 1 0 0 1-.3.7c-1 1-5.4 1.3-12.3 1.4a5.3 5.3 0 0 1 2.8 3.4c1.2 4.5 1.4 18.1 1.5 24v.6c.1 5.4-.8 18.3-.8 18.4a.6.6 0 0 1-.4.5z" class="cls-3"/>
  <path d="M140.5 110.4a.6.6 0 0 1-.6-.6V99.7a4.3 4.3 0 0 1 1.4-3.3c2-1.8 5.4-1.4 5.6-1.4l44.5 2.7a.6.6 0 0 1 .5.6.5.5 0 0 1-.5.5h-.1l-44.6-2.7c-.1 0-3.1-.3-4.7 1.1a3.2 3.2 0 0 0-1 2.5v10.1a.6.6 0 0 1-.5.6zm23 8.1a.6.6 0 0 1-.3-.8l.3-.3 3-.2a.6.6 0 0 1 .4.8l-.3.3-3 .2zm8.4 1.7a.6.6 0 0 1-.6-.6v-5.7a4.3 4.3 0 0 1 4-4.5h12.9a4.5 4.5 0 0 1 4.6 3.7v4.7a.6.6 0 1 1-1.1 0v-4.6a3.4 3.4 0 0 0-3.5-2.7h-12.8a3.2 3.2 0 0 0-3 3.4v5.7a.6.6 0 0 1-.5.6zm-27.8 46.4h-.2l-11.3-4.6a.6.6 0 0 1 0-.8l.4-.2 11.3 4.5a.6.6 0 0 1 .2.8z" class="cls-3"/>
  <path d="M145.8 179h-18.1a.6.6 0 0 1-.3-.8l.3-.3h18.1c4.3 0 4.6-2.9 4.6-3v-4.4c0-4.1-2.5-5.5-2.5-5.5l-16.7-6.5a.6.6 0 0 1 0-.8l.4-.2 16.7 6.5c.2.1 3.1 1.8 3.1 6.5v4.5c.2 0-.2 4-5.6 4z" class="cls-3"/>
  <path d="M139.4 179a.6.6 0 0 1-.6-.6v-6.3a.6.6 0 0 1 .8-.3l.3.3v6.3a.6.6 0 0 1-.5.6zm-6.6 0a.6.6 0 0 1-.6-.6v-4.5a.6.6 0 1 1 1.1 0v4.5a.6.6 0 0 1-.5.6zm-1.1-35.4h-13.8a.6.6 0 1 1-.5-1.1h14.3a.6.6 0 1 1 .5 1.1zm.6-3.5h-15v-1.9a.6.6 0 0 1 .8-.3l.3.3v.8h12.7v-.8a.6.6 0 0 1 .8-.3l.3.3zm-6.8-11.8a9.2 9.2 0 0 1-9.2-9.2v-13a9.2 9.2 0 1 1 18.4 0v13a9.2 9.2 0 0 1-9.2 9.2zm0-30.3a8.1 8.1 0 0 0-8.1 8.1v13a8.1 8.1 0 1 0 16.2 0v-13a8.1 8.1 0 0 0-8.1-8.1z" class="cls-3"/>
  <path d="M134.2 112.5h-17.3a.6.6 0 0 1-.3-.8l.3-.3h17.3a.6.6 0 0 1 .3.8zm-.5 9.9h-16.4a.6.6 0 0 1-.3-.8l.3-.3h16.4a.6.6 0 1 1 .5 1.1z" class="cls-3"/>
  <path d="M125.5 128.3a.6.6 0 0 1-.6-.6v-5.8a.6.6 0 0 1 .6-.6.6.6 0 0 1 .6.6v5.8a.6.6 0 0 1-.6.6zm-1.4-42.4a25.9 25.9 0 0 1-8.4-1.2.6.6 0 1 1-.1-1.2l.5.2c.1 0 6.9 2.5 17.2 0a.6.6 0 1 1 .7 1h-.4a39.4 39.4 0 0 1-9.5 1.2zm0 3.3a25.9 25.9 0 0 1-8.4-1.2.6.6 0 1 1-.1-1.2l.5.2c.1 0 6.9 2.5 17.2 0a.6.6 0 1 1 .7 1h-.4a39.4 39.4 0 0 1-9.5 1.2zm0 3.4a25.9 25.9 0 0 1-8.4-1.2.6.6 0 1 1-.1-1.2l.5.2c.1 0 6.9 2.5 17.2 0a.6.6 0 1 1 .7 1h-.4a39.4 39.4 0 0 1-9.5 1.2zm0-13.4a25.9 25.9 0 0 1-8.4-1.2.6.6 0 1 1-.1-1.2l.5.2c.1 0 6.9 2.5 17.2 0a.6.6 0 1 1 .7 1h-.4a39.4 39.4 0 0 1-9.5 1.2z" class="cls-3"/>
</svg>
