<svg id="Layer_1" data-name="Layer 1" xmlns="http://www.w3.org/2000/svg" viewBox="0 0 250 250">
  <defs>
    <style>
      .cls-1, .cls-2, .cls-3 {
        fill: #5c5aa7;
      }

      .cls-1 {
        opacity: 0.16;
      }

      .cls-1, .cls-2 {
        isolation: isolate;
      }

      .cls-2 {
        opacity: 0.09;
      }

      .cls-3 {
        stroke: #5c5aa7;
        stroke-linecap: round;
        stroke-linejoin: round;
      }
    </style>
  </defs>
  <title>Startup-plan-icon</title>
  <circle class="cls-1" cx="125" cy="125" r="125"/>
  <circle class="cls-2" cx="125" cy="125" r="90.6"/>
  <g>
    <path class="cls-3" d="M163.9,170.4H127.6l-2.5-73.9L123,170.4H86a8,8,0,0,1-7.5-10.6l.5-1.1,38.9-88.8a8,8,0,0,1,14.1-.2l.6,1.3,38.9,88.8a8,8,0,0,1-7.5,10.7Zm-35.1-1.3h35.1a6.6,6.6,0,0,0,6.2-8.9l-.4-.9-39-89.1a6.6,6.6,0,0,0-11.7.2l-.3.8-39,89A6.6,6.6,0,0,0,86,169h35.6l2.6-94.5h1.3Z"/>
    <path class="cls-3" d="M125.3,184.5h-.7c-2.4-.4-4.1-2.9-4.2-3l-9.2-12.3h10.5l2.6-94.5h1.3l3.2,94.5h10.5l-9.2,12.3c-.1.1-1.8,2.6-4.2,3h-.6Zm-11.4-14,7.6,10.2s1.8,2.5,3.8,2.5h0c2,0,3.7-2.5,3.8-2.5l7.6-10.2h-9.1l-2.5-73.9L123,170.4Z"/>
    <path class="cls-3" d="M151.3,128.5a.7.7,0,0,1-.6-.4L136.3,94.5a.7.7,0,1,1,1.2-.5L152,127.5a.7.7,0,0,1-.4.9Z"/>
    <path class="cls-3" d="M134.9,90.3a.7.7,0,0,1-.6-.4l-4-9.4a.7.7,0,1,1,1.2-.5l4,9.4a.7.7,0,0,1-.4.9Z"/>
    <path class="cls-3" d="M108.7,165.3H91.2c-2.9,0-4.9-.9-5.9-2.5s.1-6.6.2-6.8l16.2-36.8a.7.7,0,1,1,1.2.5L86.7,156.6c0,.1-1.6,3.4-.3,5.5s2.4,1.8,4.8,1.9h17.5a.7.7,0,0,1,0,1.3Z"/>
    <path class="cls-3" d="M104.5,115.2h-.3a.7.7,0,0,1-.3-.9l4.2-9.5a.7.7,0,0,1,1.2.5l-4.2,9.5A.7.7,0,0,1,104.5,115.2Z"/>
  </g>
</svg>
