<?xml version="1.0" standalone="no"?>
<!DOCTYPE svg PUBLIC "-//W3C//DTD SVG 20010904//EN"
 "http://www.w3.org/TR/2001/REC-SVG-20010904/DTD/svg10.dtd">
<svg version="1.0" xmlns="http://www.w3.org/2000/svg"
 width="700.000000pt" height="700.000000pt" viewBox="0 0 700.000000 700.000000"
 preserveAspectRatio="xMidYMid meet">
<metadata>
Created by potrace 1.11, written by Peter Selinger 2001-2013
</metadata>
<g transform="translate(0.000000,700.000000) scale(0.100000,-0.100000)"
fill="#000000" stroke="none">
<path d="M3235 5673 c-352 -47 -673 -185 -937 -400 -325 -266 -537 -678 -549
-1068 -5 -135 4 -126 -144 -155 l-129 -25 -1 -125 c-1 -69 1 -130 3 -137 2 -6
15 -14 30 -18 48 -11 112 -55 137 -93 13 -20 47 -95 75 -167 28 -71 78 -181
111 -242 34 -65 59 -126 59 -143 0 -52 37 -224 70 -320 185 -555 676 -947
1293 -1035 196 -28 452 -14 640 36 l37 10 288 -199 c158 -109 311 -215 341
-235 29 -21 66 -37 81 -37 34 0 61 29 62 66 0 16 -37 190 -81 386 l-81 358 42
37 c209 185 346 371 422 569 28 76 70 237 81 319 4 28 22 74 40 105 53 89 108
206 166 350 61 153 92 193 179 226 l55 21 0 132 c0 73 -3 134 -6 136 -3 2 -17
6 -32 9 -14 2 -78 14 -140 26 l-115 22 -6 45 c-3 25 -6 67 -6 93 0 26 -9 97
-19 157 -132 760 -867 1317 -1726 1310 -82 -1 -190 -7 -240 -14z"/>
</g>
</svg>
