<?xml version="1.0" standalone="no"?>
<!DOCTYPE svg PUBLIC "-//W3C//DTD SVG 20010904//EN"
 "http://www.w3.org/TR/2001/REC-SVG-20010904/DTD/svg10.dtd">
<svg version="1.0" xmlns="http://www.w3.org/2000/svg"
 width="4167.000000pt" height="4167.000000pt" viewBox="0 0 4167.000000 4167.000000"
 preserveAspectRatio="xMidYMid meet">
<metadata>
Created by potrace 1.11, written by Peter Selinger 2001-2013
</metadata>
<g transform="translate(0.000000,4167.000000) scale(0.100000,-0.100000)"
fill="#000000" stroke="none">
<path d="M20785 41655 c-27 -7 -97 -25 -155 -40 -130 -33 -490 -135 -625 -177
-55 -18 -104 -33 -110 -34 -87 -20 -763 -250 -1030 -351 -66 -24 -124 -46
-130 -47 -9 -3 -23 -8 -65 -24 -8 -3 -17 -6 -20 -7 -3 -1 -14 -5 -25 -10 -11
-4 -101 -39 -200 -77 -99 -38 -189 -73 -200 -78 -11 -5 -83 -35 -160 -66 -167
-67 -430 -177 -500 -209 -27 -12 -84 -37 -125 -55 -85 -37 -349 -156 -455
-205 -241 -111 -401 -189 -725 -352 -361 -181 -430 -217 -685 -355 -71 -39
-164 -89 -205 -111 -41 -22 -108 -60 -148 -84 -41 -24 -75 -43 -77 -43 -2 0
-70 -39 -152 -86 -81 -48 -161 -94 -178 -104 -16 -9 -106 -63 -200 -120 -93
-56 -186 -111 -205 -122 -19 -11 -54 -33 -78 -49 -24 -16 -45 -29 -48 -29 -3
0 -17 -9 -32 -19 -15 -10 -79 -52 -142 -92 -287 -181 -648 -422 -915 -609
-104 -74 -203 -143 -220 -155 -91 -63 -616 -454 -625 -465 -3 -3 -23 -19 -45
-36 -48 -35 -268 -206 -275 -214 -3 -3 -39 -32 -80 -65 -41 -33 -91 -73 -111
-90 -20 -16 -44 -37 -55 -45 -25 -19 -392 -328 -422 -355 -13 -11 -33 -29 -46
-40 -12 -11 -53 -47 -91 -80 -60 -52 -362 -324 -406 -365 -8 -8 -82 -78 -164
-155 -292 -275 -789 -779 -1055 -1070 -36 -38 -69 -75 -75 -81 -5 -6 -36 -40
-67 -75 -31 -35 -71 -80 -88 -99 -18 -19 -110 -125 -204 -235 -642 -746 -1236
-1549 -1746 -2360 -111 -176 -400 -654 -400 -660 0 -2 -13 -26 -29 -53 -73
-124 -231 -413 -231 -423 0 -4 -3 -9 -7 -11 -5 -1 -19 -23 -32 -48 -63 -119
-423 -839 -470 -940 -112 -239 -289 -643 -380 -865 -13 -31 -29 -71 -78 -190
-56 -138 -106 -268 -209 -545 -172 -461 -369 -1074 -513 -1595 -34 -121 -68
-242 -76 -270 -15 -55 -161 -645 -169 -685 -3 -14 -7 -34 -10 -45 -9 -37 -115
-530 -120 -560 -3 -16 -8 -41 -11 -55 -34 -170 -37 -189 -60 -315 -8 -44 -17
-91 -20 -105 -5 -24 -31 -176 -41 -232 -2 -16 -6 -41 -9 -58 -3 -16 -7 -45
-10 -62 -3 -18 -10 -58 -15 -88 -11 -67 -19 -120 -35 -235 -4 -27 -9 -59 -11
-70 -4 -23 -32 -221 -40 -280 -2 -22 -11 -89 -19 -150 -8 -60 -17 -135 -20
-165 -3 -30 -7 -62 -10 -70 -2 -8 -7 -51 -10 -94 -4 -43 -8 -87 -10 -97 -2
-10 -6 -46 -10 -81 -3 -35 -8 -81 -10 -103 -13 -113 -39 -399 -50 -537 -3 -38
-7 -96 -10 -130 -12 -156 -23 -317 -30 -443 -33 -606 -40 -885 -40 -1595 0
-708 10 -1124 40 -1640 3 -41 7 -115 10 -165 13 -222 15 -253 20 -305 3 -30 7
-89 10 -130 5 -78 14 -197 20 -265 2 -22 7 -76 10 -120 3 -44 8 -93 10 -110 2
-16 7 -64 10 -105 3 -41 7 -88 9 -105 2 -16 7 -64 11 -105 3 -41 8 -86 10
-100 2 -14 7 -56 10 -95 4 -38 8 -83 11 -100 2 -16 6 -52 9 -80 3 -27 7 -66
10 -85 3 -19 7 -53 10 -75 5 -40 32 -244 40 -300 2 -16 7 -52 10 -80 3 -27 10
-75 15 -105 6 -30 12 -73 15 -95 15 -107 23 -157 36 -228 5 -32 12 -70 14 -85
3 -25 68 -394 80 -452 5 -23 19 -101 31 -167 3 -16 12 -62 21 -103 8 -41 17
-84 19 -95 2 -11 6 -31 9 -45 3 -14 10 -50 16 -80 6 -30 17 -80 24 -110 8 -30
17 -71 20 -90 3 -19 8 -43 11 -52 3 -9 6 -25 8 -35 3 -10 12 -49 21 -88 9 -38
18 -79 21 -90 2 -11 10 -47 18 -80 8 -33 31 -127 51 -210 20 -82 38 -157 41
-165 2 -8 11 -42 20 -75 9 -33 17 -64 19 -70 32 -139 198 -721 281 -985 154
-489 436 -1291 548 -1555 7 -16 26 -61 41 -100 15 -38 33 -83 41 -100 7 -16
26 -64 42 -105 32 -78 203 -478 242 -565 13 -27 35 -77 50 -110 15 -33 49
-107 75 -165 59 -131 415 -850 488 -985 132 -247 151 -282 170 -315 11 -19 34
-62 52 -95 55 -101 141 -251 265 -460 89 -151 87 -148 175 -291 33 -54 69
-113 80 -131 120 -197 527 -808 659 -988 8 -11 55 -76 105 -145 49 -69 94
-129 98 -135 5 -5 64 -84 131 -173 68 -90 130 -171 137 -180 8 -10 69 -87 136
-172 67 -85 125 -157 128 -160 3 -3 33 -39 66 -79 50 -62 150 -181 278 -331
78 -91 155 -178 172 -195 11 -11 35 -38 54 -60 179 -209 727 -772 996 -1025
145 -136 230 -214 296 -272 35 -31 80 -71 99 -88 19 -18 82 -73 140 -122 58
-50 119 -103 135 -117 17 -15 82 -69 145 -121 63 -52 117 -97 120 -100 3 -3
23 -18 45 -35 22 -16 42 -32 45 -36 7 -9 308 -241 440 -339 63 -47 120 -89
125 -93 6 -4 42 -30 80 -58 223 -158 327 -229 336 -229 5 0 9 -4 9 -8 0 -5 12
-15 28 -23 15 -8 29 -17 32 -20 3 -3 39 -28 81 -55 97 -64 103 -67 173 -112
32 -20 92 -59 135 -86 80 -52 331 -205 391 -238 19 -11 60 -35 90 -53 30 -18
75 -44 100 -57 25 -14 63 -35 85 -48 48 -27 159 -88 270 -147 158 -85 543
-276 710 -353 275 -126 305 -140 310 -140 2 0 28 -11 57 -24 200 -91 590 -244
888 -349 165 -59 489 -167 515 -173 6 -1 84 -25 175 -52 147 -45 392 -115 445
-127 11 -2 38 -9 60 -15 22 -6 47 -12 56 -14 9 -3 33 -9 55 -15 69 -20 499
-119 584 -135 14 -2 70 -14 125 -25 117 -23 132 -26 245 -46 47 -8 95 -17 106
-19 12 -2 39 -7 60 -10 22 -4 46 -8 54 -11 8 -2 35 -6 60 -9 25 -4 56 -8 70
-10 14 -3 61 -10 105 -16 44 -7 88 -14 99 -16 10 -2 44 -6 75 -10 31 -3 64 -8
75 -10 10 -2 44 -6 75 -9 31 -4 67 -8 81 -10 24 -4 55 -8 165 -20 28 -3 66 -8
85 -10 19 -2 67 -7 105 -10 39 -4 84 -8 100 -9 17 -2 73 -6 125 -10 52 -4 109
-9 125 -11 17 -2 82 -6 145 -10 63 -3 133 -8 155 -10 262 -25 1500 -25 1845 0
30 2 109 7 175 10 66 3 147 8 180 10 97 8 185 14 265 20 41 3 95 8 120 10 25
2 77 7 115 10 78 7 109 10 205 21 36 4 76 8 90 9 39 3 163 17 180 20 15 3 123
16 170 20 14 2 44 5 68 9 23 3 61 8 85 11 23 3 53 8 67 10 14 2 45 7 70 10 25
3 70 10 100 15 30 5 75 12 100 15 73 10 172 25 220 35 25 5 61 11 80 14 19 2
60 9 90 15 30 6 69 13 85 16 17 2 40 7 51 9 12 2 38 7 58 10 19 3 55 10 78 15
24 6 57 12 73 15 42 8 349 72 410 86 28 6 58 13 68 15 10 2 26 6 35 9 9 3 28
7 42 10 48 8 367 88 570 142 113 31 212 57 220 59 32 8 290 85 385 115 55 18
120 38 145 45 25 7 79 25 120 39 41 15 82 28 91 30 47 12 480 168 709 256 659
254 1385 593 1980 928 25 13 65 35 89 48 24 13 49 28 55 33 6 4 36 22 66 38
30 17 109 63 175 103 66 40 134 80 151 90 135 78 587 375 834 548 350 247 804
601 1155 903 105 89 195 168 201 173 6 6 51 47 99 91 186 169 269 248 535 515
272 272 320 322 495 515 154 170 179 198 240 270 32 39 63 75 69 80 31 28 279
331 442 540 403 513 871 1201 1164 1710 35 61 69 117 77 126 7 9 11 18 8 21
-3 3 1 11 10 18 8 7 15 19 15 26 0 8 5 14 10 14 6 0 10 5 10 10 0 6 29 61 64
123 59 105 86 154 184 337 95 178 293 580 379 770 14 30 39 84 55 120 17 36
39 85 50 110 11 25 26 60 34 77 8 18 21 49 29 68 8 19 22 51 30 70 8 19 22 51
30 70 36 84 45 105 84 200 23 55 41 103 41 108 0 4 9 26 19 50 56 123 230 605
335 927 103 313 123 377 151 480 15 52 29 102 32 110 3 8 7 20 8 26 5 23 55
200 65 231 6 18 13 40 15 50 2 10 29 117 60 238 51 201 99 402 111 465 3 14
10 43 16 65 5 22 12 51 14 65 3 14 13 66 24 115 11 50 22 101 24 115 3 14 20
106 40 205 19 99 37 198 40 220 3 22 11 63 16 90 11 60 17 93 26 154 4 25 8
55 10 66 5 27 22 132 28 175 3 19 8 51 11 70 2 19 7 55 10 80 3 25 7 56 10 69
2 14 7 47 10 75 3 28 7 62 10 76 5 28 14 106 20 165 6 64 16 158 20 185 2 14
7 54 10 90 3 36 8 81 10 100 3 19 7 69 10 110 3 41 8 93 10 115 3 22 7 76 10
120 3 44 7 105 10 135 49 696 53 1649 10 2270 -3 41 -8 109 -11 150 -2 41 -7
91 -9 110 -2 19 -7 76 -10 125 -3 50 -8 104 -10 120 -2 17 -7 57 -10 90 -11
108 -15 150 -20 185 -3 19 -7 60 -10 90 -4 30 -8 66 -10 80 -2 14 -7 48 -10
75 -5 42 -39 283 -49 350 -2 11 -7 40 -10 65 -4 25 -11 70 -16 100 -5 30 -12
71 -15 90 -3 19 -10 58 -15 85 -6 28 -12 64 -14 80 -3 17 -9 50 -14 75 -6 25
-13 61 -16 80 -3 19 -8 46 -11 60 -9 48 -25 125 -29 150 -3 14 -8 36 -11 50
-5 23 -13 61 -35 165 -9 39 -57 245 -65 275 -7 27 -36 145 -40 164 -15 66 -49
195 -56 214 -5 12 -11 34 -14 49 -2 15 -25 99 -50 187 -206 717 -485 1475
-772 2096 -19 41 -53 116 -76 165 -59 130 -323 649 -401 789 -36 66 -66 121
-66 122 0 2 -38 69 -85 149 -47 79 -85 147 -85 150 0 3 -8 18 -19 33 -10 15
-58 92 -106 172 -85 139 -156 251 -234 370 -20 30 -40 62 -46 72 -24 42 -245
361 -344 498 -106 147 -378 508 -392 520 -3 3 -32 39 -64 80 -78 98 -72 91
-98 121 -12 15 -38 46 -57 70 -129 160 -370 434 -620 703 -88 95 -556 564
-650 651 -42 39 -105 97 -140 131 -36 33 -126 113 -200 178 -74 66 -151 133
-170 150 -126 112 -575 476 -660 536 -19 13 -43 32 -53 41 -42 39 -434 322
-617 445 -63 43 -119 82 -125 87 -17 15 -355 233 -455 294 -52 32 -136 84
-187 115 -51 32 -95 58 -99 58 -3 0 -18 8 -32 19 -147 103 -974 541 -1342 711
-63 29 -142 65 -175 80 -136 63 -197 90 -201 90 -3 0 -29 11 -57 25 -96 45
-330 142 -557 230 -124 48 -234 91 -245 95 -11 5 -49 19 -85 31 -36 12 -70 26
-75 30 -6 4 -22 10 -37 13 -14 2 -35 9 -45 14 -81 43 -1004 332 -1298 407 -49
13 -117 31 -150 40 -33 9 -67 18 -75 20 -8 2 -100 24 -205 50 -104 26 -201 49
-215 51 -14 3 -81 18 -150 34 -69 16 -161 36 -205 44 -44 9 -91 19 -105 21
-88 19 -128 27 -150 31 -14 3 -83 16 -155 29 -71 13 -143 26 -160 29 -16 3
-97 16 -180 30 -201 33 -229 38 -325 51 -72 10 -116 16 -145 21 -16 2 -43 6
-60 8 -16 2 -86 11 -155 20 -193 25 -212 27 -255 32 -63 6 -236 24 -285 29
-25 3 -70 7 -100 10 -150 13 -178 16 -220 20 -25 3 -88 7 -140 11 -52 3 -115
7 -140 9 -25 2 -101 7 -170 10 -69 4 -152 8 -185 10 -272 15 -627 21 -960 15
l-130 -2 -3 4861 c-2 3879 -5 4861 -15 4860 -6 -1 -34 -7 -62 -14z"/>
</g>
</svg>
