<?xml version="1.0" standalone="no"?>
<!DOCTYPE svg PUBLIC "-//W3C//DTD SVG 20010904//EN"
 "http://www.w3.org/TR/2001/REC-SVG-20010904/DTD/svg10.dtd">
<svg version="1.0" xmlns="http://www.w3.org/2000/svg"
 width="1052.000000pt" height="1052.000000pt" viewBox="0 0 1052.000000 1052.000000"
 preserveAspectRatio="xMidYMid meet">
<metadata>
Created by potrace 1.11, written by Peter Selinger 2001-2013
</metadata>
<g transform="translate(0.000000,1052.000000) scale(0.100000,-0.100000)"
fill="#000000" stroke="none">
<path d="M4890 10514 c-649 -44 -1305 -234 -1857 -540 -839 -464 -1463 -1161
-1779 -1986 -108 -283 -196 -697 -209 -985 -3 -65 -11 -173 -17 -240 l-11
-122 -51 -11 c-118 -24 -477 -89 -525 -96 l-51 -7 2 -335 3 -336 70 -22 c108
-33 200 -81 257 -133 88 -81 113 -131 274 -551 76 -200 232 -528 320 -675 l61
-100 12 -130 c25 -255 72 -465 171 -757 238 -704 706 -1325 1336 -1775 389
-278 833 -479 1344 -608 330 -84 569 -110 995 -109 421 0 642 26 958 112 l103
28 140 -96 c76 -53 272 -188 434 -300 162 -111 331 -228 375 -260 44 -31 161
-112 260 -180 99 -68 230 -158 290 -200 128 -89 151 -100 208 -100 80 0 140
48 157 127 11 47 -14 178 -130 673 -39 168 -82 358 -95 423 -14 65 -57 256
-96 424 -59 255 -69 307 -58 318 8 7 75 66 149 132 163 145 355 341 474 483
181 217 360 516 464 775 92 228 191 612 232 897 7 45 24 83 86 185 117 193
272 518 379 798 53 138 113 282 133 320 71 137 186 225 367 280 l70 22 0 333
0 334 -35 7 c-19 3 -174 33 -345 65 -170 31 -311 58 -313 59 -9 6 -24 144 -32
300 -20 363 -85 692 -195 985 -93 250 -157 385 -287 605 -296 502 -751 962
-1288 1301 -535 338 -1206 573 -1855 649 -133 16 -750 29 -895 19z m-1104
-879 c49 -32 20 -97 -61 -138 -90 -45 -257 -61 -321 -31 -103 49 1 148 196
188 46 9 161 -3 186 -19z m-573 -273 c-63 -103 -228 -198 -362 -209 -42 -3
-71 -2 -74 5 -4 5 96 72 226 150 204 124 232 138 235 120 2 -11 -9 -41 -25
-66z m847 50 c28 -14 35 -23 35 -46 0 -42 -47 -68 -133 -73 -51 -3 -75 0 -102
14 -45 23 -53 63 -17 86 58 38 161 47 217 19z m-350 -102 c37 -26 36 -47 -4
-85 -48 -45 -131 -75 -207 -75 -78 0 -119 20 -119 59 0 91 241 164 330 101z
m-524 -205 c17 -13 8 -14 -90 -15 -60 0 -107 2 -105 5 10 9 84 23 130 24 26 1
53 -5 65 -14z m-471 -3207 c28 -5 88 -28 135 -50 69 -33 100 -56 165 -122 92
-93 136 -169 165 -282 117 -458 -300 -880 -754 -764 -127 32 -201 74 -291 165
-141 140 -191 269 -182 475 5 133 27 205 87 299 147 228 407 335 675 279z
m5260 0 c28 -5 88 -28 135 -50 109 -52 228 -167 278 -270 94 -192 94 -388 1
-577 -126 -255 -427 -392 -703 -321 -125 32 -201 74 -292 165 -127 125 -187
269 -187 445 0 229 130 445 328 546 96 50 134 63 217 73 69 9 146 5 223 -11z
m-1691 -2295 c-30 -137 -78 -279 -117 -348 -26 -45 -13 -43 -182 -25 -55 5
-241 15 -412 22 -345 12 -821 0 -1032 -27 -63 -8 -117 -12 -121 -10 -26 16
-105 222 -133 348 l-15 67 1009 0 1009 0 -6 -27z"/>
</g>
</svg>
