<?xml version="1.0" standalone="no"?>
<!DOCTYPE svg PUBLIC "-//W3C//DTD SVG 20010904//EN"
 "http://www.w3.org/TR/2001/REC-SVG-20010904/DTD/svg10.dtd">
<svg version="1.0" xmlns="http://www.w3.org/2000/svg"
 width="700.000000pt" height="700.000000pt" viewBox="0 0 700.000000 700.000000"
 preserveAspectRatio="xMidYMid meet">
<metadata>
Created by potrace 1.11, written by Peter Selinger 2001-2013
</metadata>
<g transform="translate(0.000000,700.000000) scale(0.100000,-0.100000)"
fill="#000000" stroke="none">
<path d="M3534 6909 c-217 -28 -399 -194 -453 -413 -12 -50 -16 -178 -6 -229
36 -183 199 -358 385 -411 182 -52 392 3 525 138 33 34 69 79 80 100 19 36 21
37 60 31 22 -3 58 -9 80 -12 146 -19 372 -81 545 -148 363 -142 749 -428 972
-722 l40 -52 -27 -67 c-68 -171 -34 -385 85 -527 105 -127 243 -196 405 -201
252 -9 489 179 541 429 25 120 0 276 -63 383 -14 24 -55 72 -89 107 -99 99
-230 155 -364 155 l-66 0 -39 52 c-22 28 -44 56 -50 62 -6 6 -18 22 -27 35
-31 45 -152 176 -257 280 -212 207 -492 392 -769 508 -221 92 -512 172 -722
199 -25 3 -52 7 -60 9 -8 2 -44 7 -80 10 -36 3 -73 7 -82 9 -9 1 -38 30 -64
65 -116 154 -307 235 -500 210z"/>
<path d="M1946 6532 c-144 -36 -292 -154 -353 -282 -48 -100 -58 -147 -55
-264 l2 -79 -104 -98 c-400 -379 -720 -912 -909 -1514 -23 -72 -73 -259 -83
-310 -29 -147 -38 -203 -59 -345 -4 -26 -18 -176 -18 -197 0 -7 -25 -27 -55
-44 -115 -65 -222 -207 -252 -336 -44 -191 7 -371 145 -509 253 -253 657 -200
844 110 107 179 92 425 -37 595 -29 39 -93 99 -128 120 -21 14 -22 20 -18 75
7 104 21 237 30 286 2 14 7 41 10 60 3 19 12 67 20 105 8 39 17 81 20 95 20
100 101 348 151 460 168 380 370 667 667 949 33 31 68 64 78 74 22 21 39 21
100 3 60 -19 219 -18 278 1 100 32 154 65 234 141 211 202 212 546 3 756 -35
34 -88 77 -119 94 -111 64 -268 85 -392 54z"/>
<path d="M3218 5230 c-130 -24 -223 -54 -343 -109 -96 -45 -129 -62 -187 -102
-15 -11 -30 -19 -33 -19 -17 0 -211 -158 -290 -236 -131 -129 -226 -251 -353
-453 -36 -59 -114 -215 -157 -316 -195 -457 -247 -911 -155 -1335 33 -151 77
-290 112 -353 7 -12 12 -24 13 -27 0 -3 19 -39 42 -81 121 -220 326 -428 523
-531 92 -48 219 -90 305 -103 23 -3 52 -8 65 -10 33 -7 239 -7 270 0 14 3 50
10 81 15 229 42 491 200 730 442 54 55 99 94 100 87 0 -8 2 -25 4 -39 3 -14 7
-41 10 -60 11 -74 17 -96 46 -165 86 -208 255 -290 600 -292 242 -2 418 37
644 142 398 184 869 648 1095 1078 35 66 36 67 100 86 146 45 265 145 336 283
61 117 68 301 19 426 -86 214 -292 354 -515 347 -41 -2 -95 -8 -120 -15 -65
-17 -160 -64 -195 -95 -16 -15 -37 -32 -45 -39 -28 -20 -87 -100 -113 -151
-35 -71 -49 -128 -52 -218 -5 -125 26 -228 99 -334 l36 -52 -36 -63 c-98 -173
-231 -346 -361 -467 -141 -133 -393 -294 -531 -340 -153 -52 -284 -10 -348
111 -28 52 -20 148 31 393 25 121 48 231 51 245 3 14 21 97 40 185 54 249 93
428 98 455 3 14 23 111 46 215 23 105 44 201 46 215 3 14 7 33 10 42 3 10 7
30 10 44 3 14 57 267 120 562 63 294 113 540 111 546 -3 8 -95 11 -298 9 -162
0 -299 -1 -304 -2 -6 -1 -11 -9 -12 -18 -1 -10 -9 -52 -18 -93 -9 -41 -19 -86
-21 -100 -3 -14 -10 -45 -15 -70 -15 -63 -18 -79 -24 -123 -4 -22 -11 -51 -16
-66 -6 -14 -10 -27 -10 -28 10 -35 -13 -17 -49 37 -124 189 -346 384 -525 462
-203 89 -448 118 -667 78z m402 -499 c259 -49 465 -237 569 -522 35 -97 43
-132 61 -279 11 -86 9 -349 -3 -405 -3 -11 -8 -42 -11 -70 -4 -27 -12 -68 -17
-90 -5 -22 -12 -51 -15 -65 -10 -49 -57 -196 -86 -269 -161 -406 -391 -691
-702 -869 -269 -155 -556 -149 -779 17 -152 112 -278 327 -323 551 -35 172
-36 475 -3 645 6 28 12 66 15 85 3 19 16 76 30 126 123 454 426 891 735 1062
69 38 188 79 261 90 71 11 189 7 268 -7z"/>
<path d="M997 1985 c-100 -29 -168 -69 -241 -140 -150 -149 -199 -366 -130
-577 20 -62 81 -155 135 -207 112 -107 227 -150 395 -148 l110 1 85 -71 c267
-224 585 -402 938 -524 207 -72 426 -127 666 -168 56 -10 85 -14 195 -27 25
-3 58 -7 75 -9 16 -2 74 -7 130 -10 55 -4 111 -9 125 -11 31 -5 571 -5 620 0
19 3 78 7 130 11 91 6 146 11 200 20 62 9 108 16 145 20 22 3 85 14 140 25 55
11 109 22 121 24 66 13 276 74 379 111 346 123 670 310 982 567 l71 59 42 -11
c53 -14 179 -11 245 6 130 34 259 133 327 250 56 97 76 180 72 294 -5 146 -53
252 -165 361 -64 64 -159 122 -219 134 -169 36 -269 26 -398 -37 -79 -39 -187
-145 -230 -226 -58 -109 -74 -248 -47 -397 6 -28 0 -34 -72 -91 -94 -73 -257
-181 -348 -229 -177 -94 -270 -138 -400 -187 -99 -37 -318 -104 -366 -112 -20
-3 -42 -8 -50 -10 -20 -8 -59 -15 -189 -35 -250 -40 -339 -46 -675 -46 -273 0
-385 5 -515 21 -25 3 -58 7 -75 9 -45 5 -127 17 -150 21 -66 12 -143 27 -164
30 -66 13 -298 77 -387 107 -305 104 -587 261 -819 454 l-38 32 13 58 c61 276
-81 546 -340 644 -103 39 -220 44 -323 14z"/>
</g>
</svg>
