<?xml version="1.0" standalone="no"?>
<!DOCTYPE svg PUBLIC "-//W3C//DTD SVG 20010904//EN"
 "http://www.w3.org/TR/2001/REC-SVG-20010904/DTD/svg10.dtd">
<svg version="1.0" xmlns="http://www.w3.org/2000/svg"
 width="1128.000000pt" height="1128.000000pt" viewBox="0 0 1128.000000 1128.000000"
 preserveAspectRatio="xMidYMid meet">
<metadata>
Created by potrace 1.11, written by Peter Selinger 2001-2013
</metadata>
<g transform="translate(0.000000,1128.000000) scale(0.100000,-0.100000)"
fill="#000000" stroke="none">
<path d="M4860 11072 c-156 -9 -351 -81 -475 -175 -65 -49 -165 -157 -210
-227 -44 -68 -98 -184 -109 -238 -9 -38 -18 -45 -86 -67 -68 -22 -354 -133
-435 -170 -78 -35 -347 -169 -405 -202 -586 -333 -1083 -743 -1480 -1223 -34
-41 -69 -84 -79 -95 -82 -98 -373 -518 -405 -585 -4 -8 -12 -24 -19 -35 -59
-97 -178 -327 -244 -470 -42 -92 -131 -306 -137 -330 -2 -5 -6 -17 -9 -25 -4
-8 -22 -58 -40 -110 l-32 -95 -70 -22 c-314 -101 -536 -344 -605 -661 -25
-114 -21 -305 9 -415 41 -153 119 -287 235 -402 66 -65 155 -135 172 -135 4 0
15 -6 23 -14 36 -30 188 -82 296 -101 110 -19 330 2 418 40 18 7 52 21 77 31
106 44 252 158 328 256 81 105 153 248 168 334 3 16 9 47 14 68 17 75 10 271
-12 359 -24 100 -91 243 -147 317 -26 33 -39 60 -35 70 3 8 15 42 26 75 150
450 451 984 761 1348 23 28 58 68 77 91 80 95 355 362 476 462 391 324 807
565 1272 735 138 51 166 57 178 38 25 -41 249 -155 340 -174 257 -52 480 -18
686 106 164 99 307 275 372 457 25 71 28 83 42 167 19 118 4 287 -37 406 -99
292 -319 500 -619 583 -61 17 -211 32 -280 28z"/>
<path d="M7210 10819 c-25 -4 -64 -9 -87 -12 -98 -14 -245 -78 -347 -151 -528
-378 -483 -1174 84 -1494 55 -31 169 -77 212 -86 13 -3 46 -9 73 -15 28 -5
104 -8 170 -7 142 3 238 26 364 86 l84 41 116 -70 c304 -183 583 -401 831
-651 132 -134 151 -154 245 -266 169 -199 341 -449 475 -689 30 -53 160 -313
160 -319 0 -3 11 -29 24 -58 43 -98 97 -236 121 -315 12 -41 12 -43 -17 -75
-78 -85 -161 -243 -188 -358 -7 -30 -17 -71 -21 -90 -14 -54 -4 -277 15 -346
93 -347 365 -600 711 -662 51 -9 236 -9 295 0 130 20 296 93 400 176 167 134
271 298 320 504 37 158 25 356 -29 493 -58 143 -105 218 -202 318 -102 104
-193 164 -319 213 l-55 21 -42 119 c-219 627 -514 1148 -943 1664 -169 204
-447 475 -718 702 -140 116 -393 291 -606 418 -87 53 -160 102 -161 110 -1 8
-5 35 -8 60 -3 25 -10 57 -16 73 -6 15 -9 27 -7 27 7 0 -52 148 -70 177 -61
99 -91 138 -151 200 -146 149 -333 240 -533 258 -107 10 -136 11 -180 4z"/>
<path d="M3389 6124 c-307 -48 -542 -276 -615 -595 -10 -44 -11 -196 -3 -255
42 -277 245 -514 514 -598 77 -24 131 -31 250 -30 96 1 122 5 207 34 309 103
511 380 511 700 0 58 -3 116 -6 130 -29 136 -66 223 -131 313 -166 231 -444
346 -727 301z"/>
<path d="M5688 6135 c-2 -1 -28 -5 -58 -8 -264 -28 -515 -235 -602 -498 -120
-358 41 -746 377 -909 119 -58 190 -74 330 -73 141 0 212 16 331 74 194 95
333 266 390 479 20 72 23 104 20 210 -3 80 -10 145 -21 180 -97 316 -363 526
-684 543 -44 3 -82 3 -83 2z"/>
<path d="M7645 6125 c-369 -62 -626 -366 -626 -740 -1 -328 201 -600 526 -711
71 -24 95 -28 210 -28 177 0 302 37 434 127 65 44 171 156 210 220 94 159 135
376 99 532 -6 22 -12 51 -14 65 -3 13 -19 56 -36 95 -138 314 -469 496 -803
440z"/>
<path d="M1058 4654 c-322 -57 -585 -289 -688 -605 -26 -80 -31 -110 -37 -231
-20 -389 216 -737 592 -871 39 -14 73 -25 78 -25 4 0 25 -3 46 -7 38 -6 42
-11 112 -128 342 -577 796 -1093 1300 -1480 63 -48 120 -92 127 -98 44 -36
309 -210 423 -277 193 -114 324 -180 594 -303 189 -86 629 -232 823 -274 9 -2
67 -15 127 -29 61 -14 166 -34 235 -45 137 -22 165 -26 328 -46 18 -2 78 -7
135 -10 56 -4 118 -9 137 -11 42 -4 483 -4 555 1 101 6 239 17 256 20 9 2 50
7 91 10 40 4 75 8 78 10 3 2 32 6 65 10 33 3 148 24 255 45 830 168 1585 521
2246 1052 165 133 214 177 410 373 287 286 459 496 673 817 49 73 96 147 105
163 9 17 21 37 26 45 6 8 27 44 49 80 37 63 40 65 100 81 33 9 61 15 61 13 0
-2 35 11 78 30 230 96 411 284 494 508 88 241 73 510 -39 721 -175 328 -536
511 -913 462 -383 -50 -701 -371 -751 -760 -10 -73 -7 -212 6 -275 3 -14 7
-34 9 -45 16 -78 72 -207 119 -275 l24 -34 -20 -36 c-55 -95 -239 -367 -282
-417 -5 -6 -21 -26 -35 -44 -26 -34 -126 -155 -164 -198 -11 -13 -91 -95 -176
-181 -237 -239 -420 -389 -704 -575 -79 -52 -147 -95 -149 -95 -3 0 -36 -19
-73 -41 -38 -23 -139 -76 -225 -118 -152 -74 -171 -83 -254 -116 -22 -9 -53
-22 -70 -30 -62 -27 -324 -114 -440 -145 -124 -33 -139 -37 -190 -45 -16 -3
-43 -10 -60 -15 -16 -4 -59 -13 -95 -19 -36 -6 -74 -13 -85 -15 -55 -10 -95
-16 -150 -22 -33 -3 -69 -8 -80 -10 -137 -26 -787 -26 -945 0 -14 3 -50 7 -80
10 -104 12 -319 51 -450 82 -696 167 -1366 522 -1893 1004 -300 275 -579 613
-777 942 l-49 81 23 36 c65 102 119 244 133 348 4 32 7 103 6 158 -4 345 -228
667 -555 798 -147 59 -335 79 -490 51z"/>
</g>
</svg>
