<?xml version="1.0" standalone="no"?>
<!DOCTYPE svg PUBLIC "-//W3C//DTD SVG 20010904//EN"
 "http://www.w3.org/TR/2001/REC-SVG-20010904/DTD/svg10.dtd">
<svg version="1.0" xmlns="http://www.w3.org/2000/svg"
 width="706.000000pt" height="706.000000pt" viewBox="0 0 706.000000 706.000000"
 preserveAspectRatio="xMidYMid meet">
<metadata>
Created by potrace 1.11, written by Peter Selinger 2001-2013
</metadata>
<g transform="translate(0.000000,706.000000) scale(0.100000,-0.100000)"
fill="#000000" stroke="none">
<path d="M2447 6644 c-1 -1 -60 -4 -132 -8 -71 -3 -141 -8 -155 -11 -13 -2
-42 -7 -65 -10 -22 -3 -51 -8 -65 -10 -14 -3 -34 -7 -45 -9 -198 -38 -417
-114 -610 -213 -78 -40 -237 -133 -245 -143 -3 -4 -25 -20 -50 -35 -25 -15
-47 -31 -50 -34 -3 -3 -38 -33 -79 -65 -88 -70 -224 -204 -307 -301 -71 -84
-184 -239 -184 -253 0 -6 -4 -12 -8 -14 -16 -7 -127 -210 -173 -318 -61 -143
-117 -316 -134 -411 -3 -18 -8 -35 -10 -39 -3 -4 -6 -22 -9 -41 -2 -19 -7 -45
-10 -59 -35 -146 -41 -532 -11 -725 3 -16 7 -43 9 -60 8 -52 37 -189 43 -205
3 -8 7 -22 9 -30 3 -18 43 -148 54 -175 5 -11 16 -40 25 -65 9 -25 27 -67 40
-95 12 -27 29 -65 36 -82 8 -18 17 -33 21 -33 5 0 8 -9 8 -19 0 -11 3 -21 8
-23 4 -1 15 -19 24 -38 20 -39 22 -43 92 -150 27 -41 53 -76 57 -78 5 -2 9 -8
9 -13 0 -32 308 -362 405 -434 22 -17 48 -37 58 -46 10 -9 43 -34 75 -55 31
-21 59 -42 62 -45 3 -3 19 -14 35 -23 17 -10 53 -30 80 -47 87 -51 201 -107
287 -143 112 -46 261 -96 285 -96 11 0 23 -3 27 -7 3 -4 12 -8 19 -9 7 -1 26
-5 42 -9 17 -4 52 -11 78 -15 26 -5 56 -11 65 -14 9 -3 42 -8 72 -11 30 -3 69
-8 85 -11 17 -3 613 -7 1325 -9 712 -2 1295 -4 1295 -5 0 -1 14 -3 30 -5 17
-2 46 -6 65 -9 19 -4 44 -8 55 -10 71 -13 94 -20 149 -45 76 -36 181 -111 334
-238 64 -54 153 -127 197 -163 44 -35 85 -69 91 -75 6 -5 30 -26 54 -45 24
-19 49 -41 57 -48 7 -7 13 -10 13 -6 0 4 6 1 13 -8 6 -9 46 -44 87 -77 41 -33
84 -69 95 -78 11 -10 56 -47 100 -82 44 -36 88 -72 97 -80 9 -9 23 -21 30 -26
7 -6 65 -53 128 -105 63 -52 123 -102 133 -110 10 -8 28 -23 40 -34 12 -10 38
-30 57 -45 19 -14 46 -36 60 -49 43 -41 144 -109 176 -119 42 -15 60 2 71 63
10 57 9 3912 -2 3994 -3 30 -8 66 -10 80 -13 104 -61 333 -75 360 -4 8 -8 17
-7 20 4 37 -149 394 -213 495 -11 17 -27 44 -36 60 -30 55 -137 205 -146 205
-4 0 -8 5 -8 11 0 6 -6 16 -12 23 -7 7 -38 42 -68 77 -88 102 -272 279 -290
279 -4 0 -15 9 -25 20 -30 33 -241 172 -345 228 -144 77 -362 167 -452 188 -5
1 -9 2 -10 4 -2 1 -10 3 -18 5 -8 1 -46 10 -85 19 -65 16 -85 20 -140 32 -11
3 -40 7 -65 9 -25 3 -58 7 -75 10 -82 14 -349 17 -1348 19 -599 0 -1089 0
-1090 0z m1181 -1085 c87 -28 168 -105 192 -181 12 -38 18 -219 20 -683 0 -5
-1 -187 -3 -403 -1 -215 2 -392 6 -392 5 0 5 -6 1 -12 -11 -17 -11 -468 -1
-468 5 0 5 -5 1 -12 -4 -7 -8 -42 -9 -78 -2 -78 -11 -113 -40 -160 -129 -203
-448 -186 -548 28 l-22 47 0 1050 c0 979 1 1053 18 1096 26 68 110 145 182
166 71 21 143 22 203 2z m-1308 -485 c42 -13 68 -31 110 -73 91 -92 87 -65 87
-696 0 -623 1 -611 -73 -694 -65 -72 -141 -104 -247 -103 -55 0 -78 6 -133 33
-57 29 -108 80 -136 138 l-23 46 -1 560 c-2 617 -3 609 60 692 37 50 128 103
189 110 23 2 43 6 45 7 6 7 69 -4 122 -20z m2652 -5 c61 -23 128 -86 157 -148
l26 -56 0 -545 c1 -306 -3 -565 -8 -590 -31 -145 -198 -248 -354 -219 -105 20
-194 89 -231 180 -22 51 -22 56 -20 623 l3 571 27 46 c84 142 240 196 400 138z"/>
</g>
</svg>
