<svg xmlns="http://www.w3.org/2000/svg">
  <symbol id="star" viewBox="0 0 26 25">
    <path d="M13.0004 20.5497L19.0525 24.2102C20.1608 24.881 21.517 23.8893 21.2254 22.6352L19.6212 15.7518L24.9733 11.1143C25.9504 10.2685 25.4254 8.66432 24.142 8.56224L17.0983 7.96432L14.342 1.46016C13.8462 0.278906 12.1545 0.278906 11.6587 1.46016L8.90246 7.94974L1.85871 8.54766C0.575381 8.64974 0.0503805 10.2539 1.02746 11.0997L6.37955 15.7372L4.77538 22.6206C4.48371 23.8747 5.83996 24.8664 6.9483 24.1956L13.0004 20.5497Z" fill="#B3B3B3"/>
  </symbol>
  <symbol id="marker" viewBox="0 0 11 15">
    <g fill="#787474" fill-rule="nonzero">
      <path d="M5.5 0C2.46718421 0 0 2.46718421 0 5.5c0 2.95465789 5.06868421 8.6370263 5.28463158 8.8775789.05471053.061079.13315789.0961053.21536842.0961053s.16065789-.0350263.21536842-.0961053C5.93102632 14.1370263 11 8.45465789 11 5.5 11 2.46718421 8.53281579 0 5.5 0zm0 13.7447895C4.52505263 12.6184474.57894737 7.90957895.57894737 5.5.57894737 2.78647368 2.78647368.57894737 5.5.57894737S10.4210526 2.78647368 10.4210526 5.5c0 2.40842105-3.94610523 7.1184474-4.9210526 8.2447895z" stroke="#787474" stroke-width="0.3"/>
      <path d="M5.5 2.89473684c-1.43636842 0-2.60526316 1.16889474-2.60526316 2.60526316 0 1.43636842 1.16889474 2.60526316 2.60526316 2.60526316 1.43665789 0 2.60526316-1.16889474 2.60526316-2.60526316 0-1.43636842-1.16860527-2.60526316-2.60526316-2.60526316zm0 4.63157895c-1.11736842 0-2.02631579-.90894737-2.02631579-2.02631579S4.38263158 3.47368421 5.5 3.47368421c1.11707895 0 2.02631579.90894737 2.02631579 2.02631579S6.61707895 7.52631579 5.5 7.52631579z" stroke="#787474" stroke-width="0.3"/>
    </g>
  </symbol>
  <symbol id="upload" viewBox="0 0 16 18">
    <path fill="#787474" fill-rule="nonzero" d="M2.79801641 16.79165738l.01279906.00769045c2.7142501 1.62062499 4.9765631.04219128 6.1885999-1.97497667.3270023-.54422324 1.55448623-2.52445363 1.55448623-2.52445363l-.0042666 4.30129998c.00036555.73061069-.59374364 1.32471878-1.32435433 1.32471878-2.5510617-.0199961-5.71546061-.03875874-8.13250061-.00254141-.73061069.01095841-1.32471878-.59314917-1.32471878-1.32375986V5.74772318c0-.73061068.59410809-1.32471878 1.32471878-1.32471878h3.00465502v-.992.001h-.992v-.992h-.992V.992h-.992V0h2.976c.54735 0 .992.44465.992.992v10.03689038c0 .39368646.3190526.71273906.7127391.71273906s.7127391-.3190526.7127391-.71273906V3.49869298l2.0600734 2.0600734c.39272477.39272477 1.02981083.39272477 1.4225356 0 .3927248-.39272477.3927248-1.02981083 0-1.4225356L8.40121378.29321049C8.00848901-.09951427 7.37140295-.09951427 6.97867818.29321049L2.79801641 4.47387226c-.39272477.39272477-.39272477 1.02981083 0 1.4225356.39272477.39272477 1.02981083.39272477 1.4225356 0l.98575774-.98575775V15.4766s.92173895 1.72008702 1.59147888 2.31954607"/>
  </symbol>
  <symbol id="envelope-grey" viewBox="0 0 512 311">
    <path d="M512 26c-.021-14.449-12.555-26-27-26L26 1c-7 .009-13.053 2.04-18 7a27.439 27.439 0 0 0-8 19v258c.009 7.005 3.04 13.053 8 18a27.514 27.514 0 0 0 19 8l459-1a25.874 25.874 0 0 0 26-26zm-55 0L256 166 55 27zM304.486 158.416L460 284l-408 1 155.333-126.584c5.722-4.439-11.276-25.438-17-21L27 271 26 39l223 153c2.244 1.551 4.394 3 7 3s5.751-1.437 8-3L485 38l1 233-165.514-133.584c-5.719-4.437-21.724 16.562-16 21z" fill="#6b6767"/>
  </symbol>
  <symbol id="envelope-red" viewBox="0 0 512 311">
    <path d="M512 26c-.021-14.449-12.555-26-27-26L26 1c-7 .009-13.053 2.04-18 7a27.439 27.439 0 0 0-8 19v258c.009 7.005 3.04 13.053 8 18a27.514 27.514 0 0 0 19 8l459-1a25.874 25.874 0 0 0 26-26zm-55 0L256 166 55 27zM304.486 158.416L460 284l-408 1 155.333-126.584c5.722-4.439-11.276-25.438-17-21L27 271 26 39l223 153c2.244 1.551 4.394 3 7 3s5.751-1.437 8-3L485 38l1 233-165.514-133.584c-5.719-4.437-21.724 16.562-16 21z" fill="#D64242"/>
  </symbol>
  <symbol id="close-white" viewBox="0 0 24 24">
    <path d="M19 6.41L17.59 5 12 10.59 6.41 5 5 6.41 10.59 12 5 17.59 6.41 19 12 13.41 17.59 19 19 17.59 13.41 12z" fill="#FFFFFF"/>
  </symbol>
  <symbol id="close-dark" viewBox="0 0 20 20">
    <path d="M15.2501 4.75831C14.9251 4.43331 14.4001 4.43331 14.0751 4.75831L10.0001 8.82498L5.9251 4.74998C5.6001 4.42498 5.0751 4.42498 4.7501 4.74998C4.4251 5.07498 4.4251 5.59998 4.7501 5.92498L8.8251 9.99998L4.7501 14.075C4.4251 14.4 4.4251 14.925 4.7501 15.25C5.0751 15.575 5.6001 15.575 5.9251 15.25L10.0001 11.175L14.0751 15.25C14.4001 15.575 14.9251 15.575 15.2501 15.25C15.5751 14.925 15.5751 14.4 15.2501 14.075L11.1751 9.99998L15.2501 5.92498C15.5668 5.60831 15.5668 5.07498 15.2501 4.75831V4.75831Z" fill="#1C1C1C"/>
  </symbol>
  <symbol id="error" viewBox="0 0 12 12">
    <path d="M6 1C3.24 1 1 3.24 1 6C1 8.76 3.24 11 6 11C8.76 11 11 8.76 11 6C11 3.24 8.76 1 6 1ZM6 8.5C5.725 8.5 5.5 8.275 5.5 8V6C5.5 5.725 5.725 5.5 6 5.5C6.275 5.5 6.5 5.725 6.5 6V8C6.5 8.275 6.275 8.5 6 8.5ZM6.5 4.5H5.5V3.5H6.5V4.5Z" fill="#D64242"/>
  </symbol>
</svg>
